<svg width="879" height="1053" viewBox="0 0 879 1053" fill="none" xmlns="http://www.w3.org/2000/svg">
<rect x="78.9258" y="214.245" width="720.641" height="711.415" rx="355.708" fill="#00F9BE"/>
<mask id="mask0" style="mask-type:alpha" maskUnits="userSpaceOnUse" x="78" y="214" width="722" height="712">
<rect x="78.9258" y="214.556" width="720.641" height="710.792" rx="355.396" fill="#00E4AF"/>
</mask>
<g mask="url(#mask0)">
<path d="M744.817 383.861C668.432 404.259 701.688 525.414 625.303 545.812C548.918 566.209 587.577 707.053 514.248 726.634C437.863 747.032 319.551 492.546 243.166 512.943C166.781 533.341 248.514 683.206 168.147 691.18C87.7812 699.153 110.309 759.359 38.9847 778.405" stroke="#020D1E"/>
<path d="M700.653 303.523C624.268 323.921 657.524 445.076 581.139 465.474C504.754 485.871 543.413 626.714 470.084 646.296C393.698 666.694 275.387 412.208 199.002 432.605C122.617 453.003 204.35 602.868 123.983 610.841C43.6171 618.815 66.1452 679.021 -5.1794 698.067" stroke="#020D1E"/>
<path d="M793.13 435.605C716.745 456.003 750 577.158 673.615 597.556C597.23 617.953 635.89 758.797 562.56 778.378C486.175 798.776 367.864 544.29 291.479 564.687C215.094 585.085 296.826 734.95 216.46 742.924C136.094 750.897 158.622 811.103 87.2972 830.149" stroke="#020D1E"/>
</g>
<rect width="878.506" height="1052.77"/>
</svg>
