<svg width="690" height="631" viewBox="0 0 690 631" fill="none" xmlns="http://www.w3.org/2000/svg">
<path d="M325.518 366.311C322.75 350.853 326.072 335.259 334.861 322.406C343.65 309.552 356.861 300.967 372.061 298.244C387.261 295.522 402.63 298.988 415.334 307.992C428.038 316.996 436.566 330.466 439.335 345.924C442.103 361.382 438.781 376.975 429.992 389.829C421.203 402.683 407.993 411.268 392.793 413.99C377.593 416.713 362.223 413.247 349.519 404.243C336.815 395.239 328.287 381.768 325.518 366.311ZM435.462 346.618C430.136 316.884 402.004 296.946 372.766 302.183C343.528 307.42 324.065 335.883 329.391 365.617C334.717 395.351 362.849 415.289 392.087 410.052C421.325 404.815 440.788 376.352 435.462 346.618Z" fill="#CBF5E7"/>
<path d="M313.142 557.568L318.638 541.189L302.482 535.51L296.987 551.889L313.142 557.568Z" fill="#23E0A2"/>
<path d="M292.508 554.619C292.501 554.579 292.51 554.517 292.522 554.474L298.023 538.104C298.052 538.038 298.099 537.968 298.173 537.935C298.247 537.901 298.324 537.887 298.389 537.916L314.536 543.601C314.685 543.655 314.775 543.822 314.722 543.974L309.221 560.344C309.193 560.41 309.146 560.479 309.072 560.513C308.998 560.546 308.92 560.56 308.855 560.531L292.709 554.847C292.605 554.825 292.526 554.717 292.508 554.619ZM298.49 538.589L293.188 554.395L308.777 559.874L314.08 544.068L298.49 538.589Z" fill="#231F20"/>
<path d="M509.49 465.09L518.065 438.128L491.474 429.258L482.898 456.221L509.49 465.09Z" fill="#23E0A2"/>
<path d="M489.745 424.155C489.792 424.086 489.875 424.056 489.955 424.087L516.551 432.958C516.659 432.984 516.712 433.11 516.67 433.208L508.093 460.176C508.068 460.286 507.944 460.338 507.848 460.295L481.251 451.424C481.143 451.398 481.091 451.272 481.132 451.174L489.709 424.206C489.724 424.204 489.733 424.172 489.745 424.155ZM516.254 433.283L490.033 424.525L481.583 451.124L507.815 459.864L516.254 433.283Z" fill="#231F20"/>
<path d="M341.388 363.803C339.336 352.344 341.798 340.784 348.314 331.255C354.829 321.727 364.623 315.362 375.891 313.344C387.159 311.326 398.553 313.895 407.97 320.57C417.388 327.245 423.71 337.231 425.763 348.69C427.815 360.149 425.352 371.709 418.837 381.238C412.321 390.766 402.528 397.131 391.26 399.149C379.992 401.167 368.598 398.598 359.18 391.923C349.763 385.248 343.441 375.262 341.388 363.803ZM422.892 349.204C418.944 327.162 398.089 312.381 376.414 316.264C354.739 320.146 340.311 341.246 344.259 363.289C348.207 385.331 369.062 400.112 390.737 396.229C412.412 392.347 426.84 371.247 422.892 349.204Z" fill="#CBF5E7"/>
<path d="M362.535 360.016C360.423 348.221 368.147 336.924 379.746 334.846C391.344 332.769 402.51 340.682 404.622 352.477C406.735 364.272 399.01 375.569 387.412 377.647C375.814 379.724 364.648 371.811 362.535 360.016ZM403.187 352.734C401.218 341.742 390.816 334.37 380.007 336.306C369.198 338.242 362.002 348.767 363.971 359.759C365.94 370.751 376.342 378.123 387.15 376.187C397.959 374.251 405.156 363.726 403.187 352.734Z" fill="#23E0A2"/>
<path d="M440.386 352.338C452.387 349.118 454.189 343.296 453.566 338.994C453.488 338.39 453.355 337.811 453.181 337.255C450.243 337.148 447.885 335.311 447.053 334.556C445.026 332.749 443.896 330.496 444.362 329.207C444.53 328.74 444.989 328.161 446.2 328.14C447.159 328.119 448.94 329.457 450.499 331.377C451.354 332.43 452.723 334.369 453.512 336.789C454.503 336.777 455.557 336.543 456.643 335.987C458.918 334.796 460.267 333.063 460.645 330.871C461.805 324.2 453.751 315.126 453.661 315.037L453.978 314.739C454.312 315.116 462.252 324.044 461.073 330.945C460.661 333.278 459.242 335.115 456.845 336.373C455.748 336.946 454.667 337.199 453.651 337.231C453.805 337.761 453.921 338.327 454.009 338.899C454.651 343.395 452.817 349.448 440.502 352.739L440.386 352.338ZM453.054 336.795C452.289 334.507 451 332.689 450.167 331.678C448.518 329.668 446.902 328.587 446.207 328.591C445.439 328.607 444.951 328.861 444.774 329.359C444.38 330.47 445.479 332.548 447.348 334.217C448.126 334.921 450.318 336.653 453.054 336.795Z" fill="#231F20"/>
<path d="M448.652 435.79C448.873 435.615 454.149 431.325 457.618 432.331C458.76 432.669 459.579 433.516 460.047 434.894C460.238 435.462 460.311 436.037 460.276 436.585C460.69 436.496 461.109 436.436 461.538 436.435C463.716 436.436 466.472 437.841 467.261 444.48L466.825 444.527C466.24 439.525 464.402 436.871 461.542 436.871C461.099 436.875 460.663 436.923 460.223 437.032C459.972 438.523 459.01 439.856 458.037 440.708C456.985 441.619 455.928 442.005 455.353 441.686C455.106 441.549 454.845 441.249 454.911 440.545C455.013 439.622 457.271 437.425 459.834 436.68C459.886 436.143 459.844 435.578 459.639 435.012C459.213 433.793 458.499 433.032 457.514 432.741C454.247 431.79 449 436.074 448.933 436.116L448.652 435.79ZM459.748 437.192C457.394 437.945 455.411 439.943 455.342 440.633C455.304 441.001 455.375 441.23 455.556 441.333C455.902 441.527 456.774 441.266 457.762 440.411C458.616 439.64 459.474 438.477 459.748 437.192Z" fill="#231F20"/>
<path d="M304.777 357.222L308.851 345.08L296.874 340.87L292.8 353.012L304.777 357.222Z" fill="#23E0A2"/>
<path d="M289.479 355.04C289.474 355.01 289.48 354.964 289.489 354.932L293.567 342.797C293.588 342.748 293.623 342.696 293.678 342.671C293.733 342.647 293.79 342.636 293.839 342.658L305.808 346.872C305.919 346.912 305.986 347.036 305.947 347.148L301.869 359.284C301.848 359.333 301.813 359.384 301.758 359.409C301.703 359.434 301.645 359.444 301.597 359.423L289.628 355.209C289.551 355.192 289.492 355.113 289.479 355.04ZM293.913 343.157L289.982 354.874L301.54 358.936L305.47 347.218L293.913 343.157Z" fill="#231F20"/>
<path d="M47.9096 589.093C33.1599 594.483 17.2272 593.897 3.0518 587.453C-11.1236 581.01 -21.8561 569.475 -27.1563 554.972C-32.4565 540.468 -31.6898 524.731 -25.0089 510.666C-18.3281 496.601 -6.52753 485.88 8.22218 480.49C22.9719 475.1 38.9046 475.686 53.08 482.13C67.2554 488.573 77.9879 500.107 83.2881 514.611C88.5883 529.115 87.8216 544.852 81.1407 558.917C74.4599 572.982 62.6593 583.703 47.9096 589.093ZM9.57256 484.185C-18.7995 494.553 -33.5937 525.699 -23.3984 553.598C-13.2031 581.497 18.1872 595.766 46.5593 585.398C74.9313 575.03 89.7255 543.884 79.5302 515.985C69.3349 488.085 37.9446 473.817 9.57256 484.185Z" fill="#CBF5E7"/>
<path d="M251.024 360.458C243.958 345.259 235.804 344.217 230.231 346.045C229.447 346.289 228.709 346.601 228.01 346.961C228.551 350.889 226.657 354.45 225.847 355.731C223.918 358.844 221.186 360.869 219.366 360.55C218.706 360.435 217.829 359.959 217.52 358.355C217.269 357.085 218.634 354.408 220.823 351.891C222.023 350.51 224.281 348.24 227.313 346.629C227.068 345.316 226.512 343.969 225.521 342.656C223.409 339.909 220.793 338.519 217.793 338.526C208.658 338.534 198.474 351.346 198.376 351.486L197.906 351.134C198.33 350.602 208.348 337.977 217.791 337.94C220.988 337.945 223.757 339.404 225.986 342.297C227.003 343.622 227.591 344.999 227.869 346.342C228.537 346.014 229.263 345.728 230.003 345.479C235.827 343.581 244.297 344.611 251.53 360.21L251.024 360.458ZM227.429 347.236C224.566 348.785 222.449 350.92 221.3 352.261C219.012 354.919 217.951 357.318 218.118 358.241C218.318 359.257 218.768 359.847 219.472 359.966C221.039 360.232 223.545 358.289 225.328 355.418C226.083 354.22 227.875 350.906 227.429 347.236Z" fill="#231F20"/>
<path d="M238.44 568.34L221.359 565.748L218.549 582.64L235.629 585.232L238.44 568.34Z" fill="#23E0A2"/>
<path d="M239.088 589.174C239.051 589.188 238.988 589.19 238.943 589.185L221.87 586.586C221.801 586.57 221.724 586.535 221.678 586.468C221.632 586.401 221.605 586.327 221.623 586.258L224.441 569.374C224.469 569.217 224.617 569.1 224.776 569.126L241.849 571.725C241.919 571.741 241.995 571.776 242.041 571.843C242.087 571.91 242.114 571.984 242.097 572.053L239.279 588.937C239.275 589.043 239.182 589.14 239.088 589.174ZM222.268 586.043L238.751 588.544L241.463 572.243L224.98 569.742L222.268 586.043Z" fill="#231F20"/>
<path d="M219.31 448.027C224.995 445.949 227.947 439.733 225.904 434.143C223.861 428.553 217.597 425.705 211.912 427.783C206.227 429.86 203.274 436.076 205.317 441.666C207.36 447.257 213.625 450.104 219.31 448.027Z" fill="#CBF5E7"/>
<path d="M217.023 451.112C211.243 453.224 204.862 450.324 202.784 444.64C200.707 438.955 203.715 432.624 209.495 430.512C215.276 428.399 221.657 431.3 223.734 436.984C225.806 442.655 222.804 448.999 217.023 451.112ZM209.625 430.868C204.054 432.904 201.145 439.029 203.147 444.507C205.149 449.986 211.321 452.792 216.893 450.756C222.465 448.72 225.374 442.595 223.372 437.116C221.37 431.638 215.197 428.832 209.625 430.868Z" fill="#231F20"/>
<path d="M113.525 390.859L85.4883 387.056L81.3322 414.778L109.369 418.581L113.525 390.859Z" fill="#23E0A2"/>
<path d="M76.6026 417.36C76.5269 417.326 76.4829 417.249 76.4997 417.165L80.6565 389.438C80.6633 389.327 80.7786 389.254 80.8822 389.278L108.924 393.081C109.037 393.087 109.11 393.2 109.084 393.302L104.927 421.029C104.92 421.14 104.805 421.214 104.701 421.189L76.6594 417.386C76.6544 417.372 76.6216 417.369 76.6026 417.36ZM81.0274 389.675L76.9176 417.012L104.574 420.755L108.665 393.409L81.0274 389.675Z" fill="#231F20"/>
<path d="M42.7063 573.891C31.772 577.887 19.9607 577.452 9.45217 572.676C-1.05638 567.899 -9.01259 559.348 -12.9418 548.596C-16.8709 537.844 -16.3025 526.178 -11.3499 515.752C-6.39721 505.325 2.3508 497.377 13.2851 493.381C24.2194 489.386 36.0306 489.82 46.5392 494.597C57.0478 499.374 65.004 507.924 68.9331 518.676C72.8623 529.428 72.2939 541.094 67.3413 551.521C62.3886 561.948 53.6406 569.896 42.7063 573.891ZM14.2862 496.121C-6.74669 503.807 -17.714 526.896 -10.1559 547.578C-2.59793 568.26 20.6724 578.838 41.7052 571.152C62.7381 563.466 73.7053 540.377 66.1473 519.694C58.5893 499.012 35.319 488.435 14.2862 496.121Z" fill="#CBF5E7"/>
<path d="M35.3338 553.716C24.0791 557.828 11.6203 552.165 7.57606 541.098C3.53177 530.031 9.40359 517.669 20.6582 513.556C31.9129 509.444 44.3717 515.107 48.416 526.174C52.4603 537.241 46.5885 549.603 35.3338 553.716ZM21.1588 514.926C10.6702 518.759 5.19997 530.275 8.96896 540.589C12.738 550.903 24.3447 556.179 34.8333 552.346C45.3218 548.513 50.7921 536.997 47.0231 526.683C43.2541 516.369 31.6473 511.093 21.1588 514.926Z" fill="#23E0A2"/>
<path d="M14.358 478.35C9.11955 467.082 3.07443 466.311 -1.05683 467.665C-1.63793 467.846 -2.18508 468.077 -2.70329 468.344C-2.30226 471.256 -3.70589 473.896 -4.30638 474.845C-5.73655 477.154 -7.76173 478.654 -9.1113 478.418C-9.60033 478.333 -10.2502 477.98 -10.4795 476.791C-10.6656 475.85 -9.65396 473.865 -8.03076 471.999C-7.14167 470.975 -5.46733 469.292 -3.21952 468.098C-3.40165 467.125 -3.81383 466.126 -4.54856 465.153C-6.11376 463.116 -8.05333 462.086 -10.2776 462.092C-17.049 462.097 -24.5992 471.595 -24.6716 471.699L-25.0196 471.438C-24.7058 471.044 -17.2788 461.685 -10.2785 461.657C-7.9088 461.661 -5.85563 462.742 -4.20359 464.887C-3.44994 465.869 -3.01382 466.89 -2.80774 467.886C-2.31239 467.642 -1.77416 467.43 -1.22592 467.245C3.09142 465.839 9.3705 466.603 14.733 478.166L14.358 478.35ZM-3.134 468.548C-5.25645 469.696 -6.82545 471.279 -7.67776 472.274C-9.37344 474.244 -10.1605 476.022 -10.0366 476.707C-9.88781 477.46 -9.5544 477.897 -9.0325 477.985C-7.87119 478.182 -6.01316 476.742 -4.69116 474.613C-4.13137 473.726 -2.80305 471.269 -3.134 468.548Z" fill="#231F20"/>
<path d="M95.1388 455.831C94.9283 455.644 89.7939 451.186 90.1871 447.596C90.3231 446.413 91.0172 445.46 92.2932 444.761C92.8204 444.475 93.3736 444.304 93.9201 444.244C93.761 443.852 93.6298 443.45 93.5543 443.027C93.1807 440.881 94.0898 437.925 100.493 436.004L100.615 436.426C95.7883 437.863 93.4908 440.131 93.9832 442.948C94.0638 443.384 94.1861 443.805 94.3691 444.22C95.8815 444.211 97.3594 444.928 98.3666 445.74C99.4457 446.619 100.007 447.594 99.7923 448.215C99.7002 448.482 99.45 448.791 98.7442 448.847C97.8183 448.906 95.2648 447.06 94.0892 444.664C93.5516 444.705 93.0023 444.844 92.4802 445.143C91.3524 445.773 90.7257 446.607 90.6093 447.628C90.2346 451.01 95.359 455.44 95.4119 455.499L95.1388 455.831ZM94.6089 444.66C95.7562 446.849 98.0653 448.458 98.7572 448.407C99.1266 448.381 99.3394 448.272 99.4097 448.076C99.5414 447.702 99.1336 446.888 98.1213 446.062C97.2149 445.354 95.9213 444.708 94.6089 444.66Z" fill="#231F20"/>
<path d="M187.448 401.625L191.026 389.422L178.703 386.021L175.125 398.224L187.448 401.625Z" fill="#00E4AF"/>
<path d="M184.451 403.973C184.409 403.988 184.363 403.99 184.311 403.978L171.999 400.574C171.947 400.562 171.899 400.518 171.865 400.468C171.831 400.418 171.825 400.358 171.852 400.302L175.433 388.11C175.468 387.988 175.588 387.929 175.711 387.962L188.023 391.365C188.074 391.377 188.122 391.422 188.156 391.472C188.19 391.521 188.196 391.581 188.17 391.637L184.588 403.83C184.567 403.9 184.521 403.948 184.451 403.973ZM172.342 400.216L184.229 403.495L187.68 391.723L175.792 388.444L172.342 400.216Z" fill="#231F20"/>
<path d="M48.3839 454.537L48.0234 441.878L35.1961 442.371L35.5566 455.03L48.3839 454.537Z" fill="#00E4AF"/>
<path d="M46.1733 457.701C46.1454 457.712 46.1315 457.717 46.0986 457.713L33.2836 458.204C33.1571 458.204 33.0614 458.115 33.0492 457.995L32.6907 445.348C32.6924 445.223 32.7838 445.128 32.9053 445.114L45.7203 444.623C45.8467 444.624 45.9425 444.713 45.9547 444.833L46.3132 457.48C46.3343 457.58 46.2708 457.666 46.1733 457.701ZM33.4978 457.753L45.8777 457.282L45.534 445.064L33.154 445.536L33.4978 457.753Z" fill="#231F20"/>
<path d="M42.5296 611.092L29.8672 609.17L27.7835 621.693L40.4459 623.614L42.5296 611.092Z" fill="#23E0A2"/>
<path d="M43.0156 626.537C42.9878 626.547 42.941 626.549 42.9081 626.545L30.2516 624.618C30.1998 624.606 30.143 624.58 30.109 624.531C30.0751 624.481 30.0551 624.426 30.0679 624.375L32.1569 611.858C32.1776 611.742 32.288 611.655 32.4055 611.674L45.062 613.601C45.1138 613.613 45.1706 613.639 45.2045 613.689C45.2385 613.739 45.2585 613.793 45.2457 613.845L43.1566 626.361C43.1538 626.44 43.0853 626.512 43.0156 626.537ZM30.5465 624.216L42.7658 626.069L44.776 613.985L32.5567 612.132L30.5465 624.216Z" fill="#231F20"/>
<path d="M210.024 31.4531C202.958 16.2543 194.804 15.2131 189.231 17.0402C188.447 17.2847 187.709 17.5963 187.01 17.9565C187.551 21.8847 185.657 25.4459 184.847 26.7263C182.918 29.8398 180.186 31.8643 178.366 31.5453C177.706 31.4303 176.829 30.9548 176.52 29.3505C176.269 28.0809 177.634 25.404 179.823 22.8865C181.023 21.5058 183.281 19.2353 186.313 17.6246C186.068 16.3111 185.512 14.9645 184.521 13.6512C182.409 10.9042 179.793 9.51467 176.793 9.52205C167.658 9.52999 157.474 22.3414 157.376 22.4818L156.906 22.1298C157.33 21.5981 167.348 8.97308 176.791 8.93605C179.988 8.94077 182.757 10.4 184.986 13.2926C186.003 14.6176 186.591 15.9943 186.869 17.3378C187.537 17.0099 188.263 16.7236 189.003 16.4743C194.827 14.5764 203.297 15.607 210.53 31.2054L210.024 31.4531ZM186.429 18.2317C183.566 19.7806 181.449 21.9154 180.3 23.257C178.012 25.915 176.951 28.3135 177.118 29.2369C177.318 30.2526 177.768 30.8422 178.472 30.9619C180.039 31.2272 182.545 29.285 184.328 26.4133C185.083 25.2158 186.875 21.9012 186.429 18.2317Z" fill="#231F20"/>
<path d="M97.1249 81.1071L96.707 81.2598L99.4149 88.6698L99.8328 88.517L97.1249 81.1071Z" fill="#231F20"/>
<path d="M109.068 74.21L105.285 87.4678L105.712 87.5824L109.495 74.3246L109.068 74.21Z" fill="#231F20"/>
<path d="M178.31 119.023C183.995 116.946 186.947 110.73 184.904 105.14C182.861 99.5495 176.597 96.7019 170.912 98.7794C165.227 100.857 162.274 107.073 164.317 112.663C166.36 118.253 172.625 121.101 178.31 119.023Z" fill="#CBF5E7"/>
<path d="M176.023 122.109C170.243 124.221 163.862 121.321 161.784 115.636C159.707 109.952 162.715 103.621 168.495 101.509C174.276 99.3962 180.657 102.297 182.734 107.981C184.806 113.651 181.804 119.996 176.023 122.109ZM168.625 101.865C163.054 103.901 160.145 110.025 162.147 115.504C164.149 120.983 170.321 123.789 175.893 121.753C181.465 119.716 184.374 113.592 182.372 108.113C180.37 102.634 174.197 99.8287 168.625 101.865Z" fill="#231F20"/>
<path d="M72.5232 61.8536L44.4863 58.0508L40.3302 85.7726L68.3671 89.5754L72.5232 61.8536Z" fill="#23E0A2"/>
<path d="M35.6007 88.3552C35.5249 88.3208 35.481 88.2437 35.4977 88.1599L39.6546 60.4331C39.6613 60.3219 39.7767 60.2487 39.8803 60.273L67.9223 64.0764C68.0348 64.0819 68.1077 64.195 68.082 64.2975L63.9252 92.0244C63.9184 92.1355 63.8031 92.2087 63.6995 92.1845L35.6575 88.381C35.6525 88.3673 35.6196 88.3638 35.6007 88.3552ZM40.0254 60.6702L35.9156 88.0072L63.5722 91.7497L67.6631 64.404L40.0254 60.6702Z" fill="#231F20"/>
<path d="M146.446 72.6207L150.024 60.4175L137.701 57.0164L134.123 69.2196L146.446 72.6207Z" fill="#00E4AF"/>
<path d="M143.449 74.9687C143.408 74.984 143.361 74.9856 143.309 74.9734L130.997 71.57C130.945 71.5578 130.897 71.5132 130.863 71.4635C130.829 71.4138 130.823 71.3539 130.85 71.2976L134.431 59.1052C134.466 58.9839 134.586 58.9244 134.709 58.9572L147.021 62.3607C147.072 62.3728 147.12 62.4175 147.154 62.4671C147.188 62.5168 147.194 62.5767 147.168 62.6331L143.586 74.8255C143.565 74.8955 143.519 74.9433 143.449 74.9687ZM131.34 71.2118L143.227 74.4909L146.678 62.7189L134.79 59.4398L131.34 71.2118Z" fill="#231F20"/>
<path d="M688.747 105.414C686.096 74.2427 672.468 67.1935 661.528 66.8263C659.997 66.7529 658.503 66.8263 657.047 67.0099C655.479 74.2427 649.879 79.2726 647.638 80.9982C642.262 85.2204 636.176 87.0194 633.189 85.2938C632.106 84.6697 630.874 83.2746 631.359 80.2639C631.733 77.8775 635.84 74.0591 641.291 71.0485C644.278 69.3964 649.692 66.863 656.039 65.9819C656.45 63.522 656.338 60.8051 655.442 57.8679C653.5 51.6999 649.804 47.5878 644.539 45.6786C628.522 39.841 602.46 55.7752 602.199 55.9588L601.602 55.0409C602.684 54.38 628.335 38.6661 644.913 44.6506C650.513 46.7066 654.434 51.039 656.487 57.5375C657.421 60.5114 657.57 63.3017 657.197 65.835C658.578 65.6882 660.034 65.6515 661.49 65.6882C672.916 66.092 687.104 73.3248 689.792 105.303L688.747 105.414ZM655.852 67.1201C649.841 68.0012 644.763 70.3877 641.888 72.0031C636.176 75.1973 632.778 78.7219 632.479 80.4475C632.181 82.3567 632.591 83.6784 633.749 84.3393C636.325 85.8079 641.963 84.0088 646.929 80.1171C649.02 78.5016 654.284 73.8389 655.852 67.1201Z" fill="#231F20"/>
<path d="M640.655 443.662L612.372 428.176L596.623 455.987L624.906 471.473L640.655 443.662Z" fill="#23E0A2"/>
<path d="M628.445 480.602C628.371 480.602 628.259 480.565 628.184 480.528L599.92 465.035C599.808 464.961 599.696 464.851 599.658 464.704C599.621 464.558 599.621 464.411 599.696 464.301L615.452 436.507C615.601 436.25 615.937 436.14 616.199 436.287L644.463 451.781C644.575 451.854 644.687 451.964 644.724 452.111C644.762 452.258 644.762 452.405 644.687 452.515L628.931 480.308C628.856 480.492 628.632 480.602 628.445 480.602ZM600.965 464.337L628.259 479.28L643.455 452.442L616.161 437.499L600.965 464.337Z" fill="#231F20"/>
<path d="M459.022 120.142H458.191V134.867H459.022V120.142Z" fill="#231F20"/>
<path d="M484.378 115.702L469.254 136.521L469.93 136.995L485.054 116.177L484.378 115.702Z" fill="#231F20"/>
<path d="M559.927 284.786L512.476 277.014L510.488 288.746L557.94 296.518L559.927 284.786Z" fill="#23E0A2"/>
<path d="M596.567 278.003C598.554 278.003 600.165 276.419 600.165 274.465C600.165 272.511 598.554 270.927 596.567 270.927C594.58 270.927 592.969 272.511 592.969 274.465C592.969 276.419 594.58 278.003 596.567 278.003Z" fill="#23E0A2"/>
<path d="M585.024 276.153C587.011 276.153 588.622 274.569 588.622 272.614C588.622 270.66 587.011 269.076 585.024 269.076C583.037 269.076 581.426 270.66 581.426 272.614C581.426 274.569 583.037 276.153 585.024 276.153Z" fill="#CBF5E7"/>
<path d="M608.137 279.854C610.125 279.854 611.736 278.27 611.736 276.316C611.736 274.362 610.125 272.778 608.137 272.778C606.15 272.778 604.539 274.362 604.539 276.316C604.539 278.27 606.15 279.854 608.137 279.854Z" fill="#00E4AF"/>
<path d="M509.776 297.745L509.653 298.552L600.216 312.03L600.339 311.222L509.776 297.745Z" fill="#CBF5E7"/>
<path d="M506.912 311.152L506.789 311.96L597.352 325.437L597.475 324.63L506.912 311.152Z" fill="#CBF5E7"/>
<path d="M455.348 152.145L412.668 173.971L416.372 180.973L459.051 159.147L455.348 152.145Z" fill="#23E0A2"/>
<path d="M462.476 167.486L420.938 188.875L421.323 189.598L462.861 168.209L462.476 167.486Z" fill="#CBF5E7"/>
<path d="M468.629 180.401L440.064 195.126L439.345 195.507C439.234 195.289 439.095 195.045 438.957 194.8L439.677 194.418L468.241 179.694L468.629 180.401Z" fill="#CBF5E7"/>
<path d="M474.879 190.402L433.341 211.791L433.726 212.514L475.264 191.125L474.879 190.402Z" fill="#CBF5E7"/>
<path d="M481.495 201.106L439.957 222.495L440.342 223.218L481.88 201.83L481.495 201.106Z" fill="#CBF5E7"/>
<path d="M488.136 211.798L446.598 233.187L446.983 233.91L488.521 212.521L488.136 211.798Z" fill="#CBF5E7"/>
<path d="M577.051 238.62C588.348 238.62 597.506 229.614 597.506 218.506C597.506 207.397 588.348 198.392 577.051 198.392C565.755 198.392 556.597 207.397 556.597 218.506C556.597 229.614 565.755 238.62 577.051 238.62Z" fill="#CBF5E7"/>
<path d="M571.072 242.566C559.586 242.566 550.258 233.394 550.258 222.098C550.258 210.803 559.586 201.631 571.072 201.631C582.559 201.631 591.887 210.803 591.887 222.098C591.887 233.366 582.559 242.566 571.072 242.566ZM571.072 202.339C560.001 202.339 550.977 211.211 550.977 222.098C550.977 232.985 560.001 241.858 571.072 241.858C582.144 241.858 591.167 232.985 591.167 222.098C591.167 211.211 582.144 202.339 571.072 202.339Z" fill="#231F20"/>
<path d="M428.237 70.6352L381.523 46.0078L356.479 91.9425L403.192 116.57L428.237 70.6352Z" fill="#23E0A2"/>
<path d="M346.537 93.4419C346.427 93.333 346.399 93.1697 346.482 93.0336L371.531 47.0905C371.614 46.9 371.863 46.8455 372.029 46.9544L418.751 71.5862C418.945 71.6679 419.001 71.9128 418.89 72.0761L393.84 118.019C393.757 118.21 393.508 118.264 393.342 118.155L346.62 93.5235C346.62 93.4963 346.565 93.4691 346.537 93.4419ZM372.029 47.7437L347.312 93.0336L393.398 117.312L418.087 71.9945L372.029 47.7437Z" fill="#231F20"/>
<path d="M387.634 283.181L385.535 295.585L386.272 295.706L388.371 283.302L387.634 283.181Z" fill="#231F20"/>
<path d="M396.077 295.348L390.824 299.479L391.291 300.053L396.543 295.922L396.077 295.348Z" fill="#231F20"/>
<path d="M186.833 346.129C165.105 346.129 144.678 337.8 129.316 322.695C113.954 307.589 105.484 287.502 105.484 266.137C105.484 244.771 113.954 224.684 129.316 209.579C144.678 194.473 165.105 186.145 186.833 186.145C208.561 186.145 228.988 194.473 244.349 209.579C259.711 224.684 268.181 244.771 268.181 266.137C268.181 287.502 259.711 307.589 244.349 322.695C228.988 337.8 208.561 346.129 186.833 346.129ZM186.833 191.588C145.038 191.588 111.02 225.038 111.02 266.137C111.02 307.235 145.038 340.685 186.833 340.685C228.628 340.685 262.645 307.235 262.645 266.137C262.645 225.038 228.628 191.588 186.833 191.588Z" fill="#CBF5E7"/>
<path d="M198.345 160.478C196.379 137.371 186.277 132.145 178.167 131.873C177.032 131.818 175.925 131.873 174.845 132.009C173.683 137.371 169.531 141.1 167.87 142.379C163.884 145.509 159.373 146.842 157.159 145.563C156.356 145.101 155.442 144.066 155.802 141.834C156.079 140.065 159.124 137.235 163.165 135.003C165.379 133.778 169.393 131.9 174.098 131.247C174.402 129.423 174.319 127.409 173.655 125.232C172.216 120.659 169.476 117.611 165.573 116.196C153.699 111.868 134.379 123.68 134.185 123.816L133.742 123.136C134.545 122.646 153.56 110.997 165.85 115.433C170.002 116.958 172.908 120.169 174.43 124.987C175.122 127.191 175.233 129.26 174.956 131.138C175.98 131.029 177.06 131.002 178.139 131.029C186.609 131.328 197.127 136.69 199.12 160.397L198.345 160.478ZM173.96 132.091C169.503 132.744 165.739 134.513 163.608 135.71C159.373 138.078 156.854 140.691 156.633 141.971C156.411 143.386 156.716 144.366 157.574 144.856C159.484 145.944 163.663 144.611 167.344 141.726C168.894 140.528 172.797 137.071 173.96 132.091Z" fill="#231F20"/>
<path d="M354.379 172.753C354.13 172.291 347.985 161.186 350.974 155.144C351.971 153.157 353.798 151.932 356.483 151.524C357.59 151.36 358.669 151.415 359.666 151.66C359.638 150.871 359.666 150.081 359.804 149.292C360.524 145.291 364.011 140.691 376.467 141.426L376.411 142.243C367.028 141.671 361.548 144.175 360.607 149.428C360.468 150.245 360.413 151.061 360.468 151.905C363.126 152.857 365.257 155.062 366.502 157.131C367.831 159.362 368.191 161.431 367.416 162.384C367.084 162.792 366.447 163.173 365.174 162.819C363.513 162.329 360.219 157.457 359.693 152.504C358.725 152.231 357.673 152.123 356.566 152.313C354.185 152.694 352.552 153.756 351.694 155.47C348.871 161.159 355.016 172.209 355.071 172.345L354.379 172.753ZM360.607 152.83C361.216 157.403 364.233 161.703 365.478 162.057C366.142 162.247 366.585 162.193 366.834 161.894C367.305 161.322 367.111 159.635 365.866 157.539C364.731 155.715 362.876 153.756 360.607 152.83Z" fill="#231F20"/>
<path d="M550.923 136.863L565.015 117.763L545.591 103.907L531.5 123.007L550.923 136.863Z" fill="#00E4AF"/>
<path d="M544.164 139.058C544.081 139.058 543.998 139.031 543.915 138.977L524.512 125.123C524.429 125.068 524.374 124.96 524.346 124.851C524.319 124.742 524.346 124.633 524.429 124.551L538.518 105.472C538.656 105.281 538.905 105.254 539.099 105.39L558.502 119.244C558.585 119.298 558.64 119.407 558.668 119.516C558.696 119.625 558.668 119.734 558.585 119.815L544.497 138.895C544.414 139.004 544.303 139.058 544.164 139.058ZM525.343 124.715L544.081 138.078L557.672 119.652L538.933 106.288L525.343 124.715Z" fill="#231F20"/>
<path d="M273.249 140.533L280.727 118.111L257.924 110.758L250.446 133.18L273.249 140.533Z" fill="#00E4AF"/>
<path d="M267.346 144.665C267.29 144.665 267.263 144.665 267.207 144.638L244.428 137.289C244.206 137.207 244.095 136.99 244.151 136.772L251.624 114.372C251.707 114.154 251.929 114.045 252.15 114.1L274.93 121.449C275.151 121.53 275.262 121.748 275.207 121.966L267.733 144.366C267.706 144.556 267.539 144.665 267.346 144.665ZM245.092 136.636L267.097 143.74L274.321 122.102L252.316 114.998L245.092 136.636Z" fill="#231F20"/>
<path d="M162.692 411.229L141.726 399.749L130.051 420.366L151.017 431.846L162.692 411.229Z" fill="#23E0A2"/>
<path d="M153.644 438.614C153.588 438.614 153.505 438.586 153.45 438.559L132.497 427.073C132.414 427.019 132.331 426.937 132.303 426.828C132.276 426.72 132.276 426.611 132.331 426.529L144.012 405.925C144.122 405.735 144.371 405.653 144.565 405.762L165.518 417.248C165.601 417.302 165.684 417.384 165.712 417.493C165.739 417.602 165.739 417.711 165.684 417.792L154.004 438.396C153.948 438.532 153.782 438.614 153.644 438.614ZM133.272 426.556L153.505 437.634L164.771 417.738L144.537 406.66L133.272 426.556Z" fill="#231F20"/>
</svg>
