<svg width="604" height="704" viewBox="0 0 604 704" fill="none" xmlns="http://www.w3.org/2000/svg">
<path d="M122.09 441.822C101.372 453.845 77.2863 457.208 54.2799 451.305C31.2736 445.402 12.0826 430.937 0.25966 410.564C-11.5633 390.192 -14.6025 366.353 -8.31396 343.449C-2.02542 320.545 12.843 301.3 33.5606 289.277C54.2782 277.254 78.364 273.891 101.37 279.794C124.377 285.697 143.568 300.162 155.391 320.535C167.214 340.907 170.253 364.746 163.964 387.65C157.676 410.554 142.807 429.799 122.09 441.822ZM36.5728 294.467C-3.27879 317.595 -17.2042 368.314 5.53802 407.501C28.2803 446.688 79.2259 459.759 119.077 436.632C158.929 413.504 172.855 362.785 150.112 323.598C127.37 284.411 76.4244 271.34 36.5728 294.467Z" fill="#CBF5E7"/>
<path d="M366.261 44.338C351.6 23.3923 339.075 24.0001 331.192 28.2283C330.08 28.8043 329.054 29.4689 328.1 30.196C329.959 35.9518 328.063 41.8047 327.188 43.9434C325.119 49.1334 321.556 52.9016 318.736 52.9072C317.715 52.9102 316.272 52.4295 315.38 50.1023C314.665 48.2623 316.001 43.8785 318.62 39.5142C320.053 37.1211 322.841 33.1095 326.966 29.8829C326.247 27.9756 325.053 26.1011 323.215 24.3926C319.313 20.8291 315.013 19.4389 310.508 20.249C296.792 22.6934 284.907 44.6473 284.797 44.8843L283.999 44.4806C284.493 43.5693 296.178 21.9395 310.351 19.3692C315.153 18.525 319.701 19.9791 323.819 23.7302C325.698 25.4494 326.949 27.3604 327.724 29.3043C328.64 28.6338 329.654 28.0105 330.699 27.4391C338.94 23.0377 351.936 22.33 366.955 43.8313L366.261 44.338ZM327.301 30.764C323.413 33.8528 320.803 37.6227 319.433 39.9439C316.706 44.5451 315.75 48.4303 316.247 49.7726C316.819 51.2446 317.651 52.0104 318.741 52.0027C321.164 51.9839 324.411 48.3995 326.325 43.6116C327.14 41.612 328.949 36.1565 327.301 30.764Z" fill="#231F20"/>
<path d="M402.721 359.915L376.377 360.57L376.654 386.689L402.998 386.033L402.721 359.915Z" fill="#23E0A2"/>
<path d="M409.247 391.033C409.194 391.064 409.1 391.084 409.032 391.089L382.698 391.731C382.588 391.726 382.464 391.694 382.377 391.605C382.291 391.517 382.231 391.413 382.238 391.304L381.974 365.195C381.974 364.952 382.167 364.737 382.412 364.733L408.746 364.09C408.855 364.096 408.98 364.128 409.066 364.217C409.153 364.305 409.213 364.409 409.206 364.517L409.47 390.627C409.492 390.787 409.379 390.957 409.247 391.033ZM383.15 390.81L408.573 390.176L408.305 364.971L382.882 365.605L383.15 390.81Z" fill="#231F20"/>
<path d="M529.475 459.627L503.131 460.283L503.408 486.402L529.752 485.746L529.475 459.627Z" fill="#23E0A2"/>
<path d="M536.001 490.746C535.948 490.776 535.854 490.796 535.786 490.801L509.452 491.444C509.342 491.438 509.218 491.406 509.131 491.318C509.045 491.229 508.984 491.125 508.992 491.017L508.728 464.908C508.728 464.665 508.921 464.449 509.166 464.446L535.5 463.803C535.609 463.809 535.734 463.841 535.82 463.929C535.907 464.018 535.967 464.121 535.96 464.23L536.223 490.339C536.246 490.499 536.133 490.669 536.001 490.746ZM509.904 490.522L535.327 489.888L535.058 464.683L509.636 465.317L509.904 490.522Z" fill="#231F20"/>
<path d="M209.914 148.981L209.327 149.321L215.367 159.729L215.954 159.389L209.914 148.981Z" fill="#231F20"/>
<path d="M226.019 135.441L223.868 156.361L224.54 156.419L226.691 135.5L226.019 135.441Z" fill="#231F20"/>
<path d="M341.952 184.308C349.937 179.674 352.716 169.552 348.159 161.7C343.602 153.848 333.435 151.239 325.45 155.873C317.464 160.507 314.685 170.629 319.242 178.482C323.799 186.334 333.967 188.942 341.952 184.308Z" fill="#CBF5E7"/>
<path d="M339.341 189.55C331.222 194.262 320.866 191.605 316.232 183.621C311.599 175.637 314.429 165.327 322.549 160.615C330.668 155.903 341.024 158.56 345.658 166.544C350.28 174.509 347.46 184.838 339.341 189.55ZM322.839 161.116C315.013 165.657 312.275 175.631 316.741 183.326C321.207 191.022 331.225 193.592 339.051 189.05C346.877 184.508 349.615 174.535 345.149 166.839C340.683 159.144 330.665 156.574 322.839 161.116Z" fill="#231F20"/>
<path d="M167.845 126.615L124.723 128.37L125.863 171.113L168.985 169.358L167.845 126.615Z" fill="#23E0A2"/>
<path d="M119.453 176.251C119.33 176.219 119.244 176.115 119.247 175.985L118.106 133.234C118.087 133.066 118.24 132.925 118.402 132.934L161.532 131.179C161.703 131.157 161.842 131.307 161.831 131.468L162.972 174.219C162.991 174.387 162.837 174.528 162.675 174.519L119.545 176.275C119.534 176.255 119.484 176.259 119.453 176.251ZM118.726 133.492L119.833 175.644L162.368 173.9L161.23 131.74L118.726 133.492Z" fill="#231F20"/>
<path d="M110.226 420.376C94.8679 429.29 77.0125 431.782 59.9574 427.406C42.9023 423.031 28.6756 412.307 19.911 397.205C11.1464 382.102 8.89333 364.43 13.5552 347.45C18.217 330.471 29.2393 316.205 44.5977 307.292C59.9561 298.378 77.8114 295.886 94.8666 300.262C111.922 304.637 126.148 315.361 134.913 330.463C143.678 345.566 145.931 363.238 141.269 380.218C136.607 397.197 125.585 411.463 110.226 420.376ZM46.8307 311.139C17.2878 328.284 6.9646 365.883 23.8239 394.934C40.6833 423.984 78.4504 433.674 107.993 416.529C137.536 399.384 147.859 361.785 131 332.734C114.141 303.684 76.3736 293.994 46.8307 311.139Z" fill="#CBF5E7"/>
<path d="M93.7805 392.037C77.9721 401.211 57.7518 396.023 48.7304 380.478C39.709 364.933 45.236 344.803 61.0443 335.629C76.8527 326.454 97.073 331.642 106.094 347.187C115.116 362.732 109.589 382.862 93.7805 392.037ZM62.1609 337.553C47.4285 346.103 42.2795 364.856 50.6869 379.343C59.0942 393.83 77.9317 398.663 92.664 390.113C107.396 381.563 112.545 362.809 104.138 348.323C95.7306 333.836 76.8932 329.003 62.1609 337.553Z" fill="#23E0A2"/>
<path d="M42.2036 284.427C31.3353 268.9 22.0504 269.35 16.2063 272.485C15.3818 272.912 14.6215 273.404 13.9143 273.943C15.2921 278.21 13.887 282.549 13.2379 284.135C11.7046 287.982 9.06259 290.776 6.97264 290.78C6.21545 290.782 5.14555 290.426 4.48435 288.7C3.95427 287.336 4.94522 284.087 6.88614 280.851C7.9489 279.077 10.0154 276.103 13.0735 273.711C12.5406 272.297 11.6557 270.908 10.2929 269.641C7.39982 267 4.21241 265.969 0.873184 266.569C-9.29538 268.382 -18.106 284.657 -18.1871 284.832L-18.7793 284.533C-18.4129 283.857 -9.75049 267.823 0.756205 265.917C4.31618 265.291 7.68797 266.369 10.7403 269.15C12.1338 270.425 13.0606 271.841 13.6353 273.282C14.3145 272.785 15.0664 272.323 15.8406 271.9C21.9503 268.637 31.5844 268.112 42.7179 284.052L42.2036 284.427ZM13.3218 274.364C10.4398 276.654 8.5047 279.449 7.48947 281.17C5.46742 284.581 4.75888 287.461 5.12712 288.456C5.55119 289.547 6.16834 290.115 6.97582 290.109C8.7724 290.095 11.1796 287.438 12.5982 283.889C13.2026 282.406 14.5433 278.362 13.3218 274.364Z" fill="#231F20"/>
<path d="M157.533 229.095C157.167 228.87 148.268 223.541 147.903 218.044C147.792 216.231 148.581 214.616 150.311 213.226C151.027 212.656 151.812 212.252 152.617 212.016C152.273 211.47 151.969 210.901 151.743 210.286C150.611 207.163 151.189 202.481 160.295 197.89L160.59 198.49C153.723 201.935 150.877 205.954 152.366 210.053C152.604 210.687 152.899 211.287 153.285 211.86C155.554 211.444 157.965 212.128 159.694 213.079C161.548 214.111 162.651 215.426 162.494 216.417C162.427 216.842 162.133 217.372 161.088 217.645C159.713 217.98 155.386 215.887 152.983 212.601C152.186 212.806 151.398 213.161 150.694 213.75C149.167 214.996 148.448 216.416 148.545 217.98C148.883 223.159 157.76 228.449 157.855 228.523L157.533 229.095ZM153.762 212.458C156.068 215.44 159.965 217.242 160.991 216.981C161.538 216.843 161.829 216.623 161.882 216.309C161.98 215.712 161.151 214.599 159.411 213.629C157.861 212.805 155.746 212.181 153.762 212.458Z" fill="#231F20"/>
<path d="M281.733 123.1L283.858 103.818L264.445 101.992L262.319 121.273L281.733 123.1Z" fill="#00E4AF"/>
<path d="M277.857 127.424C277.798 127.458 277.728 127.473 277.647 127.469L258.249 125.635C258.168 125.631 258.085 125.577 258.02 125.511C257.956 125.446 257.931 125.357 257.956 125.266L260.088 106C260.108 105.808 260.273 105.687 260.465 105.704L279.863 107.537C279.944 107.541 280.028 107.595 280.092 107.661C280.157 107.727 280.182 107.815 280.157 107.907L278.025 127.172C278.011 127.283 277.955 127.367 277.857 127.424ZM258.669 125.006L277.396 126.766L279.444 108.166L260.716 106.407L258.669 125.006Z" fill="#231F20"/>
<path d="M86.9672 239.602L83.0547 220.685L63.9204 224.842L67.8329 243.758L86.9672 239.602Z" fill="#00E4AF"/>
<path d="M84.4934 244.944C84.4542 244.966 84.4347 244.978 84.3844 244.981L65.2679 249.131C65.0779 249.165 64.9103 249.056 64.8602 248.879L60.9538 229.98C60.9231 229.792 61.035 229.625 61.2138 229.572L80.3303 225.422C80.5203 225.389 80.6879 225.497 80.7381 225.674L84.6445 244.573C84.7031 244.719 84.6303 244.864 84.4934 244.944ZM65.4695 248.397L83.9377 244.392L80.1678 226.133L61.6997 230.139L65.4695 248.397Z" fill="#231F20"/>
<path d="M119.866 476.296L100.336 476.782L100.541 496.144L120.071 495.658L119.866 476.296Z" fill="#23E0A2"/>
<path d="M124.706 499.363C124.667 499.386 124.597 499.401 124.547 499.404L105.024 499.881C104.943 499.877 104.851 499.853 104.787 499.787C104.723 499.722 104.678 499.645 104.684 499.564L104.488 480.209C104.488 480.029 104.631 479.869 104.812 479.867L124.335 479.39C124.416 479.395 124.508 479.418 124.572 479.484C124.636 479.549 124.681 479.626 124.675 479.707L124.871 499.062C124.888 499.181 124.804 499.307 124.706 499.363ZM105.36 499.198L124.206 498.728L124.007 480.043L105.161 480.513L105.36 499.198Z" fill="#231F20"/>
<path d="M174.181 453.961C192.865 457.773 199.332 451.016 201.428 444.682C201.735 443.799 201.949 442.913 202.092 442.03C198.132 439.869 196.154 435.728 195.53 434.121C193.986 430.251 193.98 426.382 195.503 424.933C196.055 424.407 197.082 423.926 198.759 424.728C200.091 425.357 201.617 428.415 202.44 432.121C202.893 434.152 203.443 437.754 202.866 441.617C204.234 442.28 205.842 442.682 207.714 442.664C211.655 442.589 214.696 441.135 216.718 438.385C222.887 430.022 218.051 412.04 217.989 411.856L218.629 411.664C218.829 412.411 223.606 430.115 217.255 438.78C215.089 441.701 211.881 443.249 207.727 443.332C205.828 443.366 204.17 442.973 202.753 442.319C202.601 443.152 202.372 444.01 202.1 444.856C199.899 451.467 193.229 458.52 174.065 454.592L174.181 453.961ZM202.233 441.312C202.752 437.645 202.229 434.265 201.779 432.306C200.894 428.416 199.417 425.823 198.459 425.351C197.394 424.848 196.551 424.861 195.965 425.424C194.663 426.678 194.746 430.285 196.167 433.858C196.752 435.359 198.573 439.239 202.233 441.312Z" fill="#231F20"/>
<path d="M52.3073 491.534L66.2285 477.659L52.6736 463.665L38.7524 477.541L52.3073 491.534Z" fill="#23E0A2"/>
<path d="M32.8064 478.037C32.8192 477.993 32.86 477.934 32.8943 477.897L46.8167 464.033C46.8789 463.98 46.9626 463.934 47.0549 463.937C47.1472 463.941 47.2331 463.966 47.2847 464.028L60.8276 478.023C60.9522 478.155 60.9588 478.37 60.828 478.498L46.9055 492.362C46.8433 492.414 46.7597 492.461 46.6674 492.458C46.575 492.454 46.4891 492.429 46.4376 492.366L32.8947 478.371C32.8002 478.296 32.7743 478.146 32.8064 478.037ZM47.0448 464.764L33.6115 478.155L46.6925 491.658L60.1258 478.268L47.0448 464.764Z" fill="#231F20"/>
<path d="M264.913 506.738L265.056 506.252L256.445 503.719L256.302 504.205L264.913 506.738Z" fill="#231F20"/>
<path d="M263.147 522.329L253.574 509.904L253.18 510.217L262.753 522.643L263.147 522.329Z" fill="#231F20"/>
<path d="M201.69 518.321C194.845 519.076 189.898 525.144 190.64 531.875C191.382 538.605 197.532 543.45 204.377 542.695C211.222 541.94 216.169 535.872 215.427 529.142C214.685 522.411 208.535 517.567 201.69 518.321Z" fill="#CBF5E7"/>
<path d="M205.052 515.532C212.011 514.765 218.276 519.699 219.03 526.543C219.785 533.386 214.746 539.567 207.786 540.334C200.826 541.102 194.562 536.167 193.807 529.323C193.055 522.496 198.092 516.299 205.052 515.532ZM207.739 539.906C214.447 539.166 219.321 533.187 218.594 526.591C217.867 519.994 211.807 515.221 205.099 515.961C198.391 516.7 193.516 522.679 194.243 529.275C194.971 535.872 201.031 540.645 207.739 539.906Z" fill="#231F20"/>
<path d="M218.657 330.179C211.812 330.934 206.865 337.002 207.607 343.732C208.349 350.463 214.499 355.308 221.344 354.553C228.189 353.798 233.136 347.73 232.394 341C231.652 334.269 225.501 329.425 218.657 330.179Z" fill="#CBF5E7"/>
<path d="M222.018 327.39C228.978 326.622 235.242 331.557 235.997 338.401C236.752 345.244 231.713 351.425 224.753 352.192C217.793 352.96 211.529 348.025 210.774 341.181C210.021 334.354 215.059 328.157 222.018 327.39ZM224.706 351.763C231.414 351.024 236.288 345.045 235.561 338.449C234.834 331.852 228.774 327.079 222.066 327.819C215.357 328.558 210.483 334.537 211.21 341.133C211.937 347.73 217.997 352.503 224.706 351.763Z" fill="#231F20"/>
<path d="M60.0852 620.435L82.5225 597.354L59.9683 574.806L37.531 597.887L60.0852 620.435Z" fill="#23E0A2"/>
<path d="M60.8032 568.732C60.8859 568.686 60.9862 568.698 61.0515 568.77L83.6099 591.322C83.707 591.403 83.696 591.558 83.6038 591.637L61.1624 614.722C61.0813 614.821 60.9286 614.812 60.8521 614.719L38.2937 592.167C38.1966 592.086 38.2076 591.931 38.2998 591.853L60.7412 568.767C60.7571 568.772 60.7826 568.744 60.8032 568.732ZM83.1422 591.501L60.9087 569.256L38.7837 592.03L61.0379 614.263L83.1422 591.501Z" fill="#231F20"/>
<path d="M179.056 222.87C182.903 209.791 196.509 202.221 209.369 206.004C222.23 209.787 229.57 223.518 225.723 236.597C221.876 249.676 208.27 257.246 195.41 253.463C182.549 249.68 175.209 235.949 179.056 222.87ZM224.132 236.129C227.717 223.94 220.878 211.148 208.893 207.623C196.908 204.097 184.233 211.15 180.647 223.338C177.062 235.527 183.901 248.319 195.886 251.844C207.871 255.37 220.546 248.317 224.132 236.129Z" fill="#23E0A2"/>
<path d="M128.98 600.729C132.827 587.651 146.433 580.081 159.293 583.864C172.154 587.646 179.494 601.378 175.647 614.456C171.8 627.535 158.194 635.105 145.334 631.322C132.473 627.539 125.133 613.808 128.98 600.729ZM174.055 613.988C177.641 601.8 170.802 589.008 158.817 585.482C146.832 581.957 134.156 589.009 130.571 601.198C126.986 613.386 133.824 626.178 145.81 629.704C157.795 633.229 170.47 626.177 174.055 613.988Z" fill="#23E0A2"/>
<path d="M262.195 254.64C276.046 257.466 280.84 252.457 282.394 247.761C282.621 247.107 282.78 246.45 282.886 245.795C279.95 244.193 278.484 241.124 278.021 239.933C276.876 237.063 276.873 234.196 278.002 233.121C278.41 232.731 279.172 232.375 280.415 232.969C281.402 233.435 282.534 235.703 283.144 238.45C283.479 239.955 283.887 242.625 283.46 245.489C284.474 245.981 285.666 246.279 287.054 246.265C289.975 246.21 292.229 245.132 293.728 243.093C298.301 236.893 294.717 223.563 294.671 223.427L295.145 223.285C295.293 223.838 298.835 236.962 294.126 243.386C292.521 245.552 290.143 246.699 287.064 246.76C285.655 246.786 284.427 246.495 283.376 246.01C283.263 246.628 283.094 247.263 282.892 247.89C281.26 252.792 276.315 258.02 262.109 255.108L262.195 254.64ZM282.99 245.263C283.375 242.545 282.988 240.039 282.654 238.587C281.998 235.703 280.903 233.781 280.193 233.431C279.403 233.058 278.778 233.068 278.344 233.485C277.379 234.415 277.44 237.088 278.494 239.737C278.927 240.85 280.277 243.727 282.99 245.263Z" fill="#231F20"/>
<path d="M252.145 436.492C252.459 436.426 260.01 434.743 263.029 437.53C264.02 438.455 264.422 439.734 264.198 441.374C264.103 442.05 263.886 442.671 263.571 443.212C264.038 443.332 264.494 443.484 264.932 443.7C267.148 444.809 269.238 447.64 266.666 454.798L266.198 454.625C268.146 449.236 267.625 445.6 264.715 444.146C264.261 443.925 263.793 443.752 263.29 443.639C262.276 445.029 260.62 445.897 259.196 446.269C257.662 446.662 256.391 446.517 255.967 445.9C255.785 445.635 255.672 445.197 256.098 444.514C256.67 443.627 260.086 442.539 263.073 443.083C263.399 442.563 263.644 441.967 263.723 441.287C263.909 439.829 263.569 438.692 262.714 437.895C259.873 435.265 252.354 436.958 252.265 436.967L252.145 436.492ZM262.725 443.561C259.946 443.131 256.912 444.155 256.491 444.823C256.266 445.178 256.221 445.447 256.354 445.644C256.607 446.017 257.627 446.194 259.067 445.827C260.328 445.477 261.793 444.729 262.725 443.561Z" fill="#231F20"/>
<path d="M224.32 578.231L217.058 590.745L229.752 597.843L237.014 585.329L224.32 578.231Z" fill="#00E4AF"/>
<path d="M228.267 576.449C228.318 576.443 228.37 576.454 228.424 576.482L241.105 583.58C241.159 583.607 241.2 583.669 241.224 583.733C241.248 583.797 241.239 583.865 241.194 583.92L233.932 596.422C233.861 596.546 233.712 596.579 233.585 596.51L220.904 589.412C220.85 589.385 220.809 589.322 220.785 589.258C220.761 589.194 220.771 589.126 220.815 589.071L228.077 576.57C228.12 576.499 228.184 576.458 228.267 576.449ZM240.63 583.882L228.383 577.037L221.38 589.109L233.626 595.955L240.63 583.882Z" fill="#231F20"/>
<path d="M284.944 394.591L296.771 402.821L304.993 390.751L293.167 382.521L284.944 394.591Z" fill="#00E4AF"/>
<path d="M283.544 390.427C283.554 390.394 283.558 390.378 283.584 390.35L291.8 378.293C291.886 378.178 292.032 378.15 292.15 378.22L303.964 386.444C304.077 386.53 304.102 386.678 304.032 386.798L295.817 398.855C295.731 398.971 295.584 398.998 295.466 398.928L283.653 390.705C283.546 390.656 283.511 390.54 283.544 390.427ZM292.068 378.794L284.128 390.44L295.539 398.387L303.479 386.741L292.068 378.794Z" fill="#231F20"/>
<path d="M145.66 283.376L155.98 273.089L145.932 262.716L135.612 273.002L145.66 283.376Z" fill="#23E0A2"/>
<path d="M131.199 273.376C131.209 273.344 131.239 273.3 131.265 273.273L141.586 262.995C141.632 262.956 141.694 262.921 141.762 262.924C141.831 262.926 141.894 262.945 141.933 262.992L151.972 273.366C152.065 273.464 152.069 273.624 151.972 273.718L141.651 283.996C141.605 284.035 141.543 284.069 141.475 284.067C141.406 284.064 141.343 284.046 141.305 283.999L131.265 273.624C131.195 273.569 131.176 273.457 131.199 273.376ZM141.755 263.537L131.796 273.464L141.493 283.474L151.452 273.548L141.755 263.537Z" fill="#231F20"/>
<path d="M402.228 617.828C418.417 613.485 420.848 605.632 420.008 599.828C419.902 599.013 419.722 598.233 419.488 597.482C415.525 597.338 412.343 594.86 411.222 593.841C408.487 591.404 406.963 588.365 407.591 586.626C407.818 585.996 408.438 585.215 410.071 585.186C411.365 585.158 413.767 586.963 415.869 589.554C417.023 590.973 418.87 593.589 419.935 596.853C421.271 596.837 422.693 596.522 424.158 595.772C427.227 594.165 429.047 591.827 429.556 588.87C431.122 579.871 420.256 567.632 420.135 567.511L420.563 567.11C421.013 567.618 431.724 579.662 430.134 588.97C429.578 592.118 427.664 594.595 424.431 596.292C422.95 597.065 421.493 597.407 420.122 597.45C420.33 598.164 420.486 598.929 420.605 599.7C421.471 605.764 418.997 613.93 402.385 618.369L402.228 617.828ZM419.317 596.862C418.284 593.775 416.546 591.323 415.422 589.959C413.198 587.248 411.018 585.789 410.08 585.794C409.045 585.817 408.387 586.159 408.148 586.832C407.616 588.329 409.098 591.132 411.619 593.384C412.669 594.334 415.625 596.67 419.317 596.862Z" fill="#231F20"/>
<path d="M273.611 626.526C274.678 632.484 280.293 636.463 286.151 635.413C292.01 634.364 295.894 628.684 294.827 622.726C293.76 616.768 288.145 612.789 282.287 613.838C276.428 614.887 272.544 620.568 273.611 626.526Z" fill="#CBF5E7"/>
<path d="M270.965 623.743C269.88 617.685 273.836 611.899 279.793 610.832C285.75 609.765 291.469 613.818 292.554 619.876C293.639 625.934 289.683 631.72 283.726 632.787C277.783 633.851 272.05 629.801 270.965 623.743ZM292.181 619.943C291.135 614.104 285.603 610.183 279.861 611.211C274.12 612.24 270.293 617.837 271.338 623.676C272.384 629.515 277.916 633.436 283.658 632.407C289.4 631.379 293.227 625.782 292.181 619.943Z" fill="#231F20"/>
<path d="M513.461 248.488C522.165 260.502 538.798 263.302 550.611 254.743C562.424 246.184 564.945 229.507 556.241 217.493C547.537 205.479 530.904 202.679 519.09 211.238C507.277 219.797 504.757 236.474 513.461 248.488Z" fill="#CBF5E7"/>
<path d="M504.66 245.17C495.81 232.954 498.377 215.967 510.389 207.264C522.401 198.561 539.342 201.414 548.193 213.629C557.043 225.845 554.476 242.832 542.464 251.535C530.481 260.217 513.511 257.385 504.66 245.17ZM547.44 214.175C538.91 202.401 522.521 199.641 510.943 208.03C499.366 216.418 496.882 232.851 505.413 244.625C513.943 256.399 530.332 259.158 541.91 250.77C553.487 242.381 555.971 225.949 547.44 214.175Z" fill="#231F20"/>
<path d="M324.809 565.133L336.213 570.761L341.686 559.208L330.282 553.58L324.809 565.133Z" fill="#00E4AF"/>
<path d="M323.011 561.778C323.004 561.734 323.01 561.688 323.031 561.639L328.504 550.097C328.525 550.048 328.577 550.009 328.632 549.984C328.687 549.959 328.747 549.963 328.798 549.999L340.191 555.627C340.305 555.682 340.343 555.811 340.289 555.926L334.816 567.468C334.795 567.516 334.743 567.556 334.688 567.581C334.633 567.606 334.573 567.601 334.522 567.565L323.129 561.937C323.064 561.904 323.024 561.851 323.011 561.778ZM328.798 550.496L323.52 561.641L334.522 567.068L339.8 555.923L328.798 550.496Z" fill="#231F20"/>
</svg>
