<svg width="416" height="631" viewBox="0 0 416 631" fill="none" xmlns="http://www.w3.org/2000/svg">
<path d="M372.518 366.311C369.75 350.853 373.072 335.259 381.861 322.406C390.65 309.552 403.861 300.967 419.061 298.244C434.261 295.522 449.63 298.988 462.334 307.992C475.038 316.996 483.566 330.466 486.335 345.924C489.103 361.382 485.781 376.975 476.992 389.829C468.203 402.683 454.993 411.268 439.793 413.99C424.593 416.713 409.223 413.247 396.519 404.243C383.815 395.239 375.287 381.768 372.518 366.311ZM482.462 346.618C477.136 316.884 449.004 296.946 419.766 302.183C390.528 307.42 371.065 335.883 376.391 365.617C381.717 395.351 409.849 415.289 439.087 410.052C468.325 404.815 487.788 376.352 482.462 346.618Z" fill="#CBF5E7"/>
<path d="M360.142 557.568L365.638 541.189L349.482 535.51L343.987 551.889L360.142 557.568Z" fill="#23E0A2"/>
<path d="M339.508 554.618C339.501 554.579 339.51 554.516 339.522 554.474L345.023 538.104C345.052 538.038 345.099 537.968 345.173 537.935C345.247 537.901 345.324 537.887 345.389 537.916L361.536 543.6C361.685 543.655 361.775 543.822 361.722 543.973L356.221 560.343C356.193 560.409 356.146 560.479 356.072 560.512C355.998 560.546 355.92 560.56 355.855 560.531L339.709 554.847C339.605 554.825 339.526 554.717 339.508 554.618ZM345.49 538.589L340.188 554.395L355.777 559.874L361.08 544.068L345.49 538.589Z" fill="#231F20"/>
<path d="M388.388 363.803C386.336 352.344 388.798 340.784 395.314 331.255C401.829 321.727 411.623 315.362 422.891 313.344C434.159 311.326 445.553 313.895 454.97 320.57C464.388 327.245 470.71 337.231 472.763 348.69C474.815 360.149 472.352 371.709 465.837 381.238C459.321 390.766 449.528 397.131 438.26 399.149C426.992 401.167 415.598 398.598 406.18 391.923C396.763 385.248 390.441 375.262 388.388 363.803ZM469.892 349.204C465.944 327.162 445.089 312.381 423.414 316.264C401.739 320.146 387.311 341.246 391.259 363.289C395.207 385.331 416.062 400.112 437.737 396.229C459.412 392.347 473.84 371.247 469.892 349.204Z" fill="#CBF5E7"/>
<path d="M409.535 360.016C407.423 348.221 415.147 336.924 426.746 334.846C438.344 332.769 449.51 340.682 451.622 352.477C453.735 364.272 446.01 375.569 434.412 377.647C422.814 379.724 411.648 371.811 409.535 360.016ZM450.187 352.734C448.218 341.742 437.816 334.37 427.007 336.306C416.198 338.242 409.002 348.767 410.971 359.759C412.94 370.751 423.342 378.123 434.15 376.187C444.959 374.251 452.156 363.726 450.187 352.734Z" fill="#23E0A2"/>
<path d="M351.777 357.222L355.851 345.08L343.874 340.87L339.8 353.012L351.777 357.222Z" fill="#23E0A2"/>
<path d="M336.479 355.04C336.474 355.011 336.48 354.964 336.489 354.932L340.567 342.797C340.588 342.748 340.623 342.697 340.678 342.672C340.733 342.647 340.79 342.637 340.839 342.658L352.808 346.872C352.919 346.912 352.986 347.036 352.947 347.148L348.869 359.284C348.848 359.333 348.813 359.384 348.758 359.409C348.703 359.434 348.645 359.444 348.597 359.423L336.628 355.209C336.551 355.193 336.492 355.113 336.479 355.04ZM340.913 343.157L336.982 354.874L348.54 358.936L352.47 347.219L340.913 343.157Z" fill="#231F20"/>
<path d="M94.9096 589.093C80.1599 594.483 64.2272 593.897 50.0518 587.453C35.8764 581.01 25.1439 569.475 19.8437 554.972C14.5435 540.468 15.3102 524.731 21.9911 510.666C28.6719 496.601 40.4725 485.88 55.2222 480.49C69.9719 475.1 85.9046 475.686 100.08 482.13C114.255 488.573 124.988 500.107 130.288 514.611C135.588 529.115 134.822 544.852 128.141 558.917C121.46 572.982 109.659 583.703 94.9096 589.093ZM56.5726 484.185C28.2005 494.553 13.4063 525.699 23.6016 553.598C33.7969 581.497 65.1872 595.766 93.5593 585.398C121.931 575.03 136.725 543.884 126.53 515.985C116.335 488.085 84.9446 473.817 56.5726 484.185Z" fill="#CBF5E7"/>
<path d="M298.024 360.458C290.958 345.259 282.804 344.217 277.231 346.045C276.447 346.289 275.709 346.601 275.01 346.961C275.551 350.889 273.657 354.45 272.847 355.731C270.918 358.844 268.186 360.869 266.366 360.55C265.706 360.435 264.829 359.959 264.52 358.355C264.269 357.085 265.634 354.408 267.823 351.891C269.023 350.51 271.281 348.24 274.313 346.629C274.068 345.316 273.512 343.969 272.521 342.656C270.409 339.909 267.793 338.519 264.793 338.526C255.658 338.534 245.474 351.346 245.376 351.486L244.906 351.134C245.33 350.602 255.348 337.977 264.791 337.94C267.988 337.945 270.757 339.404 272.986 342.297C274.003 343.622 274.591 344.999 274.869 346.342C275.537 346.014 276.263 345.728 277.003 345.479C282.827 343.581 291.297 344.611 298.53 360.21L298.024 360.458ZM274.429 347.236C271.566 348.785 269.449 350.92 268.3 352.261C266.012 354.919 264.951 357.318 265.118 358.241C265.318 359.257 265.768 359.847 266.472 359.966C268.039 360.232 270.545 358.289 272.328 355.418C273.083 354.22 274.875 350.906 274.429 347.236Z" fill="#231F20"/>
<path d="M285.44 568.34L268.359 565.749L265.549 582.64L282.629 585.232L285.44 568.34Z" fill="#23E0A2"/>
<path d="M286.088 589.175C286.051 589.188 285.988 589.19 285.943 589.186L268.87 586.587C268.801 586.57 268.724 586.535 268.678 586.468C268.632 586.401 268.605 586.327 268.623 586.258L271.441 569.374C271.469 569.217 271.617 569.1 271.776 569.126L288.849 571.725C288.919 571.741 288.995 571.776 289.041 571.843C289.087 571.91 289.114 571.984 289.097 572.053L286.279 588.938C286.275 589.044 286.182 589.14 286.088 589.175ZM269.268 586.043L285.751 588.544L288.463 572.243L271.98 569.743L269.268 586.043Z" fill="#231F20"/>
<path d="M266.31 448.027C271.995 445.949 274.947 439.733 272.904 434.143C270.861 428.553 264.597 425.705 258.912 427.783C253.227 429.86 250.274 436.076 252.317 441.666C254.36 447.257 260.625 450.104 266.31 448.027Z" fill="#CBF5E7"/>
<path d="M264.023 451.112C258.243 453.225 251.862 450.324 249.784 444.64C247.707 438.956 250.715 432.624 256.495 430.512C262.276 428.4 268.657 431.3 270.734 436.984C272.806 442.655 269.804 449 264.023 451.112ZM256.625 430.868C251.054 432.904 248.145 439.029 250.147 444.508C252.149 449.986 258.321 452.792 263.893 450.756C269.465 448.72 272.374 442.595 270.372 437.117C268.37 431.638 262.197 428.832 256.625 430.868Z" fill="#231F20"/>
<path d="M160.525 390.858L132.488 387.056L128.332 414.777L156.369 418.58L160.525 390.858Z" fill="#23E0A2"/>
<path d="M123.603 417.36C123.527 417.326 123.483 417.249 123.5 417.165L127.657 389.438C127.663 389.327 127.779 389.254 127.882 389.278L155.924 393.081C156.037 393.087 156.11 393.2 156.084 393.302L151.927 421.029C151.92 421.14 151.805 421.214 151.701 421.189L123.659 417.386C123.654 417.372 123.622 417.369 123.603 417.36ZM128.027 389.675L123.918 417.012L151.574 420.755L155.665 393.409L128.027 389.675Z" fill="#231F20"/>
<path d="M89.7063 573.891C78.772 577.887 66.9607 577.452 56.4522 572.676C45.9436 567.899 37.9874 559.348 34.0582 548.596C30.1291 537.844 30.6975 526.178 35.6501 515.752C40.6028 505.325 49.3508 497.377 60.2851 493.381C71.2194 489.386 83.0306 489.82 93.5392 494.597C104.048 499.374 112.004 507.924 115.933 518.676C119.862 529.428 119.294 541.094 114.341 551.521C109.389 561.948 100.641 569.896 89.7063 573.891ZM61.2862 496.121C40.2533 503.807 29.286 526.896 36.8441 547.578C44.4021 568.26 67.6724 578.838 88.7052 571.152C109.738 563.466 120.705 540.377 113.147 519.694C105.589 499.012 82.319 488.435 61.2862 496.121Z" fill="#CBF5E7"/>
<path d="M82.3338 553.716C71.0791 557.828 58.6203 552.165 54.5761 541.098C50.5318 530.031 56.4036 517.669 67.6582 513.556C78.9129 509.444 91.3717 515.107 95.416 526.174C99.4603 537.241 93.5885 549.603 82.3338 553.716ZM68.1588 514.926C57.6702 518.759 52.2 530.275 55.969 540.589C59.738 550.903 71.3447 556.179 81.8333 552.346C92.3218 548.513 97.7921 536.997 94.0231 526.683C90.2541 516.369 78.6473 511.093 68.1588 514.926Z" fill="#23E0A2"/>
<path d="M61.358 478.35C56.1195 467.082 50.0744 466.311 45.9432 467.665C45.3621 467.846 44.8149 468.077 44.2967 468.344C44.6977 471.256 43.2941 473.896 42.6936 474.845C41.2635 477.154 39.2383 478.654 37.8887 478.418C37.3997 478.333 36.7498 477.98 36.5205 476.791C36.3344 475.85 37.346 473.865 38.9692 471.999C39.8583 470.975 41.5327 469.292 43.7805 468.098C43.5983 467.125 43.1862 466.126 42.4514 465.153C40.8862 463.116 38.9467 462.086 36.7224 462.092C29.951 462.097 22.4008 471.595 22.3284 471.699L21.9804 471.438C22.2942 471.044 29.7212 461.685 36.7215 461.657C39.0912 461.661 41.1444 462.742 42.7964 464.887C43.5501 465.869 43.9862 466.89 44.1923 467.886C44.6876 467.642 45.2258 467.43 45.7741 467.245C50.0914 465.839 56.3705 466.603 61.733 478.166L61.358 478.35ZM43.866 468.548C41.7436 469.696 40.1745 471.279 39.3222 472.274C37.6266 474.244 36.8395 476.022 36.9634 476.707C37.1122 477.46 37.4456 477.897 37.9675 477.985C39.1288 478.182 40.9868 476.742 42.3088 474.613C42.8686 473.726 44.197 471.269 43.866 468.548Z" fill="#231F20"/>
<path d="M142.139 455.831C141.928 455.644 136.794 451.186 137.187 447.596C137.323 446.413 138.017 445.46 139.293 444.761C139.82 444.475 140.374 444.304 140.92 444.244C140.761 443.852 140.63 443.45 140.554 443.027C140.181 440.881 141.09 437.925 147.493 436.004L147.615 436.426C142.788 437.863 140.491 440.131 140.983 442.948C141.064 443.384 141.186 443.805 141.369 444.22C142.881 444.211 144.359 444.928 145.367 445.74C146.446 446.619 147.007 447.594 146.792 448.215C146.7 448.482 146.45 448.791 145.744 448.847C144.818 448.906 142.265 447.06 141.089 444.664C140.552 444.705 140.002 444.844 139.48 445.143C138.352 445.773 137.726 446.607 137.609 447.628C137.235 451.01 142.359 455.44 142.412 455.499L142.139 455.831ZM141.609 444.66C142.756 446.849 145.065 448.458 145.757 448.407C146.127 448.381 146.339 448.272 146.41 448.076C146.541 447.702 146.134 446.888 145.121 446.062C144.215 445.354 142.921 444.708 141.609 444.66Z" fill="#231F20"/>
<path d="M234.448 401.625L238.026 389.422L225.703 386.021L222.125 398.224L234.448 401.625Z" fill="#00E4AF"/>
<path d="M231.451 403.973C231.409 403.988 231.363 403.99 231.311 403.978L218.999 400.574C218.947 400.562 218.899 400.518 218.865 400.468C218.831 400.418 218.825 400.358 218.852 400.302L222.433 388.11C222.468 387.988 222.588 387.929 222.711 387.962L235.023 391.365C235.074 391.377 235.122 391.422 235.156 391.472C235.19 391.521 235.196 391.581 235.17 391.637L231.588 403.83C231.567 403.9 231.521 403.948 231.451 403.973ZM219.342 400.216L231.229 403.495L234.68 391.723L222.792 388.444L219.342 400.216Z" fill="#231F20"/>
<path d="M95.3839 454.536L95.0234 441.877L82.1961 442.371L82.5566 455.029L95.3839 454.536Z" fill="#00E4AF"/>
<path d="M93.1733 457.701C93.1454 457.712 93.1315 457.717 93.0986 457.713L80.2836 458.204C80.1571 458.204 80.0614 458.115 80.0492 457.995L79.6907 445.348C79.6924 445.223 79.7838 445.128 79.9053 445.114L92.7203 444.623C92.8467 444.624 92.9425 444.713 92.9547 444.833L93.3132 457.48C93.3343 457.58 93.2708 457.666 93.1733 457.701ZM80.4978 457.753L92.8777 457.282L92.534 445.064L80.154 445.536L80.4978 457.753Z" fill="#231F20"/>
<path d="M89.5296 611.092L76.8672 609.17L74.7835 621.693L87.4459 623.614L89.5296 611.092Z" fill="#23E0A2"/>
<path d="M90.0156 626.537C89.9878 626.547 89.941 626.549 89.9081 626.545L77.2516 624.618C77.1998 624.606 77.143 624.58 77.109 624.531C77.0751 624.481 77.0551 624.426 77.0679 624.375L79.1569 611.858C79.1776 611.742 79.288 611.655 79.4055 611.674L92.062 613.601C92.1138 613.613 92.1706 613.639 92.2045 613.689C92.2385 613.739 92.2585 613.793 92.2457 613.845L90.1566 626.361C90.1538 626.44 90.0853 626.512 90.0156 626.537ZM77.5465 624.216L89.7658 626.069L91.776 613.985L79.5567 612.132L77.5465 624.216Z" fill="#231F20"/>
<path d="M257.024 31.4531C249.958 16.2543 241.804 15.2131 236.231 17.0402C235.447 17.2847 234.709 17.5963 234.01 17.9565C234.551 21.8847 232.657 25.4459 231.847 26.7263C229.918 29.8398 227.186 31.8643 225.366 31.5453C224.706 31.4303 223.829 30.9548 223.52 29.3505C223.269 28.0809 224.634 25.404 226.823 22.8865C228.023 21.5058 230.281 19.2353 233.313 17.6246C233.068 16.3111 232.512 14.9645 231.521 13.6512C229.409 10.9042 226.793 9.51467 223.793 9.52205C214.658 9.52999 204.474 22.3414 204.376 22.4818L203.906 22.1298C204.33 21.5981 214.348 8.97308 223.791 8.93605C226.988 8.94077 229.757 10.4 231.986 13.2926C233.003 14.6176 233.591 15.9943 233.869 17.3378C234.537 17.0099 235.263 16.7236 236.003 16.4743C241.827 14.5764 250.297 15.607 257.53 31.2054L257.024 31.4531ZM233.429 18.2317C230.566 19.7806 228.449 21.9154 227.3 23.257C225.012 25.915 223.951 28.3135 224.118 29.2369C224.318 30.2526 224.768 30.8422 225.472 30.9619C227.039 31.2272 229.545 29.285 231.328 26.4133C232.083 25.2158 233.875 21.9012 233.429 18.2317Z" fill="#231F20"/>
<path d="M144.125 81.1071L143.707 81.2598L146.415 88.6698L146.833 88.517L144.125 81.1071Z" fill="#231F20"/>
<path d="M156.068 74.21L152.285 87.4678L152.712 87.5824L156.495 74.3246L156.068 74.21Z" fill="#231F20"/>
<path d="M225.31 119.023C230.995 116.946 233.947 110.73 231.904 105.14C229.861 99.5495 223.597 96.7019 217.912 98.7794C212.227 100.857 209.274 107.073 211.317 112.663C213.36 118.253 219.625 121.101 225.31 119.023Z" fill="#CBF5E7"/>
<path d="M223.023 122.109C217.243 124.221 210.862 121.321 208.784 115.636C206.707 109.952 209.715 103.621 215.495 101.509C221.276 99.3962 227.657 102.297 229.734 107.981C231.806 113.651 228.804 119.996 223.023 122.109ZM215.625 101.865C210.054 103.901 207.145 110.025 209.147 115.504C211.149 120.983 217.321 123.789 222.893 121.753C228.465 119.716 231.374 113.592 229.372 108.113C227.37 102.634 221.197 99.8287 215.625 101.865Z" fill="#231F20"/>
<path d="M119.523 61.8536L91.4863 58.0508L87.3302 85.7726L115.367 89.5754L119.523 61.8536Z" fill="#23E0A2"/>
<path d="M82.6007 88.3552C82.5249 88.3208 82.481 88.2437 82.4977 88.1599L86.6546 60.4331C86.6613 60.3219 86.7767 60.2487 86.8803 60.273L114.922 64.0764C115.035 64.0819 115.108 64.195 115.082 64.2975L110.925 92.0244C110.918 92.1355 110.803 92.2087 110.7 92.1845L82.6575 88.381C82.6525 88.3673 82.6196 88.3638 82.6007 88.3552ZM87.0254 60.6702L82.9156 88.0072L110.572 91.7497L114.663 64.404L87.0254 60.6702Z" fill="#231F20"/>
<path d="M193.446 72.6207L197.024 60.4175L184.701 57.0164L181.123 69.2196L193.446 72.6207Z" fill="#00E4AF"/>
<path d="M190.449 74.9687C190.408 74.984 190.361 74.9856 190.309 74.9734L177.997 71.57C177.945 71.5578 177.897 71.5132 177.863 71.4635C177.829 71.4138 177.823 71.3539 177.85 71.2976L181.431 59.1052C181.466 58.9839 181.586 58.9244 181.709 58.9572L194.021 62.3607C194.072 62.3728 194.12 62.4175 194.154 62.4671C194.188 62.5168 194.194 62.5767 194.168 62.6331L190.586 74.8255C190.565 74.8955 190.519 74.9433 190.449 74.9687ZM178.34 71.2118L190.227 74.4909L193.678 62.7189L181.79 59.4398L178.34 71.2118Z" fill="#231F20"/>
<path d="M475.237 70.6352L428.523 46.0078L403.479 91.9425L450.192 116.57L475.237 70.6352Z" fill="#23E0A2"/>
<path d="M393.537 93.4419C393.427 93.333 393.399 93.1697 393.482 93.0336L418.531 47.0905C418.614 46.9 418.863 46.8455 419.029 46.9544L465.751 71.5862C465.945 71.6679 466.001 71.9128 465.89 72.0761L440.84 118.019C440.757 118.21 440.508 118.264 440.342 118.155L393.62 93.5235C393.62 93.4963 393.565 93.4691 393.537 93.4419ZM419.029 47.7437L394.312 93.0336L440.398 117.312L465.087 71.9945L419.029 47.7437Z" fill="#231F20"/>
<path d="M233.833 346.129C212.105 346.129 191.678 337.8 176.316 322.695C160.954 307.589 152.484 287.502 152.484 266.137C152.484 244.771 160.954 224.684 176.316 209.579C191.678 194.473 212.105 186.145 233.833 186.145C255.561 186.145 275.988 194.473 291.349 209.579C306.711 224.684 315.181 244.771 315.181 266.137C315.181 287.502 306.711 307.589 291.349 322.695C275.988 337.8 255.561 346.129 233.833 346.129ZM233.833 191.588C192.038 191.588 158.02 225.038 158.02 266.137C158.02 307.235 192.038 340.685 233.833 340.685C275.628 340.685 309.645 307.235 309.645 266.137C309.645 225.038 275.628 191.588 233.833 191.588Z" fill="#CBF5E7"/>
<path d="M245.345 160.478C243.379 137.371 233.277 132.145 225.167 131.873C224.032 131.818 222.925 131.873 221.845 132.009C220.683 137.371 216.531 141.1 214.87 142.379C210.884 145.509 206.373 146.842 204.159 145.563C203.356 145.101 202.442 144.066 202.802 141.834C203.079 140.065 206.124 137.235 210.165 135.003C212.379 133.778 216.393 131.9 221.098 131.247C221.402 129.423 221.319 127.409 220.655 125.232C219.216 120.659 216.476 117.611 212.573 116.196C200.699 111.868 181.379 123.68 181.185 123.816L180.742 123.136C181.545 122.646 200.56 110.997 212.85 115.433C217.002 116.958 219.908 120.169 221.43 124.987C222.122 127.191 222.233 129.26 221.956 131.138C222.98 131.029 224.06 131.002 225.139 131.029C233.609 131.328 244.127 136.69 246.12 160.397L245.345 160.478ZM220.96 132.091C216.503 132.744 212.739 134.513 210.608 135.71C206.373 138.078 203.854 140.691 203.633 141.971C203.411 143.386 203.716 144.366 204.574 144.856C206.484 145.944 210.663 144.611 214.344 141.726C215.894 140.528 219.797 137.071 220.96 132.091Z" fill="#231F20"/>
<path d="M401.379 172.753C401.13 172.291 394.985 161.186 397.974 155.144C398.971 153.157 400.798 151.932 403.483 151.524C404.59 151.36 405.669 151.415 406.666 151.66C406.638 150.871 406.666 150.081 406.804 149.292C407.524 145.291 411.011 140.691 423.467 141.426L423.411 142.243C414.028 141.671 408.548 144.175 407.607 149.428C407.468 150.245 407.413 151.061 407.468 151.905C410.126 152.857 412.257 155.062 413.502 157.131C414.831 159.362 415.191 161.431 414.416 162.384C414.084 162.792 413.447 163.173 412.174 162.819C410.513 162.329 407.219 157.457 406.693 152.504C405.725 152.231 404.673 152.123 403.566 152.313C401.185 152.694 399.552 153.756 398.694 155.47C395.871 161.159 402.016 172.209 402.071 172.345L401.379 172.753ZM407.607 152.83C408.216 157.403 411.233 161.703 412.478 162.057C413.142 162.247 413.585 162.193 413.834 161.894C414.305 161.322 414.111 159.635 412.866 157.539C411.731 155.715 409.876 153.756 407.607 152.83Z" fill="#231F20"/>
<path d="M320.249 140.533L327.727 118.111L304.924 110.758L297.446 133.18L320.249 140.533Z" fill="#00E4AF"/>
<path d="M314.346 144.665C314.29 144.665 314.263 144.665 314.207 144.638L291.428 137.289C291.206 137.207 291.095 136.99 291.151 136.772L298.624 114.372C298.707 114.154 298.929 114.045 299.15 114.1L321.93 121.449C322.151 121.53 322.262 121.748 322.207 121.966L314.733 144.366C314.706 144.556 314.539 144.665 314.346 144.665ZM292.092 136.636L314.097 143.74L321.321 122.102L299.316 114.998L292.092 136.636Z" fill="#231F20"/>
<path d="M209.692 411.229L188.726 399.749L177.051 420.366L198.017 431.846L209.692 411.229Z" fill="#23E0A2"/>
<path d="M200.644 438.614C200.588 438.614 200.505 438.586 200.45 438.559L179.497 427.073C179.414 427.019 179.331 426.937 179.303 426.828C179.276 426.72 179.276 426.611 179.331 426.529L191.012 405.925C191.122 405.735 191.371 405.653 191.565 405.762L212.518 417.248C212.601 417.302 212.684 417.384 212.712 417.493C212.739 417.602 212.739 417.711 212.684 417.792L201.004 438.396C200.948 438.532 200.782 438.614 200.644 438.614ZM180.272 426.556L200.505 437.634L211.771 417.738L191.537 406.66L180.272 426.556Z" fill="#231F20"/>
</svg>
