<svg width="701" height="527" viewBox="0 0 701 527" fill="none" xmlns="http://www.w3.org/2000/svg">
<path d="M268.868 410.937C267.712 433.092 258.217 438.405 250.471 438.92C249.388 439.007 248.327 438.99 247.291 438.894C246.012 433.803 241.925 430.368 240.297 429.197C236.388 426.329 232.033 425.195 229.956 426.488C229.203 426.955 228.362 427.973 228.776 430.096C229.096 431.778 232.096 434.39 236.029 436.397C238.185 437.499 242.081 439.168 246.6 439.646C246.949 441.38 246.932 443.308 246.365 445.411C245.132 449.828 242.608 452.828 238.921 454.303C227.703 458.813 208.861 448.124 208.671 448L208.269 448.665C209.052 449.108 227.598 459.65 239.209 455.023C243.131 453.436 245.809 450.274 247.114 445.621C247.707 443.491 247.748 441.51 247.424 439.723C248.407 439.795 249.44 439.787 250.471 439.727C258.56 439.176 268.448 433.72 269.611 410.991L268.868 410.937ZM246.442 438.843C242.16 438.358 238.506 436.785 236.43 435.706C232.307 433.575 229.817 431.156 229.565 429.939C229.309 428.593 229.57 427.647 230.375 427.152C232.167 426.051 236.205 427.195 239.815 429.838C241.334 430.935 245.174 434.117 246.442 438.843Z" fill="#231F20"/>
<path d="M57.3366 241.47L37.6494 253.104L25.8411 233.757L45.5282 222.123L57.3366 241.47Z" fill="#23E0A2"/>
<path d="M47.8275 215.572C47.7745 215.574 47.696 215.603 47.6439 215.63L27.9701 227.269C27.8924 227.323 27.8156 227.404 27.7925 227.509C27.7695 227.614 27.7729 227.718 27.8284 227.794L39.6417 247.128C39.7535 247.307 39.9943 247.377 40.1761 247.267L59.8499 235.629C59.9276 235.574 60.0044 235.493 60.0275 235.388C60.0506 235.283 60.0471 235.179 59.9917 235.103L48.1783 215.769C48.1211 215.641 47.9598 215.568 47.8275 215.572ZM28.7273 227.739L47.7258 216.513L59.12 235.184L40.1215 246.409L28.7273 227.739Z" fill="#231F20"/>
<path d="M112.25 395.357L111.661 395.377L111.319 384.94L111.908 384.921L112.25 395.357Z" fill="#231F20"/>
<path d="M130.326 397.917L119.122 383.512L119.59 383.16L130.793 397.564L130.326 397.917Z" fill="#231F20"/>
<path d="M193.15 308.637C201.157 308.375 207.857 314.545 208.115 322.419C208.373 330.292 202.091 336.888 194.084 337.15C186.077 337.412 179.377 331.242 179.119 323.369C178.861 315.495 185.143 308.899 193.15 308.637Z" fill="#CBF5E7"/>
<path d="M188.819 305.98C180.678 306.247 174.279 312.965 174.541 320.971C174.804 328.977 181.628 335.262 189.77 334.995C197.912 334.728 204.31 328.01 204.048 320.004C203.786 312.018 196.961 305.714 188.819 305.98ZM189.753 334.493C181.906 334.75 175.304 328.671 175.051 320.954C174.799 313.238 180.988 306.739 188.836 306.482C196.683 306.225 203.285 312.304 203.538 320.021C203.791 327.738 197.601 334.236 189.753 334.493Z" fill="#231F20"/>
<path d="M77.8558 470.602L45.3174 489.143L26.4991 457.166L59.0375 438.625L77.8558 470.602Z" fill="#23E0A2"/>
<path d="M19.4166 456.336C19.3406 456.415 19.3248 456.532 19.3868 456.626L38.2085 488.609C38.2718 488.742 38.4496 488.775 38.5648 488.694L71.1091 470.15C71.2446 470.088 71.2781 469.913 71.1959 469.799L52.3742 437.817C52.3109 437.684 52.1331 437.651 52.0179 437.732L19.4735 456.276C19.4742 456.295 19.4356 456.316 19.4166 456.336ZM38.5465 488.134L19.9754 456.607L52.0767 438.329L70.6288 469.876L38.5465 488.134Z" fill="#231F20"/>
<path d="M36.8595 360.495C36.6937 360.829 32.5962 368.842 34.8553 373.056C35.6077 374.441 36.931 375.266 38.8435 375.493C39.632 375.583 40.3959 375.52 41.0965 375.323C41.0952 375.883 41.1331 376.442 41.2496 376.998C41.8525 379.817 44.4313 382.997 53.2426 382.187L53.1844 381.609C46.547 382.232 42.6043 380.585 41.8153 376.883C41.6983 376.308 41.6401 375.73 41.6597 375.131C43.521 374.394 44.9805 372.782 45.8153 371.287C46.7051 369.674 46.9121 368.199 46.3407 367.542C46.0958 367.261 45.6357 367.005 44.7415 367.286C43.5757 367.671 41.3542 371.201 41.0965 374.724C40.4162 374.94 39.6732 375.041 38.884 374.932C37.188 374.717 36.0058 374.003 35.3578 372.807C33.2246 368.841 37.3234 360.866 37.3595 360.768L36.8595 360.495ZM41.7363 374.472C42.0618 371.217 44.1004 368.098 44.975 367.819C45.4414 367.668 45.7566 367.697 45.9401 367.903C46.2869 368.297 46.1887 369.498 45.3546 371.012C44.5925 372.331 43.3236 373.763 41.7363 374.472Z" fill="#231F20"/>
<path d="M176.994 381.369L187.426 394.579L173.98 404.852L163.549 391.641L176.994 381.369Z" fill="#00E4AF"/>
<path d="M172.155 379.969C172.096 379.971 172.038 379.992 171.981 380.032L158.55 390.302C158.492 390.343 158.455 390.421 158.438 390.499C158.421 390.577 158.443 390.654 158.504 390.71L168.933 403.906C169.036 404.038 169.213 404.051 169.347 403.95L182.778 393.68C182.835 393.64 182.872 393.561 182.889 393.483C182.906 393.406 182.884 393.329 182.824 393.273L172.395 380.077C172.333 380.002 172.253 379.966 172.155 379.969ZM159.148 390.573L172.119 380.665L182.18 393.41L169.208 403.317L159.148 390.573Z" fill="#231F20"/>
<path d="M307.128 287.079L307.95 287.196L305.866 301.773L305.044 301.655L307.128 287.079Z" fill="#231F20"/>
<path d="M282.654 279.096L294.68 301.844L293.944 302.219L281.918 279.47L282.654 279.096Z" fill="#231F20"/>
<path d="M-24.6925 172.09C-35.8756 170.491 -43.667 160.28 -42.095 149.284C-40.523 138.287 -30.183 130.668 -18.9998 132.267C-7.8167 133.866 -0.0253263 144.076 -1.59732 155.073C-3.16931 166.07 -13.5094 173.688 -24.6925 172.09Z" fill="#CBF5E7"/>
<path d="M-19.3315 176.842C-7.96036 178.468 2.57157 170.708 4.16999 159.526C5.76841 148.345 -2.16753 137.945 -13.5387 136.319C-24.9098 134.694 -35.4417 142.454 -37.0401 153.635C-38.6347 164.79 -30.7026 175.217 -19.3315 176.842ZM-13.6388 137.02C-2.67868 138.586 4.9982 148.647 3.45756 159.424C1.91691 170.202 -8.27122 177.708 -19.2314 176.142C-30.1915 174.575 -37.8684 164.514 -36.3277 153.737C-34.7871 142.96 -24.5989 135.453 -13.6388 137.02Z" fill="#231F20"/>
<path d="M102.546 331.881C102.859 331.459 110.513 321.335 108.409 314.931C107.703 312.823 106.068 311.352 103.468 310.568C102.395 310.249 101.319 310.15 100.298 310.252C100.437 309.474 100.521 308.689 100.496 307.888C100.35 303.826 97.5483 298.779 85.1141 297.744L85.0534 298.56C94.423 299.322 99.4939 302.576 99.6822 307.909C99.7036 308.737 99.6429 309.553 99.4687 310.381C96.7034 310.948 94.2816 312.829 92.7559 314.7C91.1249 316.721 90.4759 318.718 91.1083 319.771C91.3794 320.222 91.9556 320.689 93.2661 320.519C94.9795 320.269 98.9296 315.913 100.151 311.083C101.149 310.951 102.205 310.992 103.274 311.337C105.577 312.051 107.043 313.333 107.65 315.152C109.64 321.183 101.993 331.252 101.919 331.379L102.546 331.881ZM99.2007 311.277C97.9508 315.718 94.3557 319.548 93.0726 319.722C92.388 319.816 91.9573 319.7 91.7531 319.368C91.3681 318.736 91.7987 317.093 93.3283 315.194C94.7098 313.55 96.8229 311.872 99.2007 311.277Z" fill="#231F20"/>
<path d="M197.433 252.057L186.187 231.155L207.376 220.187L218.622 241.088L197.433 252.057Z" fill="#00E4AF"/>
<path d="M203.813 255.186C203.896 255.198 203.982 255.183 204.071 255.141L225.24 244.172C225.33 244.13 225.4 244.03 225.443 243.926C225.485 243.822 225.473 243.711 225.403 243.618L214.156 222.737C214.046 222.529 213.803 222.467 213.592 222.574L192.424 233.542C192.334 233.585 192.264 233.684 192.221 233.788C192.178 233.892 192.19 234.004 192.261 234.096L203.508 254.978C203.574 255.097 203.676 255.167 203.813 255.186ZM224.475 243.651L204.034 254.228L193.188 234.064L213.629 223.487L224.475 243.651Z" fill="#231F20"/>
<path d="M60.0572 148.261C44.5786 141.831 43.2002 133.726 44.7947 128.083C45.0065 127.289 45.2873 126.539 45.6182 125.826C49.5654 126.203 53.045 124.164 54.2907 123.301C57.3216 121.245 59.2312 118.431 58.8369 116.626C58.6947 115.971 58.1832 115.115 56.5675 114.873C55.2885 114.674 52.6706 116.149 50.246 118.441C48.9162 119.696 46.7413 122.047 45.2576 125.144C43.9351 124.953 42.5666 124.453 41.2133 123.517C38.3812 121.521 36.8844 118.965 36.7674 115.967C36.3967 106.84 48.7748 96.1329 48.9111 96.0294L48.5399 95.575C48.0262 96.02 35.8274 106.553 36.1819 115.99C36.3191 119.183 37.8919 121.89 40.8744 123.997C42.2403 124.958 43.6403 125.488 44.9941 125.71C44.6942 126.392 44.4382 127.129 44.2198 127.878C42.565 133.776 43.9458 142.196 59.8307 148.777L60.0572 148.261ZM45.869 125.234C47.2979 122.309 49.3431 120.106 50.6359 118.901C53.1968 116.506 55.5493 115.346 56.4787 115.474C57.5019 115.633 58.1096 116.058 58.2584 116.756C58.5884 118.31 56.7518 120.895 53.9565 122.796C52.7914 123.6 49.5539 125.528 45.869 125.234Z" fill="#231F20"/>
<path d="M619.568 257.583C618.642 279.749 609.202 285.159 601.462 285.754C600.379 285.852 599.319 285.846 598.282 285.76C596.95 280.684 592.828 277.291 591.188 276.137C587.25 273.31 582.883 272.221 580.819 273.535C580.071 274.01 579.241 275.036 579.676 277.154C580.014 278.834 583.04 281.414 586.995 283.38C589.161 284.46 593.075 286.089 597.599 286.52C597.965 288.25 597.968 290.178 597.423 292.287C596.236 296.716 593.743 299.743 590.071 301.256C578.901 305.881 559.949 295.388 559.758 295.266L559.363 295.934C560.15 296.369 578.804 306.719 590.367 301.973C594.272 300.345 596.918 297.156 598.174 292.489C598.745 290.353 598.765 288.372 598.423 286.588C599.407 286.65 600.439 286.632 601.47 286.561C609.553 285.926 619.384 280.368 620.312 257.629L619.568 257.583ZM597.432 285.719C593.146 285.278 589.475 283.742 587.389 282.686C583.244 280.597 580.729 278.204 580.464 276.99C580.194 275.646 580.445 274.697 581.245 274.194C583.025 273.075 587.075 274.177 590.712 276.783C592.243 277.864 596.115 281.006 597.432 285.719Z" fill="#231F20"/>
<path d="M406.297 90.3107L386.731 102.147L374.724 82.9229L394.29 71.0869L406.297 90.3107Z" fill="#23E0A2"/>
<path d="M396.521 64.5121C396.468 64.5144 396.39 64.5438 396.338 64.5721L376.785 76.4129C376.708 76.4683 376.632 76.5498 376.61 76.655C376.588 76.7602 376.593 76.8642 376.649 76.94L388.662 96.1506C388.775 96.3282 389.017 96.3959 389.197 96.2839L408.75 84.4431C408.827 84.3877 408.903 84.3062 408.925 84.201C408.947 84.0958 408.942 83.9918 408.886 83.916L396.874 64.7054C396.815 64.5776 396.653 64.5064 396.521 64.5121ZM377.547 76.8752L396.429 65.4543L408.015 84.0057L389.134 95.4266L377.547 76.8752Z" fill="#231F20"/>
<path d="M156.23 187.459L156.365 187.036L163.881 189.434L163.746 189.858L156.23 187.459Z" fill="#231F20"/>
<path d="M462.797 243.622L462.209 243.648L461.759 233.215L462.348 233.19L462.797 243.622Z" fill="#231F20"/>
<path d="M149.833 199.678L162.923 195.349L163.055 195.771L149.965 200.1L149.833 199.678Z" fill="#231F20"/>
<path d="M480.899 245.994L469.547 231.706L470.011 231.349L481.363 245.637L480.899 245.994Z" fill="#231F20"/>
<path d="M146.236 112.942C144.396 118.708 138.307 121.916 132.637 120.106C126.967 118.297 123.862 112.156 125.702 106.389C127.543 100.623 133.631 97.4155 139.301 99.2249C144.971 101.034 148.076 107.175 146.236 112.942Z" fill="#CBF5E7"/>
<path d="M149.224 110.53C151.095 104.667 147.932 98.4116 142.167 96.5718C136.402 94.732 130.2 97.9992 128.329 103.862C126.458 109.726 129.621 115.981 135.386 117.82C141.138 119.656 147.353 116.393 149.224 110.53ZM128.691 103.978C130.494 98.3264 136.493 95.1659 142.05 96.9392C147.607 98.7125 150.666 104.763 148.863 110.415C147.059 116.066 141.061 119.226 135.504 117.453C129.947 115.68 126.887 109.629 128.691 103.978Z" fill="#231F20"/>
<path d="M542.797 156.07C550.801 155.725 557.565 161.826 557.904 169.697C558.243 177.567 552.03 184.227 544.026 184.572C536.022 184.917 529.258 178.817 528.919 170.946C528.58 163.076 534.793 156.415 542.797 156.07Z" fill="#CBF5E7"/>
<path d="M538.44 153.459C530.301 153.81 523.972 160.593 524.317 168.596C524.662 176.599 531.551 182.813 539.69 182.462C547.828 182.111 554.157 175.327 553.812 167.325C553.468 159.341 546.578 153.108 538.44 153.459ZM539.668 181.961C531.824 182.299 525.16 176.288 524.827 168.574C524.495 160.86 530.617 154.298 538.461 153.96C546.306 153.622 552.97 159.633 553.302 167.347C553.635 175.06 547.513 181.622 539.668 181.961Z" fill="#231F20"/>
<path d="M429.183 319.218L396.838 338.094L377.69 306.313L410.035 287.438L429.183 319.218Z" fill="#23E0A2"/>
<path d="M370.599 305.556C370.524 305.637 370.509 305.753 370.572 305.847L389.724 337.634C389.788 337.766 389.966 337.797 390.081 337.715L422.432 318.836C422.567 318.772 422.598 318.597 422.515 318.484L403.364 286.698C403.299 286.566 403.121 286.535 403.007 286.617L370.656 305.496C370.656 305.515 370.618 305.536 370.599 305.556ZM390.057 337.156L371.161 305.822L403.072 287.213L421.949 318.567L390.057 337.156Z" fill="#231F20"/>
<path d="M264.268 120.228C248.423 120.911 236.066 134.156 236.737 149.738C237.409 165.319 250.86 177.452 266.706 176.769C282.551 176.086 294.908 162.841 294.237 147.259C293.565 131.678 280.114 119.545 264.268 120.228ZM266.623 174.841C251.856 175.477 239.324 164.174 238.698 149.653C238.073 135.132 249.584 122.793 264.352 122.157C279.119 121.52 291.65 132.823 292.276 147.344C292.902 161.865 281.39 174.204 266.623 174.841Z" fill="#23E0A2"/>
<path d="M259.281 275.407C258.594 291.839 251.596 295.85 245.858 296.29C245.055 296.364 244.269 296.359 243.5 296.295C242.513 292.532 239.457 290.017 238.242 289.161C235.322 287.065 232.085 286.258 230.555 287.232C230 287.584 229.385 288.345 229.708 289.915C229.958 291.16 232.202 293.073 235.133 294.531C236.739 295.331 239.64 296.539 242.994 296.858C243.266 298.141 243.268 299.57 242.864 301.133C241.984 304.417 240.136 306.661 237.414 307.783C229.133 311.211 215.083 303.432 214.942 303.342L214.649 303.837C215.233 304.16 229.061 311.833 237.633 308.314C240.528 307.107 242.489 304.743 243.421 301.283C243.844 299.7 243.859 298.231 243.605 296.909C244.334 296.955 245.1 296.941 245.864 296.889C251.856 296.418 259.144 292.298 259.832 275.441L259.281 275.407ZM242.87 296.265C239.693 295.938 236.972 294.799 235.425 294.016C232.352 292.468 230.488 290.693 230.292 289.794C230.092 288.798 230.278 288.094 230.871 287.721C232.191 286.891 235.193 287.708 237.889 289.64C239.024 290.441 241.895 292.771 242.87 296.265Z" fill="#231F20"/>
<path d="M387.051 209.54C386.889 209.876 382.874 217.931 385.177 222.121C385.944 223.499 387.275 224.311 389.19 224.518C389.98 224.6 390.743 224.528 391.441 224.324C391.446 224.884 391.489 225.443 391.612 225.998C392.244 228.81 394.855 231.963 403.658 231.062L403.593 230.485C396.963 231.177 393.003 229.57 392.176 225.877C392.053 225.302 391.989 224.726 392.002 224.126C393.856 223.37 395.299 221.743 396.118 220.239C396.991 218.617 397.183 217.141 396.605 216.49C396.357 216.21 395.894 215.96 395.003 216.249C393.841 216.647 391.656 220.2 391.435 223.726C390.757 223.948 390.015 224.057 389.225 223.956C387.527 223.759 386.337 223.057 385.677 221.868C383.503 217.924 387.519 209.907 387.554 209.809L387.051 209.54ZM392.072 223.466C392.364 220.208 394.37 217.069 395.242 216.78C395.707 216.625 396.022 216.65 396.208 216.854C396.559 217.245 396.473 218.447 395.654 219.969C394.906 221.296 393.652 222.741 392.072 223.466Z" fill="#231F20"/>
<path d="M98.5521 83.0304L86.5078 87.1121L82.5988 74.9407L94.6432 70.8591L98.5521 83.0304Z" fill="#00E4AF"/>
<path d="M100.774 79.9395C100.788 79.8972 100.787 79.8504 100.773 79.7991L96.8622 67.6388C96.8479 67.5876 96.8014 67.5416 96.7503 67.5097C96.6992 67.4778 96.6391 67.4742 96.5839 67.5033L84.5505 71.5868C84.4307 71.6264 84.3762 71.7492 84.4141 71.8702L88.3251 84.0305C88.3393 84.0818 88.3859 84.1277 88.437 84.1596C88.488 84.1915 88.5481 84.1951 88.6033 84.166L100.637 80.0825C100.706 80.0578 100.752 80.0102 100.774 79.9395ZM96.5185 67.9961L100.288 79.7376L88.6687 83.6732L84.8997 71.9318L96.5185 67.9961Z" fill="#231F20"/>
<path d="M527.395 228.965L537.962 242.067L524.623 252.478L514.056 239.376L527.395 228.965Z" fill="#00E4AF"/>
<path d="M522.541 227.615C522.483 227.618 522.425 227.64 522.367 227.681L509.043 238.089C508.986 238.13 508.95 238.209 508.934 238.287C508.918 238.365 508.94 238.441 509.002 238.497L519.567 251.584C519.67 251.715 519.848 251.727 519.981 251.625L533.305 241.216C533.362 241.175 533.398 241.096 533.414 241.018C533.431 240.94 533.408 240.864 533.346 240.809L522.782 227.721C522.72 227.646 522.639 227.611 522.541 227.615ZM509.644 238.353L522.512 228.312L532.704 240.952L519.836 250.993L509.644 238.353Z" fill="#231F20"/>
<path d="M337.839 179.655L343.822 195.313L327.891 201.219L321.908 185.561L337.839 179.655Z" fill="#00E4AF"/>
<path d="M333.533 176.908C333.494 176.91 333.475 176.911 333.436 176.932L317.521 182.834C317.366 182.899 317.295 183.056 317.341 183.209L323.32 198.851C323.385 199.003 323.545 199.073 323.701 199.028L339.616 193.126C339.77 193.061 339.842 192.903 339.796 192.751L333.817 177.108C333.792 176.974 333.671 176.902 333.533 176.908ZM318.011 183.277L333.385 177.571L339.165 192.681L323.791 198.387L318.011 183.277Z" fill="#231F20"/>
<path d="M243.946 46.431L229.441 55.2053L220.54 40.9543L235.045 32.18L243.946 46.431Z" fill="#23E0A2"/>
<path d="M236.699 27.3031C236.66 27.3048 236.602 27.3266 236.564 27.3476L222.069 36.1254C222.012 36.1665 221.956 36.2269 221.939 36.3049C221.923 36.3829 221.926 36.46 221.968 36.5162L230.873 50.7575C230.957 50.8891 231.136 50.9393 231.27 50.8563L245.765 42.0784C245.822 42.0373 245.879 41.977 245.895 41.899C245.911 41.821 245.908 41.7438 245.866 41.6877L236.961 27.4464C236.918 27.3517 236.797 27.2989 236.699 27.3031ZM222.634 36.4681L236.631 28.0016L245.221 41.7542L231.223 50.2207L222.634 36.4681Z" fill="#231F20"/>
<path d="M653.571 84.8622L654.395 84.9712L652.462 99.5684L651.638 99.4594L653.571 84.8622Z" fill="#231F20"/>
<path d="M629.016 77.1325L641.276 99.7559L640.544 100.138L628.284 77.5143L629.016 77.1325Z" fill="#231F20"/>
<path d="M653.012 117.07L692.457 144.31L687.866 150.766L648.421 123.526L653.012 117.07Z" fill="#23E0A2"/>
<path d="M643.932 131.343L682.303 158L681.826 158.666L643.455 132.009L643.932 131.343Z" fill="#CBF5E7"/>
<path d="M636.137 143.339L662.521 161.686L663.184 162.158C663.323 161.957 663.492 161.732 663.662 161.507L662.998 161.035L636.614 142.688L636.137 143.339Z" fill="#CBF5E7"/>
<path d="M628.628 152.432L666.999 179.089L666.522 179.755L628.151 153.099L628.628 152.432Z" fill="#CBF5E7"/>
<path d="M620.663 162.175L659.034 188.832L658.557 189.499L620.187 162.842L620.663 162.175Z" fill="#CBF5E7"/>
<path d="M612.677 171.903L651.048 198.559L650.571 199.226L612.2 172.569L612.677 171.903Z" fill="#CBF5E7"/>
<path d="M315.608 82.4951C304.409 81.0121 296.513 70.8826 297.971 59.8702C299.429 48.8579 309.69 41.1328 320.889 42.6158C332.088 44.0988 339.985 54.2283 338.527 65.2407C337.068 76.253 326.807 83.9781 315.608 82.4951Z" fill="#CBF5E7"/>
<path d="M321.018 87.1921C332.405 88.7001 342.857 80.8317 344.339 69.6342C345.822 58.4367 337.779 48.1192 326.392 46.6113C315.005 45.1034 304.553 52.9718 303.071 64.1693C301.591 75.3398 309.631 85.6842 321.018 87.1921ZM326.299 47.3128C337.275 48.7663 345.055 58.7469 343.626 69.5397C342.197 80.3325 332.087 87.944 321.111 86.4906C310.135 85.0372 302.355 75.0565 303.784 64.2637C305.213 53.471 315.323 45.8594 326.299 47.3128Z" fill="#231F20"/>
<path d="M452.439 180.25C452.747 179.824 460.296 169.622 458.126 163.239C457.399 161.139 455.749 159.685 453.141 158.928C452.065 158.621 450.987 158.533 449.967 158.645C450.098 157.866 450.174 157.08 450.141 156.279C449.953 152.218 447.099 147.201 434.655 146.294L434.603 147.111C443.98 147.776 449.084 150.978 449.327 156.309C449.357 157.136 449.305 157.953 449.139 158.782C446.38 159.378 443.978 161.284 442.472 163.171C440.861 165.209 440.233 167.212 440.876 168.258C441.152 168.707 441.733 169.168 443.042 168.984C444.753 168.717 448.657 164.319 449.829 159.478C450.825 159.335 451.882 159.365 452.955 159.699C455.264 160.39 456.744 161.656 457.37 163.469C459.422 169.479 451.879 179.627 451.807 179.754L452.439 180.25ZM448.881 159.681C447.677 164.135 444.121 168.002 442.84 168.189C442.157 168.291 441.725 168.178 441.517 167.849C441.126 167.221 441.539 165.573 443.049 163.659C444.413 162 446.509 160.301 448.881 159.681Z" fill="#231F20"/>
<path d="M546.495 99.4488L535.033 78.6643L556.108 67.4776L567.57 88.2621L546.495 99.4488Z" fill="#00E4AF"/>
<path d="M552.908 102.512C552.991 102.523 553.076 102.507 553.166 102.464L574.22 91.2774C574.309 91.2343 574.378 91.1336 574.42 91.0293C574.462 90.925 574.449 90.8135 574.377 90.7216L562.915 69.9578C562.803 69.7508 562.559 69.6911 562.349 69.8006L541.296 80.9872C541.206 81.0303 541.137 81.1309 541.095 81.2352C541.054 81.3395 541.067 81.4511 541.138 81.5429L552.6 102.307C552.668 102.426 552.771 102.494 552.908 102.512ZM573.45 90.7636L553.119 101.552L542.065 81.5009L562.396 70.7128L573.45 90.7636Z" fill="#231F20"/>
</svg>
