<svg width="597" height="344" viewBox="0 0 597 344" fill="none" xmlns="http://www.w3.org/2000/svg">
<g filter="url(#filter0_d)">
<rect x="48" y="36" width="501" height="248" rx="15" fill="white"/>
<rect x="80" y="192" width="203.501" height="60" rx="12" fill="#140C00"/>
<path d="M171.659 215.64L174.459 221.112L177.307 215.64H179.691L175.563 223.032V227H173.371V223L169.259 215.64H171.659ZM183.137 227.16C182.465 227.16 181.857 227.048 181.313 226.824C180.769 226.589 180.305 226.275 179.921 225.88C179.537 225.485 179.239 225.027 179.025 224.504C178.823 223.981 178.721 223.432 178.721 222.856C178.721 222.259 178.823 221.699 179.025 221.176C179.228 220.643 179.521 220.179 179.905 219.784C180.289 219.379 180.753 219.059 181.297 218.824C181.852 218.589 182.471 218.472 183.153 218.472C183.836 218.472 184.444 218.589 184.977 218.824C185.521 219.059 185.98 219.373 186.353 219.768C186.737 220.163 187.025 220.621 187.217 221.144C187.42 221.667 187.521 222.211 187.521 222.776C187.521 222.915 187.516 223.048 187.505 223.176C187.505 223.304 187.495 223.411 187.473 223.496H180.993C181.025 223.827 181.105 224.12 181.233 224.376C181.361 224.632 181.527 224.851 181.729 225.032C181.932 225.213 182.161 225.352 182.417 225.448C182.673 225.544 182.94 225.592 183.217 225.592C183.644 225.592 184.044 225.491 184.417 225.288C184.801 225.075 185.063 224.797 185.201 224.456L187.041 224.968C186.732 225.608 186.236 226.136 185.553 226.552C184.881 226.957 184.076 227.16 183.137 227.16ZM185.313 222.104C185.26 221.475 185.025 220.973 184.609 220.6C184.204 220.216 183.708 220.024 183.121 220.024C182.833 220.024 182.561 220.077 182.305 220.184C182.06 220.28 181.841 220.419 181.649 220.6C181.457 220.781 181.297 221 181.169 221.256C181.052 221.512 180.983 221.795 180.961 222.104H185.313ZM191.996 227.16C191.292 227.16 190.604 227.048 189.932 226.824C189.26 226.6 188.684 226.28 188.204 225.864L189.004 224.52C189.516 224.883 190.012 225.16 190.492 225.352C190.982 225.533 191.468 225.624 191.948 225.624C192.374 225.624 192.71 225.544 192.956 225.384C193.201 225.224 193.324 224.995 193.324 224.696C193.324 224.397 193.18 224.179 192.892 224.04C192.604 223.901 192.134 223.741 191.484 223.56C190.94 223.411 190.476 223.267 190.092 223.128C189.708 222.989 189.398 222.835 189.164 222.664C188.929 222.483 188.758 222.28 188.652 222.056C188.545 221.821 188.492 221.544 188.492 221.224C188.492 220.797 188.572 220.413 188.732 220.072C188.902 219.731 189.137 219.443 189.436 219.208C189.734 218.963 190.081 218.776 190.476 218.648C190.881 218.52 191.318 218.456 191.788 218.456C192.417 218.456 193.004 218.547 193.548 218.728C194.102 218.909 194.609 219.203 195.068 219.608L194.204 220.904C193.777 220.584 193.361 220.349 192.956 220.2C192.561 220.051 192.166 219.976 191.772 219.976C191.409 219.976 191.105 220.051 190.86 220.2C190.614 220.349 190.492 220.589 190.492 220.92C190.492 221.069 190.518 221.192 190.572 221.288C190.636 221.384 190.732 221.469 190.86 221.544C190.988 221.619 191.153 221.693 191.356 221.768C191.569 221.832 191.83 221.901 192.14 221.976C192.716 222.125 193.206 222.275 193.612 222.424C194.028 222.573 194.364 222.744 194.62 222.936C194.886 223.128 195.078 223.352 195.196 223.608C195.324 223.853 195.388 224.152 195.388 224.504C195.388 225.325 195.084 225.976 194.476 226.456C193.868 226.925 193.041 227.16 191.996 227.16Z" fill="white"/>
<rect x="313.5" y="192.5" width="202.501" height="59" rx="11.5" stroke="black"/>
<path d="M407.494 219.72V227H405.286V215.64H406.998L412.918 223.096V215.656H415.126V227H413.334L407.494 219.72ZM421.043 227.16C420.361 227.16 419.747 227.043 419.203 226.808C418.659 226.573 418.195 226.259 417.811 225.864C417.438 225.459 417.15 224.995 416.947 224.472C416.745 223.949 416.643 223.4 416.643 222.824C416.643 222.237 416.745 221.683 416.947 221.16C417.15 220.637 417.438 220.179 417.811 219.784C418.195 219.379 418.659 219.059 419.203 218.824C419.747 218.589 420.361 218.472 421.043 218.472C421.726 218.472 422.334 218.589 422.867 218.824C423.411 219.059 423.87 219.379 424.243 219.784C424.627 220.179 424.921 220.637 425.123 221.16C425.326 221.683 425.427 222.237 425.427 222.824C425.427 223.4 425.326 223.949 425.123 224.472C424.921 224.995 424.633 225.459 424.259 225.864C423.886 226.259 423.427 226.573 422.883 226.808C422.339 227.043 421.726 227.16 421.043 227.16ZM418.851 222.824C418.851 223.197 418.905 223.539 419.011 223.848C419.129 224.147 419.283 224.408 419.475 224.632C419.678 224.856 419.913 225.032 420.179 225.16C420.446 225.277 420.734 225.336 421.043 225.336C421.353 225.336 421.641 225.277 421.907 225.16C422.174 225.032 422.403 224.856 422.595 224.632C422.798 224.408 422.953 224.141 423.059 223.832C423.177 223.523 423.235 223.181 423.235 222.808C423.235 222.445 423.177 222.109 423.059 221.8C422.953 221.491 422.798 221.224 422.595 221C422.403 220.776 422.174 220.605 421.907 220.488C421.641 220.36 421.353 220.296 421.043 220.296C420.734 220.296 420.446 220.36 420.179 220.488C419.913 220.616 419.678 220.792 419.475 221.016C419.283 221.24 419.129 221.507 419.011 221.816C418.905 222.125 418.851 222.461 418.851 222.824Z" fill="#140C00"/>
<path opacity="0.9" d="M97.792 97.76C96.064 99.36 94.0693 100.16 91.808 100.16C90.3147 100.16 88.9067 99.8827 87.584 99.328C86.2613 98.752 85.0987 97.952 84.096 96.928C83.1147 95.904 82.336 94.6773 81.76 93.248C81.184 91.7973 80.896 90.208 80.896 88.48C80.896 86.9227 81.184 85.4507 81.76 84.064C82.336 82.6773 83.1253 81.472 84.128 80.448C85.152 79.424 86.3573 78.6133 87.744 78.016C89.1307 77.4187 90.624 77.12 92.224 77.12C94.336 77.12 96.1813 77.568 97.76 78.464C99.3387 79.3387 100.523 80.544 101.312 82.08L97.408 85.024C96.896 84 96.1493 83.2107 95.168 82.656C94.208 82.08 93.1627 81.792 92.032 81.792C91.1573 81.792 90.3573 81.9733 89.632 82.336C88.928 82.6773 88.32 83.168 87.808 83.808C87.296 84.4267 86.9013 85.152 86.624 85.984C86.3467 86.816 86.208 87.712 86.208 88.672C86.208 89.6533 86.3573 90.56 86.656 91.392C86.9547 92.224 87.3707 92.9493 87.904 93.568C88.4373 94.1653 89.0667 94.6347 89.792 94.976C90.5387 95.3173 91.36 95.488 92.256 95.488C94.304 95.488 96.1493 94.5387 97.792 92.64V91.936H93.376V88.128H102.144V100H97.792V97.76ZM113.23 100.32C111.822 100.32 110.552 100.096 109.422 99.648C108.312 99.1787 107.363 98.5493 106.574 97.76C105.806 96.9707 105.219 96.064 104.814 95.04C104.408 93.9947 104.206 92.9067 104.206 91.776C104.206 90.56 104.408 89.4187 104.814 88.352C105.219 87.264 105.806 86.3147 106.574 85.504C107.342 84.6933 108.28 84.0533 109.39 83.584C110.52 83.1147 111.8 82.88 113.23 82.88C114.659 82.88 115.928 83.1147 117.038 83.584C118.147 84.0533 119.086 84.6933 119.854 85.504C120.622 86.2933 121.198 87.2107 121.582 88.256C121.987 89.3013 122.19 90.4 122.19 91.552C122.19 91.8507 122.179 92.1493 122.158 92.448C122.136 92.7253 122.104 92.9707 122.062 93.184H109.646C109.731 94.3147 110.136 95.1787 110.862 95.776C111.608 96.352 112.451 96.64 113.39 96.64C114.136 96.64 114.851 96.4587 115.534 96.096C116.238 95.7333 116.707 95.2427 116.942 94.624L121.294 95.84C120.632 97.1627 119.608 98.24 118.222 99.072C116.835 99.904 115.171 100.32 113.23 100.32ZM116.782 90.016C116.675 88.9493 116.291 88.1067 115.63 87.488C114.968 86.8693 114.147 86.56 113.166 86.56C112.163 86.56 111.331 86.88 110.67 87.52C110.03 88.1387 109.656 88.9707 109.55 90.016H116.782ZM140.702 100H135.582V90.56C135.582 89.4507 135.369 88.6507 134.942 88.16C134.537 87.648 133.993 87.392 133.31 87.392C132.947 87.392 132.585 87.4667 132.222 87.616C131.859 87.7653 131.507 87.9787 131.166 88.256C130.825 88.512 130.515 88.8213 130.238 89.184C129.982 89.5467 129.779 89.9413 129.63 90.368V100H124.51V83.2H129.118V86.016C129.737 85.0133 130.611 84.2453 131.742 83.712C132.873 83.1573 134.174 82.88 135.646 82.88C136.734 82.88 137.609 83.0827 138.27 83.488C138.931 83.872 139.443 84.384 139.806 85.024C140.169 85.6427 140.403 86.3253 140.51 87.072C140.638 87.8187 140.702 88.544 140.702 89.248V100ZM152.136 100.32C150.728 100.32 149.458 100.096 148.328 99.648C147.218 99.1787 146.269 98.5493 145.48 97.76C144.712 96.9707 144.125 96.064 143.72 95.04C143.314 93.9947 143.112 92.9067 143.112 91.776C143.112 90.56 143.314 89.4187 143.72 88.352C144.125 87.264 144.712 86.3147 145.48 85.504C146.248 84.6933 147.186 84.0533 148.296 83.584C149.426 83.1147 150.706 82.88 152.136 82.88C153.565 82.88 154.834 83.1147 155.944 83.584C157.053 84.0533 157.992 84.6933 158.76 85.504C159.528 86.2933 160.104 87.2107 160.488 88.256C160.893 89.3013 161.096 90.4 161.096 91.552C161.096 91.8507 161.085 92.1493 161.064 92.448C161.042 92.7253 161.01 92.9707 160.968 93.184H148.552C148.637 94.3147 149.042 95.1787 149.768 95.776C150.514 96.352 151.357 96.64 152.296 96.64C153.042 96.64 153.757 96.4587 154.44 96.096C155.144 95.7333 155.613 95.2427 155.848 94.624L160.2 95.84C159.538 97.1627 158.514 98.24 157.128 99.072C155.741 99.904 154.077 100.32 152.136 100.32ZM155.688 90.016C155.581 88.9493 155.197 88.1067 154.536 87.488C153.874 86.8693 153.053 86.56 152.072 86.56C151.069 86.56 150.237 86.88 149.576 87.52C148.936 88.1387 148.562 88.9707 148.456 90.016H155.688ZM174.072 87.584C172.835 87.6053 171.715 87.808 170.712 88.192C169.71 88.576 168.984 89.152 168.536 89.92V100H163.416V83.2H168.12V86.592C168.696 85.4613 169.432 84.576 170.328 83.936C171.246 83.296 172.216 82.9653 173.24 82.944C173.475 82.944 173.646 82.944 173.752 82.944C173.859 82.944 173.966 82.9547 174.072 82.976V87.584ZM180.778 100.32C179.946 100.32 179.167 100.192 178.442 99.936C177.738 99.6587 177.13 99.2853 176.618 98.816C176.106 98.3253 175.701 97.76 175.402 97.12C175.103 96.4587 174.954 95.744 174.954 94.976C174.954 94.144 175.125 93.3867 175.466 92.704C175.829 92.0213 176.33 91.4347 176.97 90.944C177.61 90.4533 178.367 90.0693 179.242 89.792C180.117 89.5147 181.087 89.376 182.154 89.376C182.858 89.376 183.541 89.44 184.202 89.568C184.863 89.6747 185.439 89.8453 185.93 90.08V89.312C185.93 87.3707 184.81 86.4 182.57 86.4C181.653 86.4 180.778 86.56 179.946 86.88C179.114 87.1787 178.239 87.6373 177.322 88.256L175.818 85.056C176.927 84.3307 178.079 83.7867 179.274 83.424C180.469 83.0613 181.738 82.88 183.082 82.88C185.621 82.88 187.583 83.4773 188.97 84.672C190.357 85.8667 191.05 87.616 191.05 89.92V94.24C191.05 94.752 191.125 95.1147 191.274 95.328C191.445 95.52 191.733 95.6373 192.138 95.68V100C191.69 100.107 191.285 100.171 190.922 100.192C190.559 100.235 190.229 100.256 189.93 100.256C188.97 100.256 188.245 100.075 187.754 99.712C187.263 99.328 186.954 98.7947 186.826 98.112L186.73 97.344C185.983 98.304 185.087 99.04 184.042 99.552C183.018 100.064 181.93 100.32 180.778 100.32ZM182.282 96.64C182.837 96.64 183.37 96.544 183.882 96.352C184.415 96.16 184.853 95.904 185.194 95.584C185.685 95.2 185.93 94.7947 185.93 94.368V92.768C185.482 92.5973 184.991 92.4693 184.458 92.384C183.946 92.2773 183.466 92.224 183.018 92.224C182.079 92.224 181.301 92.4373 180.682 92.864C180.085 93.2907 179.786 93.8453 179.786 94.528C179.786 95.1467 180.021 95.6587 180.49 96.064C180.959 96.448 181.557 96.64 182.282 96.64ZM205.515 99.104C204.811 99.4027 204 99.68 203.083 99.936C202.187 100.192 201.28 100.32 200.363 100.32C199.723 100.32 199.115 100.235 198.539 100.064C197.984 99.9147 197.494 99.6693 197.067 99.328C196.64 98.9653 196.299 98.496 196.043 97.92C195.808 97.344 195.691 96.6507 195.691 95.84V87.072H193.547V83.2H195.691V77.856H200.811V83.2H204.235V87.072H200.811V94.08C200.811 94.6347 200.95 95.04 201.227 95.296C201.504 95.5307 201.856 95.648 202.283 95.648C202.667 95.648 203.062 95.584 203.467 95.456C203.872 95.328 204.224 95.1893 204.523 95.04L205.515 99.104ZM215.136 100.32C213.728 100.32 212.458 100.096 211.328 99.648C210.218 99.1787 209.269 98.5493 208.48 97.76C207.712 96.9707 207.125 96.064 206.72 95.04C206.314 93.9947 206.112 92.9067 206.112 91.776C206.112 90.56 206.314 89.4187 206.72 88.352C207.125 87.264 207.712 86.3147 208.48 85.504C209.248 84.6933 210.186 84.0533 211.296 83.584C212.426 83.1147 213.706 82.88 215.136 82.88C216.565 82.88 217.834 83.1147 218.944 83.584C220.053 84.0533 220.992 84.6933 221.76 85.504C222.528 86.2933 223.104 87.2107 223.488 88.256C223.893 89.3013 224.096 90.4 224.096 91.552C224.096 91.8507 224.085 92.1493 224.064 92.448C224.042 92.7253 224.01 92.9707 223.968 93.184H211.552C211.637 94.3147 212.042 95.1787 212.768 95.776C213.514 96.352 214.357 96.64 215.296 96.64C216.042 96.64 216.757 96.4587 217.44 96.096C218.144 95.7333 218.613 95.2427 218.848 94.624L223.2 95.84C222.538 97.1627 221.514 98.24 220.128 99.072C218.741 99.904 217.077 100.32 215.136 100.32ZM218.688 90.016C218.581 88.9493 218.197 88.1067 217.536 87.488C216.874 86.8693 216.053 86.56 215.072 86.56C214.069 86.56 213.237 86.88 212.576 87.52C211.936 88.1387 211.562 88.9707 211.456 90.016H218.688ZM239.549 87.008V100H234.301V77.28H238.397L248.989 90.624V77.28H254.237V100H250.013L239.549 87.008ZM265.98 100.32C264.572 100.32 263.302 100.096 262.172 99.648C261.062 99.1787 260.113 98.5493 259.324 97.76C258.556 96.9707 257.969 96.064 257.564 95.04C257.158 93.9947 256.956 92.9067 256.956 91.776C256.956 90.56 257.158 89.4187 257.564 88.352C257.969 87.264 258.556 86.3147 259.324 85.504C260.092 84.6933 261.03 84.0533 262.14 83.584C263.27 83.1147 264.55 82.88 265.98 82.88C267.409 82.88 268.678 83.1147 269.788 83.584C270.897 84.0533 271.836 84.6933 272.604 85.504C273.372 86.2933 273.948 87.2107 274.332 88.256C274.737 89.3013 274.94 90.4 274.94 91.552C274.94 91.8507 274.929 92.1493 274.908 92.448C274.886 92.7253 274.854 92.9707 274.812 93.184H262.396C262.481 94.3147 262.886 95.1787 263.612 95.776C264.358 96.352 265.201 96.64 266.14 96.64C266.886 96.64 267.601 96.4587 268.284 96.096C268.988 95.7333 269.457 95.2427 269.692 94.624L274.044 95.84C273.382 97.1627 272.358 98.24 270.972 99.072C269.585 99.904 267.921 100.32 265.98 100.32ZM269.532 90.016C269.425 88.9493 269.041 88.1067 268.38 87.488C267.718 86.8693 266.897 86.56 265.916 86.56C264.913 86.56 264.081 86.88 263.42 87.52C262.78 88.1387 262.406 88.9707 262.3 90.016H269.532ZM297.527 83.2H302.391L295.447 100H291.255L288.663 93.088L286.071 100H281.879L274.934 83.2H279.766L284.343 95.264L285.911 90.688L282.935 83.2H287.031L288.663 88.256L290.263 83.2H294.359L291.415 90.688L292.983 95.264L297.527 83.2ZM316.196 77.28H320.932L329.22 100H323.844L322.084 94.912H315.012L313.284 100H307.908L316.196 77.28ZM321.22 91.296L318.564 83.264L315.844 91.296H321.22ZM331.457 100V77.28H341.153C342.241 77.28 343.233 77.504 344.129 77.952C345.047 78.4 345.825 78.9867 346.465 79.712C347.127 80.4373 347.639 81.2587 348.001 82.176C348.385 83.0933 348.577 84.0213 348.577 84.96C348.577 85.9627 348.396 86.9227 348.033 87.84C347.692 88.7573 347.201 89.5787 346.561 90.304C345.943 91.0293 345.185 91.6053 344.289 92.032C343.393 92.4587 342.401 92.672 341.313 92.672H336.705V100H331.457ZM336.705 88.096H340.993C341.612 88.096 342.145 87.8293 342.593 87.296C343.041 86.7627 343.265 85.984 343.265 84.96C343.265 84.4267 343.191 83.968 343.041 83.584C342.913 83.2 342.732 82.88 342.497 82.624C342.263 82.368 341.996 82.1867 341.697 82.08C341.399 81.952 341.1 81.888 340.801 81.888H336.705V88.096ZM351.395 100V77.28H356.643V100H351.395ZM368.457 100V77.28H373.705V87.072L382.025 77.28H387.913L379.401 87.424L388.489 100H382.505L376.073 90.848L373.705 93.312V100H368.457ZM396.948 100.32C395.54 100.32 394.271 100.096 393.14 99.648C392.031 99.1787 391.082 98.5493 390.292 97.76C389.524 96.9707 388.938 96.064 388.532 95.04C388.127 93.9947 387.924 92.9067 387.924 91.776C387.924 90.56 388.127 89.4187 388.532 88.352C388.938 87.264 389.524 86.3147 390.292 85.504C391.06 84.6933 391.999 84.0533 393.108 83.584C394.239 83.1147 395.519 82.88 396.948 82.88C398.378 82.88 399.647 83.1147 400.756 83.584C401.866 84.0533 402.804 84.6933 403.572 85.504C404.34 86.2933 404.916 87.2107 405.3 88.256C405.706 89.3013 405.908 90.4 405.908 91.552C405.908 91.8507 405.898 92.1493 405.876 92.448C405.855 92.7253 405.823 92.9707 405.78 93.184H393.364C393.45 94.3147 393.855 95.1787 394.58 95.776C395.327 96.352 396.17 96.64 397.108 96.64C397.855 96.64 398.57 96.4587 399.252 96.096C399.956 95.7333 400.426 95.2427 400.66 94.624L405.012 95.84C404.351 97.1627 403.327 98.24 401.94 99.072C400.554 99.904 398.89 100.32 396.948 100.32ZM400.5 90.016C400.394 88.9493 400.01 88.1067 399.348 87.488C398.687 86.8693 397.866 86.56 396.884 86.56C395.882 86.56 395.05 86.88 394.388 87.52C393.748 88.1387 393.375 88.9707 393.268 90.016H400.5ZM407.919 102.528C408.346 102.677 408.741 102.784 409.103 102.848C409.487 102.912 409.829 102.944 410.127 102.944C410.746 102.944 411.226 102.731 411.567 102.304C411.909 101.877 412.218 101.109 412.495 100L406.095 83.2H411.375L415.279 95.616L418.639 83.2H423.439L417.039 102.72C416.591 104.107 415.791 105.227 414.639 106.08C413.487 106.955 412.122 107.392 410.543 107.392C410.117 107.392 409.679 107.349 409.231 107.264C408.805 107.2 408.367 107.083 407.919 106.912V102.528Z" fill="#011911"/>
<path opacity="0.7" d="M88.694 130.132C88.722 130.216 88.736 130.305 88.736 130.398C88.736 130.585 88.6707 130.739 88.54 130.86C88.4187 130.981 88.274 131.042 88.106 131.042C87.9753 131.042 87.854 131.005 87.742 130.93C87.6393 130.846 87.5553 130.734 87.49 130.594L86.622 128.536H82.296L81.442 130.608C81.3953 130.748 81.316 130.855 81.204 130.93C81.1013 131.005 80.9847 131.042 80.854 131.042C80.658 131.042 80.5087 130.991 80.406 130.888C80.3033 130.785 80.252 130.645 80.252 130.468C80.252 130.431 80.2613 130.356 80.28 130.244L83.85 121.592C83.9153 121.443 84.004 121.331 84.116 121.256C84.2373 121.172 84.3727 121.139 84.522 121.158C84.662 121.158 84.788 121.195 84.9 121.27C85.012 121.345 85.0913 121.452 85.138 121.592L88.694 130.132ZM86.09 127.262L84.452 123.342L82.828 127.262H86.09ZM93.6304 123.496C93.8731 123.496 94.0831 123.561 94.2604 123.692C94.4378 123.813 94.5264 123.967 94.5264 124.154C94.5264 124.378 94.4658 124.551 94.3444 124.672C94.2324 124.784 94.0924 124.84 93.9244 124.84C93.8404 124.84 93.7144 124.812 93.5464 124.756C93.3504 124.691 93.1964 124.658 93.0844 124.658C92.7951 124.658 92.5104 124.761 92.2304 124.966C91.9598 125.162 91.7358 125.437 91.5584 125.792C91.3904 126.137 91.3064 126.525 91.3064 126.954V130.328C91.3064 130.515 91.2411 130.673 91.1104 130.804C90.9891 130.935 90.8304 131 90.6344 131C90.4384 131 90.2798 130.939 90.1584 130.818C90.0371 130.687 89.9764 130.524 89.9764 130.328V124.336C89.9764 124.149 90.0371 123.991 90.1584 123.86C90.2891 123.729 90.4478 123.664 90.6344 123.664C90.8304 123.664 90.9891 123.729 91.1104 123.86C91.2411 123.991 91.3064 124.149 91.3064 124.336V125.05C91.5118 124.593 91.8198 124.224 92.2304 123.944C92.6411 123.655 93.1078 123.505 93.6304 123.496ZM101.885 127.052C101.876 127.22 101.806 127.365 101.675 127.486C101.545 127.598 101.391 127.654 101.213 127.654H96.2852C96.3505 128.335 96.6072 128.881 97.0552 129.292C97.5125 129.703 98.0678 129.908 98.7212 129.908C99.1692 129.908 99.5332 129.843 99.8132 129.712C100.093 129.581 100.341 129.413 100.555 129.208C100.695 129.124 100.831 129.082 100.961 129.082C101.12 129.082 101.251 129.138 101.353 129.25C101.465 129.362 101.521 129.493 101.521 129.642C101.521 129.838 101.428 130.015 101.241 130.174C100.971 130.445 100.611 130.673 100.163 130.86C99.7152 131.047 99.2578 131.14 98.7912 131.14C98.0352 131.14 97.3678 130.981 96.7892 130.664C96.2198 130.347 95.7765 129.903 95.4592 129.334C95.1512 128.765 94.9972 128.121 94.9972 127.402C94.9972 126.618 95.1558 125.932 95.4732 125.344C95.7998 124.747 96.2245 124.289 96.7472 123.972C97.2792 123.655 97.8485 123.496 98.4552 123.496C99.0525 123.496 99.6125 123.65 100.135 123.958C100.658 124.266 101.078 124.691 101.395 125.232C101.713 125.773 101.876 126.38 101.885 127.052ZM98.4552 124.728C97.9325 124.728 97.4798 124.877 97.0972 125.176C96.7145 125.465 96.4625 125.918 96.3412 126.534H100.471V126.422C100.425 125.927 100.201 125.521 99.7992 125.204C99.4072 124.887 98.9592 124.728 98.4552 124.728ZM112.772 123.594C112.968 123.594 113.127 123.659 113.248 123.79C113.379 123.921 113.444 124.079 113.444 124.266V130.314C113.444 131.481 113.122 132.353 112.478 132.932C111.834 133.511 110.985 133.8 109.93 133.8C109.585 133.8 109.244 133.767 108.908 133.702C108.572 133.637 108.297 133.548 108.082 133.436C107.737 133.277 107.564 133.063 107.564 132.792C107.564 132.745 107.574 132.685 107.592 132.61C107.648 132.451 107.728 132.33 107.83 132.246C107.933 132.162 108.05 132.12 108.18 132.12C108.255 132.12 108.325 132.134 108.39 132.162C108.68 132.293 108.936 132.395 109.16 132.47C109.384 132.545 109.646 132.582 109.944 132.582C111.391 132.582 112.114 131.84 112.114 130.356V130.076C111.862 130.412 111.536 130.673 111.134 130.86C110.742 131.047 110.29 131.14 109.776 131.14C109.002 131.14 108.395 130.893 107.956 130.398C107.527 129.903 107.312 129.255 107.312 128.452V124.266C107.312 124.07 107.373 123.911 107.494 123.79C107.616 123.659 107.774 123.594 107.97 123.594C108.166 123.594 108.325 123.659 108.446 123.79C108.577 123.921 108.642 124.079 108.642 124.266V128.102C108.642 128.718 108.778 129.175 109.048 129.474C109.319 129.763 109.73 129.908 110.28 129.908C110.812 129.908 111.251 129.74 111.596 129.404C111.942 129.068 112.114 128.634 112.114 128.102V124.266C112.114 124.07 112.175 123.911 112.296 123.79C112.418 123.659 112.576 123.594 112.772 123.594ZM122.295 127.332C122.295 128.06 122.132 128.713 121.805 129.292C121.479 129.871 121.031 130.323 120.461 130.65C119.901 130.977 119.281 131.14 118.599 131.14C117.918 131.14 117.293 130.977 116.723 130.65C116.163 130.323 115.72 129.871 115.393 129.292C115.067 128.713 114.903 128.06 114.903 127.332C114.903 126.604 115.067 125.946 115.393 125.358C115.72 124.77 116.163 124.313 116.723 123.986C117.293 123.659 117.918 123.496 118.599 123.496C119.281 123.496 119.901 123.659 120.461 123.986C121.031 124.313 121.479 124.77 121.805 125.358C122.132 125.946 122.295 126.604 122.295 127.332ZM120.965 127.332C120.965 126.828 120.858 126.38 120.643 125.988C120.438 125.587 120.153 125.279 119.789 125.064C119.435 124.84 119.038 124.728 118.599 124.728C118.161 124.728 117.759 124.84 117.395 125.064C117.041 125.279 116.756 125.587 116.541 125.988C116.336 126.38 116.233 126.828 116.233 127.332C116.233 127.827 116.336 128.27 116.541 128.662C116.756 129.054 117.041 129.362 117.395 129.586C117.759 129.801 118.161 129.908 118.599 129.908C119.038 129.908 119.435 129.801 119.789 129.586C120.153 129.362 120.438 129.054 120.643 128.662C120.858 128.27 120.965 127.827 120.965 127.332ZM129.302 123.664C129.498 123.664 129.656 123.729 129.778 123.86C129.908 123.991 129.974 124.149 129.974 124.336V128.06C129.974 129.031 129.703 129.787 129.162 130.328C128.63 130.86 127.874 131.126 126.894 131.126C125.923 131.126 125.172 130.86 124.64 130.328C124.108 129.787 123.842 129.031 123.842 128.06V124.336C123.842 124.149 123.902 123.991 124.024 123.86C124.154 123.729 124.313 123.664 124.5 123.664C124.696 123.664 124.854 123.729 124.976 123.86C125.106 123.991 125.172 124.149 125.172 124.336V128.06C125.172 129.283 125.746 129.894 126.894 129.894C127.463 129.894 127.897 129.74 128.196 129.432C128.494 129.124 128.644 128.667 128.644 128.06V124.336C128.644 124.149 128.704 123.991 128.826 123.86C128.956 123.729 129.115 123.664 129.302 123.664ZM135.426 129.852C135.342 129.721 135.3 129.595 135.3 129.474C135.3 129.287 135.398 129.129 135.594 128.998C135.687 128.933 135.794 128.9 135.916 128.9C136.084 128.9 136.238 128.97 136.378 129.11C136.658 129.427 136.956 129.665 137.274 129.824C137.6 129.983 137.988 130.062 138.436 130.062C138.79 130.053 139.103 129.973 139.374 129.824C139.644 129.665 139.78 129.413 139.78 129.068C139.78 128.751 139.64 128.508 139.36 128.34C139.089 128.172 138.688 128.018 138.156 127.878C137.633 127.738 137.199 127.593 136.854 127.444C136.508 127.285 136.214 127.061 135.972 126.772C135.738 126.473 135.622 126.086 135.622 125.61C135.622 125.19 135.738 124.821 135.972 124.504C136.214 124.187 136.532 123.939 136.924 123.762C137.325 123.585 137.759 123.496 138.226 123.496C138.674 123.496 139.117 123.58 139.556 123.748C140.004 123.916 140.368 124.173 140.648 124.518C140.76 124.649 140.816 124.784 140.816 124.924C140.816 125.073 140.741 125.218 140.592 125.358C140.498 125.442 140.382 125.484 140.242 125.484C140.074 125.484 139.938 125.428 139.836 125.316C139.64 125.092 139.397 124.919 139.108 124.798C138.828 124.677 138.515 124.616 138.17 124.616C137.815 124.616 137.512 124.691 137.26 124.84C137.017 124.98 136.896 125.223 136.896 125.568C136.905 125.895 137.045 126.137 137.316 126.296C137.596 126.455 138.02 126.609 138.59 126.758C139.084 126.889 139.495 127.029 139.822 127.178C140.148 127.327 140.424 127.551 140.648 127.85C140.872 128.139 140.984 128.522 140.984 128.998C140.984 129.437 140.858 129.819 140.606 130.146C140.354 130.463 140.022 130.711 139.612 130.888C139.21 131.056 138.781 131.14 138.324 131.14C137.736 131.14 137.19 131.037 136.686 130.832C136.191 130.627 135.771 130.3 135.426 129.852ZM147.977 123.664C148.173 123.664 148.332 123.729 148.453 123.86C148.584 123.991 148.649 124.149 148.649 124.336V128.06C148.649 129.031 148.379 129.787 147.837 130.328C147.305 130.86 146.549 131.126 145.569 131.126C144.599 131.126 143.847 130.86 143.315 130.328C142.783 129.787 142.517 129.031 142.517 128.06V124.336C142.517 124.149 142.578 123.991 142.699 123.86C142.83 123.729 142.989 123.664 143.175 123.664C143.371 123.664 143.53 123.729 143.651 123.86C143.782 123.991 143.847 124.149 143.847 124.336V128.06C143.847 129.283 144.421 129.894 145.569 129.894C146.139 129.894 146.573 129.74 146.871 129.432C147.17 129.124 147.319 128.667 147.319 128.06V124.336C147.319 124.149 147.38 123.991 147.501 123.86C147.632 123.729 147.791 123.664 147.977 123.664ZM154.293 123.496C154.535 123.496 154.745 123.561 154.923 123.692C155.1 123.813 155.189 123.967 155.189 124.154C155.189 124.378 155.128 124.551 155.007 124.672C154.895 124.784 154.755 124.84 154.587 124.84C154.503 124.84 154.377 124.812 154.209 124.756C154.013 124.691 153.859 124.658 153.747 124.658C153.457 124.658 153.173 124.761 152.893 124.966C152.622 125.162 152.398 125.437 152.221 125.792C152.053 126.137 151.969 126.525 151.969 126.954V130.328C151.969 130.515 151.903 130.673 151.773 130.804C151.651 130.935 151.493 131 151.297 131C151.101 131 150.942 130.939 150.821 130.818C150.699 130.687 150.639 130.524 150.639 130.328V124.336C150.639 124.149 150.699 123.991 150.821 123.86C150.951 123.729 151.11 123.664 151.297 123.664C151.493 123.664 151.651 123.729 151.773 123.86C151.903 123.991 151.969 124.149 151.969 124.336V125.05C152.174 124.593 152.482 124.224 152.893 123.944C153.303 123.655 153.77 123.505 154.293 123.496ZM162.547 127.052C162.538 127.22 162.468 127.365 162.337 127.486C162.207 127.598 162.053 127.654 161.875 127.654H156.947C157.013 128.335 157.269 128.881 157.717 129.292C158.175 129.703 158.73 129.908 159.383 129.908C159.831 129.908 160.195 129.843 160.475 129.712C160.755 129.581 161.003 129.413 161.217 129.208C161.357 129.124 161.493 129.082 161.623 129.082C161.782 129.082 161.913 129.138 162.015 129.25C162.127 129.362 162.183 129.493 162.183 129.642C162.183 129.838 162.09 130.015 161.903 130.174C161.633 130.445 161.273 130.673 160.825 130.86C160.377 131.047 159.92 131.14 159.453 131.14C158.697 131.14 158.03 130.981 157.451 130.664C156.882 130.347 156.439 129.903 156.121 129.334C155.813 128.765 155.659 128.121 155.659 127.402C155.659 126.618 155.818 125.932 156.135 125.344C156.462 124.747 156.887 124.289 157.409 123.972C157.941 123.655 158.511 123.496 159.117 123.496C159.715 123.496 160.275 123.65 160.797 123.958C161.32 124.266 161.74 124.691 162.057 125.232C162.375 125.773 162.538 126.38 162.547 127.052ZM159.117 124.728C158.595 124.728 158.142 124.877 157.759 125.176C157.377 125.465 157.125 125.918 157.003 126.534H161.133V126.422C161.087 125.927 160.863 125.521 160.461 125.204C160.069 124.887 159.621 124.728 159.117 124.728ZM173.434 123.594C173.63 123.594 173.789 123.659 173.91 123.79C174.041 123.921 174.106 124.079 174.106 124.266V130.314C174.106 131.481 173.784 132.353 173.14 132.932C172.496 133.511 171.647 133.8 170.592 133.8C170.247 133.8 169.906 133.767 169.57 133.702C169.234 133.637 168.959 133.548 168.744 133.436C168.399 133.277 168.226 133.063 168.226 132.792C168.226 132.745 168.236 132.685 168.254 132.61C168.31 132.451 168.39 132.33 168.492 132.246C168.595 132.162 168.712 132.12 168.842 132.12C168.917 132.12 168.987 132.134 169.052 132.162C169.342 132.293 169.598 132.395 169.822 132.47C170.046 132.545 170.308 132.582 170.606 132.582C172.053 132.582 172.776 131.84 172.776 130.356V130.076C172.524 130.412 172.198 130.673 171.796 130.86C171.404 131.047 170.952 131.14 170.438 131.14C169.664 131.14 169.057 130.893 168.618 130.398C168.189 129.903 167.974 129.255 167.974 128.452V124.266C167.974 124.07 168.035 123.911 168.156 123.79C168.278 123.659 168.436 123.594 168.632 123.594C168.828 123.594 168.987 123.659 169.108 123.79C169.239 123.921 169.304 124.079 169.304 124.266V128.102C169.304 128.718 169.44 129.175 169.71 129.474C169.981 129.763 170.392 129.908 170.942 129.908C171.474 129.908 171.913 129.74 172.258 129.404C172.604 129.068 172.776 128.634 172.776 128.102V124.266C172.776 124.07 172.837 123.911 172.958 123.79C173.08 123.659 173.238 123.594 173.434 123.594ZM182.958 127.332C182.958 128.06 182.794 128.713 182.468 129.292C182.141 129.871 181.693 130.323 181.124 130.65C180.564 130.977 179.943 131.14 179.262 131.14C178.58 131.14 177.955 130.977 177.386 130.65C176.826 130.323 176.382 129.871 176.056 129.292C175.729 128.713 175.566 128.06 175.566 127.332C175.566 126.604 175.729 125.946 176.056 125.358C176.382 124.77 176.826 124.313 177.386 123.986C177.955 123.659 178.58 123.496 179.262 123.496C179.943 123.496 180.564 123.659 181.124 123.986C181.693 124.313 182.141 124.77 182.468 125.358C182.794 125.946 182.958 126.604 182.958 127.332ZM181.628 127.332C181.628 126.828 181.52 126.38 181.306 125.988C181.1 125.587 180.816 125.279 180.452 125.064C180.097 124.84 179.7 124.728 179.262 124.728C178.823 124.728 178.422 124.84 178.058 125.064C177.703 125.279 177.418 125.587 177.204 125.988C176.998 126.38 176.896 126.828 176.896 127.332C176.896 127.827 176.998 128.27 177.204 128.662C177.418 129.054 177.703 129.362 178.058 129.586C178.422 129.801 178.823 129.908 179.262 129.908C179.7 129.908 180.097 129.801 180.452 129.586C180.816 129.362 181.1 129.054 181.306 128.662C181.52 128.27 181.628 127.827 181.628 127.332ZM189.964 123.664C190.16 123.664 190.318 123.729 190.44 123.86C190.57 123.991 190.636 124.149 190.636 124.336V128.06C190.636 129.031 190.365 129.787 189.824 130.328C189.292 130.86 188.536 131.126 187.556 131.126C186.585 131.126 185.834 130.86 185.302 130.328C184.77 129.787 184.504 129.031 184.504 128.06V124.336C184.504 124.149 184.564 123.991 184.686 123.86C184.816 123.729 184.975 123.664 185.162 123.664C185.358 123.664 185.516 123.729 185.638 123.86C185.768 123.991 185.834 124.149 185.834 124.336V128.06C185.834 129.283 186.408 129.894 187.556 129.894C188.125 129.894 188.559 129.74 188.858 129.432C189.156 129.124 189.306 128.667 189.306 128.06V124.336C189.306 124.149 189.366 123.991 189.488 123.86C189.618 123.729 189.777 123.664 189.964 123.664ZM205.076 123.594C205.253 123.594 205.402 123.659 205.524 123.79C205.654 123.911 205.72 124.07 205.72 124.266C205.72 124.331 205.701 124.42 205.664 124.532L203.522 130.58C203.466 130.729 203.372 130.841 203.242 130.916C203.111 130.991 202.971 131.019 202.822 131C202.57 130.981 202.378 130.841 202.248 130.58L200.792 126.772L199.448 130.58C199.392 130.711 199.312 130.813 199.21 130.888C199.107 130.953 198.995 130.991 198.874 131C198.734 131.019 198.594 130.991 198.454 130.916C198.323 130.832 198.234 130.72 198.188 130.58L196.018 124.532C195.99 124.448 195.976 124.359 195.976 124.266C195.976 124.079 196.036 123.921 196.158 123.79C196.279 123.659 196.438 123.594 196.634 123.594C196.951 123.594 197.156 123.734 197.25 124.014L198.916 128.732L200.246 125.246C200.358 124.966 200.563 124.826 200.862 124.826C201.142 124.826 201.333 124.966 201.436 125.246L202.794 128.676L204.432 124.014C204.534 123.734 204.749 123.594 205.076 123.594ZM213.163 123.566C213.359 123.566 213.517 123.631 213.639 123.762C213.769 123.883 213.835 124.047 213.835 124.252V130.328C213.835 130.515 213.769 130.673 213.639 130.804C213.517 130.935 213.359 131 213.163 131C212.967 131 212.808 130.939 212.687 130.818C212.565 130.687 212.505 130.524 212.505 130.328V129.964C212.262 130.291 211.931 130.571 211.511 130.804C211.091 131.028 210.638 131.14 210.153 131.14C209.518 131.14 208.939 130.977 208.417 130.65C207.903 130.323 207.497 129.871 207.199 129.292C206.909 128.704 206.765 128.046 206.765 127.318C206.765 126.59 206.909 125.937 207.199 125.358C207.497 124.77 207.903 124.313 208.417 123.986C208.93 123.659 209.495 123.496 210.111 123.496C210.605 123.496 211.063 123.599 211.483 123.804C211.912 124.009 212.253 124.271 212.505 124.588V124.252C212.505 124.056 212.565 123.893 212.687 123.762C212.808 123.631 212.967 123.566 213.163 123.566ZM210.307 129.908C210.745 129.908 211.133 129.796 211.469 129.572C211.814 129.348 212.08 129.04 212.267 128.648C212.463 128.256 212.561 127.813 212.561 127.318C212.561 126.833 212.463 126.394 212.267 126.002C212.08 125.61 211.814 125.302 211.469 125.078C211.133 124.845 210.745 124.728 210.307 124.728C209.868 124.728 209.476 124.84 209.131 125.064C208.795 125.288 208.529 125.596 208.333 125.988C208.146 126.38 208.053 126.823 208.053 127.318C208.053 127.813 208.146 128.256 208.333 128.648C208.529 129.04 208.795 129.348 209.131 129.572C209.476 129.796 209.868 129.908 210.307 129.908ZM219.55 123.496C221.23 123.496 222.07 124.504 222.07 126.52V130.328C222.07 130.515 222.005 130.673 221.874 130.804C221.753 130.935 221.594 131 221.398 131C221.212 131 221.053 130.935 220.922 130.804C220.801 130.673 220.74 130.515 220.74 130.328V126.534C220.74 125.983 220.614 125.545 220.362 125.218C220.11 124.891 219.7 124.728 219.13 124.728C218.757 124.728 218.416 124.812 218.108 124.98C217.81 125.139 217.572 125.358 217.394 125.638C217.226 125.909 217.142 126.207 217.142 126.534V130.328C217.142 130.515 217.077 130.673 216.946 130.804C216.825 130.935 216.666 131 216.47 131C216.274 131 216.116 130.939 215.994 130.818C215.873 130.687 215.812 130.524 215.812 130.328V124.336C215.812 124.149 215.873 123.991 215.994 123.86C216.125 123.729 216.284 123.664 216.47 123.664C216.666 123.664 216.825 123.729 216.946 123.86C217.077 123.991 217.142 124.149 217.142 124.336V124.826C217.385 124.453 217.721 124.14 218.15 123.888C218.589 123.627 219.056 123.496 219.55 123.496ZM226.045 124.966V129.138C226.045 129.605 226.255 129.838 226.675 129.838C226.74 129.838 226.829 129.824 226.941 129.796C227.053 129.759 227.141 129.74 227.207 129.74C227.328 129.74 227.431 129.791 227.515 129.894C227.599 129.997 227.641 130.127 227.641 130.286C227.641 130.482 227.529 130.65 227.305 130.79C227.081 130.93 226.829 131 226.549 131C226.241 131 225.956 130.967 225.695 130.902C225.443 130.837 225.214 130.673 225.009 130.412C224.813 130.141 224.715 129.735 224.715 129.194V124.966H223.903C223.725 124.966 223.576 124.91 223.455 124.798C223.343 124.677 223.287 124.527 223.287 124.35C223.287 124.173 223.343 124.028 223.455 123.916C223.576 123.804 223.725 123.748 223.903 123.748H224.715V122.572C224.715 122.385 224.775 122.227 224.897 122.096C225.027 121.965 225.191 121.9 225.387 121.9C225.573 121.9 225.727 121.965 225.849 122.096C225.979 122.227 226.045 122.385 226.045 122.572V123.748H227.207C227.384 123.748 227.529 123.809 227.641 123.93C227.762 124.042 227.823 124.187 227.823 124.364C227.823 124.541 227.762 124.686 227.641 124.798C227.529 124.91 227.384 124.966 227.207 124.966H226.045ZM235.246 124.966V129.138C235.246 129.605 235.456 129.838 235.876 129.838C235.941 129.838 236.03 129.824 236.142 129.796C236.254 129.759 236.342 129.74 236.408 129.74C236.529 129.74 236.632 129.791 236.716 129.894C236.8 129.997 236.842 130.127 236.842 130.286C236.842 130.482 236.73 130.65 236.506 130.79C236.282 130.93 236.03 131 235.75 131C235.442 131 235.157 130.967 234.896 130.902C234.644 130.837 234.415 130.673 234.21 130.412C234.014 130.141 233.916 129.735 233.916 129.194V124.966H233.104C232.926 124.966 232.777 124.91 232.656 124.798C232.544 124.677 232.488 124.527 232.488 124.35C232.488 124.173 232.544 124.028 232.656 123.916C232.777 123.804 232.926 123.748 233.104 123.748H233.916V122.572C233.916 122.385 233.976 122.227 234.098 122.096C234.228 121.965 234.392 121.9 234.588 121.9C234.774 121.9 234.928 121.965 235.05 122.096C235.18 122.227 235.246 122.385 235.246 122.572V123.748H236.408C236.585 123.748 236.73 123.809 236.842 123.93C236.963 124.042 237.024 124.187 237.024 124.364C237.024 124.541 236.963 124.686 236.842 124.798C236.73 124.91 236.585 124.966 236.408 124.966H235.246ZM245.452 127.332C245.452 128.06 245.288 128.713 244.962 129.292C244.635 129.871 244.187 130.323 243.618 130.65C243.058 130.977 242.437 131.14 241.756 131.14C241.074 131.14 240.449 130.977 239.88 130.65C239.32 130.323 238.876 129.871 238.55 129.292C238.223 128.713 238.06 128.06 238.06 127.332C238.06 126.604 238.223 125.946 238.55 125.358C238.876 124.77 239.32 124.313 239.88 123.986C240.449 123.659 241.074 123.496 241.756 123.496C242.437 123.496 243.058 123.659 243.618 123.986C244.187 124.313 244.635 124.77 244.962 125.358C245.288 125.946 245.452 126.604 245.452 127.332ZM244.122 127.332C244.122 126.828 244.014 126.38 243.8 125.988C243.594 125.587 243.31 125.279 242.946 125.064C242.591 124.84 242.194 124.728 241.756 124.728C241.317 124.728 240.916 124.84 240.552 125.064C240.197 125.279 239.912 125.587 239.698 125.988C239.492 126.38 239.39 126.828 239.39 127.332C239.39 127.827 239.492 128.27 239.698 128.662C239.912 129.054 240.197 129.362 240.552 129.586C240.916 129.801 241.317 129.908 241.756 129.908C242.194 129.908 242.591 129.801 242.946 129.586C243.31 129.362 243.594 129.054 243.8 128.662C244.014 128.27 244.122 127.827 244.122 127.332ZM257.013 123.566C257.209 123.566 257.367 123.631 257.489 123.762C257.619 123.883 257.685 124.047 257.685 124.252V130.412C257.685 131.168 257.521 131.798 257.195 132.302C256.877 132.815 256.443 133.193 255.893 133.436C255.342 133.679 254.721 133.8 254.031 133.8C253.657 133.8 253.219 133.735 252.715 133.604C252.22 133.473 251.903 133.338 251.763 133.198C251.473 133.049 251.329 132.862 251.329 132.638C251.329 132.582 251.347 132.507 251.385 132.414C251.487 132.181 251.66 132.064 251.903 132.064C252.024 132.064 252.155 132.092 252.295 132.148C253.041 132.437 253.625 132.582 254.045 132.582C254.791 132.582 255.361 132.4 255.753 132.036C256.154 131.681 256.355 131.191 256.355 130.566V129.81C256.159 130.174 255.827 130.487 255.361 130.748C254.903 131.009 254.418 131.14 253.905 131.14C253.261 131.14 252.673 130.977 252.141 130.65C251.609 130.323 251.189 129.871 250.881 129.292C250.582 128.704 250.433 128.046 250.433 127.318C250.433 126.59 250.582 125.937 250.881 125.358C251.189 124.77 251.604 124.313 252.127 123.986C252.659 123.659 253.242 123.496 253.877 123.496C254.39 123.496 254.866 123.613 255.305 123.846C255.753 124.079 256.103 124.364 256.355 124.7V124.252C256.355 124.056 256.415 123.893 256.537 123.762C256.658 123.631 256.817 123.566 257.013 123.566ZM254.059 129.908C254.516 129.908 254.922 129.801 255.277 129.586C255.631 129.362 255.907 129.054 256.103 128.662C256.308 128.261 256.411 127.813 256.411 127.318C256.411 126.823 256.308 126.38 256.103 125.988C255.907 125.596 255.631 125.288 255.277 125.064C254.922 124.84 254.516 124.728 254.059 124.728C253.611 124.728 253.209 124.84 252.855 125.064C252.5 125.288 252.22 125.601 252.015 126.002C251.819 126.394 251.721 126.833 251.721 127.318C251.721 127.803 251.819 128.247 252.015 128.648C252.22 129.04 252.5 129.348 252.855 129.572C253.209 129.796 253.611 129.908 254.059 129.908ZM265.825 127.052C265.815 127.22 265.745 127.365 265.615 127.486C265.484 127.598 265.33 127.654 265.153 127.654H260.225C260.29 128.335 260.547 128.881 260.995 129.292C261.452 129.703 262.007 129.908 262.661 129.908C263.109 129.908 263.473 129.843 263.753 129.712C264.033 129.581 264.28 129.413 264.495 129.208C264.635 129.124 264.77 129.082 264.901 129.082C265.059 129.082 265.19 129.138 265.293 129.25C265.405 129.362 265.461 129.493 265.461 129.642C265.461 129.838 265.367 130.015 265.181 130.174C264.91 130.445 264.551 130.673 264.103 130.86C263.655 131.047 263.197 131.14 262.731 131.14C261.975 131.14 261.307 130.981 260.729 130.664C260.159 130.347 259.716 129.903 259.399 129.334C259.091 128.765 258.937 128.121 258.937 127.402C258.937 126.618 259.095 125.932 259.413 125.344C259.739 124.747 260.164 124.289 260.687 123.972C261.219 123.655 261.788 123.496 262.395 123.496C262.992 123.496 263.552 123.65 264.075 123.958C264.597 124.266 265.017 124.691 265.335 125.232C265.652 125.773 265.815 126.38 265.825 127.052ZM262.395 124.728C261.872 124.728 261.419 124.877 261.037 125.176C260.654 125.465 260.402 125.918 260.281 126.534H264.411V126.422C264.364 125.927 264.14 125.521 263.739 125.204C263.347 124.887 262.899 124.728 262.395 124.728ZM271.107 123.496C272.787 123.496 273.627 124.504 273.627 126.52V130.328C273.627 130.515 273.562 130.673 273.431 130.804C273.31 130.935 273.151 131 272.955 131C272.768 131 272.61 130.935 272.479 130.804C272.358 130.673 272.297 130.515 272.297 130.328V126.534C272.297 125.983 272.171 125.545 271.919 125.218C271.667 124.891 271.256 124.728 270.687 124.728C270.314 124.728 269.973 124.812 269.665 124.98C269.366 125.139 269.128 125.358 268.951 125.638C268.783 125.909 268.699 126.207 268.699 126.534V130.328C268.699 130.515 268.634 130.673 268.503 130.804C268.382 130.935 268.223 131 268.027 131C267.831 131 267.672 130.939 267.551 130.818C267.43 130.687 267.369 130.524 267.369 130.328V124.336C267.369 124.149 267.43 123.991 267.551 123.86C267.682 123.729 267.84 123.664 268.027 123.664C268.223 123.664 268.382 123.729 268.503 123.86C268.634 123.991 268.699 124.149 268.699 124.336V124.826C268.942 124.453 269.278 124.14 269.707 123.888C270.146 123.627 270.612 123.496 271.107 123.496ZM282.053 127.052C282.044 127.22 281.974 127.365 281.843 127.486C281.712 127.598 281.558 127.654 281.381 127.654H276.453C276.518 128.335 276.775 128.881 277.223 129.292C277.68 129.703 278.236 129.908 278.889 129.908C279.337 129.908 279.701 129.843 279.981 129.712C280.261 129.581 280.508 129.413 280.723 129.208C280.863 129.124 280.998 129.082 281.129 129.082C281.288 129.082 281.418 129.138 281.521 129.25C281.633 129.362 281.689 129.493 281.689 129.642C281.689 129.838 281.596 130.015 281.409 130.174C281.138 130.445 280.779 130.673 280.331 130.86C279.883 131.047 279.426 131.14 278.959 131.14C278.203 131.14 277.536 130.981 276.957 130.664C276.388 130.347 275.944 129.903 275.627 129.334C275.319 128.765 275.165 128.121 275.165 127.402C275.165 126.618 275.324 125.932 275.641 125.344C275.968 124.747 276.392 124.289 276.915 123.972C277.447 123.655 278.016 123.496 278.623 123.496C279.22 123.496 279.78 123.65 280.303 123.958C280.826 124.266 281.246 124.691 281.563 125.232C281.88 125.773 282.044 126.38 282.053 127.052ZM278.623 124.728C278.1 124.728 277.648 124.877 277.265 125.176C276.882 125.465 276.63 125.918 276.509 126.534H280.639V126.422C280.592 125.927 280.368 125.521 279.967 125.204C279.575 124.887 279.127 124.728 278.623 124.728ZM287.252 123.496C287.494 123.496 287.704 123.561 287.882 123.692C288.059 123.813 288.148 123.967 288.148 124.154C288.148 124.378 288.087 124.551 287.966 124.672C287.854 124.784 287.714 124.84 287.546 124.84C287.462 124.84 287.336 124.812 287.168 124.756C286.972 124.691 286.818 124.658 286.706 124.658C286.416 124.658 286.132 124.761 285.852 124.966C285.581 125.162 285.357 125.437 285.18 125.792C285.012 126.137 284.928 126.525 284.928 126.954V130.328C284.928 130.515 284.862 130.673 284.732 130.804C284.61 130.935 284.452 131 284.256 131C284.06 131 283.901 130.939 283.78 130.818C283.658 130.687 283.598 130.524 283.598 130.328V124.336C283.598 124.149 283.658 123.991 283.78 123.86C283.91 123.729 284.069 123.664 284.256 123.664C284.452 123.664 284.61 123.729 284.732 123.86C284.862 123.991 284.928 124.149 284.928 124.336V125.05C285.133 124.593 285.441 124.224 285.852 123.944C286.262 123.655 286.729 123.505 287.252 123.496ZM295.167 123.566C295.363 123.566 295.521 123.631 295.643 123.762C295.773 123.883 295.839 124.047 295.839 124.252V130.328C295.839 130.515 295.773 130.673 295.643 130.804C295.521 130.935 295.363 131 295.167 131C294.971 131 294.812 130.939 294.691 130.818C294.569 130.687 294.509 130.524 294.509 130.328V129.964C294.266 130.291 293.935 130.571 293.515 130.804C293.095 131.028 292.642 131.14 292.157 131.14C291.522 131.14 290.943 130.977 290.421 130.65C289.907 130.323 289.501 129.871 289.203 129.292C288.913 128.704 288.769 128.046 288.769 127.318C288.769 126.59 288.913 125.937 289.203 125.358C289.501 124.77 289.907 124.313 290.421 123.986C290.934 123.659 291.499 123.496 292.115 123.496C292.609 123.496 293.067 123.599 293.487 123.804C293.916 124.009 294.257 124.271 294.509 124.588V124.252C294.509 124.056 294.569 123.893 294.691 123.762C294.812 123.631 294.971 123.566 295.167 123.566ZM292.311 129.908C292.749 129.908 293.137 129.796 293.473 129.572C293.818 129.348 294.084 129.04 294.271 128.648C294.467 128.256 294.565 127.813 294.565 127.318C294.565 126.833 294.467 126.394 294.271 126.002C294.084 125.61 293.818 125.302 293.473 125.078C293.137 124.845 292.749 124.728 292.311 124.728C291.872 124.728 291.48 124.84 291.135 125.064C290.799 125.288 290.533 125.596 290.337 125.988C290.15 126.38 290.057 126.823 290.057 127.318C290.057 127.813 290.15 128.256 290.337 128.648C290.533 129.04 290.799 129.348 291.135 129.572C291.48 129.796 291.872 129.908 292.311 129.908ZM299.804 124.966V129.138C299.804 129.605 300.014 129.838 300.434 129.838C300.5 129.838 300.588 129.824 300.7 129.796C300.812 129.759 300.901 129.74 300.966 129.74C301.088 129.74 301.19 129.791 301.274 129.894C301.358 129.997 301.4 130.127 301.4 130.286C301.4 130.482 301.288 130.65 301.064 130.79C300.84 130.93 300.588 131 300.308 131C300 131 299.716 130.967 299.454 130.902C299.202 130.837 298.974 130.673 298.768 130.412C298.572 130.141 298.474 129.735 298.474 129.194V124.966H297.662C297.485 124.966 297.336 124.91 297.214 124.798C297.102 124.677 297.046 124.527 297.046 124.35C297.046 124.173 297.102 124.028 297.214 123.916C297.336 123.804 297.485 123.748 297.662 123.748H298.474V122.572C298.474 122.385 298.535 122.227 298.656 122.096C298.787 121.965 298.95 121.9 299.146 121.9C299.333 121.9 299.487 121.965 299.608 122.096C299.739 122.227 299.804 122.385 299.804 122.572V123.748H300.966C301.144 123.748 301.288 123.809 301.4 123.93C301.522 124.042 301.582 124.187 301.582 124.364C301.582 124.541 301.522 124.686 301.4 124.798C301.288 124.91 301.144 124.966 300.966 124.966H299.804ZM309.506 127.052C309.497 127.22 309.427 127.365 309.296 127.486C309.166 127.598 309.012 127.654 308.834 127.654H303.906C303.972 128.335 304.228 128.881 304.676 129.292C305.134 129.703 305.689 129.908 306.342 129.908C306.79 129.908 307.154 129.843 307.434 129.712C307.714 129.581 307.962 129.413 308.176 129.208C308.316 129.124 308.452 129.082 308.582 129.082C308.741 129.082 308.872 129.138 308.974 129.25C309.086 129.362 309.142 129.493 309.142 129.642C309.142 129.838 309.049 130.015 308.862 130.174C308.592 130.445 308.232 130.673 307.784 130.86C307.336 131.047 306.879 131.14 306.412 131.14C305.656 131.14 304.989 130.981 304.41 130.664C303.841 130.347 303.398 129.903 303.08 129.334C302.772 128.765 302.618 128.121 302.618 127.402C302.618 126.618 302.777 125.932 303.094 125.344C303.421 124.747 303.846 124.289 304.368 123.972C304.9 123.655 305.47 123.496 306.076 123.496C306.674 123.496 307.234 123.65 307.756 123.958C308.279 124.266 308.699 124.691 309.016 125.232C309.334 125.773 309.497 126.38 309.506 127.052ZM306.076 124.728C305.554 124.728 305.101 124.877 304.718 125.176C304.336 125.465 304.084 125.918 303.962 126.534H308.092V126.422C308.046 125.927 307.822 125.521 307.42 125.204C307.028 124.887 306.58 124.728 306.076 124.728ZM320.883 123.566C321.079 123.566 321.238 123.631 321.359 123.762C321.49 123.883 321.555 124.047 321.555 124.252V130.328C321.555 130.515 321.49 130.673 321.359 130.804C321.238 130.935 321.079 131 320.883 131C320.687 131 320.529 130.939 320.407 130.818C320.286 130.687 320.225 130.524 320.225 130.328V129.964C319.983 130.291 319.651 130.571 319.231 130.804C318.811 131.028 318.359 131.14 317.873 131.14C317.239 131.14 316.66 130.977 316.137 130.65C315.624 130.323 315.218 129.871 314.919 129.292C314.63 128.704 314.485 128.046 314.485 127.318C314.485 126.59 314.63 125.937 314.919 125.358C315.218 124.77 315.624 124.313 316.137 123.986C316.651 123.659 317.215 123.496 317.831 123.496C318.326 123.496 318.783 123.599 319.203 123.804C319.633 124.009 319.973 124.271 320.225 124.588V124.252C320.225 124.056 320.286 123.893 320.407 123.762C320.529 123.631 320.687 123.566 320.883 123.566ZM318.027 129.908C318.466 129.908 318.853 129.796 319.189 129.572C319.535 129.348 319.801 129.04 319.987 128.648C320.183 128.256 320.281 127.813 320.281 127.318C320.281 126.833 320.183 126.394 319.987 126.002C319.801 125.61 319.535 125.302 319.189 125.078C318.853 124.845 318.466 124.728 318.027 124.728C317.589 124.728 317.197 124.84 316.851 125.064C316.515 125.288 316.249 125.596 316.053 125.988C315.867 126.38 315.773 126.823 315.773 127.318C315.773 127.813 315.867 128.256 316.053 128.648C316.249 129.04 316.515 129.348 316.851 129.572C317.197 129.796 317.589 129.908 318.027 129.908ZM331.154 123.496C332.834 123.496 333.674 124.504 333.674 126.52V130.328C333.674 130.515 333.609 130.673 333.478 130.804C333.357 130.935 333.198 131 333.002 131C332.815 131 332.657 130.935 332.526 130.804C332.405 130.673 332.344 130.515 332.344 130.328V126.534C332.344 125.983 332.218 125.545 331.966 125.218C331.714 124.891 331.303 124.728 330.734 124.728C330.361 124.728 330.02 124.812 329.712 124.98C329.413 125.139 329.175 125.358 328.998 125.638C328.83 125.909 328.746 126.207 328.746 126.534V130.328C328.746 130.515 328.681 130.673 328.55 130.804C328.429 130.935 328.27 131 328.074 131C327.878 131 327.719 130.939 327.598 130.818C327.477 130.687 327.416 130.524 327.416 130.328V124.336C327.416 124.149 327.477 123.991 327.598 123.86C327.729 123.729 327.887 123.664 328.074 123.664C328.27 123.664 328.429 123.729 328.55 123.86C328.681 123.991 328.746 124.149 328.746 124.336V124.826C328.989 124.453 329.325 124.14 329.754 123.888C330.193 123.627 330.659 123.496 331.154 123.496ZM342.1 127.052C342.091 127.22 342.021 127.365 341.89 127.486C341.759 127.598 341.605 127.654 341.428 127.654H336.5C336.565 128.335 336.822 128.881 337.27 129.292C337.727 129.703 338.283 129.908 338.936 129.908C339.384 129.908 339.748 129.843 340.028 129.712C340.308 129.581 340.555 129.413 340.77 129.208C340.91 129.124 341.045 129.082 341.176 129.082C341.335 129.082 341.465 129.138 341.568 129.25C341.68 129.362 341.736 129.493 341.736 129.642C341.736 129.838 341.643 130.015 341.456 130.174C341.185 130.445 340.826 130.673 340.378 130.86C339.93 131.047 339.473 131.14 339.006 131.14C338.25 131.14 337.583 130.981 337.004 130.664C336.435 130.347 335.991 129.903 335.674 129.334C335.366 128.765 335.212 128.121 335.212 127.402C335.212 126.618 335.371 125.932 335.688 125.344C336.015 124.747 336.439 124.289 336.962 123.972C337.494 123.655 338.063 123.496 338.67 123.496C339.267 123.496 339.827 123.65 340.35 123.958C340.873 124.266 341.293 124.691 341.61 125.232C341.927 125.773 342.091 126.38 342.1 127.052ZM338.67 124.728C338.147 124.728 337.695 124.877 337.312 125.176C336.929 125.465 336.677 125.918 336.556 126.534H340.686V126.422C340.639 125.927 340.415 125.521 340.014 125.204C339.622 124.887 339.174 124.728 338.67 124.728ZM352.212 123.594C352.39 123.594 352.539 123.659 352.66 123.79C352.791 123.911 352.856 124.07 352.856 124.266C352.856 124.331 352.838 124.42 352.8 124.532L350.658 130.58C350.602 130.729 350.509 130.841 350.378 130.916C350.248 130.991 350.108 131.019 349.958 131C349.706 130.981 349.515 130.841 349.384 130.58L347.928 126.772L346.584 130.58C346.528 130.711 346.449 130.813 346.346 130.888C346.244 130.953 346.132 130.991 346.01 131C345.87 131.019 345.73 130.991 345.59 130.916C345.46 130.832 345.371 130.72 345.324 130.58L343.154 124.532C343.126 124.448 343.112 124.359 343.112 124.266C343.112 124.079 343.173 123.921 343.294 123.79C343.416 123.659 343.574 123.594 343.77 123.594C344.088 123.594 344.293 123.734 344.386 124.014L346.052 128.732L347.382 125.246C347.494 124.966 347.7 124.826 347.998 124.826C348.278 124.826 348.47 124.966 348.572 125.246L349.93 128.676L351.568 124.014C351.671 123.734 351.886 123.594 352.212 123.594ZM365.878 130.132C365.906 130.216 365.92 130.305 365.92 130.398C365.92 130.585 365.854 130.739 365.724 130.86C365.602 130.981 365.458 131.042 365.29 131.042C365.159 131.042 365.038 131.005 364.926 130.93C364.823 130.846 364.739 130.734 364.674 130.594L363.806 128.536H359.48L358.626 130.608C358.579 130.748 358.5 130.855 358.388 130.93C358.285 131.005 358.168 131.042 358.038 131.042C357.842 131.042 357.692 130.991 357.59 130.888C357.487 130.785 357.436 130.645 357.436 130.468C357.436 130.431 357.445 130.356 357.464 130.244L361.034 121.592C361.099 121.443 361.188 121.331 361.3 121.256C361.421 121.172 361.556 121.139 361.706 121.158C361.846 121.158 361.972 121.195 362.084 121.27C362.196 121.345 362.275 121.452 362.322 121.592L365.878 130.132ZM363.274 127.262L361.636 123.342L360.012 127.262H363.274ZM371.248 121.2C371.743 121.2 372.2 121.335 372.62 121.606C373.04 121.867 373.371 122.227 373.614 122.684C373.866 123.141 373.992 123.645 373.992 124.196C373.992 124.747 373.866 125.255 373.614 125.722C373.371 126.189 373.04 126.557 372.62 126.828C372.2 127.099 371.743 127.234 371.248 127.234H368.616V130.328C368.616 130.515 368.555 130.673 368.434 130.804C368.313 130.935 368.159 131 367.972 131C367.776 131 367.617 130.939 367.496 130.818C367.384 130.687 367.328 130.524 367.328 130.328V121.872C367.328 121.685 367.393 121.527 367.524 121.396C367.655 121.265 367.813 121.2 368 121.2H371.248ZM371.248 125.96C371.5 125.96 371.733 125.881 371.948 125.722C372.163 125.554 372.331 125.335 372.452 125.064C372.583 124.793 372.648 124.504 372.648 124.196C372.648 123.72 372.508 123.319 372.228 122.992C371.957 122.656 371.631 122.488 371.248 122.488H368.616V125.96H371.248ZM377.109 130.314C377.109 130.51 377.039 130.673 376.899 130.804C376.759 130.935 376.595 131 376.409 131C376.203 131 376.035 130.935 375.905 130.804C375.783 130.673 375.723 130.51 375.723 130.314V121.872C375.723 121.685 375.788 121.527 375.919 121.396C376.049 121.265 376.217 121.2 376.423 121.2C376.609 121.2 376.768 121.265 376.899 121.396C377.039 121.527 377.109 121.685 377.109 121.872V130.314ZM88.61 147.866C88.7127 147.997 88.764 148.151 88.764 148.328C88.764 148.533 88.6847 148.701 88.526 148.832C88.3767 148.963 88.204 149.028 88.008 149.028C87.8213 149.028 87.658 148.944 87.518 148.776L84.116 144.394L82.548 145.878V148.314C82.548 148.51 82.4827 148.673 82.352 148.804C82.2213 148.935 82.0533 149 81.848 149C81.6427 149 81.4747 148.935 81.344 148.804C81.2227 148.673 81.162 148.51 81.162 148.314V139.872C81.162 139.685 81.2273 139.527 81.358 139.396C81.4887 139.265 81.6567 139.2 81.862 139.2C82.0673 139.2 82.2307 139.265 82.352 139.396C82.4827 139.517 82.548 139.676 82.548 139.872V144.226L87.518 139.41C87.6953 139.251 87.8727 139.172 88.05 139.172C88.218 139.172 88.3627 139.242 88.484 139.382C88.6053 139.522 88.666 139.671 88.666 139.83C88.666 139.97 88.6007 140.115 88.47 140.264L85.152 143.4L88.61 147.866ZM96.4164 145.052C96.4071 145.22 96.3371 145.365 96.2064 145.486C96.0758 145.598 95.9218 145.654 95.7444 145.654H90.8164C90.8818 146.335 91.1384 146.881 91.5864 147.292C92.0438 147.703 92.5991 147.908 93.2524 147.908C93.7004 147.908 94.0644 147.843 94.3444 147.712C94.6244 147.581 94.8718 147.413 95.0864 147.208C95.2264 147.124 95.3618 147.082 95.4924 147.082C95.6511 147.082 95.7818 147.138 95.8844 147.25C95.9964 147.362 96.0524 147.493 96.0524 147.642C96.0524 147.838 95.9591 148.015 95.7724 148.174C95.5018 148.445 95.1424 148.673 94.6944 148.86C94.2464 149.047 93.7891 149.14 93.3224 149.14C92.5664 149.14 91.8991 148.981 91.3204 148.664C90.7511 148.347 90.3078 147.903 89.9904 147.334C89.6824 146.765 89.5284 146.121 89.5284 145.402C89.5284 144.618 89.6871 143.932 90.0044 143.344C90.3311 142.747 90.7558 142.289 91.2784 141.972C91.8104 141.655 92.3798 141.496 92.9864 141.496C93.5838 141.496 94.1438 141.65 94.6664 141.958C95.1891 142.266 95.6091 142.691 95.9264 143.232C96.2438 143.773 96.4071 144.38 96.4164 145.052ZM92.9864 142.728C92.4638 142.728 92.0111 142.877 91.6284 143.176C91.2458 143.465 90.9938 143.918 90.8724 144.534H95.0024V144.422C94.9558 143.927 94.7318 143.521 94.3304 143.204C93.9384 142.887 93.4904 142.728 92.9864 142.728ZM103.352 141.594C103.548 141.594 103.707 141.659 103.828 141.79C103.959 141.921 104.024 142.079 104.024 142.266V148.314C104.024 149.481 103.702 150.353 103.058 150.932C102.414 151.511 101.565 151.8 100.51 151.8C100.165 151.8 99.8244 151.767 99.4884 151.702C99.1524 151.637 98.8771 151.548 98.6624 151.436C98.3171 151.277 98.1444 151.063 98.1444 150.792C98.1444 150.745 98.1538 150.685 98.1724 150.61C98.2284 150.451 98.3078 150.33 98.4104 150.246C98.5131 150.162 98.6298 150.12 98.7604 150.12C98.8351 150.12 98.9051 150.134 98.9704 150.162C99.2598 150.293 99.5164 150.395 99.7404 150.47C99.9644 150.545 100.226 150.582 100.524 150.582C101.971 150.582 102.694 149.84 102.694 148.356V148.076C102.442 148.412 102.116 148.673 101.714 148.86C101.322 149.047 100.87 149.14 100.356 149.14C99.5818 149.14 98.9751 148.893 98.5364 148.398C98.1071 147.903 97.8924 147.255 97.8924 146.452V142.266C97.8924 142.07 97.9531 141.911 98.0744 141.79C98.1958 141.659 98.3544 141.594 98.5504 141.594C98.7464 141.594 98.9051 141.659 99.0264 141.79C99.1571 141.921 99.2224 142.079 99.2224 142.266V146.102C99.2224 146.718 99.3578 147.175 99.6284 147.474C99.8991 147.763 100.31 147.908 100.86 147.908C101.392 147.908 101.831 147.74 102.176 147.404C102.522 147.068 102.694 146.634 102.694 146.102V142.266C102.694 142.07 102.755 141.911 102.876 141.79C102.998 141.659 103.156 141.594 103.352 141.594ZM107.456 144.464C107.456 144.268 107.517 144.105 107.638 143.974C107.769 143.843 107.927 143.778 108.114 143.778C108.739 143.759 109.248 143.587 109.64 143.26C110.041 142.924 110.242 142.448 110.242 141.832C110.242 141.3 110.06 140.861 109.696 140.516C109.332 140.161 108.884 139.984 108.352 139.984C108.053 139.984 107.764 140.049 107.484 140.18C107.213 140.301 106.975 140.469 106.77 140.684C106.583 140.852 106.397 140.936 106.21 140.936C106.079 140.936 105.958 140.894 105.846 140.81C105.641 140.661 105.538 140.488 105.538 140.292C105.538 140.124 105.608 139.97 105.748 139.83C106.065 139.466 106.448 139.181 106.896 138.976C107.353 138.771 107.839 138.668 108.352 138.668C108.949 138.668 109.491 138.803 109.976 139.074C110.471 139.345 110.863 139.723 111.152 140.208C111.441 140.684 111.586 141.225 111.586 141.832C111.586 142.392 111.46 142.891 111.208 143.33C110.965 143.759 110.629 144.109 110.2 144.38C109.771 144.641 109.285 144.8 108.744 144.856C108.735 144.856 108.73 144.861 108.73 144.87C108.739 144.87 108.753 144.865 108.772 144.856V145.78C108.772 145.967 108.707 146.125 108.576 146.256C108.455 146.387 108.301 146.452 108.114 146.452C107.918 146.452 107.755 146.387 107.624 146.256C107.503 146.125 107.447 145.967 107.456 145.78V144.464ZM108.072 149C107.848 149 107.675 148.939 107.554 148.818C107.433 148.687 107.372 148.51 107.372 148.286V148.02C107.372 147.796 107.433 147.623 107.554 147.502C107.675 147.371 107.848 147.306 108.072 147.306H108.212C108.436 147.306 108.609 147.371 108.73 147.502C108.851 147.623 108.912 147.796 108.912 148.02V148.286C108.912 148.51 108.851 148.687 108.73 148.818C108.609 148.939 108.436 149 108.212 149H108.072Z" fill="#011911" fill-opacity="0.8"/>
<path d="M511.556 54.6665H522.447C527.165 54.6665 530.335 57.7012 530.335 62.2198V73.7798C530.335 78.2985 527.165 81.3332 522.447 81.3332H511.556C506.839 81.3332 503.668 78.2972 503.668 73.7785V62.2198C503.668 57.7012 506.839 54.6665 511.556 54.6665Z" fill="white"/>
<path d="M511.556 54.6665H522.447C527.165 54.6665 530.335 57.7012 530.335 62.2198V73.7798C530.335 78.2985 527.165 81.3332 522.447 81.3332H511.556C506.839 81.3332 503.668 78.2972 503.668 73.7785V62.2198C503.668 57.7012 506.839 54.6665 511.556 54.6665" stroke="#011210" stroke-opacity="0.4" strokeWidth="0.2"/>
<path d="M518.277 68.0062L520.735 65.5392C520.906 65.3672 521 65.1392 521 64.8978C521 64.6564 520.906 64.4284 520.735 64.2564C520.393 63.9145 519.799 63.9145 519.458 64.2564L517 66.7245L514.541 64.2564C514.199 63.9145 513.606 63.9145 513.264 64.2564C513.094 64.4284 513 64.6564 513 64.8978C513 65.1392 513.094 65.3672 513.264 65.5392L515.722 68.0062L513.264 70.4732C513.094 70.6452 513 70.8732 513 71.1146C513 71.356 513.094 71.584 513.264 71.756C513.606 72.0979 514.199 72.0979 514.541 71.756L517 69.2879L519.458 71.756C519.629 71.9269 519.855 72.0212 520.097 72.0212C520.338 72.0212 520.564 71.9269 520.735 71.756C520.906 71.584 521 71.356 521 71.1146C521 70.8732 520.906 70.6452 520.735 70.4732L518.277 68.0062Z" fill="#011911"/>
</g>
<defs>
<filter id="filter0_d" x="0" y="0" width="597" height="344" filterUnits="userSpaceOnUse" color-interpolation-filters="sRGB">
<feFlood flood-opacity="0" result="BackgroundImageFix"/>
<feColorMatrix in="SourceAlpha" type="matrix" values="0 0 0 0 0 0 0 0 0 0 0 0 0 0 0 0 0 0 127 0" result="hardAlpha"/>
<feOffset dy="12"/>
<feGaussianBlur stdDeviation="24"/>
<feComposite in2="hardAlpha" operator="out"/>
<feColorMatrix type="matrix" values="0 0 0 0 0.337255 0 0 0 0 0.423529 0 0 0 0 0.392157 0 0 0 0.15 0"/>
<feBlend mode="normal" in2="BackgroundImageFix" result="effect1_dropShadow"/>
<feBlend mode="normal" in="SourceGraphic" in2="effect1_dropShadow" result="shape"/>
</filter>
</defs>
</svg>
