<svg width="1043" height="563" viewBox="0 0 1043 563" fill="none" xmlns="http://www.w3.org/2000/svg">
<path d="M857.164 256.262C877.938 256.942 897.208 265.545 911.423 280.469C925.637 295.393 933.106 314.864 932.437 335.292C931.768 355.72 923.041 374.66 907.88 388.622C892.719 402.584 872.927 409.907 852.153 409.226C831.378 408.546 812.108 399.943 797.894 385.019C783.679 370.095 776.21 350.624 776.879 330.196C777.549 309.768 786.276 290.828 801.437 276.866C816.598 262.905 836.389 255.581 857.164 256.262ZM852.323 404.022C892.284 405.331 925.857 374.414 927.144 335.119C928.432 295.824 896.955 262.776 856.993 261.466C817.032 260.157 783.459 291.074 782.172 330.37C780.885 369.665 812.362 402.713 852.323 404.022Z" fill="#CBF5E7"/>
<path d="M501.239 446.936C502.394 469.092 511.89 474.405 519.635 474.919C520.719 475.006 521.779 474.989 522.815 474.893C524.095 469.803 528.181 466.367 529.809 465.196C533.718 462.329 538.074 461.195 540.151 462.487C540.904 462.955 541.745 463.972 541.331 466.095C541.011 467.778 538.011 470.389 534.077 472.396C531.922 473.498 528.026 475.168 523.506 475.645C523.158 477.379 523.174 479.307 523.741 481.41C524.974 485.827 527.499 488.827 531.186 490.303C542.403 494.812 561.246 484.123 561.435 483.999L561.837 484.664C561.054 485.107 542.508 495.649 530.897 491.023C526.975 489.435 524.297 486.274 522.992 481.62C522.4 479.49 522.359 477.509 522.682 475.722C521.7 475.794 520.667 475.786 519.636 475.726C511.547 475.175 501.658 469.719 500.495 446.99L501.239 446.936ZM523.665 474.842C527.946 474.357 531.601 472.784 533.676 471.706C537.799 469.574 540.289 467.155 540.541 465.939C540.797 464.592 540.537 463.646 539.732 463.151C537.94 462.05 533.902 463.194 530.292 465.837C528.772 466.934 524.932 470.117 523.665 474.842Z" fill="#231F20"/>
<path d="M712.77 277.47L732.457 289.103L744.265 269.756L724.578 258.123L712.77 277.47Z" fill="#23E0A2"/>
<path d="M722.279 251.572C722.332 251.573 722.41 251.602 722.463 251.63L742.136 263.268C742.214 263.322 742.291 263.403 742.314 263.508C742.337 263.613 742.334 263.717 742.278 263.793L730.465 283.127C730.353 283.306 730.112 283.376 729.93 283.266L710.257 271.628C710.179 271.573 710.102 271.493 710.079 271.388C710.056 271.283 710.059 271.179 710.115 271.102L721.928 251.768C721.985 251.64 722.147 251.567 722.279 251.572ZM741.379 263.738L722.381 252.513L710.986 271.183L729.985 282.408L741.379 263.738Z" fill="#231F20"/>
<path d="M963.827 372.029L963.688 371.607L956.197 374.083L956.336 374.505L963.827 372.029Z" fill="#231F20"/>
<path d="M657.857 431.357L658.445 431.376L658.787 420.939L658.199 420.92L657.857 431.357Z" fill="#231F20"/>
<path d="M970.35 384.181L957.217 379.988L957.089 380.411L970.223 384.605L970.35 384.181Z" fill="#231F20"/>
<path d="M639.781 433.916L650.984 419.511L650.516 419.159L639.313 433.564L639.781 433.916Z" fill="#231F20"/>
<path d="M973.051 297.412C974.951 303.159 981.072 306.304 986.723 304.436C992.374 302.568 995.415 296.395 993.516 290.648C991.616 284.901 985.495 281.757 979.844 283.624C974.193 285.492 971.152 291.665 973.051 297.412Z" fill="#CBF5E7"/>
<path d="M970.039 295.032C968.107 289.188 971.205 282.901 976.951 281.001C982.697 279.102 988.932 282.305 990.863 288.148C992.795 293.992 989.697 300.279 983.951 302.179C978.219 304.073 971.97 300.875 970.039 295.032ZM990.503 288.267C988.642 282.635 982.61 279.537 977.072 281.367C971.534 283.198 968.537 289.28 970.399 294.913C972.26 300.545 978.291 303.643 983.83 301.813C989.368 299.982 992.365 293.9 990.503 288.267Z" fill="#231F20"/>
<path d="M576.957 344.636C568.95 344.374 562.25 350.544 561.992 358.418C561.734 366.291 568.016 372.887 576.023 373.149C584.03 373.412 590.731 367.241 590.989 359.368C591.246 351.494 584.964 344.899 576.957 344.636Z" fill="#CBF5E7"/>
<path d="M581.287 341.98C589.429 342.246 595.827 348.964 595.565 356.97C595.303 364.976 588.478 371.261 580.337 370.994C572.195 370.728 565.796 364.01 566.059 356.004C566.32 348.017 573.145 341.713 581.287 341.98ZM580.353 370.493C588.2 370.75 594.802 364.67 595.055 356.954C595.308 349.237 589.118 342.738 581.271 342.481C573.423 342.224 566.821 348.304 566.569 356.02C566.316 363.737 572.506 370.236 580.353 370.493Z" fill="#231F20"/>
<path d="M692.251 506.601L724.789 525.142L743.607 493.165L711.069 474.625L692.251 506.601Z" fill="#23E0A2"/>
<path d="M750.691 492.335C750.767 492.415 750.783 492.531 750.721 492.626L731.899 524.608C731.836 524.741 731.658 524.774 731.543 524.693L698.998 506.149C698.863 506.087 698.829 505.912 698.912 505.799L717.733 473.816C717.797 473.683 717.974 473.65 718.09 473.731L750.634 492.275C750.633 492.294 750.672 492.315 750.691 492.335ZM731.561 524.134L750.132 492.606L718.031 474.328L699.479 505.875L731.561 524.134Z" fill="#231F20"/>
<path d="M856.04 277.496C871.441 278.001 885.726 284.378 896.263 295.442C906.801 306.505 912.338 320.939 911.842 336.083C911.346 351.227 904.876 365.267 893.637 375.618C882.398 385.968 867.726 391.397 852.325 390.892C836.924 390.388 822.639 384.01 812.102 372.947C801.564 361.883 796.027 347.449 796.523 332.305C797.019 317.161 803.489 303.121 814.728 292.771C825.967 282.42 840.639 276.992 856.04 277.496ZM852.452 387.034C882.076 388.004 906.964 365.085 907.918 335.954C908.872 306.824 885.538 282.325 855.914 281.354C826.289 280.384 801.401 303.303 800.447 332.434C799.493 361.564 822.827 386.063 852.452 387.034Z" fill="#CBF5E7"/>
<path d="M855.102 305.918C870.954 306.437 883.447 319.554 882.936 335.142C882.426 350.729 869.101 363 853.249 362.481C837.397 361.962 824.904 348.845 825.414 333.257C825.925 317.67 839.25 305.399 855.102 305.918ZM853.312 360.552C868.085 361.036 880.499 349.604 880.974 335.077C881.45 320.551 869.811 308.331 855.039 307.847C840.266 307.363 827.852 318.795 827.376 333.322C826.9 347.848 838.539 360.068 853.312 360.552Z" fill="#23E0A2"/>
<path d="M861.689 461.036C862.546 477.461 869.585 481.399 875.327 481.78C876.13 481.845 876.916 481.833 877.685 481.761C878.633 477.988 881.663 475.441 882.869 474.573C885.767 472.447 888.996 471.606 890.536 472.565C891.094 472.911 891.717 473.665 891.41 475.239C891.173 476.487 888.949 478.422 886.033 479.91C884.435 480.727 881.547 481.965 878.197 482.319C877.939 483.604 877.951 485.034 878.371 486.592C879.285 489.867 881.156 492.091 883.89 493.185C892.206 496.528 906.174 488.604 906.314 488.512L906.612 489.005C906.032 489.333 892.284 497.148 883.676 493.719C880.768 492.542 878.783 490.198 877.816 486.748C877.377 485.169 877.346 483.701 877.586 482.376C876.858 482.429 876.092 482.423 875.327 482.379C869.331 481.97 862 477.926 861.138 461.076L861.689 461.036ZM878.314 481.724C881.488 481.364 884.197 480.198 885.736 479.398C888.792 477.818 890.638 476.025 890.825 475.123C891.015 474.125 890.822 473.424 890.225 473.057C888.897 472.241 885.903 473.089 883.227 475.048C882.1 475.861 879.254 478.22 878.314 481.724Z" fill="#231F20"/>
<path d="M733.248 396.494C733.414 396.828 737.511 404.842 735.252 409.055C734.5 410.44 733.176 411.266 731.264 411.493C730.475 411.583 729.712 411.519 729.011 411.322C729.012 411.882 728.974 412.441 728.858 412.998C728.255 415.817 725.676 418.996 716.865 418.186L716.923 417.608C723.56 418.231 727.503 416.584 728.292 412.882C728.409 412.307 728.467 411.729 728.448 411.13C726.586 410.393 725.127 408.781 724.292 407.286C723.402 405.673 723.195 404.199 723.767 403.542C724.012 403.26 724.472 403.005 725.366 403.285C726.532 403.671 728.753 407.2 729.011 410.724C729.691 410.939 730.434 411.041 731.223 410.931C732.919 410.717 734.102 410.002 734.75 408.807C736.883 404.84 732.784 396.865 732.748 396.767L733.248 396.494ZM728.371 410.471C728.046 407.216 726.007 404.098 725.132 403.818C724.666 403.668 724.351 403.696 724.167 403.902C723.821 404.296 723.919 405.497 724.753 407.011C725.515 408.33 726.784 409.762 728.371 410.471Z" fill="#231F20"/>
<path d="M1020.42 267.01L1032.51 270.967L1036.29 258.756L1024.21 254.799L1020.42 267.01Z" fill="#00E4AF"/>
<path d="M1018.17 263.942C1018.16 263.9 1018.16 263.853 1018.17 263.802L1021.95 251.602C1021.97 251.55 1022.01 251.504 1022.06 251.471C1022.12 251.439 1022.18 251.435 1022.23 251.463L1034.31 255.422C1034.43 255.461 1034.48 255.583 1034.44 255.704L1030.66 267.904C1030.65 267.956 1030.6 268.002 1030.55 268.034C1030.5 268.067 1030.44 268.071 1030.38 268.043L1018.31 264.084C1018.24 264.06 1018.19 264.012 1018.17 263.942ZM1022.3 251.955L1018.65 263.735L1030.31 267.55L1033.96 255.771L1022.3 251.955Z" fill="#231F20"/>
<path d="M593.113 417.368L582.682 430.579L596.127 440.851L606.559 427.64L593.113 417.368Z" fill="#00E4AF"/>
<path d="M597.952 415.968C598.011 415.97 598.069 415.991 598.127 416.032L611.558 426.302C611.615 426.342 611.652 426.421 611.669 426.498C611.686 426.576 611.664 426.653 611.603 426.709L601.174 439.905C601.072 440.037 600.895 440.05 600.761 439.949L587.33 429.679C587.272 429.639 587.235 429.56 587.218 429.483C587.201 429.405 587.223 429.328 587.284 429.272L597.713 416.076C597.774 416.001 597.854 415.965 597.952 415.968ZM610.96 426.572L597.988 416.664L587.928 429.409L600.899 439.317L610.96 426.572Z" fill="#231F20"/>
<path d="M790.014 421.214L784.193 436.933L800.185 442.674L806.006 426.955L790.014 421.214Z" fill="#00E4AF"/>
<path d="M794.293 418.423C794.332 418.424 794.352 418.425 794.39 418.445L810.366 424.183C810.521 424.246 810.594 424.403 810.55 424.556L804.733 440.259C804.669 440.412 804.509 440.484 804.354 440.44L788.378 434.702C788.223 434.639 788.15 434.483 788.194 434.329L794.011 418.626C794.035 418.492 794.155 418.418 794.293 418.423ZM809.88 424.631L794.448 419.084L788.825 434.254L804.257 439.8L809.88 424.631Z" fill="#231F20"/>
<path d="M874.659 231.915L889.254 240.539L898.008 226.197L883.413 217.573L874.659 231.915Z" fill="#23E0A2"/>
<path d="M881.709 212.713C881.748 212.714 881.807 212.735 881.845 212.756L896.43 221.384C896.487 221.424 896.544 221.484 896.561 221.562C896.578 221.639 896.576 221.717 896.535 221.773L887.777 236.106C887.694 236.238 887.516 236.29 887.381 236.209L872.797 227.581C872.739 227.541 872.682 227.481 872.665 227.403C872.648 227.325 872.65 227.248 872.691 227.191L881.449 212.859C881.491 212.764 881.611 212.71 881.709 212.713ZM895.868 221.732L881.784 213.411L873.338 227.251L887.422 235.573L895.868 221.732Z" fill="#231F20"/>
<path d="M462.978 323.078L462.156 323.195L464.24 337.772L465.062 337.654L462.978 323.078Z" fill="#231F20"/>
<path d="M487.452 315.095L475.426 337.844L476.162 338.218L488.188 315.469L487.452 315.095Z" fill="#231F20"/>
<path d="M1012.02 430.817L966.5 446.311L970.273 457.597L1015.79 442.103L1012.02 430.817Z" fill="#23E0A2"/>
<path d="M1041.15 407.578C1042.9 406.642 1043.57 404.485 1042.65 402.762C1041.73 401.038 1039.57 400.399 1037.81 401.335C1036.06 402.271 1035.38 404.427 1036.31 406.151C1037.23 407.875 1039.39 408.514 1041.15 407.578Z" fill="#23E0A2"/>
<path d="M1030.09 411.382C1031.84 410.446 1032.52 408.289 1031.6 406.566C1030.68 404.842 1028.51 404.203 1026.76 405.139C1025.01 406.075 1024.33 408.231 1025.25 409.955C1026.17 411.679 1028.34 412.318 1030.09 411.382Z" fill="#CBF5E7"/>
<path d="M973.882 465.87L974.154 466.641L1060.39 435.875L1060.12 435.104L973.882 465.87Z" fill="#CBF5E7"/>
<path d="M977.672 479.047L977.943 479.817L1064.18 449.051L1063.91 448.281L977.672 479.047Z" fill="#CBF5E7"/>
<path d="M794.799 208.089C805.982 206.49 813.773 196.28 812.201 185.283C810.629 174.286 800.289 166.668 789.106 168.266C777.923 169.865 770.132 180.076 771.704 191.072C773.276 202.069 783.616 209.688 794.799 208.089Z" fill="#CBF5E7"/>
<path d="M789.439 212.842C778.068 214.467 767.536 206.707 765.937 195.526C764.339 184.344 772.275 173.944 783.646 172.319C795.017 170.693 805.549 178.453 807.148 189.635C808.742 200.789 800.81 211.216 789.439 212.842ZM783.746 173.019C772.786 174.586 765.109 184.646 766.65 195.424C768.191 206.201 778.379 213.708 789.339 212.141C800.299 210.574 807.976 200.514 806.435 189.736C804.894 178.959 794.706 171.452 783.746 173.019Z" fill="#231F20"/>
<path d="M667.56 367.881C667.248 367.458 659.594 357.334 661.698 350.93C662.403 348.822 664.038 347.351 666.638 346.567C667.711 346.249 668.787 346.15 669.808 346.251C669.669 345.474 669.585 344.689 669.61 343.888C669.757 339.825 672.558 334.778 684.992 333.743L685.053 334.559C675.683 335.321 670.613 338.575 670.424 343.909C670.403 344.737 670.464 345.553 670.638 346.38C673.403 346.947 675.825 348.828 677.351 350.699C678.982 352.721 679.631 354.718 678.998 355.77C678.727 356.222 678.151 356.689 676.84 356.519C675.127 356.269 671.177 351.912 669.955 347.083C668.958 346.95 667.901 346.991 666.832 347.337C664.53 348.051 663.063 349.333 662.456 351.151C660.467 357.182 668.113 367.252 668.187 367.379L667.56 367.881ZM670.906 347.277C672.156 351.717 675.751 355.547 677.034 355.721C677.718 355.816 678.149 355.699 678.353 355.368C678.738 354.735 678.308 353.092 676.778 351.194C675.397 349.549 673.284 347.872 670.906 347.277Z" fill="#231F20"/>
<path d="M572.673 288.056L583.92 267.154L562.731 256.186L551.484 277.088L572.673 288.056Z" fill="#00E4AF"/>
<path d="M566.292 291.186C566.21 291.197 566.124 291.182 566.034 291.14L544.866 280.172C544.776 280.129 544.706 280.029 544.663 279.926C544.62 279.822 544.632 279.71 544.703 279.617L555.95 258.736C556.06 258.528 556.302 258.466 556.513 258.573L577.682 269.542C577.771 269.584 577.842 269.684 577.884 269.788C577.927 269.892 577.915 270.003 577.845 270.096L566.598 290.977C566.531 291.096 566.429 291.166 566.292 291.186ZM545.63 279.65L566.071 290.227L576.917 270.063L556.476 259.486L545.63 279.65Z" fill="#231F20"/>
<path d="M640.049 148.261C655.528 141.83 656.906 133.726 655.312 128.082C655.1 127.289 654.819 126.539 654.488 125.825C650.541 126.203 647.061 124.164 645.816 123.301C642.785 121.245 640.875 118.431 641.27 116.625C641.412 115.971 641.923 115.115 643.539 114.872C644.818 114.674 647.436 116.149 649.86 118.441C651.19 119.696 653.365 122.047 654.849 125.143C656.171 124.952 657.54 124.453 658.893 123.517C661.725 121.521 663.222 118.965 663.339 115.966C663.71 106.84 651.332 96.1327 651.195 96.0292L651.567 95.5748C652.08 96.0198 664.279 106.553 663.925 115.99C663.787 119.183 662.215 121.89 659.232 123.997C657.866 124.957 656.466 125.488 655.112 125.71C655.412 126.391 655.668 127.129 655.887 127.878C657.541 133.775 656.161 142.196 640.276 148.776L640.049 148.261ZM654.237 125.233C652.809 122.309 650.763 120.105 649.471 118.901C646.91 116.506 644.557 115.345 643.628 115.474C642.605 115.632 641.997 116.057 641.848 116.756C641.518 118.31 643.355 120.895 646.15 122.796C647.315 123.6 650.553 125.527 654.237 125.233Z" fill="#231F20"/>
<path d="M80.5383 257.583C81.4645 279.749 90.9049 285.159 98.6448 285.754C99.7271 285.852 100.788 285.846 101.825 285.76C103.157 280.684 107.279 277.291 108.918 276.137C112.857 273.309 117.224 272.221 119.287 273.535C120.036 274.01 120.866 275.036 120.43 277.154C120.093 278.834 117.066 281.414 113.112 283.38C110.945 284.46 107.032 286.089 102.508 286.52C102.142 288.25 102.138 290.178 102.683 292.287C103.87 296.716 106.364 299.743 110.035 301.256C121.206 305.881 140.158 295.388 140.348 295.265L140.744 295.934C139.956 296.369 121.302 306.719 109.74 301.973C105.834 300.345 103.189 297.156 101.932 292.489C101.362 290.353 101.341 288.372 101.683 286.588C100.7 286.65 99.667 286.632 98.6364 286.561C90.5538 285.926 80.7222 280.368 79.7942 257.629L80.5383 257.583ZM102.675 285.719C106.961 285.278 110.631 283.742 112.718 282.686C116.863 280.597 119.378 278.203 119.642 276.99C119.912 275.646 119.661 274.697 118.861 274.194C117.081 273.075 113.031 274.177 109.394 276.783C107.863 277.863 103.991 281.006 102.675 285.719Z" fill="#231F20"/>
<path d="M293.809 90.3106L313.375 102.147L325.383 82.9227L305.817 71.0867L293.809 90.3106Z" fill="#23E0A2"/>
<path d="M303.587 64.5121C303.639 64.5143 303.718 64.5438 303.769 64.5721L323.322 76.4128C323.399 76.4683 323.475 76.5497 323.497 76.6549C323.519 76.7601 323.515 76.8642 323.458 76.9399L311.446 96.1506C311.332 96.3281 311.091 96.3959 310.91 96.2839L291.358 84.4431C291.28 84.3876 291.204 84.3062 291.182 84.201C291.16 84.0958 291.165 83.9917 291.221 83.916L303.234 64.7053C303.292 64.5776 303.454 64.5064 303.587 64.5121ZM322.56 76.8752L303.678 65.4543L292.092 84.0057L310.973 95.4266L322.56 76.8752Z" fill="#231F20"/>
<path d="M543.875 187.459L543.74 187.036L536.224 189.434L536.36 189.858L543.875 187.459Z" fill="#231F20"/>
<path d="M237.308 243.622L237.896 243.647L238.346 233.215L237.758 233.189L237.308 243.622Z" fill="#231F20"/>
<path d="M550.271 199.678L537.182 195.349L537.049 195.771L550.139 200.1L550.271 199.678Z" fill="#231F20"/>
<path d="M219.209 245.994L230.561 231.706L230.096 231.349L218.745 245.637L219.209 245.994Z" fill="#231F20"/>
<path d="M553.871 112.941C555.711 118.708 561.799 121.915 567.469 120.106C573.139 118.297 576.244 112.155 574.404 106.389C572.564 100.623 566.476 97.4152 560.806 99.2246C555.136 101.034 552.031 107.175 553.871 112.941Z" fill="#CBF5E7"/>
<path d="M550.883 110.53C549.012 104.667 552.174 98.4115 557.94 96.5717C563.705 94.7319 569.906 97.9991 571.777 103.862C573.648 109.725 570.486 115.981 564.72 117.82C558.969 119.656 552.754 116.393 550.883 110.53ZM571.416 103.978C569.612 98.3263 563.614 95.1658 558.057 96.939C552.5 98.7123 549.44 104.763 551.244 110.415C553.047 116.066 559.046 119.226 564.603 117.453C570.16 115.68 573.219 109.629 571.416 103.978Z" fill="#231F20"/>
<path d="M157.308 156.07C149.304 155.725 142.541 161.826 142.202 169.696C141.862 177.567 148.076 184.227 156.08 184.572C164.084 184.917 170.847 178.816 171.187 170.946C171.526 163.075 165.312 156.415 157.308 156.07Z" fill="#CBF5E7"/>
<path d="M161.667 153.459C169.805 153.809 176.134 160.593 175.789 168.596C175.444 176.599 168.555 182.813 160.417 182.462C152.278 182.111 145.949 175.327 146.294 167.324C146.638 159.341 153.528 153.108 161.667 153.459ZM160.438 181.96C168.283 182.299 174.947 176.288 175.279 168.574C175.612 160.86 169.49 154.298 161.645 153.96C153.801 153.622 147.137 159.633 146.804 167.346C146.472 175.06 152.594 181.622 160.438 181.96Z" fill="#231F20"/>
<path d="M270.924 319.218L303.27 338.094L322.417 306.313L290.072 287.437L270.924 319.218Z" fill="#23E0A2"/>
<path d="M329.506 305.556C329.581 305.637 329.596 305.753 329.533 305.847L310.382 337.633C310.317 337.766 310.139 337.797 310.025 337.715L277.674 318.836C277.539 318.772 277.507 318.597 277.591 318.484L296.742 286.698C296.806 286.565 296.985 286.534 297.099 286.617L329.45 305.496C329.449 305.515 329.488 305.536 329.506 305.556ZM310.049 337.155L328.945 305.822L297.034 287.213L278.157 318.567L310.049 337.155Z" fill="#231F20"/>
<path d="M435.838 120.228C451.684 120.911 464.041 134.156 463.369 149.738C462.697 165.319 449.246 177.452 433.401 176.769C417.555 176.086 405.198 162.841 405.87 147.259C406.541 131.678 419.992 119.545 435.838 120.228ZM433.484 174.84C448.251 175.477 460.782 164.174 461.408 149.653C462.034 135.132 450.522 122.793 435.755 122.156C420.988 121.52 408.457 132.823 407.831 147.344C407.205 161.864 418.717 174.204 433.484 174.84Z" fill="#23E0A2"/>
<path d="M440.826 275.406C441.513 291.839 448.511 295.85 454.249 296.29C455.051 296.363 455.837 296.359 456.606 296.295C457.593 292.532 460.649 290.017 461.865 289.161C464.784 287.065 468.022 286.258 469.551 287.232C470.106 287.584 470.722 288.345 470.399 289.915C470.148 291.16 467.905 293.073 464.973 294.531C463.367 295.331 460.466 296.539 457.112 296.858C456.841 298.141 456.838 299.57 457.242 301.133C458.122 304.417 459.971 306.66 462.693 307.782C470.974 311.211 485.023 303.432 485.164 303.342L485.457 303.837C484.874 304.16 471.045 311.833 462.473 308.314C459.578 307.107 457.617 304.743 456.686 301.283C456.263 299.7 456.248 298.231 456.501 296.909C455.772 296.955 455.006 296.941 454.242 296.889C448.251 296.418 440.962 292.298 440.274 275.441L440.826 275.406ZM457.236 296.264C460.413 295.938 463.135 294.799 464.681 294.016C467.754 292.467 469.618 290.693 469.814 289.794C470.014 288.798 469.829 288.094 469.236 287.721C467.916 286.891 464.914 287.708 462.217 289.64C461.083 290.441 458.212 292.771 457.236 296.264Z" fill="#231F20"/>
<path d="M313.055 209.54C313.218 209.876 317.232 217.931 314.93 222.121C314.163 223.498 312.831 224.31 310.916 224.518C310.127 224.599 309.364 224.528 308.665 224.324C308.661 224.884 308.617 225.442 308.495 225.997C307.863 228.81 305.251 231.963 296.449 231.062L296.513 230.485C303.144 231.176 307.103 229.57 307.93 225.876C308.053 225.302 308.117 224.725 308.104 224.126C306.25 223.37 304.808 221.743 303.988 220.239C303.115 218.617 302.924 217.141 303.502 216.489C303.75 216.21 304.212 215.96 305.104 216.249C306.265 216.647 308.45 220.2 308.671 223.725C309.349 223.948 310.091 224.057 310.882 223.956C312.58 223.759 313.769 223.056 314.43 221.868C316.604 217.923 312.588 209.906 312.552 209.808L313.055 209.54ZM308.034 223.466C307.742 220.208 305.736 217.069 304.865 216.78C304.4 216.625 304.084 216.65 303.899 216.854C303.548 217.245 303.633 218.446 304.452 219.969C305.2 221.296 306.454 222.741 308.034 223.466Z" fill="#231F20"/>
<path d="M601.555 83.0303L613.6 87.1119L617.509 74.9406L605.464 70.8589L601.555 83.0303Z" fill="#00E4AF"/>
<path d="M599.333 79.9393C599.32 79.8969 599.32 79.8501 599.334 79.7989L603.245 67.6386C603.26 67.5873 603.306 67.5413 603.357 67.5095C603.408 67.4776 603.468 67.474 603.523 67.5031L615.557 71.5866C615.677 71.6262 615.731 71.7489 615.693 71.87L611.782 84.0303C611.768 84.0815 611.722 84.1275 611.67 84.1594C611.619 84.1912 611.559 84.1948 611.504 84.1657L599.471 80.0822C599.402 80.0576 599.356 80.0099 599.333 79.9393ZM603.589 67.9959L599.82 79.7373L611.439 83.6729L615.208 71.9315L603.589 67.9959Z" fill="#231F20"/>
<path d="M172.712 228.965L162.145 242.067L175.483 252.478L186.051 239.376L172.712 228.965Z" fill="#00E4AF"/>
<path d="M177.566 227.615C177.625 227.618 177.683 227.64 177.74 227.681L191.064 238.089C191.121 238.13 191.157 238.209 191.174 238.287C191.19 238.365 191.167 238.441 191.106 238.496L180.541 251.584C180.437 251.715 180.26 251.727 180.127 251.624L166.802 241.216C166.745 241.175 166.709 241.096 166.693 241.018C166.677 240.94 166.7 240.864 166.761 240.809L177.326 227.721C177.388 227.646 177.468 227.611 177.566 227.615ZM190.463 238.353L177.595 228.312L167.403 240.952L180.272 250.993L190.463 238.353Z" fill="#231F20"/>
<path d="M362.268 179.654L356.285 195.313L372.217 201.219L378.199 185.561L362.268 179.654Z" fill="#00E4AF"/>
<path d="M366.574 176.908C366.613 176.91 366.633 176.91 366.671 176.931L382.587 182.834C382.741 182.898 382.813 183.056 382.767 183.209L376.788 198.851C376.722 199.003 376.562 199.073 376.407 199.028L360.491 193.126C360.337 193.061 360.265 192.903 360.311 192.751L366.29 177.108C366.316 176.974 366.437 176.902 366.574 176.908ZM382.096 183.276L366.722 177.571L360.943 192.681L376.317 198.387L382.096 183.276Z" fill="#231F20"/>
<path d="M456.161 46.4309L470.666 55.2052L479.568 40.9541L465.063 32.1798L456.161 46.4309Z" fill="#23E0A2"/>
<path d="M463.407 27.3027C463.446 27.3044 463.504 27.3263 463.543 27.3472L478.037 36.1251C478.095 36.1662 478.151 36.2265 478.167 36.3045C478.183 36.3825 478.18 36.4596 478.138 36.5158L469.233 50.7571C469.149 50.8887 468.97 50.939 468.836 50.8559L454.341 42.0781C454.284 42.037 454.228 41.9766 454.212 41.8986C454.195 41.8206 454.199 41.7435 454.24 41.6873L463.145 27.446C463.189 27.3513 463.309 27.2985 463.407 27.3027ZM477.472 36.4678L463.475 28.0012L454.886 41.7538L468.883 50.2204L477.472 36.4678Z" fill="#231F20"/>
<path d="M46.5361 84.8621L45.7129 84.9711L47.6459 99.5683L48.4691 99.4593L46.5361 84.8621Z" fill="#231F20"/>
<path d="M71.0887 77.1323L58.8281 99.7557L59.5603 100.138L71.8208 77.5142L71.0887 77.1323Z" fill="#231F20"/>
<path d="M47.0934 117.07L7.64844 144.31L12.2393 150.766L51.6842 123.526L47.0934 117.07Z" fill="#23E0A2"/>
<path d="M56.1755 131.343L17.8047 157.999L18.2815 158.666L56.6523 132.009L56.1755 131.343Z" fill="#CBF5E7"/>
<path d="M63.9688 143.339L37.5844 161.686L36.921 162.158C36.7827 161.957 36.6133 161.732 36.444 161.507L37.1074 161.035L63.4918 142.688L63.9688 143.339Z" fill="#CBF5E7"/>
<path d="M71.4782 152.432L33.1074 179.089L33.5843 179.755L71.955 153.099L71.4782 152.432Z" fill="#CBF5E7"/>
<path d="M79.4431 162.175L41.0723 188.832L41.5491 189.499L79.9199 162.842L79.4431 162.175Z" fill="#CBF5E7"/>
<path d="M87.4294 171.903L49.0586 198.559L49.5354 199.226L87.9062 172.569L87.4294 171.903Z" fill="#CBF5E7"/>
<path d="M384.498 82.4947C395.697 81.0117 403.594 70.8822 402.135 59.8699C400.677 48.8575 390.416 41.1324 379.217 42.6154C368.018 44.0984 360.122 54.2279 361.58 65.2403C363.038 76.2527 373.299 83.9777 384.498 82.4947Z" fill="#CBF5E7"/>
<path d="M379.088 87.1918C367.701 88.6998 357.25 80.8314 355.767 69.6339C354.284 58.4364 362.327 48.1189 373.714 46.611C385.102 45.1031 395.553 52.9714 397.036 64.1689C398.515 75.3395 390.476 85.6839 379.088 87.1918ZM373.807 47.3125C362.832 48.766 355.051 58.7466 356.48 69.5394C357.91 80.3322 368.02 87.9437 378.995 86.4903C389.971 85.0369 397.752 75.0562 396.322 64.2634C394.893 53.4706 384.783 45.8591 373.807 47.3125Z" fill="#231F20"/>
<path d="M247.666 180.25C247.359 179.824 239.809 169.622 241.98 163.239C242.707 161.139 244.357 159.685 246.965 158.928C248.041 158.62 249.118 158.533 250.138 158.645C250.007 157.866 249.931 157.08 249.965 156.279C250.153 152.218 253.006 147.2 265.45 146.294L265.503 147.111C256.126 147.776 251.022 150.977 250.778 156.309C250.748 157.136 250.8 157.953 250.966 158.782C253.725 159.378 256.128 161.283 257.634 163.17C259.244 165.209 259.872 167.212 259.229 168.258C258.953 168.706 258.372 169.168 257.064 168.984C255.353 168.716 251.448 164.319 250.276 159.477C249.28 159.335 248.223 159.365 247.151 159.699C244.841 160.389 243.361 161.656 242.736 163.469C240.684 169.478 248.226 179.626 248.299 179.754L247.666 180.25ZM251.225 159.681C252.429 164.134 255.984 168.001 257.265 168.189C257.949 168.29 258.381 168.178 258.588 167.849C258.98 167.22 258.566 165.573 257.056 163.659C255.692 162 253.596 160.301 251.225 159.681Z" fill="#231F20"/>
<path d="M153.612 99.4487L165.074 78.6643L144 67.4776L132.538 88.262L153.612 99.4487Z" fill="#00E4AF"/>
<path d="M147.199 102.512C147.117 102.523 147.031 102.507 146.942 102.464L125.888 91.2774C125.798 91.2343 125.729 91.1336 125.687 91.0293C125.646 90.925 125.659 90.8135 125.731 90.7216L137.192 69.9578C137.305 69.7508 137.548 69.6911 137.758 69.8006L158.812 80.9872C158.901 81.0303 158.97 81.1309 159.012 81.2352C159.054 81.3395 159.041 81.4511 158.969 81.5429L147.507 102.307C147.439 102.426 147.336 102.494 147.199 102.512ZM126.657 90.7636L146.988 101.552L158.042 81.5009L137.711 70.7128L126.657 90.7636Z" fill="#231F20"/>
</svg>
