<svg width="546" height="495" viewBox="0 0 546 495" fill="none" xmlns="http://www.w3.org/2000/svg">
<path d="M466.313 217.511C466.313 217.511 485.005 192.529 482.203 166.235C479.401 139.941 468.132 129.149 457.757 125.393C447.383 121.666 391.844 123.693 380.664 126.317C369.485 128.97 360.869 141.074 356.666 168.649C357.501 175.655 361.287 189.041 364.983 194.287C368.68 199.534 377.802 193.81 377.802 193.81C377.802 193.81 380.217 212.8 384.45 216.229C388.684 219.657 402.725 225.262 408.658 223.622C414.59 221.982 423.921 215.722 433.193 200.25C437.784 204.006 466.313 217.511 466.313 217.511Z" fill="#23E0A2"/>
<path d="M414.5 123.5L430 123L422.5 136.5L414 201.5L405 208.5L398 199L419.5 136.5L414.5 123.5Z" fill="#020D1E"/>
<path d="M424.402 117.089C416.409 117.089 409.893 110.573 409.893 102.58C409.893 101.292 410.082 100.042 410.385 98.8678C407.696 97.0115 407.165 93.5535 411.067 89.5C415.424 84.992 412.885 86.4044 412.885 86.4044C412.885 86.4044 414.893 83.3864 420.5 83.5C428.152 83.6894 427.394 87.0484 427.394 87.0484C423.758 82.4647 430.16 82.6162 433.456 84.7755C446.26 93.1854 441.146 103.603 437.699 108.376C435.463 113.49 430.349 117.089 424.402 117.089ZM428.379 101.861C424.478 96.7842 416.143 95.5341 413.454 95.0038C411.976 97.1631 411.067 99.7769 411.067 102.58C411.067 109.967 417.053 115.953 424.44 115.953C428.796 115.953 432.66 113.869 435.085 110.649C434.479 110.119 433.721 109.399 432.887 108.604C436.638 102.959 430.69 100.08 428.379 101.861Z" fill="#231F20"/>
<path d="M254.979 360.428L279.841 360.607L278.351 344.24C278.351 344.24 257.721 357.596 254.979 360.428Z" fill="#CBF5E7"/>
<path d="M14.3691 344.001L123.808 475.322L163.308 439.25L125.269 381.445L14.3691 344.001Z" fill="#00E4AF"/>
<path d="M137.67 473.503H295.314L289.531 433.079L211.633 434.063L137.67 473.503Z" fill="#00E4AF"/>
<path d="M513.535 116.479C520.22 116.479 525.639 111.06 525.639 104.375C525.639 97.6907 520.22 92.2717 513.535 92.2717C506.851 92.2717 501.432 97.6907 501.432 104.375C501.432 111.06 506.851 116.479 513.535 116.479Z" fill="#00E4AF"/>
<path d="M507.275 118.923C500.359 118.923 494.725 113.289 494.725 106.373C494.725 99.4564 500.359 93.822 507.275 93.822C514.192 93.822 519.826 99.4564 519.826 106.373C519.856 113.289 514.192 118.923 507.275 118.923ZM507.275 94.6866C500.836 94.6866 495.619 99.9334 495.619 106.343C495.619 112.782 500.866 117.999 507.275 117.999C513.685 117.999 518.932 112.752 518.932 106.343C518.961 99.9036 513.715 94.6866 507.275 94.6866Z" fill="#231F20"/>
<path d="M118.352 238.677L87.2285 159.378H196.637L234.081 238.677H118.352Z" fill="#CBF5E7"/>
<path d="M458.773 271.798C458.564 273.557 458.325 275.256 458.027 276.895C454.062 298.569 441.75 309.837 441.75 309.837C441.75 309.837 403.025 310.106 358.963 315.829C351.957 316.724 344.296 318.721 337.171 319.884C285 328.321 224.512 385.32 224.512 385.32L205.463 361.412L204.062 359.653L190.199 342.272C238.136 305.753 264.192 289.625 294.421 280.443C318.837 273.02 357.562 264.822 357.562 264.822C357.562 264.822 302.619 264.613 273.732 278.207C245.321 291.593 210.769 313.057 210.769 313.057C210.769 313.057 209.04 287.449 236.825 272.006C259.541 259.366 343.938 251.913 343.938 251.913C343.938 251.913 352.136 261.006 370.142 256.564C377.327 261.095 383.2 265.15 394.32 266.551C425.652 266.64 439.812 259.426 455.732 238.647C459.25 251.347 459.816 262.437 458.773 271.798Z" fill="#020D1E"/>
<path d="M308.52 237.723H242.606L238.82 231.075H308.52V237.723Z" fill="#CBF5E7"/>
<path d="M155.349 208.031C159.563 208.031 162.98 204.614 162.98 200.399C162.98 196.184 159.563 192.767 155.349 192.767C151.134 192.767 147.717 196.184 147.717 200.399C147.717 204.614 151.134 208.031 155.349 208.031Z" fill="white"/>
<path d="M155.349 208.031C159.563 208.031 162.98 204.614 162.98 200.399C162.98 196.184 159.563 192.767 155.349 192.767C151.134 192.767 147.717 196.184 147.717 200.399C147.717 204.614 151.134 208.031 155.349 208.031Z" fill="white"/>
<path d="M81.3849 145.992C81.2358 145.992 81.1166 145.933 81.0271 145.813L55.0015 112.961C54.9419 112.872 54.9121 112.782 54.9121 112.663V49.1342C54.9121 48.8659 55.1208 48.6572 55.3891 48.6572H320.027C320.296 48.6572 320.504 48.8659 320.504 49.1342V112.663C320.504 112.931 320.296 113.14 320.027 113.14H81.4147L81.8619 145.515C81.8619 145.724 81.7426 145.903 81.5339 145.963C81.4743 145.992 81.4147 145.992 81.3849 145.992ZM55.8363 112.514L80.8781 144.144L80.4607 112.693C80.4607 112.573 80.5203 112.454 80.6098 112.365C80.6992 112.275 80.8184 112.216 80.9377 112.216H319.52V49.6112H55.8363V112.514Z" fill="#231F20"/>
<path d="M228.387 88.0386H146.912V100.679H228.387V88.0386Z" fill="#23E0A2"/>
<path d="M80.096 75H82.672V64.984H86.432V62.472H76.336V64.984H80.096V75ZM93.1488 66.424C93.0208 66.376 92.8608 66.36 92.6528 66.36C91.5168 66.36 90.6048 66.984 90.2368 67.768H90.2208V66.456H87.7407V75H90.2368V71.384C90.2368 69.848 90.9408 68.84 92.5568 68.84C92.7648 68.84 92.9568 68.856 93.1488 68.888V66.424ZM97.8701 75.16C99.0061 75.16 99.8541 74.744 100.43 73.928L100.462 73.944V75H102.766V69.704C102.766 67.464 101.31 66.264 99.0541 66.264C97.1821 66.264 95.8701 66.936 95.1341 68.296L97.0381 69.432C97.4701 68.664 98.0941 68.28 98.9421 68.28C99.8381 68.28 100.318 68.744 100.318 69.336C100.318 69.752 100.094 69.96 99.6461 69.96H98.7981C97.8381 69.96 97.0381 70.104 96.2541 70.472C95.4861 70.84 94.9901 71.576 94.9901 72.584V72.616C94.9901 73.384 95.2621 74.008 95.8221 74.472C96.3821 74.936 97.0701 75.16 97.8701 75.16ZM98.5901 73.336C97.9501 73.336 97.5021 73.048 97.5021 72.472C97.5021 71.832 98.0781 71.496 98.7981 71.496H100.302V71.688C100.302 72.632 99.6621 73.336 98.5901 73.336ZM114.106 75V69.688C114.106 68.728 113.85 67.928 113.322 67.272C112.81 66.616 112.042 66.296 111.018 66.296C110.65 66.296 110.202 66.312 109.45 66.744C109.082 66.952 108.81 67.224 108.602 67.576H108.586V66.456H106.106V75H108.602V70.264C108.602 69.32 109.13 68.6 110.138 68.6C111.114 68.6 111.626 69.256 111.626 70.264V75H114.106ZM123.877 72.424C123.877 70.936 122.74 70.088 120.58 69.64C119.828 69.48 119.46 69.224 119.46 68.856C119.46 68.52 119.844 68.232 120.356 68.232C121.076 68.232 121.589 68.504 121.908 69.048L123.716 67.976C123.156 66.936 122.004 66.248 120.42 66.248C119.524 66.248 118.756 66.504 118.1 67.016C117.46 67.512 117.14 68.168 117.14 68.952C117.14 70.344 118.148 71.272 120.18 71.72C121.268 71.96 121.54 72.216 121.54 72.552C121.54 72.888 121.124 73.176 120.5 73.176C119.572 73.176 118.932 72.824 118.58 72.136L116.74 73.224C117.428 74.536 118.676 75.192 120.468 75.192C122.58 75.192 123.877 74.072 123.877 72.424ZM129.152 75.16C130.288 75.16 131.136 74.744 131.712 73.928L131.744 73.944V75H134.048V69.704C134.048 67.464 132.592 66.264 130.336 66.264C128.464 66.264 127.152 66.936 126.416 68.296L128.32 69.432C128.752 68.664 129.376 68.28 130.224 68.28C131.12 68.28 131.6 68.744 131.6 69.336C131.6 69.752 131.376 69.96 130.928 69.96H130.08C129.12 69.96 128.32 70.104 127.536 70.472C126.768 70.84 126.272 71.576 126.272 72.584V72.616C126.272 73.384 126.544 74.008 127.104 74.472C127.664 74.936 128.352 75.16 129.152 75.16ZM129.872 73.336C129.232 73.336 128.784 73.048 128.784 72.472C128.784 71.832 129.36 71.496 130.08 71.496H131.584V71.688C131.584 72.632 130.944 73.336 129.872 73.336ZM141.468 75.192C143.372 75.192 144.924 74.28 145.58 72.536L143.372 71.624C143.004 72.472 142.38 72.888 141.484 72.888C140.268 72.888 139.436 71.992 139.436 70.712C139.436 69.384 140.332 68.552 141.484 68.552C142.332 68.552 142.956 68.968 143.324 69.816L145.516 68.904C144.956 67.224 143.388 66.264 141.484 66.264C140.204 66.264 139.116 66.696 138.22 67.56C137.324 68.424 136.876 69.48 136.876 70.744C136.876 72.024 137.308 73.08 138.172 73.928C139.036 74.776 140.14 75.192 141.468 75.192ZM153.631 72.888C153.455 72.936 153.263 72.952 153.055 72.952C152.079 72.952 151.567 72.568 151.567 71.592V68.616H153.679V66.456H151.567V63.784H149.103V66.456H147.535V68.616H149.071V71.896C149.071 73.896 150.239 75.112 152.463 75.112C152.879 75.112 153.263 75.064 153.631 74.952V72.888ZM157.906 61.928C157.074 61.928 156.37 62.632 156.37 63.48C156.37 64.328 157.074 65.016 157.906 65.016C158.786 65.016 159.474 64.328 159.474 63.48C159.474 62.6 158.786 61.928 157.906 61.928ZM159.186 75V66.456H156.674V75H159.186ZM162.079 70.744C162.079 72.024 162.527 73.08 163.423 73.928C164.319 74.776 165.423 75.192 166.735 75.192C168.031 75.192 169.135 74.76 170.047 73.912C170.959 73.048 171.407 71.976 171.407 70.696C171.407 69.432 170.959 68.392 170.063 67.544C169.167 66.696 168.063 66.264 166.767 66.264C165.471 66.264 164.351 66.696 163.439 67.56C162.527 68.408 162.079 69.48 162.079 70.744ZM164.639 70.712C164.639 70.088 164.847 69.56 165.247 69.16C165.647 68.744 166.143 68.536 166.735 68.536C167.327 68.536 167.839 68.744 168.239 69.16C168.639 69.56 168.847 70.088 168.847 70.712C168.847 71.992 167.951 72.904 166.751 72.904C166.159 72.904 165.647 72.696 165.247 72.296C164.847 71.88 164.639 71.352 164.639 70.712ZM182.305 75V69.688C182.305 68.728 182.049 67.928 181.521 67.272C181.009 66.616 180.241 66.296 179.217 66.296C178.849 66.296 178.401 66.312 177.649 66.744C177.281 66.952 177.009 67.224 176.801 67.576H176.785V66.456H174.305V75H176.801V70.264C176.801 69.32 177.329 68.6 178.337 68.6C179.313 68.6 179.825 69.256 179.825 70.264V75H182.305ZM195.036 67.432C193.612 67.032 193.02 66.648 193.02 65.896C193.02 65.144 193.66 64.616 194.684 64.616C195.836 64.616 196.62 65.128 197.052 66.152L199.196 64.984C198.476 63.256 196.892 62.28 194.796 62.28C193.596 62.28 192.556 62.632 191.708 63.352C190.86 64.056 190.428 64.952 190.428 66.056C190.428 66.984 190.748 67.752 191.388 68.376C191.964 68.952 192.988 69.464 194.444 69.896C195.372 70.168 195.996 70.424 196.316 70.648C196.652 70.856 196.812 71.144 196.812 71.512C196.812 72.28 196.012 72.84 194.908 72.84C193.644 72.84 192.668 72.184 192.172 71.096L189.932 72.248C190.684 74.056 192.476 75.192 194.828 75.192C196.268 75.192 197.388 74.84 198.204 74.12C199.02 73.4 199.42 72.456 199.42 71.32C199.42 69.32 198.028 68.28 195.036 67.432ZM202.257 66.456V71.816C202.257 72.76 202.529 73.56 203.057 74.216C203.601 74.856 204.385 75.176 205.393 75.176C206.417 75.176 207.217 74.76 207.777 73.944H207.793V75H210.257V66.456H207.761V71.224C207.761 72.168 207.233 72.856 206.225 72.856C205.217 72.856 204.753 72.232 204.753 71.224V66.456H202.257ZM217.756 75.192C219.66 75.192 221.212 74.28 221.868 72.536L219.66 71.624C219.292 72.472 218.668 72.888 217.772 72.888C216.556 72.888 215.724 71.992 215.724 70.712C215.724 69.384 216.62 68.552 217.772 68.552C218.62 68.552 219.244 68.968 219.612 69.816L221.804 68.904C221.244 67.224 219.676 66.264 217.772 66.264C216.492 66.264 215.404 66.696 214.508 67.56C213.612 68.424 213.164 69.48 213.164 70.744C213.164 72.024 213.596 73.08 214.46 73.928C215.324 74.776 216.428 75.192 217.756 75.192ZM228.72 75.192C230.624 75.192 232.176 74.28 232.832 72.536L230.624 71.624C230.256 72.472 229.632 72.888 228.736 72.888C227.52 72.888 226.688 71.992 226.688 70.712C226.688 69.384 227.584 68.552 228.736 68.552C229.584 68.552 230.208 68.968 230.576 69.816L232.768 68.904C232.208 67.224 230.64 66.264 228.736 66.264C227.456 66.264 226.368 66.696 225.472 67.56C224.576 68.424 224.128 69.48 224.128 70.744C224.128 72.024 224.56 73.08 225.424 73.928C226.288 74.776 227.392 75.192 228.72 75.192ZM243.827 71.416C243.843 71.224 243.859 70.92 243.859 70.52C243.859 69.256 243.459 68.216 242.675 67.432C241.891 66.648 240.867 66.248 239.603 66.248C238.371 66.248 237.299 66.68 236.403 67.56C235.523 68.44 235.075 69.48 235.075 70.712C235.075 72.024 235.523 73.096 236.419 73.944C237.331 74.776 238.435 75.192 239.763 75.192C241.507 75.192 242.723 74.552 243.443 73.256L241.635 72.072C241.251 72.696 240.483 73.096 239.731 73.096C238.659 73.096 237.763 72.456 237.619 71.416H243.827ZM237.683 69.768C237.731 69.432 237.923 69.096 238.259 68.776C238.595 68.44 239.027 68.28 239.539 68.28C240.675 68.28 241.299 69.016 241.363 69.768H237.683ZM253.186 72.424C253.186 70.936 252.05 70.088 249.89 69.64C249.138 69.48 248.77 69.224 248.77 68.856C248.77 68.52 249.154 68.232 249.666 68.232C250.386 68.232 250.898 68.504 251.218 69.048L253.026 67.976C252.466 66.936 251.314 66.248 249.73 66.248C248.834 66.248 248.066 66.504 247.41 67.016C246.77 67.512 246.45 68.168 246.45 68.952C246.45 70.344 247.458 71.272 249.49 71.72C250.578 71.96 250.85 72.216 250.85 72.552C250.85 72.888 250.434 73.176 249.81 73.176C248.882 73.176 248.242 72.824 247.89 72.136L246.05 73.224C246.738 74.536 247.986 75.192 249.778 75.192C251.89 75.192 253.186 74.072 253.186 72.424ZM262.494 72.424C262.494 70.936 261.358 70.088 259.198 69.64C258.446 69.48 258.078 69.224 258.078 68.856C258.078 68.52 258.462 68.232 258.974 68.232C259.694 68.232 260.206 68.504 260.526 69.048L262.334 67.976C261.774 66.936 260.622 66.248 259.038 66.248C258.142 66.248 257.374 66.504 256.718 67.016C256.078 67.512 255.758 68.168 255.758 68.952C255.758 70.344 256.766 71.272 258.798 71.72C259.886 71.96 260.158 72.216 260.158 72.552C260.158 72.888 259.742 73.176 259.118 73.176C258.19 73.176 257.55 72.824 257.198 72.136L255.358 73.224C256.046 74.536 257.294 75.192 259.086 75.192C261.198 75.192 262.494 74.072 262.494 72.424ZM270.875 62.104C270.507 61.992 270.123 61.928 269.707 61.928C267.291 61.928 266.107 63.384 266.107 65.608V66.456H264.571V68.584H266.107V75H268.603V68.584H270.827V66.456H268.587V65.56C268.587 64.584 269.147 64.056 270.107 64.056C270.411 64.056 270.667 64.088 270.875 64.152V62.104ZM273.284 66.456V71.816C273.284 72.76 273.556 73.56 274.084 74.216C274.628 74.856 275.412 75.176 276.42 75.176C277.444 75.176 278.244 74.76 278.804 73.944H278.82V75H281.284V66.456H278.788V71.224C278.788 72.168 278.26 72.856 277.252 72.856C276.244 72.856 275.78 72.232 275.78 71.224V66.456H273.284ZM287.215 61.96H284.703V75H287.215V61.96ZM291.052 70.664H293.324L293.564 65V62.472H290.812V65L291.052 70.664ZM292.204 75.176C293.084 75.176 293.772 74.488 293.772 73.64C293.772 72.76 293.052 72.072 292.204 72.072C291.372 72.072 290.668 72.792 290.668 73.64C290.668 74.488 291.372 75.176 292.204 75.176Z" fill="black"/>
<path d="M321.819 27.7777L319.52 42.113L320.461 42.2641L322.761 27.9288L321.819 27.7777Z" fill="#231F20"/>
<path d="M363.52 29.4722L330.232 46.875L330.674 47.7204L363.962 30.3176L363.52 29.4722Z" fill="#231F20"/>
<path d="M347.02 54.5288L330.383 57.3416L330.542 58.2822L347.179 55.4694L347.02 54.5288Z" fill="#231F20"/>
<path d="M46.0423 19.764L45.1445 20.0867L51.0326 36.4712L51.9304 36.1486L46.0423 19.764Z" fill="#231F20"/>
<path d="M20.9405 41.7348L20.5703 42.614L40.0222 50.8055L40.3924 49.9263L20.9405 41.7348Z" fill="#231F20"/>
<path d="M367.787 181.26C367.787 185.195 365.998 188.683 363.166 190.978C360.99 192.767 358.217 193.84 355.176 193.84C348.23 193.84 342.596 188.206 342.596 181.26C342.596 178.457 343.52 175.864 345.07 173.777C347.366 170.676 351.032 168.679 355.206 168.679C362.152 168.679 367.787 174.313 367.787 181.26Z" fill="white"/>
<path d="M365.64 183.525C365.64 186.328 364.716 188.921 363.166 191.008C360.99 192.797 358.217 193.87 355.176 193.87C348.23 193.87 342.596 188.235 342.596 181.289C342.596 178.487 343.52 175.893 345.07 173.807C347.246 172.018 350.019 170.945 353.06 170.945C360.006 170.915 365.64 176.549 365.64 183.525Z" fill="#00E4AF"/>
<path d="M547.7 493.358H496.901V316.307V309.867H492.399H458.354H454.568C457.222 307.452 460.859 303.189 463.81 296.273C466.881 289.089 468.55 280.533 468.788 270.784C469.087 258.71 467.208 244.788 463.124 229.435C464.734 227.17 466.404 224.815 468.133 222.37C475.586 211.787 481.548 198.58 484.917 185.195C488.315 171.72 488.882 158.871 486.526 149.003C484.41 140.179 480.177 134.008 473.916 130.699C454.449 120.354 429.467 122.173 400.55 124.26C395.183 124.647 389.639 125.035 384.064 125.363C378.042 125.721 372.735 128.732 368.293 134.306C361.168 143.25 357.472 157.231 356.249 168.292C355.922 168.262 355.564 168.262 355.206 168.262C352.791 168.262 350.526 168.918 348.558 170.08C341.821 162.121 334.189 156.218 323.904 155.115C317.077 154.37 311.144 154.578 305.987 155.532C305.033 154.906 300.979 152.372 294.42 150.762C287.653 149.093 276.891 148.169 263.982 153.237C246.543 160.093 244.605 170.796 244.605 175.089C244.575 179.65 246.393 182.959 248.212 183.853C248.152 184.36 248.123 184.867 248.152 185.344C248.182 187.58 248.838 189.368 250.12 190.591C250.955 191.396 251.998 191.604 252.952 191.604C253.518 191.604 254.025 191.515 254.413 191.425C253.071 199.952 252.356 210.117 255.724 214.321C256.798 215.692 258.258 216.378 260.017 216.378C267.113 216.378 268.931 201.204 269.199 198.431C272.538 198.401 276.026 195.629 277.576 194.258C277.308 203.261 278.381 211.876 281.392 215.752C282.495 217.153 283.807 217.928 285.298 218.017C286.997 218.137 288.368 217.63 289.352 216.497C291.946 213.486 291.141 206.957 290.723 204.513C290.992 204.572 291.29 204.602 291.558 204.632C291.946 204.662 292.333 204.662 292.691 204.662C299.488 204.662 302.857 199.892 303.572 198.759C305.45 198.7 307.239 198.282 308.909 197.567C310.638 200.25 321.817 217.63 331.446 234.682C334.696 240.406 337.617 245.385 340.926 249.23C338.273 249.32 329.598 249.707 318.091 250.602V244.55V237.723H313.142H308.998V229.286C308.998 229.018 308.789 228.809 308.521 228.809H238.464L202.004 152.044C201.914 151.865 201.765 151.776 201.587 151.776H84.6055C84.4565 151.776 84.3074 151.865 84.218 151.985C84.1285 152.104 84.0987 152.283 84.1583 152.432L117.488 237.753H56.4037V357.745L14.2798 343.525L0 355.837L56.0459 432.9L56.4037 433.407V493.418H31.6302V494.312H103.715L103.894 494.521L104.102 494.312H547.7V493.358ZM492.399 316.307V493.358H458.354V316.307H492.399ZM298.832 493.358C297.67 485.637 279.425 363.946 278.799 344.479C291.767 337.026 301.962 331.63 313.142 327.396V493.328H298.832V493.358ZM180.957 244.55V338.367C180.867 338.427 180.778 338.486 180.689 338.576C176.873 341.438 173.087 344.24 169.42 347.013V244.55H180.957ZM230.206 269.204C246.721 259.128 285.894 254.179 313.142 251.854V266.938C305.48 267.952 296.328 269.502 285.775 271.917C247.765 280.533 208.562 310.762 204.061 314.309C203.465 295.498 206.565 283.633 230.206 269.204ZM215.717 313.057C213.362 314.727 210.888 316.485 208.354 318.304C210.292 316.873 212.796 315.084 215.717 313.057ZM246.334 293.769C249.404 292.04 252.445 290.341 255.456 288.79C271.674 280.95 293.168 274.481 313.142 270.277V326.443C301.664 330.795 291.051 336.37 278.113 343.793L275.728 345.164C266.099 350.739 248.927 364.005 224.601 384.635L185.727 335.863C185.876 335.744 186.025 335.624 186.174 335.535C213.422 315.412 233.604 301.371 246.334 293.769ZM169.42 457.077L202.272 439.548C203.614 438.862 204.717 438.296 205.551 437.819L189.841 463.248L190.616 463.725L206.476 438.117C206.565 440.681 206.744 446.166 206.923 451.652C207.072 456.004 207.191 459.492 207.31 461.996C207.519 466.975 207.519 466.975 207.847 467.124L208.324 467.034L207.996 466.706L208.145 466.289C208.354 466.349 208.413 466.528 208.443 466.617C208.324 465.872 207.728 448.551 207.34 436.925L211.872 434.51L212.11 434.391V434.122L289.143 433.168C293.406 462.92 297.371 489.423 297.968 493.447H266.576L262.253 468.853L257.662 493.447H169.42V457.077ZM164.471 493.358H138.117V473.772L164.471 459.73V493.358ZM180.957 423.986V433.943C177.499 434.331 174.607 435.195 172.997 436.865C171.715 438.206 171.328 439.906 171.834 441.993C172.341 443.99 173.504 445.421 175.352 446.196C176.545 446.703 177.946 446.911 179.496 446.911C179.973 446.911 180.48 446.882 180.987 446.852V449.893L169.45 456.034V434.301C173.206 430.932 177.081 427.474 180.957 423.986ZM185.906 445.093V434.629C193.627 434.659 202.362 436.209 205.522 436.805L202.451 438.445C198.367 440.532 191.838 443.543 185.906 445.093ZM191.57 444.258L185.906 447.269V446.017C187.754 445.54 189.662 444.944 191.57 444.258ZM200.424 435.017C196.34 434.391 190.944 433.735 185.906 433.735V424.881C185.935 425.089 185.995 425.328 186.084 425.536C187.456 429.561 194.879 432.96 200.424 435.017ZM187.545 422.019C188.499 420.737 189.572 420.111 190.854 420.111C190.944 420.111 191.063 420.111 191.152 420.111C196.787 420.558 203.942 432.393 205.939 435.851C202.093 434.689 188.708 430.366 186.949 425.209C186.532 424.135 186.74 423.062 187.545 422.019ZM180.957 445.987C178.93 446.166 177.111 446.017 175.68 445.391C174.1 444.705 173.116 443.543 172.699 441.784C172.252 439.995 172.58 438.594 173.653 437.491C175.114 436 177.767 435.195 180.957 434.838V445.987ZM207.012 436C205.611 433.437 197.741 419.723 191.212 419.246C189.513 419.127 188.022 419.872 186.83 421.482C186.353 422.138 186.025 422.794 185.906 423.479V419.604C185.995 419.515 186.114 419.425 186.204 419.336C195.028 411.495 203.435 404.132 211.186 397.394V433.794L207.012 436ZM212.08 431.558V396.589C229.341 381.654 243.651 369.759 254.89 361.024H279.425C281.243 376.675 284.374 399.839 287.563 422.466L212.08 431.558ZM256.052 360.16C264.638 353.541 271.346 348.801 276.175 345.999L277.904 344.985C278.053 348.086 278.56 353.362 279.335 360.13H256.052V360.16ZM181.225 339.291C182.477 338.367 183.729 337.413 185.011 336.489L223.915 385.291C219.921 388.689 215.717 392.297 211.335 396.083C203.375 402.969 194.7 410.571 185.607 418.68C184.087 420.051 182.537 421.393 181.016 422.764L180.659 423.092C177.29 426.073 173.981 429.084 170.672 432.035L169.42 430.485V348.175C173.265 345.224 177.201 342.273 181.225 339.291ZM164.471 424.255L128.548 379.477C134.361 374.946 148.045 364.303 164.471 351.872V424.255ZM164.471 438.803V458.717L137.462 473.116L137.223 473.235V493.358H105.056C109.826 488.886 134.779 465.603 164.471 438.803ZM262.194 473.772L265.652 493.358H258.527L262.194 473.772ZM318.091 325.638C324.053 323.61 330.433 321.852 337.707 320.271V493.358H318.091V325.638ZM342.208 319.318C347.395 318.274 353.089 317.29 359.38 316.307H365.61V493.358H342.208V319.318ZM370.112 316.307H453.853V493.358H370.112V316.307ZM368.293 254.656C360.036 248.366 351.39 239.541 342.596 228.452C337.856 222.459 333.593 216.408 329.956 210.952L351.092 193.632C352.404 194.079 353.775 194.317 355.206 194.317C358.038 194.317 360.632 193.423 362.778 191.873C373.361 207.792 384.898 223.145 405.2 224.129C405.409 224.129 405.647 224.159 405.856 224.159C411.013 224.159 416.529 221.178 422.252 215.334C425.77 211.757 429.377 207.077 433.044 201.383C436.741 205.109 462.17 221.982 465.628 224.278C445.714 252.539 435.519 265.507 397.151 266.193C388.267 266.342 378.578 262.467 368.293 254.656ZM350.108 193.244L329.449 210.177C327.69 207.524 326.08 205.02 324.679 202.724L343.788 187.52C345.189 190.084 347.425 192.111 350.108 193.244ZM382.424 214.112C376.879 209.551 372.139 203.708 367.727 197.447L377.863 196.911C379.145 203.648 380.665 209.998 382.424 214.112ZM369.039 134.873C373.332 129.507 378.4 126.615 384.123 126.287C389.728 125.959 395.273 125.571 400.639 125.184C405.542 124.828 410.332 124.481 415 124.201C437.719 122.836 457.548 123.046 473.499 131.504C479.521 134.694 483.605 140.656 485.632 149.212C490.104 167.964 483.784 195.659 470.518 217.034C456.774 214.41 437.158 201.591 434.177 199.594C435.072 198.133 435.996 196.613 436.89 195.033C445.327 180.395 451.08 165.4 451.11 165.251L450.216 164.923C450.156 165.072 444.462 179.978 436.055 194.586C428.334 207.941 416.737 223.771 405.23 223.205C396.853 222.787 389.996 219.866 384.094 215.424C380.993 209.7 378.489 196.106 376.819 184.628L374.792 168.47C374.792 168.441 374.792 168.441 374.762 168.411C374.613 167.04 374.524 166.235 374.524 166.175L373.57 166.264C373.6 166.592 373.779 168.381 374.077 171.154C373.928 179.68 373.749 193.035 374.017 194.317C372.318 194.198 367.22 194.258 365.491 194.287C364.805 193.274 364.12 192.26 363.464 191.276C366.356 188.891 368.174 185.284 368.174 181.26C368.174 174.731 363.374 169.305 357.114 168.381C358.366 157.5 362.003 143.667 369.039 134.873ZM349.154 170.736C350.943 169.693 353 169.126 355.206 169.126C355.534 169.126 355.832 169.126 356.13 169.156C356.458 169.186 356.756 169.216 357.054 169.275C362.868 170.17 367.339 175.208 367.339 181.26C367.339 184.986 365.67 188.295 363.017 190.531C362.778 190.74 362.51 190.919 362.271 191.127C360.274 192.558 357.829 193.423 355.206 193.423C348.498 193.423 343.073 187.967 343.073 181.289C343.073 177.146 345.159 173.479 348.349 171.273C348.588 171.064 348.886 170.915 349.154 170.736ZM268.812 197.507C267.47 197.447 266.337 196.792 265.443 195.629C264.757 194.735 264.519 193.751 264.698 192.588C265.562 187.192 275.221 180.663 275.311 180.604L274.804 179.859C274.387 180.127 264.757 186.685 263.803 192.439C263.565 193.84 263.893 195.092 264.698 196.166C265.652 197.418 266.844 198.133 268.245 198.342C267.977 200.995 266.188 215.454 259.958 215.454C258.467 215.454 257.305 214.887 256.38 213.725C251.73 207.852 255.426 189.309 257.215 181.588L257.275 181.349L256.41 181.14L256.351 181.379C255.814 183.645 255.128 186.864 254.532 190.412C253.817 190.621 251.879 191.008 250.716 189.875C245.648 185.016 253.638 171.124 254.532 169.991L254.204 169.693L253.876 169.365C253.608 169.633 249.315 176.669 248.361 182.81C246.9 181.826 245.499 178.785 245.529 174.999C245.559 170.885 247.437 160.63 264.34 153.982C276.98 149.003 287.534 149.898 294.182 151.537C299.399 152.819 303.065 154.727 304.705 155.711C288.577 159.169 280.736 170.051 278.829 181.021C278.173 184.748 277.755 188.862 277.576 192.886C276.801 193.721 272.538 197.716 268.812 197.507ZM291.648 203.618C289.799 203.469 288.458 202.724 287.504 201.293C283.688 195.569 288.368 181.409 288.428 181.26L287.534 180.962C287.325 181.558 282.674 195.718 286.729 201.83C287.474 202.963 288.488 203.767 289.74 204.185C290.068 206.033 291.141 212.949 288.666 215.811C287.862 216.736 286.788 217.123 285.387 217.034C284.165 216.944 283.092 216.288 282.167 215.126C277.815 209.551 277.696 193.512 279.842 181.23C282.287 167.01 295.165 152.909 323.874 156.009C333.801 157.082 341.224 162.806 347.813 170.557C344.444 172.912 342.208 176.818 342.208 181.26C342.208 183.197 342.655 185.046 343.401 186.715L324.232 201.979C320.416 195.778 317.971 191.366 317.405 190.263C318.687 188.444 319.611 186.536 320.148 184.867C321.131 181.737 320.833 179.292 319.283 178.189C316.898 176.49 312.754 176.043 306.345 183.466L307.06 184.092C310.339 180.306 314.99 176.341 318.717 178.964C319.879 179.799 320.088 181.886 319.223 184.569C317.554 189.875 311.323 197.716 303.334 197.746C303.304 197.746 303.304 197.746 303.274 197.746C300.054 197.746 297.789 196.821 296.566 195.033C295.314 193.214 294.48 189.428 297.491 181.737C297.64 181.349 297.699 181.23 297.699 181.14L297.043 181.051L296.775 180.962C296.775 181.021 296.686 181.2 296.626 181.379C294.062 187.848 293.794 192.618 295.791 195.539C297.103 197.447 299.369 198.491 302.499 198.64C301.336 200.28 297.938 204.095 291.648 203.618ZM309.743 197.119C312.546 195.718 314.96 193.512 316.749 191.098C318.687 194.645 328.376 211.966 341.821 228.988C350.645 240.168 359.35 249.051 367.697 255.372C368.144 255.699 368.562 256.027 369.009 256.325C348.23 260.439 341.761 251.019 332.251 234.146C322.711 217.332 311.681 200.13 309.743 197.119ZM341.701 250.065C343.073 251.556 344.474 252.867 346.024 253.97C350.019 256.832 354.58 258.233 360.185 258.233C363.136 258.233 366.385 257.846 369.993 257.071C379.413 263.749 388.357 267.147 396.644 267.147C396.823 267.147 397.002 267.147 397.211 267.147C433.432 266.491 444.79 255.073 462.498 230.389C471.412 264.553 467.745 284.825 463.065 295.856C459.905 303.338 455.85 307.661 453.227 309.897H387.432L364.448 314.667C355.892 315.889 348.647 317.111 342.268 318.393L337.766 319.347C332.579 320.48 327.899 321.702 323.457 323.044C321.638 323.581 319.879 324.147 318.15 324.743V269.353C333.801 266.342 348.141 264.852 357.77 265.329L357.829 264.434C352.612 264.166 346.203 264.434 338.959 265.209C335.173 265.15 328.167 265.269 318.15 266.372V251.496C331.208 250.453 340.628 250.095 341.701 250.065ZM313.142 250.959C307.746 251.407 301.903 251.973 295.881 252.629C263.148 256.296 240.908 261.602 229.729 268.429C216.79 276.329 209.487 283.752 205.969 292.487C202.6 300.894 202.839 310.344 203.524 321.792C198.039 325.757 192.166 330.08 185.906 334.7V244.55H313.142V250.959ZM308.044 229.763V237.246H242.876L238.941 229.763H308.044ZM85.2912 152.7H201.259L241.624 237.723H169.42H164.471H118.501L85.2912 152.7ZM61.3524 244.55H164.471V350.739C143.692 366.48 127.147 379.418 125.179 380.938L102.016 373.128C106.457 371.19 122.824 363.618 124.166 356.344C124.494 354.495 123.867 352.796 122.287 351.335C120.38 349.547 118.352 348.921 116.206 349.457C111.198 350.709 106.726 358.252 103.804 364.482C105.623 357.327 107.203 347.728 104.281 343.405C103.297 341.945 101.837 341.14 99.9883 341.08C98.1698 341.02 96.7985 341.646 95.8445 342.958C91.5516 348.98 98.3487 368.06 99.9883 372.472L61.4717 359.474L61.3226 359.414V244.55H61.3524ZM101.539 372.382C103.059 368.268 109.379 352.11 116.444 350.322C116.862 350.202 117.279 350.173 117.667 350.173C119.038 350.173 120.35 350.769 121.661 351.991C123.033 353.273 123.54 354.644 123.271 356.195C122.019 363.021 105.653 370.564 101.539 372.382ZM100.734 371.846C98.9747 367.046 92.6845 348.921 96.56 343.465C97.2755 342.451 98.2891 341.974 99.6902 341.974C99.7796 341.974 99.8691 341.974 99.9287 341.974C101.509 342.034 102.671 342.66 103.506 343.912C107.561 349.845 102.284 367.165 100.734 371.846ZM1.19247 355.926L14.4587 344.479L100.048 373.396C99.094 374.767 96.3215 378.762 93.5192 382.757C91.5218 385.619 89.9418 387.914 88.809 389.554C86.5135 392.923 86.5135 392.923 86.7221 393.221L87.2289 393.37L87.0799 392.952L87.4078 392.654C87.5569 392.803 87.5271 393.012 87.4674 393.101C87.7655 392.505 95.0992 381.922 100.376 374.38L103.715 409.826L104.609 409.736L101.211 373.754L125.298 381.892L125.447 381.773L162.98 438.803C132.483 466.349 107.143 490.049 103.894 493.09L81.4753 465.126L100.853 445.48L75.0658 457.584L1.19247 355.926ZM61.3524 493.358V440.144L74.8571 458.717L96.7687 448.432L80.3424 465.097L102.969 493.328H61.3524V493.358Z" fill="#231F20"/>
<path d="M239.201 206.647L238.484 207.277L250.703 221.185L251.42 220.556L239.201 206.647Z" fill="#231F20"/>
<path d="M272.888 212.923L269.611 223.519L270.523 223.8L273.8 213.205L272.888 212.923Z" fill="#231F20"/>
<path d="M304.927 211.049L295.303 223.354L296.054 223.942L305.678 211.637L304.927 211.049Z" fill="#231F20"/>
<path d="M346.352 177.444L356.04 183.257C356.1 183.317 356.189 183.317 356.279 183.317C356.338 183.317 356.398 183.317 356.458 183.287C356.607 183.227 356.696 183.108 356.726 182.959L359.081 173.777L358.157 173.538L355.951 182.124L346.799 176.639L346.352 177.444Z" fill="#231F20"/>
<path d="M411.49 51.251L398.492 30.2636L447.503 14.4336L411.49 51.251Z" fill="#CBF5E7"/>
<path d="M418.228 53.8745C418.198 53.8745 418.198 53.8745 418.168 53.8745C418.019 53.8447 417.9 53.785 417.84 53.6658L404.812 32.6486C404.753 32.5293 404.723 32.3803 404.783 32.261C404.842 32.1418 404.932 32.0225 405.051 31.9927L454.091 16.1627C454.3 16.1031 454.508 16.1925 454.598 16.3416C454.717 16.5205 454.687 16.7291 454.538 16.8782L418.555 53.7552C418.466 53.8447 418.347 53.8745 418.228 53.8745ZM405.915 32.6784L418.317 52.7118L452.66 17.5639L405.915 32.6784Z" fill="#231F20"/>
<path d="M187.882 0.000111269L163.17 7.57837L170.748 32.2904L195.46 24.7122L187.882 0.000111269Z" fill="#23E0A2"/>
<path d="M177.738 35.5402C177.559 35.5402 177.38 35.421 177.321 35.2123L169.719 10.5283C169.689 10.409 169.689 10.2898 169.749 10.2003C169.808 10.1109 169.898 10.0215 170.017 9.99165L194.701 2.41949C194.939 2.35987 195.178 2.47911 195.267 2.71761L202.84 27.4017C202.869 27.5209 202.869 27.6402 202.81 27.7296C202.75 27.819 202.661 27.9085 202.541 27.9383L177.857 35.5104C177.828 35.5402 177.768 35.5402 177.738 35.5402ZM170.703 10.6773L178.006 34.5267L201.856 27.2228L194.552 3.37346L170.703 10.6773Z" fill="#231F20"/>
<path d="M59.6668 188.479L51.9102 163.824L27.255 171.581L35.0116 196.236L59.6668 188.479Z" fill="#00E4AF"/>
<path d="M32.2559 203.678C32.1962 203.678 32.1068 203.648 32.0472 203.618C31.9279 203.559 31.8683 203.469 31.8385 203.35L24.0875 178.696C24.0278 178.457 24.1471 178.219 24.3856 178.13L49.0398 170.378C49.1591 170.349 49.2783 170.349 49.3678 170.408C49.487 170.468 49.5466 170.557 49.5764 170.677L57.3275 195.331C57.3871 195.569 57.2678 195.808 57.0293 195.897L32.3751 203.648C32.3453 203.648 32.3155 203.678 32.2559 203.678ZM25.0712 178.875L32.554 202.665L56.3437 195.182L48.861 171.392L25.0712 178.875Z" fill="#231F20"/>
</svg>
