<svg width="36" height="37" viewBox="0 0 36 37" fill="none" xmlns="http://www.w3.org/2000/svg">
<path d="M17 12.5001H14.15C12.6946 12.48 11.2779 12.9685 10.1442 13.8813C9.01053 14.7941 8.23096 16.074 7.94 17.5001H2V19.5001H7.93C8.21586 20.9306 8.99543 22.2152 10.1324 23.1291C11.2694 24.0431 12.6915 24.5284 14.15 24.5001H17V12.5001Z" fill="white"/>
<path d="M28.23 17.4999C27.9384 16.0704 27.1559 14.7879 26.0181 13.8747C24.8802 12.9615 23.4588 12.4752 22 12.4999H19V24.4999H22C23.4585 24.5282 24.8806 24.0429 26.0176 23.129C27.1546 22.215 27.9341 20.9304 28.22 19.4999H34V17.4999H28.23Z" fill="white"/>
</svg>
