<svg width="966" height="631" viewBox="0 0 966 631" fill="none" xmlns="http://www.w3.org/2000/svg">
<path d="M1.90137 316.003H0.78125V335.866H1.90137V316.003Z" fill="#231F20"/>
<path d="M36.105 310.015L15.7031 338.097L16.6146 338.737L37.0164 310.655L36.105 310.015Z" fill="#231F20"/>
<path d="M636.034 366.311C633.265 350.854 636.587 335.26 645.376 322.407C654.165 309.553 667.376 300.968 682.576 298.245C697.776 295.523 713.146 298.989 725.85 307.993C738.554 316.996 747.082 330.467 749.85 345.925C752.619 361.383 749.297 376.976 740.508 389.83C731.719 402.683 718.508 411.269 703.308 413.991C688.108 416.714 672.739 413.248 660.035 404.244C647.331 395.24 638.803 381.769 636.034 366.311ZM745.978 346.619C740.652 316.885 712.52 296.947 683.282 302.184C654.043 307.421 634.581 335.884 639.907 365.618C645.233 395.352 673.365 415.29 702.603 410.053C731.841 404.816 751.304 376.353 745.978 346.619Z" fill="#CBF5E7"/>
<path d="M623.659 557.569L629.154 541.19L612.999 535.512L607.504 551.891L623.659 557.569Z" fill="#23E0A2"/>
<path d="M603.023 554.62C603.016 554.58 603.024 554.518 603.037 554.475L608.538 538.105C608.566 538.039 608.614 537.969 608.688 537.936C608.762 537.902 608.839 537.888 608.904 537.917L625.05 543.602C625.2 543.656 625.29 543.823 625.237 543.975L619.736 560.345C619.708 560.411 619.66 560.48 619.586 560.514C619.512 560.547 619.435 560.561 619.37 560.532L603.223 554.848C603.12 554.826 603.04 554.718 603.023 554.62ZM609.005 538.59L603.702 554.396L619.292 559.875L624.595 544.069L609.005 538.59Z" fill="#231F20"/>
<path d="M820.005 465.091L828.58 438.129L801.989 429.259L793.413 456.222L820.005 465.091Z" fill="#23E0A2"/>
<path d="M800.26 424.156C800.307 424.087 800.391 424.057 800.47 424.088L827.067 432.959C827.175 432.985 827.227 433.111 827.186 433.209L818.608 460.177C818.584 460.286 818.46 460.339 818.363 460.296L791.767 451.425C791.658 451.399 791.606 451.273 791.648 451.175L800.225 424.207C800.239 424.205 800.249 424.173 800.26 424.156ZM826.769 433.283L800.549 424.526L792.098 451.125L818.33 459.865L826.769 433.283Z" fill="#231F20"/>
<path d="M651.904 363.804C649.851 352.345 652.314 340.785 658.829 331.256C665.345 321.728 675.138 315.363 686.406 313.345C697.675 311.327 709.068 313.896 718.486 320.571C727.904 327.245 734.226 337.232 736.278 348.691C738.331 360.15 735.868 371.71 729.353 381.239C722.837 390.767 713.044 397.132 701.776 399.15C690.507 401.168 679.114 398.599 669.696 391.924C660.278 385.249 653.956 375.263 651.904 363.804ZM733.407 349.205C729.459 327.163 708.604 312.382 686.929 316.264C665.254 320.147 650.826 341.247 654.775 363.29C658.723 385.332 679.578 400.113 701.253 396.23C722.928 392.348 737.356 371.248 733.407 349.205Z" fill="#CBF5E7"/>
<path d="M673.051 360.017C670.938 348.222 678.663 336.925 690.261 334.847C701.86 332.77 713.025 340.683 715.138 352.478C717.25 364.273 709.526 375.57 697.928 377.648C686.329 379.725 675.164 371.812 673.051 360.017ZM713.702 352.736C711.734 341.743 701.332 334.371 690.523 336.307C679.714 338.243 672.518 348.768 674.486 359.76C676.455 370.752 686.857 378.124 697.666 376.188C708.475 374.252 715.671 363.728 713.702 352.736Z" fill="#23E0A2"/>
<path d="M750.902 352.339C762.903 349.119 764.705 343.298 764.082 338.995C764.004 338.391 763.87 337.812 763.697 337.256C760.759 337.149 758.4 335.312 757.569 334.557C755.541 332.751 754.412 330.497 754.877 329.208C755.046 328.741 755.505 328.162 756.716 328.141C757.675 328.12 759.455 329.458 761.014 331.379C761.869 332.431 763.239 334.37 764.028 336.79C765.018 336.778 766.073 336.544 767.158 335.988C769.434 334.797 770.783 333.064 771.16 330.872C772.321 324.201 764.266 315.127 764.176 315.038L764.493 314.74C764.827 315.117 772.767 324.045 771.589 330.946C771.177 333.28 769.758 335.116 767.361 336.374C766.263 336.947 765.183 337.201 764.166 337.232C764.321 337.762 764.437 338.329 764.524 338.9C765.167 343.396 763.332 349.449 751.018 352.74L750.902 352.339ZM763.57 336.796C762.804 334.508 761.516 332.69 760.683 331.679C759.034 329.669 757.418 328.588 756.722 328.592C755.955 328.609 755.467 328.862 755.29 329.361C754.896 330.471 755.994 332.549 757.863 334.218C758.641 334.922 760.833 336.654 763.57 336.796Z" fill="#231F20"/>
<path d="M759.168 435.791C759.388 435.616 764.665 431.326 768.134 432.332C769.276 432.67 770.094 433.518 770.563 434.895C770.754 435.463 770.827 436.038 770.792 436.587C771.206 436.497 771.625 436.437 772.054 436.436C774.232 436.437 776.987 437.842 777.776 444.481L777.34 444.529C776.756 439.526 774.917 436.872 772.058 436.872C771.614 436.876 771.178 436.924 770.739 437.033C770.487 438.524 769.526 439.857 768.553 440.709C767.501 441.62 766.444 442.006 765.869 441.687C765.622 441.55 765.361 441.251 765.427 440.546C765.529 439.624 767.787 437.426 770.35 436.681C770.402 436.144 770.36 435.579 770.155 435.013C769.729 433.794 769.015 433.033 768.029 432.742C764.763 431.791 759.515 436.075 759.449 436.117L759.168 435.791ZM770.264 437.193C767.91 437.947 765.927 439.944 765.858 440.634C765.82 441.003 765.891 441.231 766.072 441.334C766.418 441.528 767.29 441.267 768.277 440.412C769.132 439.641 769.99 438.478 770.264 437.193Z" fill="#231F20"/>
<path d="M768.496 389.959L781.027 391.784L782.751 379.064L770.219 377.238L768.496 389.959Z" fill="#00E4AF"/>
<path d="M765.759 387.235C765.753 387.206 765.751 387.192 765.76 387.16L767.484 374.452C767.506 374.327 767.61 374.248 767.73 374.257L780.25 376.082C780.372 376.105 780.451 376.212 780.443 376.334L778.719 389.042C778.697 389.166 778.593 389.245 778.473 389.237L765.953 387.411C765.85 387.415 765.777 387.338 765.759 387.235ZM767.891 374.74L766.223 387.017L778.317 388.783L779.985 376.506L767.891 374.74Z" fill="#231F20"/>
<path d="M615.293 357.223L619.367 345.081L607.391 340.871L603.317 353.013L615.293 357.223Z" fill="#23E0A2"/>
<path d="M599.994 355.041C599.989 355.011 599.996 354.965 600.005 354.933L604.083 342.798C604.104 342.749 604.139 342.697 604.194 342.673C604.249 342.648 604.306 342.637 604.354 342.659L616.324 346.873C616.435 346.913 616.502 347.037 616.462 347.149L612.384 359.285C612.363 359.334 612.328 359.385 612.273 359.41C612.219 359.435 612.161 359.445 612.113 359.424L600.143 355.21C600.066 355.193 600.007 355.114 599.994 355.041ZM604.429 343.158L600.498 354.875L612.055 358.937L615.986 347.22L604.429 343.158Z" fill="#231F20"/>
<path d="M358.425 589.094C343.676 594.484 327.743 593.898 313.567 587.454C299.392 581.011 288.66 569.477 283.359 554.973C278.059 540.469 278.826 524.732 285.507 510.667C292.188 496.602 303.988 485.881 318.738 480.491C333.488 475.101 349.42 475.687 363.596 482.131C377.771 488.574 388.503 500.109 393.804 514.612C399.104 529.116 398.337 544.853 391.656 558.918C384.976 572.983 373.175 583.704 358.425 589.094ZM320.088 484.186C291.716 494.554 276.922 525.7 287.117 553.599C297.313 581.499 328.703 595.767 357.075 585.399C385.447 575.031 400.241 543.885 390.046 515.986C379.851 488.087 348.46 473.818 320.088 484.186Z" fill="#CBF5E7"/>
<path d="M561.54 360.459C554.474 345.26 546.319 344.219 540.746 346.046C539.963 346.29 539.224 346.602 538.525 346.962C539.066 350.89 537.173 354.452 536.363 355.732C534.434 358.845 531.702 360.87 529.881 360.551C529.222 360.436 528.345 359.96 528.036 358.356C527.785 357.086 529.149 354.41 531.339 351.892C532.538 350.511 534.797 348.241 537.829 346.63C537.583 345.317 537.027 343.97 536.036 342.657C533.925 339.91 531.309 338.52 528.308 338.528C519.174 338.536 508.989 351.347 508.891 351.487L508.422 351.135C508.845 350.604 518.864 337.979 528.307 337.942C531.503 337.946 534.273 339.406 536.502 342.298C537.518 343.623 538.107 345 538.385 346.343C539.053 346.015 539.779 345.729 540.518 345.48C546.342 343.582 554.812 344.613 562.046 360.211L561.54 360.459ZM537.944 347.237C535.081 348.786 532.965 350.921 531.815 352.263C529.528 354.921 528.466 357.319 528.633 358.242C528.834 359.258 529.284 359.848 529.988 359.967C531.554 360.233 534.061 358.291 535.844 355.419C536.599 354.221 538.391 350.907 537.944 347.237Z" fill="#231F20"/>
<path d="M548.956 568.341L531.875 565.749L529.064 582.641L546.145 585.233L548.956 568.341Z" fill="#23E0A2"/>
<path d="M549.604 589.175C549.566 589.189 549.503 589.191 549.459 589.186L532.386 586.587C532.316 586.571 532.24 586.536 532.194 586.469C532.148 586.402 532.121 586.328 532.138 586.259L534.956 569.375C534.984 569.218 535.133 569.101 535.292 569.127L552.364 571.726C552.434 571.742 552.511 571.777 552.557 571.844C552.603 571.911 552.63 571.985 552.612 572.054L549.794 588.938C549.79 589.044 549.698 589.141 549.604 589.175ZM532.784 586.044L549.267 588.545L551.979 572.244L535.496 569.743L532.784 586.044Z" fill="#231F20"/>
<path d="M448.641 410.113L448.223 410.265L450.931 417.675L451.348 417.523L448.641 410.113Z" fill="#231F20"/>
<path d="M460.583 403.215L456.801 416.473L457.228 416.588L461.011 403.33L460.583 403.215Z" fill="#231F20"/>
<path d="M529.824 448.028C535.509 445.95 538.462 439.734 536.419 434.144C534.376 428.554 528.111 425.706 522.426 427.784C516.741 429.861 513.789 436.077 515.832 441.667C517.875 447.258 524.139 450.105 529.824 448.028Z" fill="#CBF5E7"/>
<path d="M527.54 451.113C521.759 453.225 515.378 450.325 513.301 444.641C511.224 438.956 514.231 432.625 520.012 430.513C525.792 428.4 532.173 431.301 534.25 436.985C536.323 442.655 533.32 449 527.54 451.113ZM520.142 430.869C514.57 432.905 511.661 439.03 513.663 444.508C515.665 449.987 521.838 452.793 527.41 450.757C532.981 448.721 535.89 442.596 533.888 437.117C531.886 431.639 525.714 428.833 520.142 430.869Z" fill="#231F20"/>
<path d="M424.041 390.86L396.004 387.057L391.848 414.779L419.885 418.581L424.041 390.86Z" fill="#23E0A2"/>
<path d="M387.119 417.361C387.043 417.327 387 417.249 387.016 417.166L391.173 389.439C391.18 389.328 391.295 389.254 391.399 389.279L419.441 393.082C419.553 393.088 419.626 393.201 419.601 393.303L415.444 421.03C415.437 421.141 415.322 421.214 415.218 421.19L387.176 417.387C387.171 417.373 387.138 417.37 387.119 417.361ZM391.544 389.676L387.434 417.013L415.091 420.755L419.182 393.41L391.544 389.676Z" fill="#231F20"/>
<path d="M353.222 573.892C342.288 577.888 330.476 577.453 319.968 572.677C309.459 567.9 301.503 559.349 297.574 548.597C293.645 537.845 294.213 526.179 299.166 515.753C304.118 505.326 312.866 497.378 323.801 493.382C334.735 489.387 346.546 489.821 357.055 494.598C367.563 499.375 375.52 507.925 379.449 518.677C383.378 529.429 382.81 541.095 377.857 551.522C372.904 561.949 364.156 569.897 353.222 573.892ZM324.802 496.122C303.769 503.808 292.802 526.897 300.36 547.579C307.918 568.261 331.188 578.839 352.221 571.153C373.254 563.467 384.221 540.378 376.663 519.695C369.105 499.013 345.835 488.436 324.802 496.122Z" fill="#CBF5E7"/>
<path d="M345.849 553.716C334.595 557.829 322.136 552.166 318.092 541.099C314.047 530.032 319.919 517.67 331.174 513.557C342.429 509.444 354.887 515.107 358.932 526.174C362.976 537.242 357.104 549.603 345.849 553.716ZM331.674 514.927C321.186 518.76 315.716 530.276 319.485 540.59C323.254 550.904 334.86 556.179 345.349 552.347C355.837 548.514 361.308 536.997 357.539 526.684C353.77 516.37 342.163 511.094 331.674 514.927Z" fill="#23E0A2"/>
<path d="M324.874 478.35C319.635 467.083 313.59 466.311 309.459 467.666C308.878 467.847 308.331 468.078 307.812 468.345C308.213 471.257 306.81 473.897 306.209 474.846C304.779 477.154 302.754 478.655 301.404 478.419C300.915 478.333 300.265 477.981 300.036 476.792C299.85 475.85 300.862 473.866 302.485 472C303.374 470.976 305.048 469.293 307.296 468.099C307.114 467.125 306.702 466.127 305.967 465.153C304.402 463.117 302.462 462.087 300.238 462.092C293.467 462.098 285.916 471.596 285.844 471.7L285.496 471.439C285.81 471.045 293.237 461.685 300.237 461.658C302.607 461.661 304.66 462.743 306.312 464.888C307.066 465.87 307.502 466.89 307.708 467.886C308.203 467.643 308.741 467.431 309.29 467.246C313.607 465.839 319.886 466.603 325.249 478.167L324.874 478.35ZM307.382 468.549C305.259 469.697 303.69 471.28 302.838 472.274C301.142 474.245 300.355 476.023 300.479 476.707C300.628 477.46 300.961 477.897 301.483 477.986C302.644 478.183 304.502 476.743 305.824 474.614C306.384 473.726 307.713 471.269 307.382 468.549Z" fill="#231F20"/>
<path d="M405.654 455.833C405.444 455.646 400.31 451.187 400.703 447.597C400.839 446.414 401.533 445.461 402.809 444.762C403.336 444.476 403.889 444.305 404.436 444.245C404.277 443.853 404.145 443.451 404.07 443.028C403.696 440.883 404.605 437.926 411.009 436.006L411.131 436.427C406.304 437.865 404.006 440.133 404.499 442.949C404.579 443.386 404.702 443.807 404.885 444.221C406.397 444.212 407.875 444.929 408.882 445.741C409.961 446.62 410.523 447.595 410.308 448.217C410.216 448.483 409.966 448.792 409.26 448.848C408.334 448.907 405.78 447.061 404.605 444.665C404.067 444.706 403.518 444.845 402.996 445.144C401.868 445.774 401.241 446.608 401.125 447.629C400.75 451.011 405.875 455.442 405.928 455.5L405.654 455.833ZM405.125 444.661C406.272 446.85 408.581 448.46 409.273 448.409C409.642 448.382 409.855 448.274 409.925 448.077C410.057 447.703 409.649 446.889 408.637 446.064C407.731 445.355 406.437 444.71 405.125 444.661Z" fill="#231F20"/>
<path d="M497.962 401.626L501.541 389.423L489.218 386.022L485.639 398.225L497.962 401.626Z" fill="#00E4AF"/>
<path d="M494.967 403.974C494.925 403.989 494.878 403.991 494.827 403.979L482.515 400.575C482.463 400.563 482.415 400.518 482.381 400.469C482.347 400.419 482.341 400.359 482.368 400.303L485.949 388.11C485.983 387.989 486.104 387.93 486.226 387.962L498.538 391.366C498.59 391.378 498.638 391.423 498.672 391.472C498.706 391.522 498.712 391.582 498.685 391.638L495.104 403.831C495.082 403.901 495.037 403.949 494.967 403.974ZM482.857 400.217L494.745 403.496L498.195 391.724L486.308 388.445L482.857 400.217Z" fill="#231F20"/>
<path d="M358.9 454.538L358.539 441.879L345.712 442.372L346.072 455.031L358.9 454.538Z" fill="#00E4AF"/>
<path d="M356.688 457.703C356.66 457.713 356.646 457.718 356.613 457.714L343.798 458.205C343.672 458.205 343.576 458.116 343.564 457.996L343.205 445.349C343.207 445.224 343.298 445.129 343.42 445.116L356.235 444.625C356.361 444.625 356.457 444.714 356.469 444.834L356.828 457.481C356.849 457.582 356.785 457.667 356.688 457.703ZM344.012 457.755L356.392 457.283L356.049 445.065L343.669 445.537L344.012 457.755Z" fill="#231F20"/>
<path d="M353.045 611.093L340.383 609.171L338.299 621.694L350.962 623.615L353.045 611.093Z" fill="#23E0A2"/>
<path d="M353.531 626.538C353.503 626.548 353.457 626.55 353.424 626.546L340.767 624.619C340.715 624.607 340.659 624.581 340.625 624.532C340.591 624.482 340.571 624.427 340.584 624.376L342.673 611.859C342.693 611.743 342.804 611.656 342.921 611.675L355.578 613.602C355.629 613.614 355.686 613.64 355.72 613.69C355.754 613.739 355.774 613.794 355.761 613.846L353.672 626.362C353.669 626.441 353.601 626.512 353.531 626.538ZM341.062 624.216L353.281 626.07L355.292 613.986L343.072 612.132L341.062 624.216Z" fill="#231F20"/>
<path d="M317.425 260.09C302.676 265.48 286.743 264.893 272.567 258.45C258.392 252.006 247.66 240.472 242.359 225.968C237.059 211.464 237.826 195.728 244.507 181.663C251.188 167.598 262.988 156.877 277.738 151.486C292.488 146.096 308.42 146.683 322.596 153.126C336.771 159.57 347.503 171.104 352.804 185.608C358.104 200.112 357.337 215.848 350.656 229.913C343.976 243.979 332.175 254.7 317.425 260.09ZM279.088 155.182C250.716 165.55 235.922 196.696 246.117 224.595C256.313 252.494 287.703 266.763 316.075 256.394C344.447 246.026 359.241 214.88 349.046 186.981C338.851 159.082 307.46 144.814 279.088 155.182Z" fill="#CBF5E7"/>
<path d="M520.54 31.4541C513.474 16.2553 505.319 15.2141 499.746 17.0412C498.963 17.2857 498.224 17.5973 497.525 17.9575C498.066 21.8857 496.173 25.4469 495.363 26.7273C493.434 29.8408 490.702 31.8653 488.881 31.5462C488.222 31.4313 487.345 30.9558 487.036 29.3514C486.785 28.0818 488.149 25.405 490.339 22.8875C491.538 21.5067 493.797 19.2363 496.829 17.6255C496.583 16.3121 496.027 14.9655 495.036 13.6522C492.925 10.9052 490.309 9.51564 487.308 9.52303C478.174 9.53096 467.989 22.3423 467.891 22.4828L467.422 22.1307C467.845 21.599 477.864 8.97405 487.307 8.93703C490.503 8.94175 493.273 10.401 495.502 13.2936C496.518 14.6185 497.107 15.9953 497.385 17.3388C498.053 17.0108 498.779 16.7246 499.518 16.4753C505.342 14.5774 513.812 15.608 521.046 31.2064L520.54 31.4541ZM496.944 18.2326C494.081 19.7816 491.965 21.9163 490.815 23.258C488.528 25.916 487.466 28.3145 487.633 29.2378C487.834 30.2535 488.284 30.8431 488.988 30.9629C490.554 31.2281 493.061 29.286 494.844 26.4143C495.599 25.2168 497.391 21.9022 496.944 18.2326Z" fill="#231F20"/>
<path d="M507.958 239.338L490.877 236.746L488.066 253.638L505.147 256.23L507.958 239.338Z" fill="#23E0A2"/>
<path d="M508.606 260.172C508.568 260.186 508.505 260.188 508.461 260.183L491.388 257.584C491.318 257.567 491.241 257.533 491.196 257.466C491.15 257.399 491.123 257.325 491.14 257.255L493.958 240.371C493.986 240.215 494.135 240.097 494.293 240.123L511.366 242.722C511.436 242.739 511.513 242.774 511.559 242.841C511.604 242.908 511.631 242.982 511.614 243.051L508.796 259.935C508.792 260.041 508.7 260.137 508.606 260.172ZM491.786 257.04L508.269 259.541L510.981 243.24L494.498 240.74L491.786 257.04Z" fill="#231F20"/>
<path d="M407.641 81.1082L407.223 81.2609L409.931 88.6708L410.348 88.5181L407.641 81.1082Z" fill="#231F20"/>
<path d="M419.583 74.2111L415.801 87.4689L416.228 87.5835L420.011 74.3257L419.583 74.2111Z" fill="#231F20"/>
<path d="M488.824 119.024C494.509 116.947 497.462 110.731 495.419 105.141C493.376 99.5506 487.111 96.703 481.426 98.7805C475.741 100.858 472.789 107.074 474.832 112.664C476.875 118.254 483.139 121.102 488.824 119.024Z" fill="#CBF5E7"/>
<path d="M486.54 122.11C480.759 124.222 474.378 121.321 472.301 115.637C470.224 109.953 473.231 103.622 479.012 101.509C484.792 99.3971 491.173 102.298 493.25 107.982C495.323 113.652 492.32 119.997 486.54 122.11ZM479.142 101.866C473.57 103.902 470.661 110.026 472.663 115.505C474.665 120.984 480.838 123.789 486.41 121.753C491.981 119.717 494.89 113.593 492.888 108.114C490.886 102.635 484.714 99.8295 479.142 101.866Z" fill="#231F20"/>
<path d="M383.039 61.8552L355.002 58.0524L350.846 85.7741L378.883 89.577L383.039 61.8552Z" fill="#23E0A2"/>
<path d="M346.117 88.3564C346.042 88.322 345.998 88.2449 346.014 88.1612L350.171 60.4343C350.178 60.3232 350.293 60.2499 350.397 60.2742L378.439 64.0776C378.551 64.0831 378.624 64.1962 378.599 64.2987L374.442 92.0256C374.435 92.1367 374.32 92.2099 374.216 92.1857L346.174 88.3822C346.169 88.3686 346.136 88.365 346.117 88.3564ZM350.542 60.6714L346.432 88.0085L374.089 91.7509L378.18 64.4053L350.542 60.6714Z" fill="#231F20"/>
<path d="M312.222 244.888C301.288 248.884 289.476 248.449 278.968 243.673C268.459 238.896 260.503 230.345 256.574 219.593C252.645 208.841 253.213 197.176 258.166 186.749C263.118 176.322 271.866 168.374 282.801 164.378C293.735 160.383 305.546 160.817 316.055 165.594C326.563 170.371 334.52 178.921 338.449 189.673C342.378 200.425 341.81 212.091 336.857 222.518C331.904 232.945 323.156 240.893 312.222 244.888ZM283.802 167.118C262.769 174.804 251.802 197.893 259.36 218.575C266.918 239.258 290.188 249.835 311.221 242.149C332.254 234.463 343.221 211.374 335.663 190.691C328.105 170.009 304.835 159.432 283.802 167.118Z" fill="#CBF5E7"/>
<path d="M304.849 224.712C293.595 228.825 281.136 223.162 277.092 212.095C273.047 201.028 278.919 188.666 290.174 184.553C301.429 180.44 313.887 186.104 317.932 197.171C321.976 208.238 316.104 220.6 304.849 224.712ZM290.674 185.923C280.186 189.756 274.716 201.272 278.485 211.586C282.254 221.9 293.86 227.176 304.349 223.343C314.837 219.51 320.308 207.993 316.539 197.68C312.77 187.366 301.163 182.09 290.674 185.923Z" fill="#23E0A2"/>
<path d="M283.876 149.345C278.637 138.078 272.592 137.306 268.461 138.661C267.88 138.842 267.332 139.073 266.814 139.34C267.215 142.252 265.812 144.892 265.211 145.841C263.781 148.149 261.756 149.65 260.406 149.414C259.917 149.328 259.267 148.976 259.038 147.787C258.852 146.845 259.864 144.861 261.487 142.995C262.376 141.971 264.05 140.288 266.298 139.094C266.116 138.12 265.704 137.122 264.969 136.148C263.404 134.112 261.464 133.082 259.24 133.087C252.469 133.093 244.918 142.591 244.846 142.695L244.498 142.434C244.812 142.04 252.239 132.68 259.239 132.653C261.609 132.656 263.662 133.738 265.314 135.883C266.068 136.865 266.504 137.885 266.71 138.881C267.205 138.638 267.743 138.426 268.292 138.241C272.609 136.834 278.888 137.598 284.251 149.162L283.876 149.345ZM266.384 139.544C264.261 140.692 262.692 142.275 261.84 143.269C260.144 145.24 259.357 147.018 259.481 147.702C259.63 148.455 259.963 148.892 260.485 148.981C261.646 149.178 263.504 147.738 264.826 145.609C265.386 144.721 266.715 142.264 266.384 139.544Z" fill="#231F20"/>
<path d="M364.656 126.828C364.446 126.641 359.311 122.183 359.705 118.593C359.841 117.409 360.535 116.457 361.811 115.758C362.338 115.472 362.891 115.301 363.438 115.241C363.279 114.849 363.147 114.447 363.072 114.024C362.698 111.878 363.607 108.922 370.011 107.001L370.133 107.422C365.306 108.86 363.008 111.128 363.501 113.945C363.581 114.381 363.704 114.802 363.887 115.217C365.399 115.207 366.877 115.925 367.884 116.737C368.963 117.616 369.525 118.59 369.31 119.212C369.218 119.479 368.968 119.788 368.262 119.844C367.336 119.903 364.782 118.057 363.607 115.661C363.069 115.702 362.52 115.84 361.998 116.14C360.87 116.769 360.243 117.604 360.127 118.625C359.752 122.006 364.877 126.437 364.929 126.496L364.656 126.828ZM364.126 115.657C365.274 117.846 367.583 119.455 368.275 119.404C368.644 119.378 368.857 119.269 368.927 119.073C369.059 118.698 368.651 117.885 367.639 117.059C366.732 116.35 365.439 115.705 364.126 115.657Z" fill="#231F20"/>
<path d="M456.96 72.6218L460.539 60.4186L448.216 57.0175L444.637 69.2207L456.96 72.6218Z" fill="#00E4AF"/>
<path d="M453.965 74.9697C453.923 74.985 453.876 74.9865 453.825 74.9744L441.513 71.5709C441.461 71.5588 441.413 71.5142 441.379 71.4645C441.345 71.4148 441.339 71.3549 441.366 71.2986L444.947 59.1062C444.981 58.9849 445.102 58.9254 445.224 58.9582L457.536 62.3617C457.588 62.3738 457.636 62.4184 457.67 62.4681C457.704 62.5178 457.71 62.5777 457.683 62.6341L454.102 74.8264C454.08 74.8965 454.035 74.9443 453.965 74.9697ZM441.855 71.2128L453.743 74.4919L457.194 62.7199L445.306 59.4407L441.855 71.2128Z" fill="#231F20"/>
<path d="M317.901 125.533L317.541 112.874L304.714 113.367L305.074 126.026L317.901 125.533Z" fill="#00E4AF"/>
<path d="M315.69 128.698C315.662 128.708 315.648 128.714 315.615 128.71L302.8 129.201C302.674 129.201 302.578 129.111 302.566 128.992L302.207 116.345C302.209 116.22 302.3 116.125 302.422 116.111L315.237 115.62C315.363 115.621 315.459 115.71 315.471 115.829L315.83 128.476C315.851 128.577 315.787 128.663 315.69 128.698ZM303.014 128.75L315.394 128.278L315.051 116.061L302.671 116.533L303.014 128.75Z" fill="#231F20"/>
<path d="M312.045 282.089L299.383 280.167L297.299 292.69L309.962 294.611L312.045 282.089Z" fill="#23E0A2"/>
<path d="M312.531 297.534C312.503 297.544 312.457 297.546 312.424 297.542L299.767 295.615C299.715 295.603 299.659 295.577 299.625 295.528C299.591 295.478 299.571 295.423 299.584 295.372L301.673 282.855C301.693 282.739 301.804 282.652 301.921 282.671L314.578 284.598C314.629 284.61 314.686 284.636 314.72 284.686C314.754 284.736 314.774 284.79 314.761 284.842L312.672 297.358C312.669 297.437 312.601 297.508 312.531 297.534ZM300.062 295.213L312.281 297.066L314.292 284.982L302.072 283.128L300.062 295.213Z" fill="#231F20"/>
<path d="M999.262 105.415C996.611 74.2437 982.983 67.1945 972.043 66.8273C970.513 66.7539 969.019 66.8273 967.563 67.0109C965.995 74.2437 960.394 79.2736 958.154 80.9992C952.777 85.2214 946.691 87.0204 943.704 85.2948C942.622 84.6707 941.39 83.2755 941.875 80.2649C942.248 77.8785 946.355 74.0601 951.807 71.0495C954.794 69.3973 960.207 66.864 966.555 65.9829C966.966 63.523 966.853 60.8061 965.957 57.8689C964.016 51.7008 960.319 47.5888 955.055 45.6796C939.037 39.842 912.976 55.7762 912.715 55.9597L912.117 55.0419C913.2 54.381 938.851 38.6671 955.428 44.6516C961.029 46.7076 964.949 51.04 967.003 57.5385C967.936 60.5124 968.086 63.3027 967.712 65.836C969.094 65.6892 970.55 65.6524 972.006 65.6892C983.431 66.093 997.619 73.3258 1000.31 105.304L999.262 105.415ZM966.368 67.121C960.357 68.0022 955.279 70.3886 952.404 72.0041C946.691 75.1983 943.294 78.7229 942.995 80.4485C942.696 82.3577 943.107 83.6794 944.264 84.3402C946.841 85.8088 952.479 84.0098 957.445 80.118C959.535 78.5026 964.8 73.8398 966.368 67.121Z" fill="#231F20"/>
<path d="M951.17 443.663L922.887 428.177L907.138 455.988L935.421 471.474L951.17 443.663Z" fill="#23E0A2"/>
<path d="M938.96 480.603C938.885 480.603 938.773 480.566 938.699 480.529L910.434 465.036C910.322 464.962 910.21 464.852 910.173 464.705C910.136 464.559 910.136 464.412 910.21 464.302L925.967 436.508C926.116 436.251 926.452 436.141 926.713 436.288L954.978 451.782C955.09 451.855 955.202 451.965 955.239 452.112C955.276 452.259 955.276 452.406 955.202 452.516L939.445 480.309C939.371 480.493 939.147 480.603 938.96 480.603ZM911.48 464.338L938.773 479.281L953.969 452.443L926.676 437.5L911.48 464.338Z" fill="#231F20"/>
<path d="M769.537 120.143H768.707V134.868H769.537V120.143Z" fill="#231F20"/>
<path d="M794.894 115.704L779.77 136.522L780.445 136.996L795.57 116.178L794.894 115.704Z" fill="#231F20"/>
<path d="M870.444 284.786L822.992 277.014L821.005 288.747L868.457 296.519L870.444 284.786Z" fill="#23E0A2"/>
<path d="M907.083 278.004C909.07 278.004 910.681 276.42 910.681 274.466C910.681 272.512 909.07 270.928 907.083 270.928C905.095 270.928 903.484 272.512 903.484 274.466C903.484 276.42 905.095 278.004 907.083 278.004Z" fill="#23E0A2"/>
<path d="M895.54 276.153C897.527 276.153 899.138 274.569 899.138 272.615C899.138 270.661 897.527 269.077 895.54 269.077C893.552 269.077 891.941 270.661 891.941 272.615C891.941 274.569 893.552 276.153 895.54 276.153Z" fill="#CBF5E7"/>
<path d="M918.653 279.855C920.64 279.855 922.251 278.271 922.251 276.317C922.251 274.363 920.64 272.779 918.653 272.779C916.666 272.779 915.055 274.363 915.055 276.317C915.055 278.271 916.666 279.855 918.653 279.855Z" fill="#00E4AF"/>
<path d="M820.291 297.746L820.168 298.553L910.731 312.03L910.854 311.223L820.291 297.746Z" fill="#CBF5E7"/>
<path d="M817.428 311.153L817.305 311.961L907.867 325.438L907.991 324.63L817.428 311.153Z" fill="#CBF5E7"/>
<path d="M765.863 152.146L723.184 173.972L726.887 180.974L769.567 159.148L765.863 152.146Z" fill="#23E0A2"/>
<path d="M772.991 167.487L731.453 188.876L731.838 189.599L773.376 168.21L772.991 167.487Z" fill="#CBF5E7"/>
<path d="M779.144 180.402L750.58 195.127L749.86 195.508C749.749 195.29 749.611 195.045 749.473 194.8L750.192 194.419L778.757 179.695L779.144 180.402Z" fill="#CBF5E7"/>
<path d="M785.394 190.403L743.855 211.792L744.241 212.515L785.779 191.126L785.394 190.403Z" fill="#CBF5E7"/>
<path d="M792.011 201.107L750.473 222.496L750.858 223.219L792.396 201.831L792.011 201.107Z" fill="#CBF5E7"/>
<path d="M798.651 211.799L757.113 233.188L757.498 233.911L799.037 212.522L798.651 211.799Z" fill="#CBF5E7"/>
<path d="M887.568 238.62C898.865 238.62 908.023 229.615 908.023 218.507C908.023 207.398 898.865 198.393 887.568 198.393C876.271 198.393 867.113 207.398 867.113 218.507C867.113 229.615 876.271 238.62 887.568 238.62Z" fill="#CBF5E7"/>
<path d="M881.588 242.567C870.101 242.567 860.773 233.395 860.773 222.099C860.773 210.804 870.101 201.632 881.588 201.632C893.075 201.632 902.402 210.804 902.402 222.099C902.402 233.367 893.075 242.567 881.588 242.567ZM881.588 202.34C870.516 202.34 861.493 211.212 861.493 222.099C861.493 232.986 870.516 241.859 881.588 241.859C892.66 241.859 901.683 232.986 901.683 222.099C901.683 211.212 892.66 202.34 881.588 202.34Z" fill="#231F20"/>
<path d="M738.752 70.6362L692.039 46.0088L666.994 91.9434L713.708 116.571L738.752 70.6362Z" fill="#23E0A2"/>
<path d="M657.053 93.4427C656.942 93.3338 656.914 93.1705 656.997 93.0345L682.047 47.0914C682.13 46.9008 682.379 46.8464 682.545 46.9553L729.267 71.5871C729.461 71.6687 729.516 71.9137 729.405 72.077L704.356 118.02C704.273 118.211 704.024 118.265 703.858 118.156L657.136 93.5244C657.136 93.4971 657.081 93.4699 657.053 93.4427ZM682.545 47.7446L657.828 93.0345L703.913 117.312L728.603 71.9953L682.545 47.7446Z" fill="#231F20"/>
<path d="M698.149 283.182L696.051 295.586L696.788 295.707L698.886 283.303L698.149 283.182Z" fill="#231F20"/>
<path d="M706.592 295.349L701.34 299.48L701.807 300.054L707.059 295.923L706.592 295.349Z" fill="#231F20"/>
<path d="M498.496 246.334L497.68 262.428L498.509 262.469L499.325 246.375L498.496 246.334Z" fill="#231F20"/>
<path d="M483.527 258.625L483.016 259.268L491.146 265.525L491.658 264.882L483.527 258.625Z" fill="#231F20"/>
<path d="M497.348 346.13C475.62 346.13 455.193 337.801 439.832 322.696C424.47 307.59 416 287.503 416 266.138C416 244.772 424.47 224.685 439.832 209.58C455.193 194.474 475.62 186.146 497.348 186.146C519.076 186.146 539.503 194.474 554.865 209.58C570.227 224.685 578.696 244.772 578.696 266.138C578.696 287.503 570.227 307.59 554.865 322.696C539.503 337.801 519.076 346.13 497.348 346.13ZM497.348 191.589C455.553 191.589 421.536 225.039 421.536 266.138C421.536 307.236 455.553 340.686 497.348 340.686C539.143 340.686 573.161 307.236 573.161 266.138C573.161 225.039 539.143 191.589 497.348 191.589Z" fill="#CBF5E7"/>
<path d="M497.351 306.038C474.986 306.038 456.773 288.129 456.773 266.138C456.773 244.146 474.986 226.237 497.351 226.237C519.715 226.237 537.928 244.146 537.928 266.138C537.928 288.129 519.715 306.038 497.351 306.038ZM497.351 228.959C476.508 228.959 459.541 245.643 459.541 266.138C459.541 286.632 476.508 303.317 497.351 303.317C518.193 303.317 535.16 286.632 535.16 266.138C535.16 245.643 518.193 228.959 497.351 228.959Z" fill="#23E0A2"/>
<path d="M636.687 452.523C641.288 452.523 645.018 448.855 645.018 444.331C645.018 439.806 641.288 436.138 636.687 436.138C632.086 436.138 628.355 439.806 628.355 444.331C628.355 448.855 632.086 452.523 636.687 452.523Z" fill="white"/>
<path d="M508.86 160.479C506.895 137.372 496.792 132.146 488.682 131.874C487.548 131.819 486.44 131.874 485.361 132.01C484.198 137.372 480.047 141.101 478.386 142.38C474.4 145.51 469.888 146.843 467.674 145.564C466.871 145.101 465.958 144.067 466.318 141.835C466.595 140.066 469.639 137.236 473.68 135.004C475.895 133.779 479.908 131.901 484.614 131.248C484.918 129.424 484.835 127.41 484.171 125.233C482.731 120.66 479.991 117.612 476.089 116.197C464.214 111.869 444.894 123.681 444.701 123.817L444.258 123.137C445.061 122.647 464.076 110.998 476.365 115.434C480.517 116.959 483.423 120.17 484.946 124.988C485.638 127.192 485.748 129.261 485.472 131.139C486.496 131.03 487.575 131.003 488.655 131.03C497.124 131.329 507.642 136.691 509.635 160.398L508.86 160.479ZM484.475 132.092C480.019 132.745 476.255 134.514 474.123 135.711C469.888 138.079 467.37 140.692 467.148 141.971C466.927 143.387 467.231 144.367 468.089 144.857C469.999 145.945 474.179 144.612 477.86 141.727C479.41 140.529 483.313 137.072 484.475 132.092Z" fill="#231F20"/>
<path d="M664.895 172.754C664.645 172.292 658.501 161.187 661.49 155.145C662.487 153.158 664.313 151.933 666.998 151.525C668.105 151.361 669.185 151.416 670.181 151.661C670.154 150.872 670.181 150.082 670.32 149.293C671.039 145.292 674.527 140.692 686.982 141.427L686.927 142.244C677.544 141.672 672.063 144.176 671.122 149.429C670.984 150.246 670.929 151.062 670.984 151.906C673.641 152.858 675.772 155.063 677.018 157.132C678.347 159.363 678.706 161.432 677.931 162.385C677.599 162.793 676.963 163.174 675.689 162.82C674.029 162.33 670.735 157.458 670.209 152.505C669.24 152.232 668.188 152.124 667.081 152.314C664.701 152.695 663.068 153.757 662.21 155.471C659.387 161.16 665.531 172.21 665.587 172.346L664.895 172.754ZM671.122 152.831C671.731 157.404 674.748 161.704 675.994 162.058C676.658 162.248 677.101 162.194 677.35 161.895C677.821 161.323 677.627 159.636 676.381 157.54C675.247 155.716 673.392 153.757 671.122 152.831Z" fill="#231F20"/>
<path d="M861.44 136.864L875.531 117.764L856.108 103.908L842.016 123.008L861.44 136.864Z" fill="#00E4AF"/>
<path d="M854.68 139.059C854.597 139.059 854.514 139.032 854.431 138.978L835.028 125.124C834.945 125.069 834.89 124.961 834.862 124.852C834.834 124.743 834.862 124.634 834.945 124.552L849.034 105.473C849.172 105.282 849.421 105.255 849.615 105.391L869.018 119.245C869.101 119.299 869.156 119.408 869.184 119.517C869.211 119.626 869.184 119.735 869.101 119.816L855.012 138.896C854.929 139.005 854.818 139.059 854.68 139.059ZM835.858 124.716L854.597 138.079L868.187 119.653L849.449 106.289L835.858 124.716Z" fill="#231F20"/>
<path d="M583.765 140.534L591.242 118.112L568.44 110.759L560.962 133.181L583.765 140.534Z" fill="#00E4AF"/>
<path d="M577.861 144.666C577.806 144.666 577.778 144.666 577.723 144.639L554.943 137.29C554.722 137.209 554.611 136.991 554.666 136.773L562.14 114.373C562.223 114.155 562.444 114.046 562.666 114.101L585.445 121.45C585.667 121.531 585.778 121.749 585.722 121.967L578.249 144.367C578.221 144.557 578.055 144.666 577.861 144.666ZM555.608 136.637L577.612 143.741L584.836 122.103L562.832 114.999L555.608 136.637Z" fill="#231F20"/>
<path d="M473.209 411.23L452.242 399.75L440.567 420.367L461.534 431.848L473.209 411.23Z" fill="#23E0A2"/>
<path d="M464.159 438.615C464.104 438.615 464.021 438.588 463.966 438.56L443.013 427.075C442.93 427.02 442.847 426.939 442.819 426.83C442.791 426.721 442.791 426.612 442.847 426.53L454.527 405.927C454.638 405.736 454.887 405.654 455.081 405.763L476.034 417.249C476.117 417.304 476.2 417.385 476.227 417.494C476.255 417.603 476.255 417.712 476.2 417.794L464.519 438.397C464.464 438.533 464.298 438.615 464.159 438.615ZM443.788 426.558L464.021 437.635L475.286 417.739L455.053 406.662L443.788 426.558Z" fill="#231F20"/>
</svg>
