<svg width="544" height="608" viewBox="0 0 544 608" fill="none" xmlns="http://www.w3.org/2000/svg">
<path d="M99.5764 356.412H34.5957V606.51H99.5764V356.412Z" fill="#CBF5E7"/>
<path d="M215.328 605.949H155.891V606.51H215.328V605.949Z" fill="#23E0A2"/>
<path d="M214.801 323.676C214.977 323.535 215.152 323.36 215.328 323.22V536.126L214.801 536.407L155.891 569.108V299.887H179.995C184.451 311.009 191.118 322.974 199.854 325.606C205.995 327.465 211.047 326.799 214.801 323.676Z" fill="#23E0A2"/>
<path d="M225.782 140.172L224.098 268.519L224.063 269.853C223.887 269.712 223.712 269.572 223.536 269.467C221.01 267.572 218.379 266.344 215.782 266.344C215.642 266.344 215.502 266.344 215.361 266.344C212.624 266.484 210.765 267.923 209.817 270.625C209.151 272.484 209.01 274.87 209.291 277.572C209.361 278.274 208.203 277.888 208.203 277.888C208.168 277.853 208.168 277.817 208.133 277.782C204.519 269.748 199.993 265.256 195.783 265.256C195.116 265.256 194.449 265.362 193.783 265.607C191.081 266.555 189.186 269.397 188.695 272.73C188.625 273.221 187.397 274.59 187.572 273.081C185.397 270.8 183.152 269.607 180.941 269.607C180.274 269.607 179.608 269.712 178.941 269.958C175.011 271.326 172.801 276.765 174.099 281.782C175.046 285.466 177.011 292.484 179.959 299.887H171.362L145.258 294.168V140.172H225.782Z" fill="#23E0A2"/>
<path d="M448.548 446.655L390.55 394.025L385.813 351.956H385.252V356.938V605.984V606.51H449.075V448.655V447.146L448.548 446.655Z" fill="#00E4AF"/>
<path d="M581.773 508.232L582.334 507.46V606.51H519.354V595.072L581.773 508.232Z" fill="#23E0A2"/>
<path d="M582.334 327.149V420.621L581.773 420.235L519.354 378.481V327.149H582.334Z" fill="#23E0A2"/>
<path d="M288.412 409.744L259.992 482.864V409.744H288.412Z" fill="#00E4AF"/>
<path d="M315.64 605.949V606.51H259.992V605.949H284.588L300.167 581.388C300.307 581.178 300.552 581.107 300.763 581.143C301.009 581.213 301.149 581.388 301.184 581.634L303.254 605.949H315.64Z" fill="#00E4AF"/>
<path d="M475.396 0.000116207L445.02 4.69043L449.71 35.0668L480.086 30.3765L475.396 0.000116207Z" fill="#CBF5E7"/>
<path d="M439.495 42.596C439.214 42.596 439.004 42.3855 438.934 42.1399L434.232 11.7547C434.197 11.6144 434.232 11.474 434.337 11.3337C434.407 11.2284 434.548 11.1232 434.688 11.1232L465.073 6.42155C465.389 6.38646 465.67 6.59698 465.705 6.87768L470.406 37.2628C470.441 37.5786 470.231 37.8593 469.95 37.8944L439.565 42.596C439.53 42.596 439.495 42.596 439.495 42.596ZM435.425 12.1407L439.951 41.4031L469.213 36.8769L464.687 7.6145L435.425 12.1407Z" fill="#231F20"/>
<path d="M518.266 140.277C517.073 140.277 515.529 139.716 514.301 137.365C513.214 135.33 514.126 130.383 516.582 125.05C517.95 122.067 520.757 116.98 525.424 112.664C524.301 110.524 522.652 108.489 520.231 106.734C515.003 102.98 509.67 101.857 504.302 103.366C488.372 107.892 477.215 134.348 477.109 134.628L476.092 134.207C476.548 133.085 487.565 106.98 504.021 102.313C509.705 100.699 515.389 101.892 520.898 105.822C523.178 107.471 524.968 109.506 526.266 111.892C527.073 111.19 527.915 110.524 528.827 109.892C534.827 105.717 541.423 104.419 548.511 106.033C557.002 107.962 565.914 114.138 575.072 124.348L574.229 125.085C553.528 101.927 538.476 104.524 529.459 110.804C528.511 111.436 527.634 112.173 526.792 112.91C528.827 117.26 529.213 122.558 527.739 128.172C526.055 134.734 522.266 139.786 518.722 140.207C518.582 140.242 518.406 140.277 518.266 140.277ZM525.915 113.752C517.599 121.716 513.705 133.927 515.249 136.874C516.126 138.558 517.249 139.33 518.582 139.155C521.564 138.804 525.108 133.892 526.652 127.962C527.248 125.646 528.406 119.506 525.915 113.752Z" fill="#231F20"/>
<path d="M33.3322 296.835C29.6832 296.835 26.1745 295.115 24.1044 292.238C21.7886 289.01 21.6132 284.765 23.6131 280.625C26.4552 274.695 34.9813 271.783 45.8582 273.081C46.4897 273.151 47.1213 273.256 47.7528 273.362C47.6476 269.467 46.6301 265.853 44.6652 262.555C34.9111 246.064 5.08733 242.52 4.80664 242.485L4.94699 241.362C5.01716 241.362 12.6661 242.275 21.4378 245.222C29.5779 247.959 40.3846 253.081 45.6126 261.993C47.7178 265.537 48.7704 269.397 48.8405 273.572C54.5597 274.66 60.0332 276.8 64.5243 279.782C70.5242 283.782 74.3837 289.01 75.6819 294.905L74.5942 295.15C72.1381 283.852 60.1034 276.905 48.8405 274.73C48.7353 278.554 47.7879 282.624 46.0336 286.905C43.6828 292.624 39.5074 296.238 34.5953 296.835C34.2093 296.835 33.7532 296.835 33.3322 296.835ZM41.0513 273.923C33.0164 273.923 26.806 276.554 24.5956 281.116C22.7711 284.94 22.9114 288.659 24.9815 291.607C27.0517 294.519 30.7708 296.098 34.49 295.677C37.1566 295.361 42.0337 293.782 45.0512 286.449C46.7704 282.239 47.6827 278.239 47.7528 274.484C47.0511 274.379 46.3845 274.274 45.7178 274.204C44.1389 273.993 42.56 273.923 41.0513 273.923Z" fill="#231F20"/>
<path d="M234.966 38.7408L227.35 61.8687L228.416 62.2199L236.033 39.092L234.966 38.7408Z" fill="#231F20"/>
<path d="M251.407 57.1971L245.205 65.0864L246.088 65.7803L252.289 57.8909L251.407 57.1971Z" fill="#231F20"/>
<path d="M58.5701 54.1332L57.6191 54.7302L81.8715 93.3643L82.8225 92.7673L58.5701 54.1332Z" fill="#231F20"/>
<path d="M52.3867 95.3618L51.918 96.3821L72.8016 105.977L73.2703 104.957L52.3867 95.3618Z" fill="#231F20"/>
<path d="M67.0497 120.384H36.9102V121.506H67.0497V120.384Z" fill="#231F20"/>
<path d="M438.444 159.224C438.234 159.54 438.023 159.856 437.813 160.136C433.672 165.47 426.655 164.803 410.34 166.171C393.182 167.61 393.323 181.609 393.323 181.609C393.323 181.609 394.13 182.241 395.147 183.399C395.744 184.381 396.27 185.364 396.691 186.311C396.936 186.872 397.182 187.399 397.357 187.925C397.989 189.679 398.375 191.364 398.445 193.048C398.34 193.644 398.2 194.276 397.989 194.942C395.322 202.521 393.323 205.609 393.323 205.609C393.323 205.609 392.761 206.065 391.744 206.837C386.867 210.556 371.814 221.959 360.201 228.977C355.639 231.748 351.569 233.819 348.903 234.45C348.832 234.275 348.797 234.134 348.727 233.959C345.605 225.082 337.885 208.591 333.85 200.135C333.57 199.574 333.324 199.048 333.079 198.556C331.956 196.241 331.289 194.837 331.289 194.837L311.605 193.293H311.535L309.184 193.118L297.43 192.206L291.466 148.979L291.115 146.347L290.729 143.575L287.922 145.856C287.922 145.856 295.08 128.313 324.096 116.559C353.078 104.805 369.744 104.313 382.27 105.506C382.867 105.576 383.463 105.647 384.06 105.717C384.34 105.752 384.656 105.822 384.937 105.857C385.147 105.892 385.323 105.927 385.533 105.962C385.639 105.997 385.779 105.997 385.884 106.033C386.095 106.068 386.305 106.103 386.481 106.173C393.393 107.752 400.445 111.682 407.427 117.611C407.884 117.997 408.305 118.383 408.761 118.769C412.304 121.927 415.848 125.611 419.287 129.751C419.673 130.207 420.024 130.663 420.41 131.12C423.743 135.26 427.006 139.821 430.164 144.803C430.479 145.33 430.83 145.856 431.146 146.382C433.672 150.382 436.093 154.663 438.444 159.224Z" fill="#00E4AF"/>
<path d="M397.357 187.925C397.041 188.03 396.691 188.135 396.375 188.241C380.375 193.118 363.744 194.907 351.429 196.241C349.885 196.416 348.376 196.556 346.973 196.732C342.552 197.223 338.166 198.381 333.885 200.135C333.604 199.574 333.359 199.047 333.113 198.556C337.569 196.697 342.166 195.504 346.762 194.977C348.201 194.837 349.674 194.662 351.218 194.486C363.428 193.153 379.884 191.363 395.673 186.592C396.024 186.486 396.34 186.381 396.655 186.276C396.936 186.837 397.147 187.364 397.357 187.925Z" fill="white"/>
<path d="M431.145 146.312C430.829 145.786 430.478 145.259 430.163 144.733C409.286 170.276 369.357 174.627 345.428 177.223C343.884 177.399 342.376 177.539 340.972 177.715C328.411 179.118 318.517 185.329 312.376 190.311C311.219 191.258 310.131 192.206 309.148 193.083L311.604 193.258C318.131 187.574 328.271 180.908 341.148 179.434C342.551 179.259 344.06 179.118 345.604 178.943C369.673 176.346 409.707 171.996 431.145 146.312Z" fill="white"/>
<path d="M334.062 142.312C338.553 141.4 343.29 140.593 348.307 139.716C369.534 136.067 393.534 131.926 408.761 118.699C408.305 118.313 407.884 117.927 407.428 117.541C392.551 130.312 368.903 134.382 347.991 137.996C342.939 138.874 338.202 139.681 333.676 140.593C310.097 145.365 295.326 163.154 295.186 163.329L296.554 164.452C296.694 164.276 311.08 146.943 334.062 142.312Z" fill="white"/>
<path d="M291.466 148.944C295.852 142.347 305.185 130.418 317.43 126.278C325.29 123.611 333.921 122.032 343.114 120.348C358.552 117.506 374.481 114.594 386.516 106.138C385.709 105.962 384.902 105.787 384.095 105.682C372.552 113.19 357.464 115.962 342.833 118.664C333.605 120.348 324.869 121.962 316.904 124.664C305.01 128.699 295.992 139.4 291.15 146.347L291.466 148.944Z" fill="white"/>
<path d="M337.079 160.522C339.254 160.277 341.57 160.031 343.991 159.785C355.85 158.592 370.587 157.084 384.691 152.698C399.849 147.996 411.568 140.909 420.41 131.049C420.024 130.593 419.673 130.137 419.287 129.681C399.042 152.382 367.253 155.645 343.78 158.031C341.359 158.277 339.043 158.522 336.868 158.768C324.307 160.171 314.413 166.382 308.272 171.364C301.676 176.732 298.062 181.715 297.887 181.89L299.325 182.908C299.501 182.732 313.851 163.154 337.079 160.522Z" fill="white"/>
<path d="M489.459 367.499C489.284 367.815 489.109 368.131 488.898 368.446C485.916 373.534 482.161 377.744 478.056 381.358C473.951 384.972 469.425 387.99 465.004 390.656C463.776 391.393 462.548 392.13 461.32 392.832C458.232 394.621 455.18 396.305 452.373 397.989C439.917 405.393 433.636 412.094 430.584 417.357C430.198 417.989 429.882 418.62 429.601 419.217C426.759 425.182 428.093 428.831 428.093 428.831L418.83 420.41L417.953 419.638L396.479 400.13L395.602 399.358L389.988 394.27L384.304 341.359C384.304 341.359 382.971 347.956 380.901 357.991C380.796 358.587 380.655 359.183 380.515 359.78C379.322 365.604 377.919 372.411 376.445 379.674C376.34 380.271 376.199 380.867 376.059 381.464C374.726 387.955 373.322 394.726 371.954 401.463C371.849 402.059 371.708 402.656 371.603 403.252C370.199 410.165 368.761 416.971 367.463 423.287C367.393 423.708 367.287 424.129 367.217 424.515C367.182 424.69 367.147 424.901 367.112 425.076C365.358 433.497 363.814 440.901 362.691 446.304C362.621 446.655 362.551 447.041 362.48 447.357C362.41 447.602 362.375 447.848 362.34 448.093C361.638 451.427 361.147 453.777 360.901 454.83C357.849 452.935 353.358 451.076 347.007 450.374C344.06 450.058 341.042 450.023 337.99 450.163H337.955C336.657 450.234 335.358 450.339 334.06 450.444C333.955 450.444 333.885 450.444 333.779 450.479C333.709 450.479 333.604 450.479 333.534 450.514C333.183 450.549 332.832 450.585 332.481 450.62C331.99 450.655 331.534 450.725 331.043 450.76H330.972C320.341 451.988 309.64 454.409 300.868 453.848C300.026 453.777 299.149 453.707 298.307 453.567C296.307 453.286 294.377 452.865 292.482 452.304C287.921 451.006 283.746 449.076 280.588 447.392C281.009 446.304 282.939 441.216 285.886 433.357C286.097 432.76 286.342 432.129 286.588 431.532C288.728 425.848 291.324 418.901 294.237 411.112C294.482 410.515 294.693 409.884 294.938 409.287C297.324 402.937 299.886 396.095 302.552 388.937C302.798 388.341 303.008 387.709 303.254 387.113C305.71 380.551 308.271 373.744 310.833 366.832C311.078 366.236 311.289 365.604 311.534 365.008C314.061 358.271 316.622 351.464 319.113 344.728C319.324 344.131 319.569 343.5 319.815 342.903C322.411 335.991 324.938 329.149 327.394 322.623C327.639 321.992 327.85 321.395 328.095 320.799C330.797 313.606 333.358 306.764 335.674 300.518C335.92 299.887 336.13 299.29 336.376 298.694C337.779 294.94 339.113 291.396 340.306 288.168C340.446 287.782 340.586 287.396 340.727 287.045C357.779 284.028 372.199 279.361 384.059 274.309C385.848 273.537 387.532 272.8 389.181 272.028C393.602 269.993 397.602 267.888 401.216 265.853C413.286 259.011 423.04 251.502 430.654 243.994L431.005 245.152L437.25 267.081L437.742 268.8L443.145 287.747L443.636 289.466L449.039 308.413L449.531 310.132L454.934 329.079L455.425 330.798L460.723 349.359C460.723 349.359 460.899 349.464 461.215 349.64C461.285 349.675 461.32 349.71 461.39 349.745C461.425 349.78 461.46 349.78 461.495 349.815C461.565 349.85 461.636 349.886 461.741 349.956C462.057 350.131 462.443 350.342 462.864 350.622C468.407 353.815 483.109 362.376 488.617 366.657C488.863 367.008 489.179 367.253 489.459 367.499Z" fill="#23E0A2"/>
<path d="M285.885 433.498L367.181 425.147C367.321 424.55 367.426 423.954 367.567 423.357L286.587 431.673C286.341 432.269 286.095 432.901 285.885 433.498Z" fill="white"/>
<path d="M302.551 389.078L376.163 381.534C376.303 380.938 376.408 380.341 376.549 379.745L303.253 387.253C303.007 387.85 302.761 388.446 302.551 389.078Z" fill="white"/>
<path d="M294.236 411.253L371.673 403.323C371.813 402.727 371.918 402.13 372.059 401.534L294.938 409.428C294.692 410.025 294.447 410.656 294.236 411.253Z" fill="white"/>
<path d="M395.637 399.358L396.514 400.13L461.354 392.797C462.582 392.095 463.81 391.358 465.038 390.622L395.566 398.446L395.637 399.358Z" fill="white"/>
<path d="M417.951 419.638L418.828 420.41L429.6 419.182C429.881 418.586 430.231 417.954 430.617 417.288L417.881 418.726L417.951 419.638Z" fill="white"/>
<path d="M310.832 366.973L380.62 359.815C380.76 359.219 380.865 358.587 381.006 358.026L311.534 365.148C311.288 365.745 311.043 366.341 310.832 366.973Z" fill="white"/>
<path d="M362.761 446.41L292.482 452.48C294.377 453.006 296.307 453.462 298.307 453.743L331.008 450.936C333.323 450.655 335.639 450.445 337.955 450.339L362.375 448.234C362.481 447.602 362.621 447.006 362.761 446.41Z" fill="white"/>
<path d="M437.671 268.941L387.392 274.098L383.953 274.449C385.743 273.677 387.427 272.941 389.076 272.169L392.199 271.853L437.145 267.256L437.671 268.941Z" fill="white"/>
<path d="M462.758 350.693C461.424 349.921 460.617 349.465 460.617 349.465L460.547 349.184L386.725 357.921L386.935 359.675L462.758 350.693Z" fill="white"/>
<path d="M489.459 367.499C489.179 367.254 488.863 367.008 488.512 366.727L389.006 377.955L389.216 379.71L488.933 368.447C489.108 368.131 489.284 367.815 489.459 367.499Z" fill="white"/>
<path d="M443.072 287.887L336.303 298.835C336.093 299.431 335.847 300.063 335.602 300.659L443.528 289.572L443.072 287.887Z" fill="white"/>
<path d="M454.864 329.185L319.78 343.044C319.534 343.64 319.324 344.272 319.078 344.868L455.32 330.904L454.864 329.185Z" fill="white"/>
<path d="M448.966 308.519L328.057 320.904C327.847 321.501 327.601 322.132 327.355 322.729L449.457 310.203L448.966 308.519Z" fill="white"/>
<path d="M479.672 463.075L536.267 389.814L595.388 429.392L493.286 579.984L495.426 476.338L479.672 463.075Z" fill="#CBF5E7"/>
<path d="M260.869 499.39L359.498 502.513L347.218 574.476H163.398L251.571 521.284L260.869 499.39Z" fill="#CBF5E7"/>
<path d="M600.615 483.847C600.861 483.987 601.212 483.917 601.352 483.671L623.913 447.813C624.088 447.567 623.983 447.216 623.737 447.041L582.826 419.673V318.062C582.826 317.746 582.581 317.5 582.265 317.5H509.074C508.758 317.5 508.513 317.746 508.513 318.062V369.92L466.724 341.956L439.076 242.274L488.267 249.116C489.039 249.222 489.846 249.292 490.618 249.292C498.899 249.292 506.127 243.187 507.284 234.766C508.583 225.538 502.127 217.047 492.899 215.749L453.461 210.275C456.584 197.398 453.917 183.96 451.005 174.697C447.707 164.206 443.391 156.698 443.146 156.242C439.567 149.295 435.707 142.803 431.708 136.874C442.269 137.997 450.725 135.891 454.409 127.997C467.566 99.6117 448.233 103.436 439.602 94.3837C415.743 69.3669 393.638 80.1034 373.604 82.1736C353.569 84.2437 343.429 72.3843 329.991 73.8931C306.693 76.4895 307.781 91.5768 308.132 94.0329C308.097 94.3487 308.062 94.6644 308.027 94.9451C307.992 95.4013 307.255 104.699 315.395 105.717C315.781 105.752 316.307 105.787 316.939 105.787C318.623 105.787 321.114 105.471 323.535 103.998C327.465 105.927 330.833 107.05 333.815 107.682C330.447 108.91 326.974 110.243 323.395 111.682C308.307 117.822 299.325 126.699 294.483 133.084C292.904 135.155 291.676 137.049 290.694 138.769C284.729 125.576 276.519 113.681 266.203 103.401C255.221 92.4189 242.414 83.7875 228.169 77.7526C213.398 71.5072 197.714 68.3494 181.574 68.3494C165.399 68.3494 149.75 71.5072 134.979 77.7526C120.734 83.7875 107.927 92.4189 96.9096 103.401C85.9275 114.383 77.2961 127.19 71.2612 141.47C65.0158 156.242 61.858 171.925 61.858 188.065C61.858 204.205 65.0158 219.889 71.2612 234.661C77.2961 248.906 85.9275 261.713 96.9096 272.695C107.892 283.677 120.698 292.308 134.979 298.343C138.663 299.922 142.417 301.29 146.207 302.448V573.248L135.435 579.213C135.259 579.318 135.154 579.493 135.154 579.704V606.019H100.629V348.973C100.629 348.693 100.383 348.447 100.103 348.447H26.8414C26.5607 348.447 26.3151 348.693 26.3151 348.973V606.019H0V607.071H26.8414H100.032H135.47C135.54 607.107 135.575 607.107 135.645 607.107H284.834C284.905 607.107 284.94 607.107 285.01 607.071H302.518C302.588 607.107 302.623 607.107 302.694 607.107H341.71C341.78 607.107 341.815 607.107 341.885 607.071H508.934C509.004 607.107 509.039 607.107 509.109 607.107H582.3C582.37 607.107 582.405 607.107 582.475 607.071H620.545V606.019H582.861V508.618L590.054 498.618C590.195 498.443 590.195 498.232 590.089 498.022L582.861 483.847V474.058L600.615 483.847ZM322.412 103.436C319.711 104.875 317.009 104.84 315.535 104.629C308.272 103.717 309.044 95.3662 309.114 95.0153V94.9802C309.29 91.8575 311.255 88.2436 316.167 88.2436C321.43 88.2436 323.43 91.7171 324.202 94.6644C324.272 94.875 324.447 95.0504 324.658 95.0504C324.868 95.0855 325.079 94.9451 325.184 94.7346C325.57 93.8574 326.412 93.4013 327.114 93.2961C327.43 93.261 327.991 93.261 328.342 93.7171C328.588 94.068 328.903 94.9451 328.061 96.8749C326.553 100.348 324.482 102.313 322.412 103.436ZM509.67 318.623H581.774V418.936L519.354 377.183L509.67 370.727V318.623ZM509.67 371.99L519.354 378.481L527.073 383.639L472.724 468.619L449.602 447.602L449.321 447.357L449.04 447.111L448.514 446.62L429.743 429.568C436.479 411.744 440.304 410.831 464.338 397.323C486.373 384.972 499.706 369.569 501.986 366.797L508.548 371.183L509.67 371.99ZM485.32 494.478C482.022 490.934 471.145 479.847 464.479 479.847C464.268 479.847 464.093 479.847 463.917 479.882C462.373 480.057 461.145 480.864 460.338 482.268C459.005 484.584 458.865 486.724 459.917 488.584C462.303 492.829 470.584 494.794 477.18 495.706C470.514 496.268 462.023 497.741 459.321 501.425C458.409 502.688 458.198 504.127 458.689 505.706C459.531 508.267 461.005 509.811 463.11 510.267C463.566 510.372 464.058 510.407 464.549 510.407C471.601 510.407 482.022 500.618 485.32 497.32L484.303 586.932C484.303 587.107 484.373 587.283 484.548 587.388L508.618 604.826V605.984H449.602V449.111L485.46 481.707L485.32 494.478ZM484.548 495.285C479.812 495.04 464.058 493.741 460.865 488.057C459.988 486.548 460.128 484.829 461.286 482.829C461.917 481.707 462.83 481.11 464.022 480.97C464.198 480.97 464.338 480.935 464.514 480.935C470.654 480.935 481.355 491.882 484.548 495.285ZM484.548 496.478C481.18 499.811 469.671 510.618 463.286 509.179C461.566 508.793 460.409 507.53 459.707 505.355C459.321 504.127 459.461 503.074 460.163 502.092C463.777 497.18 479.812 496.548 484.548 496.478ZM509.67 605.949V605.633L510.091 605.949H509.67ZM285.852 605.984L300.202 583.388L302.132 605.984H285.852ZM238.73 498.057C239.537 497.39 240.485 497.039 241.572 497.039C242.309 497.039 243.081 497.18 243.958 497.496C245.186 497.917 245.923 498.689 246.274 499.846C247.993 505.566 239.222 518.372 236.274 522.477C236.134 521.53 235.923 520.197 235.643 518.688C235.046 512.092 234.766 501.425 238.73 498.057ZM234.976 522.688C231.011 519.565 219.292 509.776 219.889 503.39C220.064 501.636 221.152 500.338 223.222 499.32C223.783 499.039 224.345 498.934 224.871 498.934C225.432 498.934 225.994 499.074 226.52 499.39C230.766 501.741 233.327 512.267 234.52 518.828C234.695 520.372 234.836 521.705 234.976 522.688ZM247.362 499.496C246.906 497.987 245.888 496.969 244.344 496.443C241.818 495.566 239.678 495.847 238.029 497.215C234.941 499.846 234.169 506.127 234.169 511.951C232.66 506.197 230.345 500.232 227.046 498.373C225.678 497.601 224.24 497.601 222.731 498.303C220.31 499.46 218.977 501.109 218.766 503.25C218.064 510.653 231.538 521.425 234.871 523.986L215.854 534.547V324.132C216.31 323.746 216.696 323.325 217.082 322.904C218.45 323.149 219.748 323.29 220.976 323.29C223.608 323.29 225.959 322.728 228.064 321.571C232.52 319.15 234.415 314.939 234.906 313.571C235.608 313.676 236.309 313.711 237.011 313.711C239.958 313.711 242.976 312.869 245.923 311.15C250.8 308.343 255.186 303.22 257.923 297.15C260.73 290.905 261.677 284.028 260.554 277.817C261.642 276.87 262.695 275.888 263.747 274.905C265.01 275.852 266.449 276.484 267.537 276.905C265.607 277.712 262.624 279.572 262.835 283.291C263.01 286.414 265.466 290.098 282.975 291.185C288.624 291.536 294.097 291.712 299.43 291.712C311.921 291.712 323.43 290.799 334.026 289.256L289.957 402.516H252.414C252.134 402.516 251.888 402.761 251.888 403.042V500.408L244.906 518.337L237.572 522.407C241.046 517.706 249.151 505.495 247.362 499.496ZM240.309 292.343C240.379 292.484 240.485 292.554 240.625 292.624C240.765 292.659 240.906 292.659 241.046 292.589C245.362 290.098 247.993 288.063 251.327 285.326C254.204 283.256 257.011 281.045 259.712 278.73C261.572 290.659 255.361 304.659 245.502 310.343C241.993 312.378 238.415 313.115 234.941 312.588C234.415 312.518 233.923 312.413 233.397 312.273C230.941 311.641 228.555 310.308 226.345 308.378C223.959 306.308 221.819 303.992 219.889 301.536C218.661 299.992 217.538 298.378 216.52 296.729C216.31 296.413 216.134 296.098 215.924 295.782C215.433 294.975 214.977 294.168 214.556 293.326C214.38 293.01 214.205 292.659 214.029 292.343C211.854 288.028 210.345 283.712 209.643 279.887C209.503 279.116 209.398 278.379 209.328 277.677C209.047 274.975 209.222 272.589 209.854 270.73C210.801 268.028 212.661 266.59 215.398 266.449C215.538 266.449 215.678 266.449 215.819 266.449C218.45 266.449 221.082 267.677 223.573 269.572C223.748 269.712 223.924 269.853 224.099 269.958C224.275 270.063 224.45 270.239 224.625 270.379C228.696 273.782 232.38 278.835 235.151 283.221C238.274 288.063 240.239 292.203 240.309 292.343ZM233.888 313.43C233.327 314.834 231.538 318.553 227.608 320.693C224.871 322.167 221.608 322.623 217.889 321.992C217.503 321.921 217.117 321.851 216.696 321.781C216.415 321.711 216.17 321.676 215.889 321.571C215.713 321.535 215.538 321.5 215.363 321.43C215.187 321.395 215.012 321.325 214.836 321.29C214.801 321.29 214.766 321.255 214.731 321.255C208.836 319.465 203.854 313.465 199.889 306.343C198.942 304.659 198.065 302.904 197.258 301.15C197.117 300.834 196.942 300.518 196.802 300.168C196.767 300.062 196.731 299.992 196.661 299.887C196.135 298.729 195.644 297.536 195.153 296.378C192.03 288.694 189.925 281.256 188.977 277.466C188.697 276.379 188.591 275.291 188.626 274.238C188.626 273.747 188.697 273.256 188.767 272.765C189.258 269.432 191.153 266.59 193.854 265.642C194.521 265.397 195.188 265.291 195.854 265.291C200.1 265.291 204.591 269.782 208.205 277.817C208.205 277.852 208.24 277.888 208.275 277.923L208.345 277.993C208.696 281.256 209.714 284.94 211.292 288.799C211.819 290.098 212.415 291.361 213.047 292.589C213.222 292.94 213.398 293.326 213.608 293.677C214.029 294.448 214.45 295.22 214.906 295.957C215.082 296.273 217.678 300.238 218.871 301.817C220.941 304.483 223.222 306.939 225.678 309.115C228.204 311.395 231.011 312.834 233.888 313.43ZM223.573 268.133C220.906 266.274 218.134 265.151 215.327 265.291C212.17 265.432 209.924 267.151 208.872 270.274C208.38 271.712 208.135 273.396 208.135 275.256C205.994 271.081 203.644 268.028 201.117 266.169C197.889 263.818 195.153 264.028 193.468 264.625C190.591 265.642 188.521 268.414 187.819 271.782C187.328 271.291 186.802 270.87 186.311 270.519C183.083 268.168 180.346 268.379 178.662 268.975C174.171 270.554 171.715 276.414 173.153 282.063C174.136 285.852 175.679 291.326 177.82 297.15C163.013 296.659 148.978 293.185 136.242 287.361V128.558H225.397L225.257 140.172L223.573 268.133ZM181.609 303.711C181.048 302.448 180.521 301.15 179.995 299.887C179.644 298.975 179.293 298.062 178.942 297.185C176.557 290.799 174.943 285.01 174.136 281.782C172.837 276.765 175.083 271.326 178.978 269.958C179.644 269.712 180.311 269.607 180.978 269.607C183.153 269.607 185.434 270.8 187.609 273.081C187.433 274.589 187.539 276.168 187.96 277.712C189.153 282.308 191.153 289.326 194.03 296.484C194.486 297.606 194.942 298.729 195.468 299.887C195.539 300.062 195.609 300.238 195.714 300.413C195.854 300.729 195.995 301.08 196.17 301.396C196.977 303.15 197.819 304.869 198.731 306.518C202.872 314.062 208.1 320.378 214.415 322.272C214.556 322.307 214.696 322.342 214.836 322.378C215.012 322.448 215.187 322.483 215.363 322.518C215.538 322.553 215.713 322.623 215.889 322.658C215.889 322.658 215.889 322.658 215.924 322.658C215.924 322.658 215.924 322.658 215.889 322.693C215.713 322.869 215.573 323.009 215.398 323.185C215.398 323.185 215.398 323.22 215.363 323.22C215.187 323.36 215.012 323.535 214.836 323.676C211.047 326.798 206.029 327.465 199.889 325.606C193.188 323.606 187.679 316.097 183.504 307.711C183.013 306.694 182.521 305.676 182.065 304.659L181.609 303.711ZM259.993 479.812L253.011 497.776V403.638H289.606L287.22 409.744L259.993 479.812ZM259.993 482.864L274.238 446.234C292.308 458.198 307.676 458.514 331.044 458.198C351.78 457.918 362.306 467.216 364.587 469.531L360.481 493.601L253.572 499.355L259.993 482.864ZM375.323 413.322V605.984H342.377L375.323 413.322ZM385.147 355.92L385.253 356.903L389.463 394.34C389.463 394.481 389.533 394.586 389.639 394.691L448.514 448.164V605.984H385.253H376.376V407.147L385.147 355.92ZM465.742 342.447C465.777 342.588 465.847 342.693 465.987 342.763L493.109 360.903C491.32 364.657 482.478 378.762 471.706 386.341C460.373 394.305 443.707 401.288 434.9 410.937C427.778 418.726 427.357 425.287 427.427 427.497L390.586 394.025L385.849 351.991V351.956L382.341 310.167L381.218 310.273L384.726 351.956L376.411 400.551L375.358 406.691L366.13 460.654C357.745 449.813 349.815 450.865 341.429 450.199C332.903 449.497 309.816 452.62 300.588 452.62C292.238 452.655 277.747 445.743 274.975 444.374L288.448 409.708L290.834 403.603L291.255 402.551L335.324 289.115C336.973 288.87 338.622 288.589 340.236 288.308C359.113 285.01 374.797 279.747 387.393 274.098C389.077 273.361 390.691 272.589 392.235 271.853C395.638 270.204 398.761 268.554 401.638 266.905C412.655 260.66 422.655 253.292 430.901 245.292C432.164 244.099 433.357 242.871 434.515 241.643L437.848 242.099L465.742 342.447ZM452.444 210.1C452.233 211.012 451.988 211.889 451.707 212.766C449.532 219.749 444.76 228.345 437.006 237.362C436.514 237.924 435.988 238.52 435.462 239.082C434.76 239.853 434.023 240.66 433.251 241.467C432.409 242.345 431.532 243.257 430.62 244.134C422.971 251.643 413.252 259.151 401.182 265.993C397.568 268.028 393.568 270.133 389.147 272.168C387.498 272.94 385.779 273.712 384.025 274.449C372.165 279.502 357.745 284.168 340.692 287.186C339.079 287.466 337.429 287.747 335.78 287.993C335.359 288.063 334.938 288.133 334.517 288.168C319.325 290.413 302.202 291.361 283.08 290.168C266.203 289.15 264.063 285.747 263.923 283.291C263.677 278.94 268.624 277.642 269.326 277.466C270.273 277.572 278.484 278.519 286.975 278.519C291.22 278.519 295.571 278.273 299.08 277.572L298.869 276.554C288.308 278.659 270.273 276.519 269.361 276.414C269.115 276.344 266.554 275.677 264.554 274.203C263.01 273.081 261.782 271.502 262.063 269.397C262.765 264.555 267.747 264.028 269.782 264.028C270.273 264.028 270.589 264.063 270.659 264.063C270.87 264.063 271.993 264.169 273.747 264.274C276.905 264.484 281.992 264.765 286.975 264.765C291.606 264.765 296.167 264.519 299.08 263.818L298.834 262.8C293.29 264.204 280.87 263.677 274.589 263.291C272.414 263.151 270.975 263.046 270.765 263.011C270.519 262.976 265.993 262.204 263.923 259.537C263.817 259.432 263.747 259.292 263.642 259.186C262.835 257.923 262.66 256.449 263.151 254.765C263.677 252.906 266.168 252.204 269.958 251.958C272.133 251.818 274.694 251.783 277.606 251.783C279.256 251.783 281.01 251.783 282.905 251.748C285.115 251.713 287.466 251.608 289.922 251.467C291.22 251.397 292.553 251.257 293.922 251.116C298.413 250.625 303.15 249.818 307.921 248.415C308.658 248.204 309.781 247.888 311.149 247.502C319.219 245.257 338.096 239.994 356.061 232.064C356.797 231.748 357.534 231.398 358.271 231.082C377.884 222.135 390.551 212.486 396.059 202.311C396.48 201.504 396.866 200.697 397.217 199.89C398.165 197.679 398.586 195.434 398.445 193.083C398.375 191.399 397.989 189.714 397.358 187.96C397.182 187.434 396.937 186.872 396.691 186.346C396.27 185.399 395.744 184.416 395.147 183.434C395.077 183.329 395.007 183.223 394.937 183.118C395.463 181.153 397.358 176.171 403.077 173.259C410.34 169.575 418.199 171.925 428.76 171.469C437.672 171.083 444.444 166.908 446.514 165.47C447.672 168.206 448.935 171.434 450.058 175.048C452.935 184.136 455.567 197.398 452.444 210.1ZM296.238 222.38L321.886 225.959C319.605 229.082 316.132 233.433 311.641 237.713C307.079 242.134 300.869 246.976 293.606 250.064C290.097 250.415 286.729 250.59 283.571 250.66C286.694 245.538 289.466 240.204 291.817 234.626C293.536 230.591 294.974 226.52 296.238 222.38ZM356.306 230.731C356.096 230.836 355.85 230.941 355.639 231.047C353.359 232.064 351.043 233.012 348.762 233.959C333.114 240.275 317.886 244.485 310.904 246.45C309.5 246.836 308.413 247.152 307.641 247.362C304.027 248.415 300.483 249.151 297.08 249.643C303.185 246.555 308.413 242.345 312.448 238.485C317.184 233.924 320.833 229.292 323.114 226.135L356.306 230.731ZM323.781 112.629C327.956 110.945 331.956 109.401 335.886 108.032C355.464 101.155 371.674 98.2433 384.27 99.4362C393.288 100.278 403.603 106.278 414.129 116.804C419.743 122.418 425.252 129.12 430.374 136.663C434.55 142.733 438.514 149.365 442.163 156.417C441.532 157.329 440.76 158.136 439.813 158.873C439.286 159.259 438.655 159.645 437.848 160.136C437.742 160.207 437.637 160.277 437.532 160.312C431.988 163.224 422.866 164.592 410.34 165.61C407.568 165.855 405.252 166.382 403.322 167.154C402.761 167.364 402.235 167.575 401.743 167.855C401.147 168.171 400.586 168.487 400.094 168.838C394.902 172.206 393.428 177.329 393.007 179.925L375.428 150.242L374.516 150.768L392.902 181.82C392.902 181.82 392.902 181.82 392.902 181.855C392.902 181.855 392.902 181.855 392.902 181.89C394.059 183.504 394.972 185.083 395.709 186.592C395.954 187.153 396.2 187.679 396.41 188.206C397.884 192.135 397.814 195.784 396.27 199.398C395.884 200.276 395.463 201.188 394.937 202.065L330.623 193.118L311.465 169.224L310.658 169.89L329.114 192.907L301.22 189.048C301.22 188.697 301.22 188.346 301.22 187.995C301.22 171.82 298.062 156.172 291.817 141.4C291.606 140.909 291.396 140.418 291.185 139.961C295.29 132.698 304.658 120.383 323.781 112.629ZM72.3138 188.03C72.3138 127.821 121.295 78.8403 181.504 78.8403C241.713 78.8403 290.694 127.821 290.694 188.03C290.694 211.398 283.326 233.082 270.765 250.871C265.958 251.116 262.905 251.888 262.168 254.52C261.607 256.52 261.817 258.274 262.8 259.783C262.94 259.993 263.081 260.204 263.221 260.379C255.432 269.151 246.274 276.695 236.064 282.589C233.081 277.888 229.081 272.414 224.59 268.94L226.45 128.067C226.45 127.927 226.38 127.786 226.31 127.681C226.204 127.576 226.064 127.506 225.924 127.506H135.681C135.4 127.506 135.154 127.751 135.154 128.032V286.87C98.0675 269.397 72.3138 231.643 72.3138 188.03ZM147.189 302.729C158.276 306.027 169.75 307.711 181.504 307.711C181.749 307.711 181.995 307.711 182.241 307.711C186.591 316.588 192.346 324.448 199.538 326.588C201.889 327.29 204.1 327.641 206.135 327.641C208.766 327.641 211.117 327.079 213.222 325.921C213.784 325.641 214.275 325.29 214.766 324.939V535.073L155.855 567.739L147.154 572.546V302.729H147.189ZM136.207 580.02L146.136 574.511L147.189 573.914L155.891 569.108L214.801 536.442L215.327 536.161L215.854 535.88L234.801 525.39L223.187 548.827L224.169 549.319L235.959 525.565L239.888 557.143L241.011 557.003L236.941 524.197L245.678 519.355C245.783 519.284 245.888 519.179 245.923 519.074L251.923 503.601L252.344 502.513H358.938L341.254 606.019H316.167H315.114H303.255L301.185 581.704C301.15 581.458 300.974 581.283 300.764 581.213C300.518 581.142 300.273 581.248 300.167 581.458L284.589 606.019H253.011H251.958H215.854H214.801H147.189H146.136H136.207V580.02V580.02ZM27.3677 605.984V349.465H99.5061V605.984H27.3677ZM512.898 605.949L519.354 596.967L581.774 510.127V605.949H512.898ZM581.774 481.636L575.949 470.198L581.774 473.426V481.636ZM582.335 472.479L581.774 472.163L574.897 468.374C574.686 468.268 574.405 468.303 574.23 468.444C574.055 468.619 574.02 468.865 574.125 469.11L581.774 484.128L582.335 485.215L582.896 486.303L588.966 498.232L582.896 506.688L582.335 507.46L581.774 508.232L519.354 595.072L511.705 605.738L509.67 604.265L508.548 603.458L485.39 586.651L486.373 499.566L491.636 517.214L492.688 516.899L486.899 497.39L504.478 511.179L505.179 510.302L486.443 495.601L486.618 481.426C486.618 481.25 486.548 481.11 486.443 481.005L474.654 470.268L536.371 389.744L581.844 420.164L582.405 420.55L582.967 420.936L622.79 447.602L600.791 482.584L582.967 472.724L582.335 472.479Z" fill="#231F20"/>
<path d="M146.697 119.366L191.889 85.6472L188.731 116.98L230.204 119.366L185.608 148.979L197.819 184.873L163.469 158.452L152.802 201.363L140.592 168.698L105.856 193.574L118.066 156.838L90.4531 146.979L126.768 132.383L122.031 100.664L146.697 119.366Z" fill="#00E4AF"/>
</svg>
