<svg width="692" height="484" viewBox="0 0 692 484" fill="none" xmlns="http://www.w3.org/2000/svg">
<path d="M280.402 422.504H437.494" stroke="#83E6C5" strokeWidth="0.829714" stroke-miterlimit="10" strokeLinecap="round"/>
<path d="M358.893 283.541V345.078C358.893 364.023 368.711 381.613 384.835 391.556L407.528 405.551" stroke="#83E6C5" strokeWidth="0.829714" stroke-miterlimit="10" strokeLinecap="round" stroke-linejoin="round"/>
<path d="M346.599 283.541V345.078C346.599 364.023 336.781 381.613 320.657 391.556L297.964 405.551" stroke="#83E6C5" strokeWidth="0.829714" stroke-miterlimit="10" strokeLinecap="round" stroke-linejoin="round"/>
<path d="M338.344 283.541H366.015C368.462 283.541 370.44 281.563 370.44 279.116V272.132H333.918V279.116C333.918 281.563 335.896 283.541 338.344 283.541Z" fill="white" stroke="#83E6C5" strokeWidth="0.829714" stroke-miterlimit="10"/>
<path d="M408.551 422.504C402.937 422.504 398.387 417.955 398.387 412.34C398.387 406.726 402.937 402.176 408.551 402.176C414.166 402.176 418.715 406.726 418.715 412.34C418.715 417.955 414.166 422.504 408.551 422.504Z" fill="white" stroke="#83E6C5" strokeWidth="0.829714" stroke-miterlimit="10"/>
<path d="M297.743 422.504C292.129 422.504 287.579 417.955 287.579 412.34C287.579 406.726 292.129 402.176 297.743 402.176C303.358 402.176 307.907 406.726 307.907 412.34C307.907 417.955 303.358 422.504 297.743 422.504Z" fill="white" stroke="#83E6C5" strokeWidth="0.829714" stroke-miterlimit="10"/>
<path d="M297.743 420.361C293.318 420.361 289.723 416.766 289.723 412.34C289.723 407.915 293.318 404.32 297.743 404.32C302.168 404.32 305.764 407.915 305.764 412.34C305.764 416.766 302.168 420.361 297.743 420.361Z" fill="white" stroke="#83E6C5" strokeWidth="0.829714" stroke-miterlimit="10"/>
<path d="M408.51 420.361C404.085 420.361 400.489 416.766 400.489 412.34C400.489 407.915 404.085 404.32 408.51 404.32C412.935 404.32 416.53 407.915 416.53 412.34C416.53 416.766 412.935 420.361 408.51 420.361Z" fill="white" stroke="#83E6C5" strokeWidth="0.829714" stroke-miterlimit="10"/>
<path d="M337.805 374.809C337.805 374.809 350.969 365.157 367.716 374.809" stroke="#83E6C5" strokeWidth="0.829714" stroke-miterlimit="10" strokeLinecap="round" stroke-linejoin="round"/>
<path d="M417.052 279.581L417.052 279.581L417.05 279.589L384.866 396.533H346.128L358.822 266.65C358.823 266.648 358.823 266.646 358.823 266.644C360.869 252.083 373.236 241.269 387.822 241.31H387.822H390.588C410.271 241.351 422.941 260.611 417.052 279.581Z" fill="#011911" stroke="#011911" strokeWidth="0.5"/>
<path d="M353.312 399.922L353.577 396.852H374.08L370.891 407.288C366.807 403.254 361.143 400.35 354.956 399.978C354.399 399.938 353.855 399.924 353.312 399.922Z" fill="#77DBC5" stroke="#23E0A2" strokeWidth="0.138286"/>
<path d="M377.216 422.421C378.294 412.41 367.729 400.821 354.938 400.033C342.146 399.245 334.25 407.694 333.628 417.734C333.531 419.255 333.393 421.108 333.725 422.463L377.216 422.421Z" fill="white" stroke="#23E0A2" strokeWidth="0.829714" stroke-miterlimit="10"/>
<path d="M334.001 418.785L377.216 419.296" stroke="#23E0A2" strokeWidth="0.829714" stroke-miterlimit="10"/>
<path d="M369.721 396.783L402.425 376.87L329.3 254.363C320.048 239.69 296.567 235.155 281.757 244.171C264.679 254.57 261.332 277.954 274.801 292.723L369.721 396.783Z" fill="#011911"/>
<path d="M329.088 254.496L402.083 376.785L369.766 396.462L274.986 292.555C261.623 277.902 264.943 254.702 281.887 244.384C289.228 239.915 298.734 238.798 307.562 240.628C316.389 242.459 324.505 247.229 329.087 254.493C329.087 254.494 329.088 254.495 329.088 254.496Z" stroke="#011911" stroke-opacity="0.4" strokeWidth="0.5"/>
<path d="M369.859 396.23L402.702 376.593L329.438 254.363C320.187 239.69 296.706 235.155 281.895 244.171C264.817 254.57 261.47 277.954 274.939 292.723L369.859 396.23Z" stroke="#23E0A2" strokeWidth="0.829714" stroke-miterlimit="10"/>
<path d="M382.949 381.548L382.949 381.548C387.467 378.826 391.849 376.855 395.28 375.865C396.996 375.369 398.47 375.121 399.603 375.144C400.74 375.168 401.511 375.465 401.854 376.034C402.195 376.607 402.094 377.429 401.581 378.446C401.07 379.458 400.158 380.644 398.917 381.928C396.435 384.495 392.644 387.44 388.133 390.155C383.614 392.871 379.239 394.887 375.815 395.924C374.102 396.442 372.631 396.714 371.501 396.709C370.366 396.703 369.598 396.417 369.255 395.849C368.911 395.279 369.007 394.448 369.516 393.415C370.024 392.386 370.931 391.177 372.169 389.87C374.644 387.257 378.431 384.263 382.949 381.548Z" fill="#011911" fill-opacity="0.6" stroke="#23E0A2" strokeWidth="0.138286"/>
<path d="M379.079 394.801L379.079 394.801L373.646 388.709C375.988 386.322 379.188 383.799 382.962 381.548L382.963 381.548C386.009 379.723 389.013 378.266 391.732 377.273L395.976 384.731L395.976 384.731L396.917 386.376L396.917 386.377L399.83 391.546L384.668 401.077L380.393 396.281L380.393 396.281L379.079 394.801Z" fill="#77DBC5" stroke="#23E0A2" strokeWidth="0.138286"/>
<path d="M424.012 401.983L385.983 422.49C385.029 421.467 384.213 420.264 383.563 418.895C383.01 417.747 382.581 416.544 382.249 415.327C380.009 406.92 383.176 397.281 393.285 392.469C402.204 388.223 413.308 390.657 419.725 396.244C421.619 397.917 423.113 399.867 424.012 401.983Z" fill="white" stroke="#23E0A2" strokeWidth="0.829714" stroke-miterlimit="10"/>
<path d="M421.979 398.871L383.937 419.379" stroke="#23E0A2" strokeWidth="0.829714" stroke-miterlimit="10" strokeLinecap="round"/>
<path d="M388.105 390.155L388.105 390.155C384.916 392.08 381.783 393.648 379.018 394.765L373.343 388.708C375.687 386.322 379.159 383.8 382.935 381.548L382.935 381.548C385.983 379.722 388.987 378.13 391.704 377.135L395.921 384.667C393.747 386.479 391.083 388.371 388.105 390.155Z" fill="#011911" fill-opacity="0.6" stroke="#23E0A2" strokeWidth="0.138286"/>
<path d="M401.07 373.869C399.618 371.463 390.436 373.856 381.24 379.387C372.044 384.918 366.208 391.404 367.66 393.81" stroke="#23E0A2" strokeWidth="0.829714" stroke-miterlimit="10"/>
<path d="M528.376 272.133C531.985 272.133 534.916 269.201 534.916 265.592V240.562C534.916 236.953 531.985 234.021 528.376 234.021H164.629C161.02 234.021 158.088 236.953 158.088 240.562V265.592C158.088 269.201 161.02 272.133 164.629 272.133H528.376Z" fill="#011911" fill-opacity="0.6"/>
<path d="M528.265 228.351H164.725C161.116 228.351 158.185 231.283 158.185 234.892V259.922C158.185 263.531 161.116 266.463 164.725 266.463H528.265C531.874 266.463 534.806 263.531 534.806 259.922V234.892C534.806 231.283 531.874 228.351 528.265 228.351Z" fill="white" stroke="#83E6C5" strokeWidth="0.829714" stroke-miterlimit="10"/>
<path d="M509.333 266.49V422.559" stroke="#83E6C5" strokeWidth="0.829714" stroke-miterlimit="10" strokeLinecap="round"/>
<path d="M191.982 266.49V422.559" stroke="#83E6C5" strokeWidth="0.829714" stroke-miterlimit="10" strokeLinecap="round"/>
<path d="M180.034 383.715L179.453 384.089L158.351 351.578L152.004 352.062C150.648 352.172 149.57 350.941 149.846 349.6C150.137 348.273 151.616 347.581 152.82 348.245L158.033 351.107L154.202 345.189L147.855 345.687C146.5 345.797 145.421 344.553 145.712 343.225C146.002 341.898 147.482 341.206 148.685 341.87L153.898 344.719L150.068 338.8L143.72 339.298C142.365 339.408 141.286 338.164 141.577 336.836C141.867 335.509 143.347 334.817 144.55 335.481L149.763 338.344L147.454 334.79L143.167 331.125C142.13 330.24 142.241 328.608 143.375 327.862C144.522 327.115 146.057 327.682 146.445 328.996L148.035 334.402L150.413 338.067L149.916 331.982C149.805 330.627 151.036 329.549 152.363 329.825C153.691 330.102 154.382 331.595 153.732 332.785L150.662 338.454L154.548 344.442L154.05 338.371C153.94 337.016 155.17 335.937 156.498 336.214C157.825 336.491 158.517 337.984 157.867 339.173L154.797 344.843L158.683 350.831L158.185 344.76C158.074 343.405 159.305 342.312 160.633 342.603C161.96 342.879 162.652 344.373 162.002 345.562L158.932 351.232L180.034 383.715Z" fill="#011911" fill-opacity="0.6"/>
<path d="M215.491 372.224C205.354 392.648 191.664 406.85 183.574 405.868C182.911 405.785 182.288 405.606 181.708 405.315C174.019 401.499 176.674 380.493 187.654 358.395C192.356 348.922 197.818 340.805 203.128 334.9C210.222 327.032 217.04 323.118 221.437 325.303C229.126 329.12 226.457 350.125 215.491 372.224Z" fill="#011911" fill-opacity="0.6"/>
<path d="M202.796 356.086C200.542 381.973 192.259 402.854 183.588 405.869C182.924 405.786 182.302 405.606 181.721 405.315C174.033 401.499 176.688 380.493 187.668 358.395C192.369 348.923 197.832 340.805 203.142 334.9C203.529 341.414 203.446 348.591 202.796 356.086Z" fill="#83E6C5"/>
<path d="M221.437 325.303L183.588 405.868" stroke="#83E6C5" strokeWidth="0.829714" stroke-miterlimit="10"/>
<path d="M220.718 385.043L215.366 386.841L211.799 389.344L217.855 388.624C219.211 388.459 220.331 389.648 220.11 390.989C219.874 392.331 218.422 393.077 217.192 392.469L211.411 389.606L205.562 393.713L211.619 392.994C212.974 392.828 214.094 394.018 213.873 395.359C213.638 396.7 212.186 397.447 210.955 396.839L205.175 393.976L199.339 398.083L205.396 397.364C206.751 397.198 207.871 398.387 207.636 399.729C207.401 401.07 205.949 401.817 204.718 401.208L198.938 398.346L188.249 405.855H187.045L198.565 397.765L197.846 391.445C197.693 390.09 198.883 388.97 200.224 389.205C201.565 389.44 202.298 390.906 201.69 392.123L199.021 397.447L204.787 393.395L204.068 387.076C203.916 385.72 205.106 384.6 206.447 384.835C207.788 385.071 208.521 386.536 207.913 387.753L205.258 393.063L211.024 389.012L210.305 382.692C210.153 381.337 211.342 380.217 212.684 380.452C214.025 380.687 214.758 382.153 214.149 383.37L211.481 388.694L214.951 386.26L218.45 381.835C219.294 380.77 220.939 380.811 221.714 381.931C222.53 383.052 222.018 384.614 220.718 385.043Z" fill="#83E6C5"/>
<path d="M177.337 404.79C176.646 405.025 175.913 405.191 175.166 405.288C166.454 406.422 154.424 398.29 147.15 385.942C139.254 372.528 139.973 359.225 148.754 356.21C151.603 355.228 154.963 355.463 158.448 356.68C165.721 359.211 173.604 365.987 178.942 375.045C186.824 388.472 186.105 401.775 177.337 404.79Z" fill="white" stroke="#83E6C5" strokeWidth="0.829714" stroke-miterlimit="10"/>
<path d="M177.338 404.79C176.646 405.025 175.914 405.191 175.167 405.288C167.119 401.637 160.121 386.177 158.642 367.397C158.351 363.691 158.296 360.096 158.448 356.68C165.722 359.211 173.604 365.987 178.942 375.045C186.824 388.472 186.105 401.775 177.338 404.79Z" fill="#83E6C5"/>
<path d="M145.421 358.16L175.153 405.288" stroke="#83E6C5" strokeWidth="0.829714" stroke-miterlimit="10"/>
<path d="M180.878 406.421C190.501 406.421 198.302 383.21 198.302 354.578C198.302 325.946 190.501 302.735 180.878 302.735C171.255 302.735 163.454 325.946 163.454 354.578C163.454 383.21 171.255 406.421 180.878 406.421Z" fill="white" stroke="#83E6C5" strokeWidth="0.829714" stroke-miterlimit="10"/>
<path d="M180.878 302.721V406.422" stroke="#83E6C5" strokeWidth="0.829714" stroke-miterlimit="10"/>
<path d="M191.982 315.153L180.878 330.033L171.46 311.392" stroke="#83E6C5" strokeWidth="0.829714" stroke-miterlimit="10" strokeLinecap="round"/>
<path d="M195.591 327.765L180.767 348.148L167.437 322.358" stroke="#83E6C5" strokeWidth="0.829714" stroke-miterlimit="10" strokeLinecap="round"/>
<path d="M197.901 342.313L180.629 366.125L164.851 335.703" stroke="#83E6C5" strokeWidth="0.829714" stroke-miterlimit="10" strokeLinecap="round"/>
<path d="M198.979 361.728L180.712 387.283L163.495 354.62" stroke="#83E6C5" strokeWidth="0.829714" stroke-miterlimit="10" strokeLinecap="round"/>
<path d="M206.71 422.56H155.005C151.022 422.56 147.786 419.324 147.786 415.341V413.087C147.786 409.105 151.022 405.869 155.005 405.869H206.71C210.692 405.869 213.928 409.105 213.928 413.087V415.341C213.928 419.338 210.692 422.56 206.71 422.56Z" fill="white" stroke="#83E6C5" strokeWidth="0.829714" stroke-miterlimit="10"/>
<path d="M511.104 242.885C511.104 244.946 509.458 246.619 507.44 246.619H451.116C449.083 246.619 447.451 244.946 447.451 242.885C447.451 240.825 449.097 239.151 451.116 239.151H507.44C509.458 239.151 511.104 240.825 511.104 242.885Z" fill="#011911" fill-opacity="0.8"/>
<path d="M487.333 203.999H464.28V220.04H508.808C505.987 210.526 497.248 203.999 487.333 203.999Z" fill="white" stroke="#83E6C5" strokeWidth="0.829714" stroke-miterlimit="10"/>
<path d="M468.429 203.999V220.04L458.887 220.054V203.999H468.429Z" fill="#83E6C5" stroke="#83E6C5" strokeWidth="0.829714" stroke-miterlimit="10"/>
<path d="M544.113 219.722L508.809 220.04C508.809 220.04 517.645 208.065 541.9 211.231C541.9 211.231 522.928 207.276 503.678 211.231" stroke="#83E6C5" strokeWidth="0.829714" stroke-miterlimit="10"/>
<path d="M508.809 220.04C508.809 220.04 524.283 211.536 543.145 215.656" stroke="#83E6C5" strokeWidth="0.829714" stroke-miterlimit="10"/>
<path d="M512.749 233.164C512.749 234.671 512.985 236.04 513.358 237.049H496.418C495.547 237.049 494.828 236.289 494.828 235.362V230.979C494.828 230.038 495.533 229.292 496.418 229.292H513.358C512.985 230.287 512.749 231.656 512.749 233.164Z" fill="#83E6C5"/>
<path d="M494.842 230.979V235.362C494.842 236.303 495.602 237.049 496.529 237.049H514.727V237.367C514.727 238.142 514.105 238.764 513.33 238.764H449.677C448.903 238.764 448.281 238.142 448.281 237.367V228.96C448.281 228.185 448.903 227.563 449.677 227.563H513.33C514.105 227.563 514.727 228.185 514.727 228.96V229.278H496.529C495.602 229.292 494.842 230.038 494.842 230.979Z" fill="white"/>
<path d="M494.842 230.979V235.362C494.842 236.303 495.602 237.049 496.529 237.049H514.727V237.367C514.727 238.142 514.105 238.764 513.33 238.764H449.677C448.903 238.764 448.281 238.142 448.281 237.367V228.96C448.281 228.185 448.903 227.563 449.677 227.563H513.33C514.105 227.563 514.727 228.185 514.727 228.96V229.278H496.529C495.602 229.292 494.842 230.038 494.842 230.979Z" stroke="#83E6C5" strokeWidth="0.829714" stroke-miterlimit="10"/>
<path d="M471.126 249.62C470.462 250.242 470.047 251.376 470.047 252.33C470.047 254.225 471.706 256.174 473.753 256.174H524.753C524.753 257.059 524.034 257.792 523.135 257.792H461.584C459.938 257.792 458.445 257.17 457.366 256.174C456.287 255.179 455.61 253.796 455.61 252.261C455.61 249.205 458.279 246.729 461.584 246.729H523.135C524.02 246.729 524.753 247.449 524.753 248.347V248.638H473.753C472.716 248.624 471.789 249.011 471.126 249.62Z" fill="#83E6C5"/>
<path d="M521.061 248.624V256.036H524.739V256.658H473.573C473.006 256.658 472.453 256.548 471.955 256.34C471.416 256.119 470.918 255.801 470.517 255.386C469.729 254.598 469.245 253.519 469.245 252.33C469.245 249.937 471.181 248.001 473.573 248.001H524.739V248.624H521.061Z" fill="#011911" fill-opacity="0.8"/>
<path d="M522.485 248.624V256.036H473.753C471.706 256.036 470.047 254.377 470.047 252.33C470.047 251.307 470.462 250.38 471.125 249.703C471.789 249.039 472.716 248.624 473.739 248.624H522.485Z" fill="white"/>
<path d="M522.485 248.624V256.036" stroke="#011911" stroke-opacity="0.8" strokeWidth="0.691429" stroke-miterlimit="10"/>
<path d="M480.543 253.879V260.06H476.27V254.667C476.27 253.381 475.233 252.33 473.933 252.33H472.024V251.542H478.206C479.506 251.542 480.543 252.592 480.543 253.879Z" fill="#011911" fill-opacity="0.8"/>
<path d="M524.947 220.386H452.291C450.411 220.386 448.89 221.907 448.89 223.788C448.903 225.655 450.411 227.176 452.291 227.176H524.947C526.827 227.176 528.349 225.655 528.349 223.774C528.335 221.907 526.814 220.386 524.947 220.386Z" fill="#00CC89"/>
<path d="M508.463 227.19H507.73C507.813 227.411 508.02 227.964 508.477 227.964C508.753 227.964 510.108 227.757 510.108 223.788C510.108 222.377 509.943 221.299 509.611 220.566C509.21 219.694 508.684 219.598 508.491 219.598C508.02 219.598 507.813 220.165 507.73 220.386H508.463C508.491 220.331 508.518 220.303 508.532 220.289C508.781 220.358 509.445 221.05 509.445 223.788C509.445 226.526 508.781 227.203 508.532 227.286C508.504 227.259 508.477 227.231 508.463 227.19Z" fill="#011911" fill-opacity="0.6"/>
<path d="M514.464 227.19H513.731C513.814 227.411 514.022 227.964 514.478 227.964C514.755 227.964 516.11 227.757 516.11 223.788C516.11 222.377 515.944 221.299 515.612 220.566C515.211 219.694 514.686 219.598 514.492 219.598C514.022 219.598 513.814 220.165 513.731 220.386H514.464C514.492 220.331 514.52 220.303 514.534 220.289C514.782 220.358 515.446 221.05 515.446 223.788C515.446 226.526 514.782 227.203 514.534 227.286C514.52 227.259 514.492 227.231 514.464 227.19Z" fill="#011911" fill-opacity="0.6"/>
<path d="M520.48 227.19H519.747C519.83 227.411 520.038 227.964 520.494 227.964C520.881 227.964 522.126 227.66 522.126 223.788C522.126 219.902 520.881 219.612 520.494 219.612C520.024 219.612 519.816 220.179 519.733 220.4H520.466C520.494 220.345 520.522 220.317 520.535 220.303C520.812 220.372 521.448 221.091 521.448 223.802C521.448 225.461 521.213 226.319 521.006 226.761C520.84 227.121 520.66 227.273 520.535 227.3C520.522 227.259 520.508 227.231 520.48 227.19Z" fill="#011911" fill-opacity="0.6"/>
<path d="M490.417 227.19H489.684C489.767 227.411 489.974 227.964 490.43 227.964C490.707 227.964 492.062 227.757 492.062 223.788C492.062 219.902 490.818 219.612 490.43 219.612C489.96 219.612 489.753 220.179 489.67 220.4H490.403C490.431 220.345 490.458 220.317 490.472 220.303C490.749 220.372 491.385 221.091 491.385 223.802C491.385 226.54 490.721 227.218 490.472 227.3C490.472 227.259 490.444 227.231 490.417 227.19Z" fill="#011911" fill-opacity="0.6"/>
<path d="M496.432 227.19H495.699C495.782 227.411 495.99 227.964 496.446 227.964C496.709 227.964 497.193 227.854 497.566 227.079C497.898 226.374 498.078 225.268 498.078 223.788C498.078 222.308 497.912 221.202 497.566 220.497C497.193 219.722 496.709 219.612 496.446 219.612C495.976 219.612 495.769 220.179 495.686 220.4H496.418C496.446 220.345 496.474 220.317 496.488 220.303C496.654 220.331 496.819 220.511 496.958 220.801C497.151 221.216 497.4 222.073 497.4 223.802C497.4 225.517 497.165 226.374 496.958 226.803C496.819 227.093 496.64 227.273 496.488 227.3C496.474 227.259 496.46 227.231 496.432 227.19Z" fill="#011911" fill-opacity="0.6"/>
<path d="M502.447 227.19H501.715C501.797 227.411 502.005 227.964 502.461 227.964C502.848 227.964 504.093 227.66 504.093 223.788C504.093 219.805 502.738 219.612 502.461 219.612C501.991 219.612 501.784 220.179 501.701 220.4H502.434C502.461 220.345 502.489 220.317 502.503 220.303C502.752 220.372 503.415 221.064 503.415 223.802C503.415 226.512 502.779 227.231 502.503 227.3C502.489 227.259 502.475 227.231 502.447 227.19Z" fill="#011911" fill-opacity="0.6"/>
<path d="M472.384 227.19H471.651C471.734 227.411 471.942 227.964 472.398 227.964C472.605 227.964 473.131 227.867 473.518 226.996C473.85 226.277 474.016 225.185 474.016 223.774C474.016 222.474 473.836 221.382 473.518 220.635C473.228 219.971 472.813 219.584 472.384 219.584C471.914 219.584 471.707 220.151 471.624 220.372H472.356C472.384 220.331 472.398 220.289 472.412 220.275C472.495 220.317 472.688 220.469 472.882 220.912C473.089 221.368 473.324 222.239 473.324 223.76C473.324 226.498 472.661 227.176 472.412 227.259C472.426 227.259 472.412 227.231 472.384 227.19Z" fill="#011911" fill-opacity="0.6"/>
<path d="M478.4 227.19H477.667C477.75 227.411 477.957 227.964 478.414 227.964C478.621 227.964 479.146 227.867 479.534 226.996C479.866 226.277 480.032 225.184 480.032 223.774C480.032 219.888 478.787 219.598 478.4 219.598C477.93 219.598 477.722 220.165 477.639 220.386H478.372C478.4 220.331 478.427 220.303 478.441 220.289C478.718 220.358 479.354 221.077 479.354 223.788C479.354 226.526 478.69 227.203 478.441 227.286C478.441 227.259 478.427 227.231 478.4 227.19Z" fill="#011911" fill-opacity="0.6"/>
<path d="M484.415 227.19H483.682C483.765 227.411 483.973 227.964 484.429 227.964C484.816 227.964 486.061 227.66 486.061 223.788C486.061 222.308 485.895 221.202 485.549 220.497C485.176 219.722 484.692 219.612 484.429 219.612C483.959 219.612 483.751 220.179 483.668 220.4H484.401C484.429 220.345 484.457 220.317 484.47 220.303C484.636 220.331 484.802 220.511 484.941 220.801C485.134 221.216 485.383 222.073 485.383 223.802C485.383 226.512 484.747 227.231 484.47 227.3C484.457 227.259 484.429 227.231 484.415 227.19Z" fill="#011911" fill-opacity="0.6"/>
<path d="M454.352 227.19H453.619C453.702 227.411 453.909 227.964 454.366 227.964C454.794 227.964 455.195 227.577 455.499 226.913C455.831 226.166 455.997 225.088 455.997 223.774C455.997 222.239 455.721 221.271 455.499 220.732C455.195 220.013 454.78 219.598 454.366 219.598C453.895 219.598 453.688 220.165 453.605 220.386H454.338C454.366 220.344 454.379 220.317 454.393 220.289C454.49 220.344 454.697 220.538 454.891 221.063C455.085 221.547 455.306 222.405 455.306 223.774C455.306 225.309 455.071 226.166 454.863 226.636C454.67 227.079 454.476 227.231 454.393 227.273C454.393 227.259 454.366 227.231 454.352 227.19Z" fill="#011911" fill-opacity="0.6"/>
<path d="M460.353 227.19H459.62C459.703 227.411 459.911 227.964 460.367 227.964C460.796 227.964 461.197 227.577 461.501 226.913C461.833 226.166 461.999 225.088 461.999 223.774C461.999 221.063 461.155 219.598 460.367 219.598C459.897 219.598 459.689 220.165 459.606 220.386H460.339C460.367 220.344 460.381 220.317 460.395 220.289C460.491 220.344 460.685 220.538 460.892 221.036C461.086 221.506 461.307 222.377 461.307 223.774C461.307 225.309 461.072 226.166 460.865 226.636C460.671 227.079 460.478 227.231 460.395 227.273C460.395 227.259 460.381 227.231 460.353 227.19Z" fill="#011911" fill-opacity="0.6"/>
<path d="M466.369 227.19H465.636C465.719 227.411 465.926 227.964 466.383 227.964C466.59 227.964 467.102 227.867 467.517 226.941C467.848 226.194 468.014 225.129 468.014 223.788C468.014 222.488 467.835 221.395 467.517 220.649C467.226 219.985 466.811 219.598 466.383 219.598C465.912 219.598 465.705 220.165 465.622 220.386H466.355C466.383 220.344 466.396 220.303 466.41 220.289C466.493 220.331 466.687 220.483 466.88 220.925C467.088 221.382 467.323 222.253 467.323 223.774C467.323 225.337 467.088 226.194 466.88 226.65C466.687 227.079 466.493 227.231 466.41 227.259C466.41 227.259 466.396 227.231 466.369 227.19Z" fill="#011911" fill-opacity="0.6"/>
<path d="M499.281 123.185H450.798C447.991 123.185 445.723 120.917 445.723 118.11V69.6268C445.723 66.8196 447.991 64.5518 450.798 64.5518H499.281C502.088 64.5518 504.356 66.8196 504.356 69.6268V118.11C504.356 120.917 502.074 123.185 499.281 123.185Z" fill="#83E6C5"/>
<path d="M495.74 119.935H446.303C443.496 119.935 441.228 117.667 441.228 114.86V65.4227C441.228 62.6155 443.496 60.3477 446.303 60.3477H495.74C498.547 60.3477 500.815 62.6155 500.815 65.4227V114.86C500.815 117.667 498.547 119.935 495.74 119.935Z" fill="white" stroke="#83E6C5" strokeWidth="0.829714" stroke-miterlimit="10"/>
<path d="M471.029 112.952C483.63 112.952 493.846 102.736 493.846 90.1345C493.846 77.533 483.63 67.3174 471.029 67.3174C458.427 67.3174 448.211 77.533 448.211 90.1345C448.211 102.736 458.427 112.952 471.029 112.952Z" stroke="#83E6C5" strokeWidth="0.829714" stroke-miterlimit="10"/>
<path d="M458.196 80.3442L471.029 90.1349L467.876 80.4687" stroke="#83E6C5" strokeWidth="0.829714" stroke-miterlimit="10" strokeLinecap="round"/>
<path d="M430.4 266.463H391.307L374.893 246.743H413.046L430.4 266.463Z" fill="#83E6C5"/>
<path d="M451.572 267.486V279.655L420.596 279.78C416.627 279.794 413.405 276.585 413.405 272.617V268.841C413.405 266.325 412.479 263.905 410.819 262.038L400.6 250.56H438.753L448.516 260.199C450.48 262.121 451.572 264.734 451.572 267.486Z" fill="white" stroke="#83E6C5" strokeWidth="0.829714" stroke-miterlimit="10"/>
<path d="M465.511 275.368C464.198 277.996 461.487 279.793 458.348 279.793H420.181C423.306 279.793 426.017 277.996 427.344 275.368H465.511Z" fill="white" stroke="#83E6C5" strokeWidth="0.829714" stroke-miterlimit="10"/>
<path d="M441.85 199.574L418.563 158.669C413.004 148.892 402.619 142.863 391.376 142.863H304.159L307.215 136.267C306.966 136.806 305.653 136.944 303.648 136.668C300.578 136.253 295.904 134.911 290.925 132.699C288.077 131.44 285.491 130.127 283.347 128.91C279.295 126.6 276.848 124.581 277.249 123.683L232.721 196.711C222.944 210.969 233.149 230.342 250.435 230.342C252.758 230.342 255.054 229.969 257.239 229.236C259.424 228.503 261.484 227.425 263.337 226.028L297.535 200.321C299.596 198.772 302.541 199.975 302.956 202.505L307.423 230.342H423.942C439.748 230.356 449.663 213.292 441.85 199.574ZM390.021 202.768L393.754 194.277C394.391 192.825 396.437 192.798 397.101 194.236L401.153 202.782H390.021V202.768Z" fill="#23E0A2"/>
<path d="M418.346 158.793L418.346 158.792C412.831 149.094 402.529 143.113 391.376 143.113H304.159H303.768L303.932 142.758L306.633 136.929C306.477 136.971 306.304 137.001 306.117 137.022C305.478 137.092 304.626 137.055 303.614 136.915M418.346 158.793L303.648 136.668M418.346 158.793L441.633 199.697L418.346 158.793ZM303.614 136.915C303.614 136.915 303.614 136.915 303.613 136.915L303.648 136.668M303.614 136.915C303.614 136.915 303.614 136.915 303.614 136.915L303.648 136.668M303.614 136.915C300.514 136.497 295.817 135.147 290.824 132.928M303.648 136.668C300.578 136.253 295.904 134.911 290.925 132.699M290.824 132.928L290.925 132.699M290.824 132.928C290.824 132.927 290.824 132.927 290.824 132.927L290.925 132.699M290.824 132.928L290.925 132.699M304.159 142.863L304.275 142.613H304.159V142.863ZM304.159 142.863L304.386 142.968L304.435 142.863H304.159ZM389.771 202.716L389.792 202.668L393.525 194.177L393.526 194.177L393.754 194.277C394.391 192.825 396.437 192.798 397.101 194.236L389.771 202.716ZM389.771 202.716V202.768V202.782V203.032H390.021H401.153H401.548L401.379 202.675L397.328 194.131C397.328 194.131 397.328 194.131 397.328 194.131L389.771 202.716ZM277.254 124.154C277.192 123.974 277.189 123.816 277.249 123.683L276.984 124.118C277.007 124.217 277.045 124.317 277.094 124.417L277.254 124.154ZM307.423 230.342L307.67 230.303L307.636 230.092H307.423V230.342Z" stroke="#011911" stroke-opacity="0.8" strokeWidth="0.5"/>
<path d="M318.043 142.836C318.043 135.686 332.798 126.85 350.692 124.596C377.533 121.235 383.342 135.686 383.342 142.836" stroke="white" strokeWidth="0.829714" stroke-miterlimit="10"/>
<path d="M351.392 127.236L351.384 127.168L351.392 127.236C363.031 125.813 370.225 128.156 374.508 131.643C378.792 135.13 380.175 139.769 380.175 142.96C380.175 143.735 379.726 144.625 378.921 145.592C378.118 146.558 376.968 147.592 375.584 148.655C372.818 150.781 369.128 153.018 365.435 155.056C361.742 157.094 358.05 158.932 355.28 160.261C353.895 160.925 352.741 161.462 351.933 161.833C351.529 162.019 351.212 162.163 350.996 162.26C350.953 162.279 350.914 162.297 350.879 162.312C350.826 162.336 350.783 162.356 350.749 162.371L350.692 162.396L350.636 162.371C350.58 162.346 350.497 162.309 350.389 162.26C350.173 162.163 349.855 162.019 349.451 161.833C348.644 161.462 347.49 160.925 346.105 160.261C343.335 158.932 339.642 157.094 335.95 155.056C332.257 153.018 328.567 150.781 325.8 148.655C324.417 147.592 323.267 146.558 322.464 145.592C321.658 144.625 321.21 143.735 321.21 142.96C321.21 141.385 322.074 139.737 323.639 138.117C325.202 136.498 327.457 134.914 330.222 133.465C335.75 130.569 343.303 128.224 351.392 127.236Z" fill="#011911" fill-opacity="0.8" stroke="white" strokeWidth="0.138286"/>
<path d="M321.21 142.946V142.946H380.175V142.946V142.946V142.947V142.947V142.947V142.947V142.947V142.948V142.948V142.948V142.948V142.949V142.949V142.949V142.949V142.95V142.95V142.95V142.95V142.95V142.951V142.951V142.951V142.951V142.952V142.952V142.952V142.952V142.953V142.953V142.953V142.953V142.953V142.954V142.954V142.954V142.954V142.955V142.955V142.955V142.955V142.956V142.956V142.956V142.956V142.957V142.957V142.957V142.957V142.958V142.958V142.958V142.958V142.958V142.959V142.959V142.959V142.959V142.96V142.96C380.175 143.735 379.726 144.625 378.921 145.592C378.118 146.558 376.968 147.592 375.584 148.655C372.818 150.781 369.128 153.018 365.435 155.056C361.742 157.094 358.05 158.933 355.28 160.261C353.895 160.926 352.741 161.463 351.933 161.833C351.529 162.019 351.212 162.163 350.996 162.26C350.888 162.309 350.805 162.346 350.749 162.371L350.692 162.396L350.636 162.371C350.58 162.346 350.497 162.309 350.389 162.26C350.173 162.163 349.855 162.019 349.451 161.833C348.644 161.463 347.49 160.926 346.105 160.261C343.335 158.933 339.642 157.094 335.95 155.056C332.257 153.018 328.567 150.781 325.8 148.655C324.417 147.592 323.267 146.558 322.464 145.592C321.658 144.625 321.21 143.735 321.21 142.96V142.96V142.96V142.959V142.959V142.959V142.959V142.959V142.959V142.958V142.958V142.958V142.958V142.958V142.958V142.958V142.957V142.957V142.957V142.957V142.957V142.957V142.956V142.956V142.956V142.956V142.956V142.956V142.955V142.955V142.955V142.955V142.955V142.955V142.954V142.954V142.954V142.954V142.954V142.954V142.953V142.953V142.953V142.953V142.953V142.953V142.952V142.952V142.952V142.952V142.952V142.952V142.952V142.951V142.951V142.951V142.951V142.951V142.951V142.95V142.95V142.95V142.95V142.95V142.95V142.949V142.949V142.949V142.949V142.949V142.949V142.948V142.948V142.948V142.948V142.948V142.948V142.947V142.947V142.947V142.947V142.947V142.947V142.946V142.946V142.946Z" fill="white" stroke="white" strokeWidth="0.138286"/>
<path d="M383.327 142.821C383.327 149.888 350.692 165.956 350.692 165.956C350.692 165.956 318.057 149.902 318.057 142.821" stroke="white" strokeWidth="0.829714" stroke-miterlimit="10"/>
<path d="M375.874 230.038C377.699 230.038 379.179 223.995 379.179 216.556C379.179 209.116 377.699 203.073 375.874 203.073" stroke="#011911" stroke-opacity="0.8" strokeWidth="0.5" stroke-miterlimit="10" strokeLinecap="round"/>
<path d="M306.538 138.977L280.941 190.157" stroke="#011911" stroke-opacity="0.8" strokeWidth="0.5" stroke-miterlimit="10"/>
<path d="M300.979 188.981L305.21 216.832" stroke="#011911" stroke-opacity="0.8" strokeWidth="0.5" stroke-miterlimit="10" strokeLinecap="round"/>
<path d="M349.309 169.234H352.075" stroke="white" strokeWidth="0.691429" stroke-miterlimit="10" strokeLinecap="round"/>
<path d="M349.309 172.525H352.075" stroke="white" strokeWidth="0.691429" stroke-miterlimit="10" strokeLinecap="round"/>
<path d="M349.309 175.803H352.075" stroke="white" strokeWidth="0.691429" stroke-miterlimit="10" strokeLinecap="round"/>
<path d="M349.309 179.08H352.075" stroke="white" strokeWidth="0.691429" stroke-miterlimit="10" strokeLinecap="round"/>
<path d="M349.309 182.357H352.075" stroke="white" strokeWidth="0.691429" stroke-miterlimit="10" strokeLinecap="round"/>
<path d="M349.309 185.648H352.075" stroke="white" strokeWidth="0.691429" stroke-miterlimit="10" strokeLinecap="round"/>
<path d="M349.309 185.801H352.075" stroke="white" strokeWidth="0.691429" stroke-miterlimit="10" strokeLinecap="round"/>
<path d="M349.309 189.078H352.075" stroke="white" strokeWidth="0.691429" stroke-miterlimit="10" strokeLinecap="round"/>
<path d="M349.309 192.355H352.075" stroke="white" strokeWidth="0.691429" stroke-miterlimit="10" strokeLinecap="round"/>
<path d="M349.309 195.48H352.075" stroke="white" strokeWidth="0.691429" stroke-miterlimit="10" strokeLinecap="round"/>
<path d="M349.309 198.772H352.075" stroke="white" strokeWidth="0.691429" stroke-miterlimit="10" strokeLinecap="round"/>
<path d="M349.309 202.049H352.075" stroke="white" strokeWidth="0.691429" stroke-miterlimit="10" strokeLinecap="round"/>
<path d="M349.309 205.327H352.075" stroke="white" strokeWidth="0.691429" stroke-miterlimit="10" strokeLinecap="round"/>
<path d="M349.309 208.604H352.075" stroke="white" strokeWidth="0.691429" stroke-miterlimit="10" strokeLinecap="round"/>
<path d="M349.309 211.895H352.075" stroke="white" strokeWidth="0.691429" stroke-miterlimit="10" strokeLinecap="round"/>
<path d="M349.309 215.172H352.075" stroke="white" strokeWidth="0.691429" stroke-miterlimit="10" strokeLinecap="round"/>
<path d="M349.309 218.45H352.075" stroke="white" strokeWidth="0.691429" stroke-miterlimit="10" strokeLinecap="round"/>
<path d="M349.309 221.728H352.075" stroke="white" strokeWidth="0.691429" stroke-miterlimit="10" strokeLinecap="round"/>
<path d="M349.309 221.893H352.075" stroke="white" strokeWidth="0.691429" stroke-miterlimit="10" strokeLinecap="round"/>
<path d="M349.309 225.17H352.075" stroke="white" strokeWidth="0.691429" stroke-miterlimit="10" strokeLinecap="round"/>
<path d="M349.309 228.448H352.075" stroke="white" strokeWidth="0.691429" stroke-miterlimit="10" strokeLinecap="round"/>
<path d="M349.019 164.768V216.832" stroke="white" strokeWidth="0.691429" stroke-miterlimit="10"/>
<path d="M374.27 203.045H407.528" stroke="#011911" stroke-opacity="0.8" strokeWidth="0.5" stroke-miterlimit="10" strokeLinecap="round"/>
<path d="M281.729 257.46H387.919L377.934 230.453H293.234L281.729 257.46Z" fill="white" stroke="#00CC89" strokeWidth="0.829714" stroke-miterlimit="10"/>
<path d="M281.729 257.46C281.729 253.643 291.851 246.743 308.294 245.803C325.897 244.807 335.121 255.87 334.858 257.46H281.729Z" fill="#00CC89"/>
<path d="M334.845 257.46C334.845 257.46 330.17 235.611 289.141 240.063L298.005 218.505C298.005 218.505 331.609 212.392 334.858 230.453L334.845 257.46Z" fill="white" stroke="#00CC89" strokeWidth="0.829714" stroke-miterlimit="10" stroke-linejoin="round"/>
<path d="M387.297 255.759C384.849 252.371 375.418 248.831 361.368 248.029C344.663 247.074 335.508 255.012 334.845 257.169V230.452C334.845 230.452 346.765 216.845 377.935 230.452L387.297 255.759Z" fill="white" stroke="#00CC89" strokeWidth="0.829714" stroke-miterlimit="10" stroke-linejoin="round"/>
<path d="M372.956 244.585C369.471 243.7 365.253 243.036 360.441 242.76C358.049 242.622 355.822 242.691 353.776 242.912C348.701 243.479 344.704 245 341.855 246.632" stroke="#00CC89" strokeWidth="0.829714" stroke-miterlimit="10" strokeLinecap="round" stroke-linejoin="round"/>
<path d="M371.725 239.981C368.393 239.192 364.424 238.598 359.943 238.335C357.551 238.197 355.325 238.266 353.278 238.487C348.203 239.054 344.207 240.575 341.358 242.207" stroke="#00CC89" strokeWidth="0.829714" stroke-miterlimit="10" strokeLinecap="round" stroke-linejoin="round"/>
<path d="M370.591 235.389C367.411 234.684 363.719 234.159 359.57 233.91C357.178 233.771 354.951 233.841 352.905 234.062C347.83 234.629 343.833 236.15 340.984 237.782" stroke="#00CC89" strokeWidth="0.829714" stroke-miterlimit="10" strokeLinecap="round" stroke-linejoin="round"/>
<path d="M375.155 229.236L383.95 253.187" stroke="#00CC89" strokeWidth="0.829714" stroke-miterlimit="10"/>
<path d="M387.933 257.46H334.845V257.17C335.508 255.012 344.663 247.075 361.368 248.029C375.418 248.831 384.849 252.371 387.297 255.759L387.933 257.46Z" fill="#00CC89"/>
<path d="M367.632 142.863C367.632 142.863 357.731 148.021 343.985 145.946C340.569 145.435 336.905 144.467 333.116 142.863V126.213L350.927 115.123L353.596 119.562L367.632 142.863Z" fill="#77DBC5"/>
<path d="M344.022 145.699L344.022 145.699C340.672 145.197 337.08 144.254 333.366 142.697V126.352L350.844 115.469L353.382 119.69L353.382 119.691L367.277 142.758C367.22 142.786 367.152 142.818 367.075 142.853C366.781 142.988 366.345 143.18 365.778 143.404C364.644 143.851 362.988 144.428 360.903 144.94C356.734 145.964 350.856 146.73 344.022 145.699Z" stroke="#011911" stroke-opacity="0.8" strokeWidth="0.5"/>
<path d="M351.909 116.436C352.974 118.414 353.153 120.765 352.379 122.88L343.985 145.946C340.569 145.435 336.905 144.467 333.116 142.863V126.213L351.01 114.777L351.909 116.436Z" fill="#011911" fill-opacity="0.6"/>
<path d="M344.98 88.9536L344.98 88.9536C346.725 89.3534 347.94 90.7479 348.773 92.6936C349.606 94.6379 350.039 97.0881 350.241 99.505C350.443 101.918 350.414 104.282 350.335 106.043C350.295 106.923 350.242 107.652 350.2 108.161C350.179 108.415 350.16 108.614 350.147 108.749C350.145 108.77 350.143 108.789 350.141 108.807L324.683 119.039C324.678 119.036 324.674 119.032 324.67 119.029C324.587 118.961 324.466 118.86 324.312 118.731C324.004 118.472 323.567 118.097 323.048 117.634C322.009 116.707 320.647 115.428 319.349 114.018C318.048 112.606 316.821 111.072 316.044 109.634C315.259 108.182 314.973 106.903 315.42 105.95C315.806 105.13 316.295 104.63 316.803 104.332C317.312 104.033 317.856 103.928 318.361 103.924C318.868 103.92 319.33 104.018 319.668 104.117C319.836 104.167 319.972 104.217 320.065 104.254C320.111 104.272 320.146 104.287 320.17 104.298L320.196 104.309L320.201 104.312L320.202 104.313L320.202 104.313C320.202 104.313 320.202 104.313 320.203 104.312L320.498 103.922C320.498 103.922 320.498 103.922 320.498 103.922L320.498 103.922L320.498 103.922L320.498 103.922L320.496 103.919L320.487 103.909C320.479 103.9 320.467 103.885 320.451 103.866C320.419 103.828 320.372 103.771 320.313 103.696C320.197 103.547 320.034 103.33 319.854 103.059C319.491 102.517 319.06 101.764 318.774 100.918C318.488 100.071 318.351 99.1455 318.559 98.2455C318.765 97.3522 319.316 96.4587 320.452 95.6782L320.453 95.678C322.099 94.5433 323.689 94.4835 324.875 94.8387C324.876 95.4352 324.976 95.976 325.165 96.3964C325.301 96.6964 325.489 96.9505 325.736 97.1105C325.989 97.2748 326.287 97.3282 326.607 97.2499C326.905 97.1768 327.141 97.0272 327.261 96.791C327.381 96.5563 327.358 96.2925 327.264 96.0519C327.079 95.5783 326.58 95.0882 325.912 94.7283C325.748 94.6399 325.573 94.5584 325.386 94.4861C325.394 94.3673 325.406 94.2458 325.423 94.1223C325.646 92.449 326.656 90.4862 328.819 89.5334L328.82 89.5333C331.104 88.5241 332.972 89.0922 334.283 89.9172C334.941 90.3315 335.457 90.8105 335.809 91.1866C335.984 91.3744 336.118 91.5358 336.208 91.6493C336.253 91.7061 336.286 91.7509 336.308 91.781C336.319 91.796 336.327 91.8074 336.332 91.8147L336.338 91.8227L336.339 91.8244L336.339 91.8244L336.339 91.8245L336.339 91.8246L336.549 92.131L336.754 91.8211L336.754 91.821L336.754 91.8209L336.754 91.8208L336.755 91.8195L336.76 91.8122C336.765 91.8053 336.772 91.7946 336.782 91.7804C336.802 91.7519 336.834 91.7092 336.876 91.6548C336.96 91.5458 337.087 91.3899 337.258 91.2059C337.6 90.8375 338.114 90.3588 338.8 89.9196C340.166 89.0439 342.221 88.321 344.98 88.9536ZM325.621 96.1908C325.484 95.8873 325.398 95.4859 325.379 95.0238C325.482 95.0692 325.581 95.1176 325.675 95.1684C326.287 95.4982 326.673 95.913 326.799 96.2342C326.86 96.3909 326.85 96.4969 326.816 96.5638C326.782 96.6292 326.698 96.7129 326.488 96.7643C326.299 96.8105 326.143 96.7787 326.008 96.691C325.866 96.5989 325.731 96.434 325.621 96.1908Z" fill="#011911" fill-opacity="0.6" stroke="black" strokeWidth="0.5"/>
<path d="M339.062 100.008L327.183 104.778C324.321 105.926 322.924 109.204 324.072 112.052L329.257 124.982C331.166 129.753 336.642 132.076 341.399 130.168L346.336 128.19C351.106 126.282 353.43 120.806 351.521 116.049L346.336 103.119C345.188 100.257 341.91 98.8599 339.062 100.008Z" fill="#77DBC5"/>
<path d="M339.155 100.24L339.155 100.24C341.875 99.1435 345.007 100.478 346.104 103.212L346.104 103.212L351.289 116.142L351.289 116.142C353.146 120.771 350.885 126.101 346.243 127.958L346.243 127.958L341.306 129.936L341.306 129.936C336.676 131.793 331.346 129.531 329.489 124.889L329.489 124.889L324.304 111.959L324.303 111.959C323.207 109.239 324.542 106.107 327.276 105.011L327.276 105.01L339.155 100.24Z" stroke="#011911" stroke-opacity="0.8" strokeWidth="0.5"/>
<path d="M353.914 115.081L351.521 116.049L348.921 109.577L351.314 108.609C352.738 108.042 354.342 108.734 354.909 110.144L355.448 111.486C356.029 112.896 355.338 114.5 353.914 115.081Z" fill="#77DBC5"/>
<path d="M354.677 110.238L354.677 110.238L355.217 111.579L355.217 111.579L355.217 111.581C355.744 112.86 355.119 114.319 353.819 114.85C353.819 114.85 353.819 114.85 353.819 114.85L351.66 115.723L349.246 109.716L351.407 108.841C352.703 108.326 354.162 108.955 354.677 110.238Z" stroke="#011911" stroke-opacity="0.8" strokeWidth="0.5"/>
<path d="M326.685 125.48L329.078 124.512L326.658 118.497L324.265 119.465C322.841 120.032 322.163 121.649 322.73 123.06L323.09 123.945C323.657 125.356 325.261 126.047 326.685 125.48Z" fill="#011911" fill-opacity="0.6"/>
<path d="M324.359 119.696L326.519 118.822L328.753 124.374L326.593 125.248C326.593 125.248 326.592 125.248 326.592 125.248C325.296 125.764 323.837 125.134 323.322 123.852L323.321 123.851L322.962 122.967C322.962 122.967 322.962 122.967 322.962 122.966C322.446 121.683 323.064 120.212 324.358 119.697L324.358 119.697L324.359 119.696Z" stroke="#011911" stroke-opacity="0.8" strokeWidth="0.5"/>
<path d="M350.996 113.007C350.553 111.887 351.093 110.628 352.213 110.172" stroke="#011911" stroke-opacity="0.6" strokeWidth="0.691429" stroke-miterlimit="10" strokeLinecap="round"/>
<path d="M339.366 107.018C339.366 107.018 342.173 108.069 345.741 106.382" stroke="#011911" stroke-opacity="0.6" strokeWidth="0.691429" stroke-miterlimit="10" strokeLinecap="round"/>
<path d="M333.434 111.748C333.434 111.748 337.624 111.319 339.145 118.372" stroke="#011911" stroke-opacity="0.6" strokeWidth="0.691429" stroke-miterlimit="10" strokeLinecap="round"/>
<path d="M345.326 120.667C345.326 120.667 339.145 119.008 339.366 122.202" stroke="#011911" stroke-opacity="0.6" strokeWidth="0.691429" stroke-miterlimit="10" strokeLinecap="round"/>
<path d="M344.461 114.126C344.756 114.022 344.787 113.348 344.529 112.621C344.272 111.893 343.824 111.389 343.529 111.493C343.233 111.598 343.203 112.272 343.46 112.999C343.718 113.726 344.166 114.231 344.461 114.126Z" fill="#011911" fill-opacity="0.6"/>
<path d="M333.056 118.886C333.351 118.781 333.381 118.107 333.124 117.38C332.866 116.653 332.418 116.148 332.123 116.253C331.828 116.357 331.797 117.031 332.055 117.758C332.312 118.486 332.76 118.99 333.056 118.886Z" fill="#011911" fill-opacity="0.6"/>
<path d="M344.331 116.781C346.538 116.781 348.327 114.992 348.327 112.785C348.327 110.578 346.538 108.789 344.331 108.789C342.124 108.789 340.334 110.578 340.334 112.785C340.334 114.992 342.124 116.781 344.331 116.781Z" stroke="#83E6C5" strokeWidth="0.691429" stroke-miterlimit="10" strokeLinecap="round"/>
<path d="M332.577 121.345C334.784 121.345 336.573 119.556 336.573 117.349C336.573 115.141 334.784 113.352 332.577 113.352C330.369 113.352 328.58 115.141 328.58 117.349C328.58 119.556 330.369 121.345 332.577 121.345Z" stroke="#83E6C5" strokeWidth="0.691429" stroke-miterlimit="10" strokeLinecap="round"/>
<path d="M336.31 115.91L340.528 113.974" stroke="#83E6C5" strokeWidth="0.691429" stroke-miterlimit="10" strokeLinecap="round"/>
<path d="M308.045 134.745C307.81 135.285 306.482 135.423 304.477 135.146C301.407 134.731 296.733 133.39 291.755 131.178C288.906 129.905 286.32 128.605 284.191 127.389C280.139 125.079 277.691 123.06 278.092 122.161C278.493 121.276 281.605 121.705 286.002 123.129C288.367 123.89 291.091 124.941 293.967 126.227C298.89 128.412 303.163 130.541 305.68 132.187C307.395 133.293 308.294 134.192 308.045 134.745Z" fill="white" stroke="#011911" stroke-opacity="0.8" strokeWidth="0.829714" stroke-miterlimit="10"/>
<path d="M331.512 106.701L327.751 121.235L324.363 112.799C323.063 109.563 324.625 105.857 327.82 104.502L331.512 106.701Z" fill="#011911" fill-opacity="0.6"/>
<path d="M331.65 106.438L324.182 119.382C323.325 120.875 321.721 121.802 319.992 121.802H312.276C311.142 121.802 310.133 122.493 309.704 123.53L305.694 132.201L304.518 134.731C301.13 134.275 296.415 132.809 291.907 130.804C290.219 130.057 288.574 129.269 287.053 128.481L289.086 124.235L292.722 116.644C294.465 112.536 297.466 109.079 301.296 106.784L308.819 102.262C309.815 101.667 310.962 101.349 312.124 101.349H324.902C325.607 101.349 326.298 101.501 326.92 101.805L330.765 103.631C331.83 104.142 332.231 105.429 331.65 106.438Z" fill="#77DBC5"/>
<path d="M313.59 106.853H322.717C323.394 106.853 324.058 107.005 324.667 107.296L328.359 109.066C329.368 109.55 329.755 110.794 329.202 111.762" stroke="#011911" stroke-opacity="0.6" strokeWidth="0.691429" stroke-miterlimit="10" strokeLinecap="round"/>
<path d="M311.322 110.78H320.449C321.127 110.78 321.79 110.932 322.399 111.223L326.091 112.993C327.101 113.477 327.488 114.721 326.935 115.689" stroke="#011911" stroke-opacity="0.6" strokeWidth="0.691429" stroke-miterlimit="10" strokeLinecap="round"/>
<path d="M308.653 115.911H317.78C318.458 115.911 319.122 116.063 319.73 116.353L323.422 118.123C324.432 118.607 324.819 119.852 324.266 120.82" stroke="#011911" stroke-opacity="0.6" strokeWidth="0.691429" stroke-miterlimit="10" strokeLinecap="round"/>
<path d="M304.532 134.731C301.144 134.275 296.429 132.809 291.921 130.804C290.234 130.057 288.588 129.269 287.067 128.481L289.362 123.793C290.897 124.374 292.405 125.038 294.092 125.798C299.015 127.983 303.315 130.265 305.832 131.91L304.532 134.731Z" fill="#011911" fill-opacity="0.6"/>
<path d="M305.957 121.428H312.428" stroke="#011911" stroke-opacity="0.6" strokeWidth="0.691429" stroke-miterlimit="10" strokeLinecap="round"/>
<path d="M374.214 230.342C376.04 230.342 377.519 224.169 377.519 216.555C377.519 208.94 376.04 202.768 374.214 202.768C372.389 202.768 370.909 208.94 370.909 216.555C370.909 224.169 372.389 230.342 374.214 230.342Z" fill="white"/>
<path d="M377.519 216.555C377.519 218.92 377.381 221.146 377.118 223.096C376.261 225.281 374.505 227.009 372.292 227.825C371.393 228.157 370.411 228.351 369.388 228.351H356.845C355.269 228.351 353.983 229.637 353.983 231.213V231.6C353.983 233.91 351.521 235.403 349.475 234.325L343.584 231.241C342.533 230.688 341.869 229.595 341.869 228.406V223.801C341.869 222.072 342.685 220.454 344.054 219.417L353.043 212.655C354.564 211.507 356.417 210.899 358.311 210.899H377.215C377.422 212.627 377.519 214.536 377.519 216.555Z" fill="#77DBC5"/>
<path d="M355.311 215.352L347.055 221.561C345.797 222.515 345.05 224.008 345.05 225.585V229.816C345.05 230.909 345.658 231.918 346.626 232.416" stroke="#011911" stroke-opacity="0.6" strokeWidth="0.691429" stroke-miterlimit="10" strokeLinecap="round"/>
<path d="M359.514 217.205L351.259 223.414C350 224.368 349.253 225.861 349.253 227.438V231.669C349.253 232.762 349.862 233.771 350.83 234.269" stroke="#011911" stroke-opacity="0.6" strokeWidth="0.691429" stroke-miterlimit="10" strokeLinecap="round"/>
<path d="M377.519 216.555C377.519 218.92 377.381 221.146 377.118 223.096C376.261 225.281 374.505 227.009 372.292 227.825C371.449 225.322 370.896 221.215 370.896 216.555C370.896 214.536 371.006 212.627 371.186 210.899H377.229C377.423 212.627 377.519 214.536 377.519 216.555Z" fill="#011911" fill-opacity="0.6"/>
<path d="M401.54 236.648C409.819 236.648 416.531 236.085 416.531 235.39C416.531 234.695 409.819 234.131 401.54 234.131C393.262 234.131 386.55 234.695 386.55 235.39C386.55 236.085 393.262 236.648 401.54 236.648Z" fill="#83E6C5"/>
<path d="M414.014 236.344H407.819C402.066 236.344 397.419 231.684 397.419 225.945V217.108H424.427V225.931C424.427 231.684 419.766 236.344 414.014 236.344Z" fill="white" stroke="#83E6C5" strokeWidth="0.829714" stroke-miterlimit="10"/>
<path d="M428.202 224.673H424.413V217.938H428.202C429.82 217.938 431.148 219.252 431.148 220.884V221.741C431.148 223.359 429.82 224.673 428.202 224.673Z" stroke="#83E6C5" strokeWidth="0.829714" stroke-miterlimit="10"/>
<path d="M410.916 219.736C418.439 219.736 424.537 218.516 424.537 217.012C424.537 215.507 418.439 214.288 410.916 214.288C403.393 214.288 397.295 215.507 397.295 217.012C397.295 218.516 403.393 219.736 410.916 219.736Z" fill="#4FBD97" stroke="white" strokeWidth="0.691429" stroke-miterlimit="10"/>
<path d="M397.434 219.224C397.434 220.731 403.477 221.948 410.916 221.948C418.356 221.948 424.399 220.731 424.399 219.224" stroke="#83E6C5" strokeWidth="0.829714" stroke-miterlimit="10"/>
<path d="M397.434 222.114C397.434 223.622 403.477 224.838 410.916 224.838C418.356 224.838 424.399 223.622 424.399 222.114" stroke="#83E6C5" strokeWidth="0.829714" stroke-miterlimit="10"/>
<path d="M397.434 225.004C397.434 226.512 403.477 227.729 410.916 227.729C418.356 227.729 424.399 226.512 424.399 225.004" stroke="#83E6C5" strokeWidth="0.829714" stroke-miterlimit="10"/>
<path d="M397.641 227.895C397.641 229.402 403.587 230.619 410.917 230.619C418.246 230.619 424.192 229.402 424.192 227.895" stroke="#83E6C5" strokeWidth="0.829714" stroke-miterlimit="10"/>
<path d="M398.678 230.785C398.678 232.292 404.154 233.509 410.917 233.509C417.679 233.509 423.155 232.292 423.155 230.785" stroke="#83E6C5" strokeWidth="0.829714" stroke-miterlimit="10"/>
<path d="M410.377 212.172C409.049 211.259 404.915 202.561 410.031 199.007C413.959 196.269 414.719 203.363 412.908 202.768C409.755 201.731 407.832 187.847 416.06 188.705C419.684 189.078 419.282 194.236 416.06 194.374" stroke="white" strokeWidth="0.691429" stroke-miterlimit="10" strokeLinecap="round"/>
<path d="M249.551 252.8H181.583C179.758 252.8 178.126 251.694 177.448 250.007L158.849 204.04C157.964 201.842 159.582 199.436 161.947 199.436H229.914C231.739 199.436 233.371 200.542 234.049 202.229L252.648 248.195C253.547 250.394 251.929 252.8 249.551 252.8Z" fill="white" stroke="#83E6C5" strokeWidth="0.829714" stroke-miterlimit="10"/>
<path d="M246.398 253.132H181.555C179.827 253.132 178.264 252.081 177.614 250.477L159.872 206.626C159.029 204.524 160.564 202.243 162.832 202.243H227.674C229.402 202.243 230.965 203.294 231.615 204.898L249.357 248.748C250.2 250.85 248.652 253.132 246.398 253.132Z" fill="#83E6C5"/>
<path d="M206.585 233.191C204.677 233.191 202.879 232.444 201.524 231.089C200.418 229.983 199.809 228.517 199.809 226.968C199.809 225.406 200.418 223.94 201.524 222.847C202.423 221.949 203.626 221.451 204.898 221.451C206.17 221.451 207.373 221.949 208.272 222.847C209.807 224.382 209.807 226.871 208.272 228.406C207 229.679 204.939 229.679 203.667 228.406C203.446 228.185 203.446 227.839 203.667 227.618C203.889 227.397 204.234 227.397 204.455 227.618C205.299 228.462 206.654 228.462 207.498 227.618C208.604 226.512 208.604 224.728 207.498 223.622C206.806 222.93 205.88 222.543 204.898 222.543C203.916 222.543 202.99 222.93 202.298 223.622C201.399 224.521 200.915 225.696 200.915 226.968C200.915 228.227 201.413 229.416 202.298 230.315C203.446 231.463 204.953 232.085 206.571 232.085C208.189 232.085 209.71 231.463 210.844 230.315C211.066 230.094 211.411 230.094 211.633 230.315C211.854 230.536 211.854 230.882 211.633 231.103C210.291 232.444 208.493 233.191 206.585 233.191Z" fill="white"/>
<path d="M273.875 257.668H181.666C180.601 257.668 179.744 256.81 179.744 255.746V254.819C179.744 253.754 180.601 252.897 181.666 252.897H273.875C274.94 252.897 275.797 253.754 275.797 254.819V255.746C275.783 256.81 274.926 257.668 273.875 257.668Z" fill="white" stroke="#83E6C5" strokeWidth="0.829714" stroke-miterlimit="10"/>
</svg>
