<svg width="579" height="613" viewBox="0 0 579 613" fill="none" xmlns="http://www.w3.org/2000/svg">
<path d="M386.047 1.50917L727.251 165.122H693.705H692.705V166.122V527.523H75.0189V166.122V165.122H74.0189H44.8438L386.047 1.50917ZM694.705 529.523H722.509V551.361V552.361H723.509H738.706V575.433V576.433H739.706H751.114V598.508H1.35742V576.433H20.7254H21.7254V575.433V575.342V575.331L21.7252 575.319L21.2047 552.361H40.4456H41.4456V551.361V529.523H73.0189H74.0189H693.705H694.705Z" stroke="black" strokeWidth="2"/>
<path d="M738.709 574.319H21.7059L21.6011 569.698H738.709V574.319ZM722.512 550.216H41.4489V545.595H722.512V550.216ZM692.708 527.458H75.0222V522.837H692.708V527.458ZM692.708 172.291L75.0222 173.189V168.219L692.708 167.322V172.291Z" stroke="black" strokeWidth="2"/>
<path d="M600.243 184.882V522.379H515.284V178.485V177.354L514.162 177.492C497.982 179.484 458.135 184.428 420.974 189.356L420.105 189.471V190.348V522.379H335.143V173.814V172.688L334.025 172.821L240.845 183.889L239.963 183.994V184.882V522.379H155.004V175.104V174.455V173.974V173.389V172.434H240.963H241.963V171.434V171.257H340.221L340.436 172.434H420.105V173.498V174.519L421.126 174.498L514.304 172.587L515.284 172.567V172.434H601.243H602.243V171.434V171.27L681.614 172.273L601.1 183.892L600.243 184.016V184.882ZM106.052 172.318C122.594 172.905 141.523 173.643 152.403 174.292L75.0352 183.752V171.288C75.4382 171.301 75.954 171.317 76.5725 171.336C78.2218 171.387 80.6016 171.463 83.5235 171.557C89.3673 171.745 97.3792 172.011 106.052 172.318Z" stroke="black" strokeWidth="2"/>
<path d="M440.833 87.9339C440.833 118.169 416.323 142.679 386.088 142.679C355.854 142.679 331.344 118.169 331.344 87.9339C331.344 57.6993 355.854 33.1892 386.088 33.1892C416.323 33.1892 440.833 57.6993 440.833 87.9339Z" fill="#CBF5E7" stroke="black" strokeWidth="0.5"/>
<path d="M429.206 87.934C429.206 64.121 409.872 44.7881 386.061 44.7881C385.237 44.7881 384.568 44.1194 384.568 43.2958C384.568 42.4722 385.237 41.8035 386.061 41.8035C411.52 41.8035 432.191 62.4738 432.191 87.934C432.191 113.394 411.52 134.064 386.061 134.064C385.237 134.064 384.568 133.396 384.568 132.572C384.568 131.749 385.237 131.08 386.061 131.08C409.872 131.08 429.206 111.747 429.206 87.934Z" fill="#00E4AF" stroke="black" strokeWidth="0.5"/>
<path d="M342.925 87.934C342.925 111.747 362.259 131.08 386.074 131.08C386.897 131.08 387.566 131.749 387.566 132.572C387.566 133.396 386.897 134.064 386.074 134.064C360.612 134.064 339.943 113.394 339.943 87.934C339.943 62.4738 360.612 41.8035 386.074 41.8035C386.897 41.8035 387.566 42.4722 387.566 43.2958C387.566 44.1194 386.897 44.7881 386.074 44.7881C362.259 44.7881 342.925 64.121 342.925 87.934Z" fill="#00E4AF" stroke="black" strokeWidth="0.5"/>
<path d="M399.822 131.087C399.516 130.176 400.003 129.186 400.916 128.878C401.826 128.569 402.816 129.058 403.122 129.969L406.22 139.104L406.128 138.871C406.054 138.9 405.981 138.929 405.907 138.958M399.822 131.087L402.937 140.281M399.822 131.087L400.059 131.007M399.822 131.087L400.059 131.007M402.937 140.281C404.049 139.922 405.143 139.529 406.22 139.104L405.983 139.184L405.907 138.958M402.937 140.281L402.861 140.043C402.939 140.018 403.017 139.992 403.095 139.967M402.937 140.281L403.174 140.2L403.095 139.967M405.907 138.958C404.982 139.319 404.045 139.655 403.095 139.967M405.907 138.958L402.885 130.049L402.885 130.048C402.623 129.269 401.775 128.85 400.997 129.115L400.996 129.115C400.215 129.379 399.797 130.227 400.059 131.007M400.059 131.007C400.059 131.007 400.059 131.007 400.059 131.007M400.059 131.007L400.059 131.007M400.059 131.007L403.095 139.967M352.906 57.4904L352.906 57.4898C353.395 56.827 353.252 55.892 352.59 55.4039L352.906 57.4904ZM352.906 57.4904C352.42 58.1533 351.482 58.2959 350.82 57.808L350.82 57.808L344.047 52.8239M352.906 57.4904L344.047 52.8239M344.047 52.8239C344.686 52.0582 345.349 51.3097 346.029 50.5796L352.59 55.4038L344.047 52.8239ZM374.878 44.9874L374.878 44.9873C375.672 44.7651 376.135 43.9409 375.914 43.1477L374.878 44.9874ZM374.878 44.9874C374.084 45.2101 373.26 44.7467 373.04 43.954L373.04 43.9535L370.639 35.3911C371.59 35.1123 372.551 34.8588 373.525 34.6311L375.914 43.1472L374.878 44.9874ZM431.222 118.83C431.786 118.009 432.328 117.171 432.846 116.318L425.202 110.662L431.222 118.83ZM431.222 118.83L423.426 113.061L431.222 118.83ZM423.116 110.973C422.627 111.635 422.767 112.571 423.426 113.061L423.116 110.973ZM423.116 110.973C423.605 110.312 424.539 110.172 425.202 110.662L423.116 110.973ZM417.869 43.408L412.037 50.7586L417.869 43.408ZM417.869 43.408C418.678 43.9881 419.472 44.5895 420.248 45.2123L414.377 52.6139C413.863 53.2595 412.923 53.3672 412.278 52.8556C411.634 52.3441 411.526 51.4044 412.037 50.7588L417.869 43.408ZM360.775 125.982L360.775 125.982C361.201 125.279 362.12 125.055 362.825 125.483C363.529 125.911 363.753 126.83 363.326 127.534L358.596 135.311C357.733 134.81 356.886 134.286 356.056 133.741L360.775 125.982ZM344.499 103.796L335.098 108.027C334.732 107.102 334.39 106.164 334.075 105.215L343.275 101.074L343.275 101.074C344.024 100.736 344.911 101.072 345.248 101.822C345.585 102.574 345.251 103.458 344.499 103.796L344.499 103.796ZM430.802 79.9488L430.802 79.9488C430.003 80.138 429.197 79.6403 429.009 78.8394L429.009 78.8386C428.818 78.0376 429.316 77.233 430.116 77.0438L439.214 74.8987C439.449 75.8622 439.66 76.8352 439.843 77.8168L430.802 79.9488ZM404.521 45.7006L404.521 45.7004L408.599 38.0523C409.507 38.4646 410.402 38.9011 411.282 39.3597L407.153 47.1049C406.765 47.8314 405.861 48.107 405.132 47.7197C404.407 47.3322 404.132 46.4275 404.521 45.7006ZM392.872 142.258L391.777 133.446C391.675 132.629 392.257 131.882 393.075 131.781C393.892 131.679 394.636 132.26 394.741 133.079L395.824 141.808C394.849 141.984 393.864 142.135 392.872 142.258ZM347.108 65.0962L339.057 59.8294C339.568 58.9752 340.104 58.1361 340.659 57.313L348.74 62.5984C349.43 63.0494 349.624 63.9751 349.173 64.6644C348.722 65.3534 347.797 65.5472 347.108 65.0962Z" fill="#00E4AF" stroke="black" strokeWidth="0.5"/>
<path d="M388.613 115.035C380.748 115.488 373.787 113.428 367.796 108.925L372.551 102.798C377.111 106.083 382.317 107.519 388.239 107.254L388.239 107.254L388.245 107.254C391.812 107.01 394.486 106.199 396.253 104.786C398.035 103.362 398.867 101.351 398.798 98.7917L398.798 98.7917L398.797 98.784C398.677 96.7021 397.972 95.0422 396.662 93.8322C395.357 92.6266 393.479 91.8921 391.058 91.6032L391.058 91.603L391.048 91.6023C390.351 91.5463 389.639 91.4912 388.91 91.4349C387.306 91.3108 385.621 91.1804 383.823 91.02C379.166 90.5261 375.538 88.9869 372.992 86.4955L372.992 86.4952C370.364 83.9297 368.972 80.6894 368.745 76.7607C368.475 72.0694 369.762 68.2225 372.742 65.1836L372.742 65.1836L372.746 65.1792C375.573 62.1528 379.768 60.4616 385.291 60.0662C391.952 59.8335 397.817 61.3551 402.89 64.5518L398.954 71.214C394.775 68.8259 390.216 67.6607 385.362 67.8642L385.362 67.8642L385.359 67.8644C382.801 68.0119 380.643 68.7612 378.989 70.2046C377.239 71.6679 376.419 73.7932 376.495 76.4604L376.495 76.4604L376.495 76.4677C376.592 78.1506 377.317 79.5516 378.651 80.8199C380.003 82.106 382.098 82.8445 384.817 83.2294L384.817 83.2297L384.827 83.2307C386.292 83.3772 388.373 83.5652 390.988 83.7223C396.096 84.1143 399.872 85.7208 402.43 88.5079C404.923 91.24 406.315 94.4857 406.538 98.335C406.721 103.498 405.304 107.442 402.337 110.208C399.363 112.98 394.796 114.602 388.613 115.035Z" fill="#00E4AF" stroke="black" strokeWidth="0.5"/>
<path d="M380.891 121.398L382.741 53.258L386.372 53.3562L384.522 121.496L380.891 121.398Z" fill="#00E4AF" stroke="black" strokeWidth="0.5"/>
<path d="M388.213 121.601L390.063 53.4614L393.694 53.5596L391.845 121.7L388.213 121.601Z" fill="#00E4AF" stroke="black" strokeWidth="0.5"/>
<path d="M115.058 363.415L174.123 352.147L186.421 419.227L127.141 431.533L115.058 363.415Z" fill="white" stroke="black" strokeWidth="0.5"/>
<path d="M116.764 364.355L116.521 364.402L116.564 364.645L123.061 401.267C123.204 402.079 122.664 402.852 121.852 402.997C121.042 403.14 120.266 402.598 120.121 401.789L113.326 363.471L113.326 363.471C113.184 362.667 113.714 361.898 114.516 361.745L114.516 361.745L174.07 350.383L174.071 350.383C174.462 350.308 174.865 350.392 175.193 350.617C175.521 350.843 175.746 351.189 175.819 351.579L181.902 384.763C182.05 385.575 181.512 386.353 180.703 386.501L180.703 386.501C179.892 386.65 179.115 386.111 178.966 385.302L173.199 353.844L173.154 353.596L172.906 353.644L116.764 364.355Z" fill="black" stroke="black" strokeWidth="0.5"/>
<path d="M184.961 418.251L184.722 418.3L128.374 429.997L128.122 430.05L128.077 429.796L123.016 401.265L123.016 401.265C122.873 400.453 122.098 399.912 121.286 400.057L121.285 400.057C120.476 400.2 119.933 400.975 120.077 401.787L125.451 432.085C125.522 432.481 125.75 432.833 126.084 433.059C126.418 433.286 126.828 433.368 127.224 433.284L127.225 433.284L186.996 420.876L184.961 418.251ZM184.961 418.251L184.917 418.01L178.921 385.3M184.961 418.251L178.921 385.3M178.921 385.3C178.774 384.489 179.309 383.712 180.12 383.562M178.921 385.3L180.12 383.562M180.12 383.562C180.93 383.415 181.708 383.952 181.858 384.761L188.16 419.147L188.16 419.147C188.307 419.942 187.791 420.71 186.996 420.876L180.12 383.562Z" fill="black" stroke="black" strokeWidth="0.5"/>
<path d="M131.36 419.786L178.954 410.859L179.679 414.736L132.087 423.665L131.36 419.786ZM129.519 409.743L177.113 400.816L177.84 404.691L130.248 413.619L129.519 409.743ZM127.679 399.698L175.271 390.769L175.999 394.649L128.407 403.577L127.679 399.698ZM125.838 389.655L173.431 380.728L174.158 384.607L126.565 393.534L125.838 389.655ZM123.997 379.613L171.59 370.685L172.317 374.564L124.724 383.492L123.997 379.613ZM122.155 369.57L169.748 360.643L170.475 364.521L122.884 373.446L122.155 369.57Z" fill="black" stroke="black" strokeWidth="0.5"/>
<path d="M133.824 381.543L183.175 347.19L221.733 403.441L172.609 438.829L133.824 381.543Z" fill="white" stroke="black" strokeWidth="0.5"/>
<path d="M220.532 403.226L220.334 403.368L173.07 437.418L172.861 437.569L172.717 437.356L156.965 414.087L156.965 414.087C156.611 413.563 155.899 413.427 155.377 413.779C154.854 414.135 154.717 414.845 155.071 415.369L171.628 439.824L171.628 439.824C171.801 440.081 172.071 440.256 172.375 440.31C172.68 440.364 172.992 440.294 173.243 440.112L173.244 440.111L222.775 404.429L222.776 404.429C223.279 404.068 223.402 403.369 223.051 402.853L220.532 403.226ZM220.532 403.226L220.394 403.024L206.415 382.63L206.415 382.63C206.058 382.112 206.191 381.397 206.711 381.042L206.712 381.041C207.233 380.683 207.945 380.816 208.302 381.338L208.302 381.338L223.05 402.853L220.532 403.226Z" fill="black" stroke="black" strokeWidth="0.5"/>
<path d="M135.08 381.774L135.283 381.633L182.762 348.582L182.969 348.438L183.111 348.645L206.407 382.632L206.407 382.632C206.764 383.153 207.476 383.287 207.997 382.932C208.518 382.572 208.651 381.861 208.294 381.339L184.204 346.195C184.031 345.943 183.766 345.769 183.468 345.717L183.465 345.716C183.167 345.66 182.858 345.728 182.607 345.902L182.607 345.902L132.847 380.54L132.847 380.54C132.333 380.897 132.202 381.604 132.553 382.121L132.553 382.121L155.063 415.37L135.08 381.774ZM135.08 381.774L135.219 381.978M135.08 381.774L135.219 381.978M135.219 381.978L156.957 414.089L156.957 414.089M135.219 381.978L156.957 414.089M156.957 414.089C157.311 414.609 157.174 415.323 156.652 415.675L156.651 415.675M156.957 414.089L156.651 415.675M156.651 415.675C156.129 416.03 155.417 415.892 155.063 415.371L156.651 415.675ZM183.511 345.471L183.511 345.47L183.511 345.471Z" fill="black" stroke="black" strokeWidth="0.5"/>
<path d="M213.794 402.085L173.967 429.627L171.723 426.381L211.551 398.839L213.794 402.085ZM165.95 417.959L205.779 390.418L208.021 393.66L168.195 421.202L165.95 417.959ZM160.178 409.535L200.003 381.992L202.249 385.239L162.422 412.781L160.178 409.535ZM154.405 401.113L194.232 373.572L196.477 376.818L156.649 404.36L154.405 401.113ZM148.632 392.692L188.46 365.15L190.704 368.397L150.877 395.938L148.632 392.692ZM142.859 384.271L182.687 356.729L184.931 359.975L145.104 387.514L142.859 384.271Z" fill="black" stroke="black" strokeWidth="0.5"/>
<path d="M171.859 553.445C171.859 579.441 151.337 600.504 126.035 600.504C100.733 600.504 80.2109 579.441 80.2109 553.445C80.2109 527.448 100.733 506.386 126.035 506.386C151.337 506.386 171.859 527.448 171.859 553.445Z" fill="#CBF5E7" stroke="black" strokeWidth="0.5"/>
<path d="M162.233 553.443C162.233 532.945 146.024 516.292 126.046 516.292C125.384 516.292 124.836 515.738 124.836 515.043C124.836 514.347 125.384 513.794 126.046 513.794C147.346 513.794 164.653 531.554 164.653 553.443C164.653 575.332 147.346 593.091 126.046 593.091C125.384 593.091 124.836 592.538 124.836 591.843C124.836 591.147 125.384 590.594 126.046 590.594C146.024 590.594 162.233 573.941 162.233 553.443Z" fill="#00E4AF" stroke="black" strokeWidth="0.5"/>
<path d="M89.833 553.443C89.833 573.941 106.043 590.594 126.023 590.594C126.684 590.594 127.233 591.147 127.233 591.843C127.233 592.538 126.684 593.091 126.023 593.091C104.72 593.091 87.416 575.332 87.416 553.443C87.416 531.554 104.72 513.794 126.023 513.794C126.684 513.794 127.233 514.347 127.233 515.043C127.233 515.738 126.684 516.292 126.023 516.292C106.043 516.292 89.833 532.945 89.833 553.443Z" fill="#00E4AF" stroke="black" strokeWidth="0.5"/>
<path d="M140.394 598.151L137.863 590.481L140.394 598.151ZM140.394 598.151C141.164 597.891 141.924 597.61 142.674 597.31L140.153 589.675L140.152 589.674C139.937 589.019 139.249 588.676 138.624 588.894L138.624 588.894C137.993 589.113 137.647 589.821 137.863 590.48L140.394 598.151ZM98.2844 527.229L98.2848 527.228C98.6851 526.672 98.5663 525.886 98.0277 525.479L98.2844 527.229ZM98.2844 527.229C97.8893 527.782 97.1325 527.898 96.5979 527.494L96.5979 527.494L90.9507 523.227M98.2844 527.229L90.9507 523.227M90.9507 523.227C91.4714 522.588 92.0101 521.963 92.5635 521.353L98.0275 525.478L90.9507 523.227ZM163.922 579.96C164.379 579.274 164.821 578.574 165.242 577.862L158.862 573.014L163.922 579.96ZM163.922 579.96L157.427 575.026C156.891 574.617 156.774 573.831 157.175 573.274C157.573 572.722 158.327 572.608 158.861 573.014L163.922 579.96ZM88.0713 527.147C87.62 527.835 87.1836 528.536 86.7673 529.249L93.4861 533.763C94.0418 534.136 94.7893 533.978 95.1561 533.402L88.0713 527.147ZM88.0713 527.147L94.8043 531.669C95.3641 532.045 95.5253 532.822 95.1561 533.402L88.0713 527.147ZM107.013 587.486L103.071 594.14C102.371 593.722 101.683 593.286 101.009 592.832L104.948 586.183L104.948 586.183C105.295 585.595 106.038 585.412 106.606 585.766C107.177 586.122 107.363 586.894 107.013 587.486ZM91.2567 567.051L83.4234 570.671C83.1259 569.897 82.8472 569.113 82.5907 568.319L90.2695 564.771L90.2697 564.771C90.8715 564.492 91.5899 564.766 91.8653 565.396C92.1424 566.029 91.8649 566.77 91.2568 567.05L91.2567 567.051ZM163.569 546.533L163.569 546.533C162.928 546.689 162.272 546.281 162.117 545.606L162.117 545.605C161.96 544.929 162.371 544.258 163.016 544.102L170.596 542.266C170.787 543.073 170.959 543.887 171.109 544.708L163.569 546.533ZM141.598 517.119L141.599 517.119L144.997 510.574C145.734 510.918 146.46 511.282 147.175 511.664L143.73 518.299C143.413 518.908 142.681 519.133 142.095 518.812C141.508 518.49 141.28 517.731 141.598 517.119ZM116.715 516.458L116.714 516.458C116.077 516.642 115.407 516.262 115.227 515.595L115.226 515.594L113.224 508.259C113.995 508.027 114.775 507.816 115.564 507.626L117.555 514.916C117.737 515.586 117.355 516.274 116.715 516.458ZM130.925 592.584C130.842 591.894 131.321 591.274 131.979 591.19C132.634 591.106 133.242 591.584 133.328 592.275C133.328 592.275 133.328 592.275 133.328 592.275L134.231 599.753C133.441 599.9 132.643 600.025 131.838 600.129L130.925 592.584ZM147.892 521.475L152.753 515.185C153.41 515.669 154.054 516.171 154.685 516.69L149.785 523.033C149.368 523.571 148.609 523.659 148.089 523.235C147.564 522.807 147.475 522.018 147.892 521.475Z" fill="#00E4AF" stroke="black" strokeWidth="0.5"/>
<path d="M342.56 600.422C317.915 606.859 292.786 592.337 286.427 567.993C280.068 543.65 294.886 518.693 319.531 512.256C344.176 505.818 369.305 520.34 375.664 544.684C382.023 569.028 367.205 593.984 342.56 600.422Z" fill="#CBF5E7" stroke="black" strokeWidth="0.5"/>
<path d="M340.139 591.153C359.582 586.075 371.298 566.352 366.278 547.135C366.111 546.497 366.5 545.836 367.154 545.665C367.807 545.494 368.47 545.88 368.637 546.519C373.99 567.014 361.496 588.058 340.746 593.478C319.996 598.898 298.806 586.652 293.453 566.157C293.286 565.519 293.675 564.858 294.329 564.687C294.983 564.516 295.645 564.903 295.812 565.541C300.831 584.758 320.696 596.232 340.139 591.153Z" fill="#00E4AF" stroke="black" strokeWidth="0.5"/>
<path d="M321.934 521.517C302.491 526.595 290.775 546.318 295.795 565.537C295.962 566.176 295.573 566.837 294.92 567.007C294.266 567.178 293.603 566.792 293.437 566.153C288.083 545.656 300.577 524.614 321.327 519.194C342.077 513.774 363.266 526.018 368.62 546.515C368.787 547.154 368.398 547.815 367.744 547.985C367.091 548.156 366.428 547.77 366.261 547.131C361.241 527.912 341.377 516.438 321.934 521.517Z" fill="#00E4AF" stroke="black" strokeWidth="0.5"/>
<path d="M369.362 562.283L369.362 562.283C368.706 562.129 368.047 562.533 367.889 563.177C367.732 563.822 368.132 564.47 368.785 564.623L369.362 562.283ZM369.362 562.283L376.421 563.931C376.28 564.724 376.118 565.511 375.936 566.292L368.785 564.623L369.362 562.283ZM315.39 599.321C316.154 599.59 316.926 599.841 317.705 600.069L320.697 592.735L315.39 599.321ZM315.39 599.321L318.438 591.85C318.691 591.235 319.402 590.931 320.027 591.177C320.649 591.422 320.948 592.119 320.697 592.735L315.39 599.321ZM373.998 572.534L366.812 569.416C366.196 569.151 365.474 569.43 365.202 570.038C364.93 570.644 365.205 571.354 365.819 571.621L373.998 572.534ZM373.998 572.534C373.704 573.285 373.391 574.027 373.059 574.761L365.819 571.621L373.998 572.534ZM300.552 577.198L300.553 577.198C300.918 577.748 300.763 578.494 300.199 578.861L300.199 578.861L293.597 583.175C293.125 582.528 292.669 581.867 292.23 581.192L298.865 576.858C299.43 576.491 300.186 576.645 300.552 577.198ZM294.662 544.129L294.663 544.129C295.305 544.317 295.667 544.987 295.473 545.622C295.279 546.259 294.598 546.625 293.953 546.437L286.653 544.293C286.873 543.517 287.114 542.749 287.374 541.99L294.662 544.129ZM309.373 526.217L303.971 519.578C304.628 519.102 305.299 518.641 305.985 518.199L311.276 524.704L311.277 524.705C311.694 525.216 311.612 525.975 311.087 526.394C310.56 526.814 309.792 526.733 309.373 526.218L309.373 526.217ZM346.999 590.703L346.999 590.703C346.689 590.122 346.915 589.391 347.511 589.078L347.512 589.078C348.108 588.762 348.845 588.987 349.156 589.57L352.801 596.408C352.087 596.789 351.362 597.155 350.624 597.502L346.999 590.703ZM348.899 523.115L348.898 523.115C348.276 522.872 347.974 522.173 348.224 521.557L348.224 521.557L350.848 515.074C351.583 515.415 352.309 515.778 353.025 516.158L350.485 522.437C350.485 522.437 350.485 522.437 350.485 522.437C350.485 522.437 350.485 522.437 350.485 522.437C350.235 523.055 349.524 523.361 348.899 523.115ZM363.744 538.178L363.744 538.178C363.408 537.608 363.603 536.871 364.186 536.534L364.187 536.534L370.633 532.793C371.046 533.477 371.442 534.174 371.82 534.885L365.41 538.605C364.826 538.943 364.08 538.749 363.744 538.178ZM288.204 573.451L295.125 570.706C295.753 570.457 296.46 570.76 296.706 571.374C296.951 571.986 296.648 572.687 296.02 572.939C296.02 572.939 296.019 572.939 296.019 572.939L289.16 575.658C288.824 574.935 288.505 574.199 288.204 573.451ZM346.401 513.271L343.805 520.869C343.59 521.5 342.897 521.844 342.259 521.634C341.623 521.424 341.283 520.744 341.498 520.116L344.087 512.54C344.866 512.763 345.638 513.008 346.401 513.271Z" fill="#00E4AF" stroke="black" strokeWidth="0.5"/>
<mask id="path-27-inside-1_2136:7427" fill="white">
<path fillRule="evenodd" clipRule="evenodd" d="M226.548 210.586C226.426 210.396 221.684 210.57 221.316 210.547C215.763 210.202 210.217 209.658 204.69 209.024C186.321 206.916 164.404 205.466 149.247 193.753C132.004 180.43 146.532 160.858 165.416 164.479C188.7 168.943 206.337 192.01 226.339 203.511"/>
</mask>
<path fillRule="evenodd" clipRule="evenodd" d="M226.548 210.586C226.426 210.396 221.684 210.57 221.316 210.547C215.763 210.202 210.217 209.658 204.69 209.024C186.321 206.916 164.404 205.466 149.247 193.753C132.004 180.43 146.532 160.858 165.416 164.479C188.7 168.943 206.337 192.01 226.339 203.511" fill="black"/>
<path d="M221.316 210.547L221.347 210.048L221.347 210.048L221.316 210.547ZM204.69 209.024L204.633 209.521L204.633 209.521L204.69 209.024ZM149.247 193.753L149.552 193.357L149.552 193.357L149.247 193.753ZM165.416 164.479L165.322 164.97L165.322 164.97L165.416 164.479ZM226.968 210.314C226.877 210.173 226.744 210.119 226.715 210.107C226.664 210.086 226.615 210.073 226.58 210.066C226.509 210.05 226.428 210.04 226.35 210.033C226.19 210.018 225.979 210.008 225.742 210.003C225.265 209.992 224.642 209.995 224.017 210.004C223.392 210.012 222.759 210.026 222.262 210.036C222.012 210.041 221.798 210.045 221.635 210.047C221.553 210.048 221.486 210.049 221.435 210.049C221.409 210.049 221.388 210.049 221.372 210.048C221.364 210.048 221.358 210.048 221.353 210.048C221.349 210.048 221.347 210.048 221.347 210.048L221.285 211.046C221.404 211.053 221.802 211.045 222.282 211.036C222.781 211.026 223.41 211.012 224.031 211.004C224.653 210.995 225.261 210.992 225.719 211.003C225.95 211.008 226.132 211.017 226.256 211.028C226.32 211.034 226.354 211.04 226.366 211.043C226.373 211.044 226.358 211.041 226.331 211.031C226.328 211.029 226.212 210.986 226.128 210.857L226.968 210.314ZM221.347 210.048C215.805 209.704 210.269 209.161 204.747 208.527L204.633 209.521C210.165 210.156 215.72 210.701 221.285 211.046L221.347 210.048ZM204.747 208.527C195.544 207.471 185.509 206.585 175.87 204.502C166.236 202.419 157.048 199.15 149.552 193.357L148.941 194.149C156.602 200.069 165.952 203.381 175.658 205.479C185.36 207.576 195.467 208.469 204.633 209.521L204.747 208.527ZM149.552 193.357C145.316 190.084 143.071 186.46 142.333 182.946C141.594 179.433 142.351 175.982 144.207 173.028C147.925 167.111 156.065 163.195 165.322 164.97L165.511 163.988C155.883 162.142 147.316 166.201 143.36 172.496C141.38 175.648 140.557 179.361 141.354 183.152C142.151 186.942 144.556 190.76 148.941 194.149L149.552 193.357ZM165.322 164.97C176.837 167.177 186.987 173.992 196.798 181.748C206.575 189.477 216.046 198.17 226.09 203.945L226.589 203.078C216.63 197.352 207.281 188.76 197.418 180.964C187.59 173.195 177.279 166.244 165.511 163.988L165.322 164.97Z" fill="black" mask="url(#path-27-inside-1_2136:7427)"/>
<path d="M267.917 210.525C267.917 222.887 257.896 232.909 245.534 232.909C233.172 232.909 223.15 222.887 223.15 210.525C223.15 198.163 233.172 188.142 245.534 188.142C257.896 188.142 267.917 198.163 267.917 210.525Z" fill="#CBF5E7" stroke="black" strokeWidth="0.5"/>
<path d="M232.424 214.966C232.424 216.868 233.554 218.509 235.186 219.29L228.306 224.81C225.087 220.934 223.15 215.954 223.15 210.526C223.15 198.172 233.18 188.142 245.534 188.142C256.863 188.142 266.237 196.577 267.716 207.505C264.17 206.982 261.191 204.722 258.754 200.74L258.312 200.019L258.291 200.865C258.186 204.999 256.323 207.845 253.377 209.873C250.47 211.874 246.507 213.079 242.132 213.903C241.637 211.756 239.674 210.156 237.339 210.156C234.632 210.156 232.424 212.306 232.424 214.966Z" fill="black" stroke="black" strokeWidth="0.5"/>
<path d="M589.431 380.155L589.083 380.214L589.254 380.523L589.472 380.402L589.254 380.523L589.254 380.523L589.254 380.524L589.257 380.528L589.265 380.544L589.299 380.605L589.43 380.842L589.917 381.722L591.562 384.695L595.732 392.231C596.986 394.5 596.969 397.254 595.688 399.506C593.656 402.971 589.832 408.256 583.195 413.505L583.118 413.566L583.103 413.663L583.103 413.664L583.103 413.665L583.102 413.671L583.098 413.692L583.086 413.775L583.038 414.088L582.868 415.199C582.727 416.115 582.542 417.326 582.361 418.507C582.2 419.553 581.63 420.49 580.774 421.113L580.774 421.113C579.918 421.739 578.853 421.995 577.807 421.828L577.807 421.828C576.224 421.578 575.018 420.278 574.881 418.682C574.798 417.662 574.847 416.588 575.023 415.738L575.024 415.731L575.025 415.723L574.99 415.718C575.025 415.723 575.025 415.723 575.025 415.723L575.025 415.722L575.026 415.717L575.028 415.7L575.037 415.634C575.045 415.576 575.056 415.49 575.069 415.377C575.095 415.151 575.13 414.818 575.166 414.386C575.239 413.521 575.316 412.261 575.335 410.672C575.373 407.495 575.178 403.005 574.25 397.745C572.394 387.23 567.602 373.636 555.863 361.323L555.859 361.317C555.848 361.299 555.831 361.271 555.81 361.235C555.766 361.161 555.704 361.052 555.627 360.911C555.473 360.628 555.263 360.215 555.042 359.699C554.598 358.665 554.109 357.224 553.923 355.587C553.737 353.951 553.855 352.125 554.616 350.315C555.376 348.507 556.785 346.698 559.209 345.102C559.211 345.101 559.212 345.1 559.213 345.099L596.037 322.928L596.337 322.748L596.069 322.523L573.057 303.168L572.735 302.897L572.651 303.31L572.651 303.31L572.65 303.313L572.648 303.325L572.637 303.375C572.627 303.42 572.612 303.486 572.591 303.574C572.549 303.75 572.483 304.01 572.389 304.343C572.201 305.01 571.901 305.97 571.454 307.139C570.559 309.479 569.076 312.655 566.722 315.996C562.016 322.674 553.827 330.016 539.881 332.657C527.837 334.941 505.194 335.638 491.216 314.346L491.066 314.117L490.852 314.288L491.007 314.483C490.852 314.288 490.852 314.288 490.851 314.288L490.848 314.29L490.838 314.298L490.799 314.33L490.641 314.455C490.502 314.566 490.295 314.731 490.025 314.946C489.485 315.378 488.689 316.014 487.67 316.831C485.632 318.466 482.699 320.826 479.119 323.731C471.96 329.541 462.214 337.526 451.866 346.23C431.186 363.626 408.08 383.912 398.441 395.426L398.421 395.445C398.401 395.463 398.37 395.491 398.329 395.526C398.248 395.596 398.128 395.694 397.976 395.807C397.672 396.034 397.242 396.317 396.738 396.544C395.726 397 394.462 397.215 393.29 396.381C392.594 395.885 391.811 395.139 391.447 394.152C391.09 393.182 391.123 391.936 392.135 390.394L391.759 390.072C391.758 390.071 391.758 390.071 391.758 390.071L391.758 390.071L391.757 390.072L391.75 390.078L391.723 390.101C391.711 390.112 391.695 390.126 391.676 390.141C391.658 390.156 391.637 390.173 391.614 390.192C391.518 390.27 391.377 390.379 391.197 390.505C390.837 390.757 390.327 391.071 389.729 391.321C388.528 391.822 387.009 392.054 385.592 391.085C384.616 390.417 383.764 389.436 383.403 388.254C383.044 387.082 383.159 385.684 384.162 384.149L383.785 383.828C383.784 383.828 383.784 383.828 383.784 383.828L383.784 383.828L383.782 383.829L383.776 383.835C383.77 383.84 383.761 383.848 383.749 383.859C383.724 383.88 383.686 383.912 383.637 383.952C383.539 384.033 383.394 384.146 383.209 384.275C382.84 384.534 382.318 384.855 381.701 385.106C380.468 385.609 378.894 385.822 377.401 384.753C375.384 383.305 374.878 380.733 375.91 377.705L375.497 377.448L375.497 377.447L375.497 377.448L375.495 377.449L375.488 377.456L375.459 377.484C375.432 377.509 375.392 377.546 375.34 377.593C375.236 377.687 375.082 377.819 374.888 377.972C374.498 378.278 373.949 378.662 373.306 378.98C372.012 379.619 370.398 379.966 368.924 378.968L368.924 378.968C366.789 377.525 365.804 374.557 367.217 372.438C367.217 372.437 367.218 372.436 367.218 372.436L381.272 352.26L381.299 352.221L381.31 352.175L384.898 337.184L384.922 337.159C384.969 337.11 385.038 337.037 385.131 336.94C385.315 336.747 385.59 336.461 385.952 336.088C386.675 335.341 387.743 334.246 389.124 332.854C391.886 330.07 395.898 326.097 400.897 321.342C410.896 311.831 424.845 299.193 440.643 286.684C456.442 274.174 474.085 261.797 491.473 252.805C508.868 243.809 525.977 238.216 540.719 239.234C550.186 239.888 577.178 243.559 603.253 262.58C622.087 276.316 638.188 292.143 653.821 308.294C661.414 316.143 664.801 327.151 662.926 337.909L663.172 337.952L662.926 337.91C661.055 348.671 654.15 357.887 644.346 362.709L644.456 362.934L644.346 362.709C630.145 369.707 611.867 376.393 589.431 380.155Z" fill="#CBF5E7" stroke="black" strokeWidth="0.5"/>
<path d="M620.503 372.466L587.829 327.861L596.02 322.928L596.32 322.748L596.052 322.523L573.04 303.168L572.718 302.897L572.634 303.31L572.634 303.31L572.633 303.313L572.63 303.325L572.62 303.375C572.614 303.398 572.608 303.427 572.6 303.461C572.592 303.494 572.584 303.532 572.573 303.574C572.531 303.75 572.465 304.01 572.371 304.343C572.184 305.01 571.884 305.97 571.437 307.14C570.542 309.479 569.059 312.655 566.704 315.996C561.998 322.674 553.809 330.016 539.864 332.657L539.907 332.885L539.864 332.657C527.819 334.941 505.177 335.638 491.199 314.346L491.049 314.117L490.834 314.288L490.99 314.483C490.834 314.288 490.834 314.288 490.834 314.288L490.834 314.288L490.832 314.29L490.824 314.296L490.793 314.321L490.669 314.419C490.559 314.507 490.396 314.636 490.183 314.807C489.755 315.147 489.125 315.651 488.314 316.3C486.692 317.6 484.345 319.485 481.446 321.831C475.69 326.487 467.757 332.957 458.998 340.249L424.993 299.566C441.698 285.272 461.928 269.617 482.315 257.819C502.787 245.971 523.377 238.037 540.702 239.234L540.719 238.985L540.702 239.234C550.168 239.888 577.16 243.559 603.236 262.58C622.069 276.316 638.17 292.143 653.804 308.294C661.397 316.143 664.784 327.151 662.909 337.909C661.037 348.671 654.132 357.887 644.329 362.709L644.328 362.709C637.368 366.139 629.432 369.494 620.503 372.466Z" fill="#00E4AF" stroke="black" strokeWidth="0.5"/>
<path d="M392.026 390.083C391.972 390.154 391.93 390.208 391.903 390.242L391.718 390.082C391.72 390.081 391.722 390.079 391.724 390.078C391.729 390.074 391.75 390.058 391.781 390.046L391.781 390.046C391.793 390.041 391.915 389.994 392.026 390.083ZM391.714 390.078C391.714 390.078 391.714 390.078 391.714 390.078L391.714 390.078C391.713 390.078 391.713 390.078 391.713 390.078L391.713 390.078L391.713 390.078L391.712 390.079L391.709 390.082L391.692 390.097C391.677 390.11 391.654 390.129 391.623 390.155C391.562 390.205 391.471 390.278 391.355 390.366C391.121 390.54 390.785 390.771 390.376 390.995C389.663 391.385 388.748 391.743 387.78 391.763L391.579 386.468L391.579 386.467C391.944 385.953 392.662 385.836 393.174 386.205C393.685 386.573 393.803 387.287 393.439 387.798L393.435 387.803L393.419 387.825L393.358 387.905L393.143 388.192C392.966 388.428 392.731 388.74 392.501 389.044C392.271 389.349 392.046 389.646 391.889 389.851C391.811 389.954 391.75 390.033 391.714 390.078ZM379.697 385.527L383.627 380.053L383.627 380.053C383.992 379.542 384.71 379.424 385.222 379.79C385.733 380.158 385.851 380.874 385.485 381.389C385.485 381.389 385.485 381.389 385.485 381.39L383.711 383.861C383.585 383.97 383.052 384.419 382.281 384.823C381.564 385.199 380.66 385.528 379.697 385.527ZM371.085 379.598L375.43 373.54C375.43 373.54 375.431 373.54 375.431 373.54C375.8 373.027 376.515 372.909 377.026 373.277L377.026 373.277C377.542 373.646 377.658 374.361 377.29 374.872L377.289 374.873L375.411 377.494C375.248 377.647 374.638 378.201 373.784 378.703C373.014 379.157 372.067 379.555 371.085 379.598Z" fill="#8ABBB8" stroke="black" strokeWidth="0.5"/>
<path d="M556.705 212.023C556.705 223.392 547.489 232.607 536.121 232.607C524.753 232.607 515.537 223.392 515.537 212.023C515.537 200.655 524.753 191.439 536.121 191.439C547.489 191.439 556.705 200.655 556.705 212.023Z" fill="#CBF5E7" stroke="black" strokeWidth="0.5"/>
<path d="M539.129 209.141C537.861 209.863 536.96 210.977 536.519 212.219L526.088 194.032C529.047 192.381 532.459 191.439 536.088 191.439C547.45 191.439 556.673 200.663 556.673 212.023C556.673 219.557 552.615 226.152 546.568 229.739L540.346 218.888C541.628 219.132 543.033 218.926 544.293 218.209L544.293 218.209C546.959 216.692 548 213.426 546.568 210.909L546.568 210.909C545.136 208.392 541.795 207.623 539.129 209.141L539.129 209.141Z" fill="black" stroke="black" strokeWidth="0.5"/>
<path d="M606.449 333.029L589.861 326.592L595.88 322.97L596.537 323.529L599.502 326.05C601.853 328.049 604.737 330.501 606.873 332.316L606.873 332.317C607.031 332.45 607.068 332.674 606.963 332.852C606.857 333.031 606.638 333.105 606.452 333.03L606.449 333.029ZM498.632 323.132C495.988 320.758 493.491 317.898 491.217 314.457L505.495 302.321L505.495 302.321C505.835 302.03 506.333 302.012 506.697 302.278C507.057 302.545 507.189 303.026 507.013 303.438L507.012 303.439L498.632 323.132ZM576.7 277.765C579.628 283.771 584.2 296.021 582.199 310.916L573.141 303.295C574.458 297.84 575.801 289.028 575.285 278.131L575.285 278.13C575.267 277.778 575.501 277.461 575.844 277.372C576.186 277.284 576.543 277.447 576.7 277.765Z" fill="#13AF8B" stroke="black" strokeWidth="0.5"/>
<path d="M438.491 587.882L438.677 587.848L438.695 587.659C444.92 520.718 457.047 455.419 477.712 388.389C485.857 362.017 512.434 345.905 539.584 350.879L539.584 350.879C547.42 352.311 554.791 355.447 560.576 361.215C563.125 363.761 581.645 386.453 574.655 421.918C572.436 433.167 567.905 446.41 564.751 455.199L564.703 455.334L564.795 455.444L564.986 455.283C564.795 455.444 564.795 455.444 564.795 455.444L564.797 455.447L564.805 455.456L564.835 455.491L564.953 455.632L565.414 456.184L567.17 458.284L573.495 465.848L593.184 489.392C607.834 506.912 623.397 525.523 627.048 529.889L627.048 529.89C627.456 530.375 627.511 531.071 627.185 531.622C624.56 536.019 614.274 553.256 604.644 569.394L591.73 591.035L587.591 597.97L586.443 599.894L586.208 600.287C586.197 600.275 586.186 600.263 586.175 600.249C586.012 600.064 585.78 599.784 585.508 599.408C584.963 598.655 584.259 597.52 583.627 595.995C582.363 592.947 581.382 588.335 582.551 582.1L582.574 581.978L582.49 581.885L536.58 531.536L536.315 531.245L536.164 531.609L536.395 531.705C536.164 531.609 536.164 531.609 536.164 531.61L536.163 531.611L536.16 531.619L536.147 531.65L536.097 531.771L535.901 532.244L535.154 534.048L532.454 540.566L523.975 561.033C517.618 576.379 510.735 592.994 508.632 598.068L508.632 598.068C508.28 598.919 507.454 599.475 506.534 599.482C500.559 599.527 479.708 599.681 460.35 599.824L434.481 600.015L426.223 600.075L423.934 600.092L423.537 600.095C423.553 600.064 423.57 600.031 423.588 599.997C423.744 599.701 423.978 599.276 424.291 598.76C424.918 597.726 425.86 596.328 427.12 594.871C429.643 591.954 433.425 588.821 438.491 587.882Z" fill="#CBF5E7" stroke="black" strokeWidth="0.5"/>
<path d="M567.209 458.359L538.733 533.921L536.551 531.528L536.476 531.446L565.011 455.732L567.209 458.359ZM556.678 361.468L556.678 361.469C556.934 361.788 557.354 362.226 557.9 362.795C560.01 364.996 563.995 369.15 567.558 375.936C572.036 384.463 575.828 397.124 574.25 415.152C574.062 417.298 574.323 419.014 574.919 420.343C574.825 420.862 574.729 421.388 574.623 421.913L574.623 421.915C574.52 422.446 574.411 422.981 574.295 423.521C574.209 423.428 574.126 423.332 574.044 423.233L574.043 423.231C572.587 421.486 571.63 418.826 571.971 414.952L571.728 414.931L571.971 414.952C573.5 397.488 569.816 385.199 565.448 376.906C561.968 370.3 558.04 366.216 556.021 364.118C555.511 363.588 555.123 363.184 554.895 362.899L554.895 362.899C552.512 359.92 551.616 357.05 551.391 354.694C552.265 355.128 553.125 355.596 553.964 356.099C554.359 357.74 555.171 359.58 556.678 361.468ZM439.197 582.084L514.233 584.476L513.297 586.735L438.977 584.366C439.049 583.605 439.123 582.843 439.197 582.084ZM616.353 517.131L580.908 580.179L579.287 578.401L614.783 515.252L616.353 517.131Z" fill="#8ABBB8" stroke="black" strokeWidth="0.5"/>
<path d="M286.116 448.081L286.402 448.238C294.938 452.912 304.402 456.314 314.409 458.994L314.641 459.056L314.588 459.291L314.344 459.235C314.588 459.291 314.588 459.291 314.588 459.291L314.587 459.292L314.586 459.297L314.582 459.317L314.564 459.396L314.493 459.706L314.224 460.89L313.246 465.197L310.115 478.988C307.727 489.502 305.038 501.345 303.831 506.664L303.831 506.665C303.683 507.312 303.824 507.99 304.216 508.52L304.217 508.52C304.609 509.054 305.215 509.39 305.875 509.444L286.116 448.081ZM286.116 448.081L286.039 448.399C278.122 481.217 263.912 516.243 251.676 543.071C245.559 556.483 239.937 567.844 235.845 575.851C233.799 579.854 232.135 583.019 230.982 585.183C230.406 586.265 229.958 587.097 229.654 587.658C229.502 587.939 229.386 588.152 229.308 588.294L229.22 588.456L229.198 588.496L229.192 588.506L229.191 588.509C229.19 588.509 229.19 588.509 229.409 588.63M286.116 448.081L229.409 588.63M229.409 588.63L229.19 588.509L228.961 588.925L229.433 588.879C231.264 588.7 233.167 589.341 235.007 590.432C236.846 591.521 238.6 593.048 240.126 594.606C241.65 596.162 242.938 597.743 243.846 598.935C244.3 599.531 244.658 600.03 244.903 600.379C244.943 600.436 244.98 600.489 245.014 600.538H244.992H244.951H244.908H244.863H244.817H244.769H244.72H244.669H244.617H244.562H244.507H244.45H244.391H244.33H244.269H244.205H244.14H244.074H244.006H243.936H243.865H243.793H243.719H243.643H243.566H243.488H243.408H243.326H243.243H243.159H243.073H242.986H242.897H242.807H242.716H242.623H242.529H242.433H242.336H242.237H242.137H242.036H241.933H241.829H241.724H241.617H241.509H241.399H241.288H241.176H241.063H240.948H240.832H240.714H240.596H240.476H240.354H240.231H240.108H239.982H239.856H239.728H239.599H239.469H239.337H239.204H239.07H238.935H238.799H238.661H238.522H238.382H238.241H238.098H237.955H237.81H237.664H237.517H237.368H237.219H237.068H236.916H236.763H236.609H236.454H236.297H236.14H235.981H235.821H235.661H235.499H235.336H235.172H235.006H234.84H234.673H234.505H234.335H234.165H233.993H233.821H233.647H233.472H233.297H233.12H232.942H232.764H232.584H232.404H232.222H232.039H231.856H231.671H231.486H231.299H231.112H230.924H230.734H230.544H230.353H230.161H229.968H229.774H229.579H229.384H229.187H228.99H228.791H228.592H228.392H228.191H227.989H227.787H227.583H227.379H227.174H226.968H226.761H226.554H226.345H226.136H225.926H225.715H225.504H225.291H225.078H224.864H224.65H224.434H224.218H224.001H223.784H223.565H223.346H223.126H222.906H222.685H222.463H222.24H222.017H221.793H221.568H221.343H221.117H220.89H220.663H220.435H220.206H219.977H219.747H219.517H219.286H219.054H218.822H218.589H218.355H218.121H217.886H217.651H217.415H217.179H216.942H216.704H216.466H216.228H215.989H215.749H215.509H215.268H215.027H214.785H214.543H214.3H214.057H213.813H213.569H213.324H213.079H212.833H212.587H212.341H212.094H211.847H211.599H211.35H211.102H210.853H210.603H210.353H210.103H209.853H209.601H209.35H209.098H208.846H208.594H208.341H208.088H207.834H207.58H207.326H207.071H206.816H206.561H206.306H206.05H205.794H205.538H205.281H205.024H204.767H204.509H204.252H203.994H203.735H203.477H203.218H202.959H202.7H202.441H202.181H201.921H201.661H201.401H201.141H200.88H200.619H200.358H200.097H199.836H199.575H199.313H199.052H198.79H198.528H198.266H198.003H197.741H197.479H197.216H196.954H196.691H196.428H196.165H195.902H195.639H195.376H195.113H194.85H194.587H194.324H194.06H193.797H193.534H193.27H193.007H192.744H192.48H192.217H191.954H191.691H191.427H191.164H190.901H190.638H190.375H190.112H189.849H189.586H189.323H189.06H188.798H188.535H188.273H188.01H187.748H187.486H187.224H186.962H186.7H186.439H186.177H185.916H185.655H185.394H185.133H184.873H184.612H184.352H184.092H183.832H183.572H183.313H183.054H182.795H182.536H182.277H182.019H181.761H181.503H181.246H180.988H180.731H180.475H180.218H179.962H179.706H179.451H179.195H178.94H178.686H178.432H178.178H177.924H177.671H177.418H177.165H176.913H176.661H176.409H176.158H175.907H175.657H175.407H175.158H174.908H174.66H174.411H174.163H173.916H173.669H173.422H173.176H172.93H172.685H172.44H172.196H171.952H171.709H171.466H171.223H170.982H170.74H170.499H170.259H170.019H169.78H169.541H169.303H169.065H168.828H168.591H168.355H168.12H167.885H167.651H167.417H167.184H166.952H166.72H166.488H166.258H166.028H165.798H165.57H165.341H165.114H164.887H164.661H164.435H164.211H163.986H163.763H163.54H163.318H163.097H162.876H162.656H162.437H162.218H162H161.783H161.567H161.351H161.136H160.922H160.709H160.497H160.285H160.074H159.864H159.654H159.446H159.238H159.031H158.825H158.619H158.415H158.211H158.008H157.806H157.605H157.405H157.205H157.007H156.809H156.612H156.416H156.221H156.027H155.834H155.642H155.45H155.26H155.07H154.882H154.694H154.507H154.322H154.137H153.953H153.77H153.588H153.407H153.228H153.049H152.871H152.694H152.518H152.343H152.169H151.996H151.825H151.654H151.484H151.315H151.148H150.981H150.816H150.651H150.488H150.326H150.165H150.005H149.846H149.688H149.531H149.376H149.221H149.068H148.916H148.765H148.615H148.466H148.319H148.172H148.027H147.883H147.74H147.599H147.458H147.319H147.181H147.044H146.909H146.774H146.641H146.509H146.379C145.153 600.538 144.009 599.922 143.334 598.898C142.659 597.874 142.545 596.579 143.028 595.454L143.029 595.453C170.581 530.55 191.344 448.31 194.009 435.766C203.157 392.714 215.645 371.035 227.512 360.449C239.362 349.878 250.623 350.343 257.417 351.673L257.417 351.673C261.288 352.43 264.785 353.539 267.916 354.966L267.94 354.977L267.967 354.983C300.712 362.035 351.205 384.837 378.858 405.57L229.409 588.63Z" fill="url(#paint0_linear_2136:7427)" stroke="black" strokeWidth="0.5"/>
<path d="M281.794 366.249C291.888 380.403 299.295 405.52 289.063 449.668C288.149 449.206 287.245 448.732 286.351 448.244L286.329 448.232C295.984 405.968 289.172 381.734 279.364 367.983C274.289 360.866 268.453 356.633 263.884 354.179C262.181 353.264 260.654 352.596 259.407 352.119C262.476 352.842 265.294 353.8 267.864 354.972L267.889 354.983L267.915 354.989C269.241 355.274 270.594 355.586 271.975 355.922C275.245 358.486 278.655 361.85 281.794 366.249ZM153.412 569.303C153.778 568.329 154.143 567.353 154.508 566.375L238.149 571.207C237.644 572.215 237.154 573.182 236.681 574.114L153.412 569.303ZM369.552 489.14C369.094 490.129 368.631 491.122 368.163 492.119L307.148 491.828L307.826 488.847L369.552 489.14Z" fill="#8ABBB8" stroke="black" strokeWidth="0.5"/>
<path d="M332.567 463.02L332.567 463.02L332.575 463.02C333.039 463.065 333.407 463.441 333.44 463.908L333.44 463.909C333.476 464.378 333.171 464.803 332.716 464.916L332.715 464.916C326.035 466.617 316.413 469.064 312.164 470.144L314.584 459.49C315.417 459.702 316.355 459.934 317.377 460.177C321.524 461.161 327.053 462.321 332.567 463.02Z" fill="#8ABBB8" stroke="black" strokeWidth="0.5"/>
<path d="M199.432 367.413L199.324 367.137L199.07 367.291L199.199 367.505C199.07 367.291 199.07 367.291 199.069 367.291L199.068 367.292L199.064 367.295L199.045 367.306L198.973 367.349L198.688 367.522L197.585 368.19L193.469 370.682L179.387 379.206C168.079 386.052 153.839 394.673 142.106 401.775C129.271 409.544 112.756 407.223 102.556 396.252L102.384 396.063C91.2377 383.88 89.6013 365.755 98.3853 351.772C109.03 334.875 125.912 317.461 141.612 303.157C157.308 288.857 171.808 277.678 177.676 273.249C211.076 248.042 238.578 246.366 258.568 251.807C278.379 257.2 290.852 269.593 294.407 273.125L294.509 273.227C325.404 303.905 348.971 316.622 357.609 321.284C358.066 321.53 358.481 321.754 358.854 321.957L358.96 321.762L358.854 321.957C385.86 336.665 401.142 338.724 403.17 338.884C405.336 339.054 406.142 339.721 406.397 340.343C406.661 340.987 406.399 341.721 406.129 342.145L406.129 342.145C405.218 343.579 403.266 344.923 400.794 346.131C398.333 347.334 395.401 348.383 392.578 349.248C389.758 350.112 387.055 350.789 385.056 351.251C384.057 351.482 383.234 351.659 382.662 351.778C382.376 351.838 382.152 351.883 382 351.913C381.924 351.928 381.866 351.939 381.827 351.947L381.783 351.955L381.772 351.957L381.769 351.958L381.768 351.958C381.768 351.958 381.768 351.958 381.815 352.204L381.768 351.958L381.669 351.977L381.61 352.06L364.932 375.79C338.211 365.932 315.875 354.058 300.211 344.641C292.361 339.922 286.187 335.82 281.975 332.898C279.87 331.437 278.255 330.271 277.167 329.471C276.623 329.071 276.211 328.762 275.935 328.554C275.797 328.449 275.693 328.37 275.624 328.317L275.545 328.257L275.526 328.242L275.521 328.239L275.52 328.238C275.52 328.237 275.52 328.237 275.367 328.435L275.52 328.237L275.375 328.125L275.224 328.23C255.659 341.827 238.952 340.709 227.139 336.212C221.227 333.961 216.534 330.861 213.319 328.323C211.712 327.054 210.475 325.926 209.641 325.117C209.224 324.712 208.907 324.387 208.695 324.163C208.59 324.051 208.51 323.965 208.457 323.907C208.431 323.878 208.411 323.856 208.398 323.841L208.383 323.825L208.38 323.821L208.379 323.82C208.379 323.82 208.379 323.82 208.191 323.985L208.379 323.82L208.244 323.667L208.067 323.768L195.784 330.811L195.421 331.018L195.776 331.24C202.357 335.35 206.926 341.173 209.873 346.208C211.345 348.725 212.41 351.041 213.118 352.843C213.471 353.744 213.735 354.515 213.915 355.117C214.097 355.725 214.19 356.146 214.209 356.352C214.869 363.505 211.937 370.076 208.052 372.677C206.048 374.018 203.827 373.528 202.718 372.477L202.717 372.477C201.691 371.506 200.869 370.243 200.301 369.213C200.018 368.7 199.8 368.249 199.653 367.926C199.58 367.765 199.524 367.636 199.487 367.547C199.469 367.503 199.455 367.469 199.445 367.447L199.435 367.421L199.433 367.415L199.432 367.414L199.432 367.413Z" fill="#CBF5E7" stroke="black" strokeWidth="0.5"/>
<path d="M199.503 367.578C199.512 367.598 199.521 367.621 199.532 367.645C199.597 367.797 199.695 368.016 199.823 368.282C200.057 368.766 200.39 369.404 200.813 370.078L205.925 366.879C206.623 366.44 206.835 365.52 206.398 364.822L199.503 367.578ZM199.503 367.578L204.344 364.345C205.042 363.912 205.961 364.125 206.398 364.822L199.503 367.578ZM375.743 353.473C377.219 353.274 379.097 353.017 380.941 352.749L378.587 356.097C377.151 356.295 375.837 356.471 374.876 356.599C374.383 356.665 373.983 356.717 373.706 356.754L373.386 356.796L373.303 356.806L373.282 356.809L373.277 356.81L373.275 356.81L373.275 356.81L373.275 356.81C372.457 356.914 371.708 356.335 371.604 355.518L371.604 355.517C371.499 354.703 372.079 353.954 372.893 353.849L372.893 353.849L372.861 353.601L372.893 353.849L372.893 353.849L372.894 353.849L372.896 353.849L372.907 353.848L372.946 353.842L373.101 353.822C373.237 353.805 373.435 353.779 373.686 353.746C374.188 353.68 374.9 353.586 375.743 353.473Z" fill="#8ABBB8" stroke="black" strokeWidth="0.5"/>
<path d="M186.695 374.727L142.109 401.754C129.276 409.533 112.756 407.219 102.554 396.245L102.381 396.056C91.2388 383.877 89.6025 365.758 98.3821 351.783C109.025 334.885 125.909 317.469 141.61 303.163C157.308 288.86 171.81 277.678 177.679 273.249C211.079 248.042 238.581 246.366 258.571 251.807C278.382 257.2 290.856 269.593 294.41 273.125L294.513 273.227C325.407 303.905 348.975 316.622 357.613 321.284C358.07 321.53 358.485 321.754 358.857 321.957L358.857 321.957C362.561 323.972 366.04 325.752 369.298 327.32L343.196 366.967C322.593 357.844 305.693 348.176 293.934 340.781C288.037 337.072 283.433 333.935 280.303 331.726C278.739 330.621 277.543 329.749 276.739 329.152C276.337 328.854 276.032 328.625 275.829 328.471C275.727 328.394 275.65 328.335 275.599 328.296L275.542 328.252L275.528 328.241L275.524 328.238L275.523 328.238C275.523 328.238 275.523 328.237 275.513 328.25L275.523 328.237L275.378 328.125L275.227 328.23C255.662 341.827 238.956 340.709 227.143 336.212C221.23 333.961 216.537 330.861 213.322 328.323C211.715 327.054 210.478 325.926 209.644 325.116C209.227 324.712 208.91 324.387 208.699 324.163C208.593 324.051 208.513 323.965 208.46 323.907C208.434 323.878 208.414 323.856 208.401 323.841L208.386 323.825L208.383 323.821L208.382 323.82C208.382 323.82 208.382 323.82 208.194 323.985L208.382 323.82L208.247 323.666L208.069 323.769L195.897 330.8C188.451 325.462 180.013 325.979 173.455 327.818C170.155 328.744 167.32 330.008 165.312 331.039C164.307 331.555 163.508 332.013 162.96 332.343C162.685 332.508 162.474 332.641 162.33 332.733C162.258 332.778 162.204 332.814 162.167 332.838L162.125 332.866L162.114 332.874L162.111 332.876L162.11 332.876C162.11 332.876 162.11 332.876 162.25 333.084L162.11 332.876L161.914 333.008L162.035 333.211L186.695 374.727Z" fill="#86B8B5" stroke="black" strokeWidth="0.5"/>
<path d="M199.319 311.157C202.685 317.511 205.916 321.717 207.824 323.939L198.972 329.051C195.979 321.881 196.322 315.419 197.031 311.52C197.126 311.01 197.532 310.614 198.046 310.532L198.048 310.532C198.561 310.449 199.07 310.699 199.319 311.157ZM199.319 311.157C199.318 311.156 199.318 311.156 199.318 311.155L199.539 311.038L199.319 311.158C199.319 311.157 199.319 311.157 199.319 311.157ZM117.29 360.29C132.344 350.956 147.29 341.865 162.196 333.407L163.72 335.973C148.828 344.422 133.897 353.506 118.863 362.827C118.163 363.26 117.242 363.044 116.808 362.343L116.808 362.343C116.374 361.645 116.59 360.723 117.29 360.29L117.29 360.29ZM285.833 335.496C282.548 333.295 280.003 331.497 278.269 330.241C277.381 329.598 276.705 329.097 276.252 328.757C276.025 328.587 275.854 328.458 275.74 328.371C275.706 328.344 275.676 328.322 275.652 328.303C279.18 324.631 287.482 314.333 290.319 296.383L290.319 296.382C290.367 296.079 290.623 295.852 290.928 295.841L290.928 295.841C291.235 295.83 291.504 296.034 291.577 296.329C292.44 301.322 293.171 309.876 290.946 320.307C289.935 325.035 288.319 330.153 285.833 335.496ZM290.919 295.604L290.919 295.591L290.919 295.604Z" fill="#1F5753" stroke="black" strokeWidth="0.5"/>
<path d="M416.212 362.631L416.496 362.238C415.099 360.555 414.927 358.09 416.231 356.205L416.231 356.205C417.797 353.935 420.913 353.364 423.183 354.934L423.183 354.934L431.254 360.509C431.254 360.509 431.254 360.509 431.254 360.509C433.52 362.076 434.091 365.192 432.521 367.462L432.521 367.462C431.094 369.529 428.38 370.183 426.193 369.098L425.881 369.471C427.094 371.112 427.193 373.407 425.97 375.177L425.97 375.177C424.571 377.206 421.915 377.853 419.77 376.795L419.459 377.169C420.655 378.779 420.757 381.038 419.551 382.78L419.551 382.781C418.18 384.768 415.579 385.404 413.472 384.374L413.162 384.748C414.344 386.334 414.443 388.558 413.261 390.269C411.775 392.42 408.823 392.96 406.671 391.474L400.207 387.007C398.059 385.52 397.517 382.568 399.002 380.42C400.277 378.58 402.624 377.917 404.623 378.699L404.906 378.305C403.554 376.686 403.389 374.3 404.644 372.482C405.939 370.607 408.331 369.934 410.365 370.732L410.649 370.34C409.276 368.688 409.107 366.261 410.387 364.411L410.387 364.411C411.706 362.502 414.14 361.818 416.212 362.631Z" fill="#CBF5E7" stroke="black" strokeWidth="0.5"/>
<path d="M413.423 384.379L413.262 384.573C413.228 384.551 413.178 384.518 413.113 384.474C413.137 384.439 413.165 384.406 413.188 384.388C413.223 384.371 413.285 384.356 413.31 384.354C413.326 384.354 413.354 384.357 413.364 384.359C413.385 384.363 413.4 384.369 413.405 384.371C413.413 384.374 413.419 384.377 413.423 384.379ZM404.843 378.292C404.024 377.301 403.646 376.025 403.763 374.769L417.285 384.538C416.058 385.013 414.656 384.981 413.425 384.378L413.423 384.379C413.415 384.374 413.397 384.363 413.37 384.345C413.312 384.307 413.224 384.247 413.109 384.167C412.878 384.008 412.542 383.774 412.136 383.488C411.324 382.917 410.233 382.144 409.141 381.368C408.05 380.592 406.958 379.813 406.143 379.23C405.736 378.938 405.399 378.696 405.166 378.527C405.049 378.443 404.959 378.377 404.899 378.333C404.875 378.315 404.856 378.301 404.843 378.292ZM409.477 366.907L423.491 377.03C422.281 377.448 420.919 377.389 419.722 376.799L419.555 376.997C419.519 376.975 419.467 376.942 419.4 376.897C419.401 376.895 419.401 376.894 419.402 376.892C419.425 376.862 419.477 376.817 419.505 376.801C419.568 376.772 419.624 376.777 419.638 376.779C419.673 376.782 419.698 376.793 419.7 376.794L419.701 376.794L419.708 376.798L419.711 376.799L419.711 376.799C419.711 376.799 419.71 376.798 419.708 376.797L419.698 376.791C419.689 376.786 419.677 376.779 419.663 376.77C419.605 376.734 419.513 376.673 419.391 376.59C419.146 376.425 418.788 376.177 418.354 375.873C417.485 375.266 416.314 374.439 415.144 373.608C413.974 372.776 412.805 371.941 411.939 371.318C411.507 371.006 411.15 370.748 410.908 370.57C410.786 370.481 410.694 370.413 410.636 370.368C410.618 370.355 410.604 370.344 410.595 370.336C409.795 369.369 409.404 368.136 409.477 366.907ZM410.615 370.639C410.611 370.644 410.606 370.65 410.601 370.655C410.537 370.607 410.488 370.57 410.455 370.544L410.599 370.345C410.605 370.352 410.615 370.364 410.624 370.381C410.631 370.393 410.645 370.429 410.651 370.451C410.656 370.49 410.642 370.587 410.615 370.639ZM426.144 369.103L425.981 369.295C425.947 369.273 425.896 369.239 425.831 369.195C425.84 369.176 425.85 369.159 425.861 369.146C425.904 369.113 425.987 369.081 426.02 369.077C426.07 369.074 426.109 369.088 426.114 369.09L426.114 369.09C426.125 369.094 426.134 369.098 426.137 369.1C426.14 369.101 426.142 369.102 426.144 369.103ZM416.495 362.473C416.477 362.496 416.458 362.516 416.436 362.533C416.379 362.492 416.334 362.46 416.304 362.437L416.446 362.245C416.465 362.283 416.501 362.381 416.495 362.473ZM415.314 358.631L429.671 369.002L429.672 369.002C429.805 369.098 429.91 369.216 429.987 369.348C428.751 369.772 427.364 369.708 426.145 369.102L426.144 369.103C426.144 369.103 426.143 369.103 426.143 369.102C426.131 369.095 426.109 369.081 426.076 369.059C426.01 369.014 425.909 368.945 425.778 368.855C425.516 368.673 425.137 368.408 424.679 368.085C423.763 367.44 422.535 366.57 421.305 365.696C420.075 364.823 418.844 363.946 417.923 363.289C417.462 362.96 417.079 362.686 416.813 362.496C416.679 362.4 416.576 362.325 416.506 362.275C416.472 362.251 416.447 362.232 416.43 362.22C415.599 361.205 415.207 359.911 415.314 358.631Z" fill="#8ABBB8" stroke="black" strokeWidth="0.5"/>
<path d="M569.634 530.325C571.708 530.325 573.391 532.008 573.391 534.086V602.971H466.613V602.956V602.93V602.903V602.876V602.847V602.817V602.785V602.753V602.72V602.685V602.649V602.613V602.575V602.536V602.496V602.455V602.412V602.369V602.325V602.279V602.233V602.185V602.136V602.087V602.036V601.984V601.931V601.877V601.823V601.767V601.71V601.652V601.593V601.533V601.472V601.41V601.347V601.282V601.217V601.151V601.084V601.016V600.948V600.878V600.807V600.735V600.662V600.588V600.514V600.438V600.361V600.284V600.205V600.126V600.045V599.964V599.882V599.799V599.715V599.63V599.544V599.457V599.37V599.281V599.192V599.102V599.011V598.918V598.826V598.732V598.637V598.542V598.445V598.348V598.25V598.151V598.052V597.951V597.85V597.748V597.645V597.541V597.436V597.331V597.225V597.118V597.01V596.901V596.792V596.682V596.571V596.459V596.346V596.233V596.119V596.004V595.889V595.772V595.655V595.538V595.419V595.3V595.18V595.059V594.938V594.816V594.693V594.569V594.445V594.32V594.194V594.068V593.941V593.813V593.685V593.556V593.426V593.296V593.165V593.033V592.901V592.768V592.634V592.5V592.365V592.229V592.093V591.956V591.819V591.68V591.542V591.403V591.263V591.122V590.981V590.839V590.697V590.554V590.411V590.267V590.122V589.977V589.831V589.685V589.538V589.391V589.243V589.094V588.945V588.796V588.646V588.495V588.344V588.192V588.04V587.887V587.734V587.581V587.426V587.272V587.117V586.961V586.805V586.648V586.491V586.334V586.176V586.017V585.858V585.699V585.539V585.379V585.218V585.057V584.895V584.733V584.571V584.408V584.245V584.081V583.917V583.753V583.588V583.423V583.257V583.091V582.925V582.758V582.591V582.423V582.255V582.087V581.918V581.749V581.58V581.41V581.24V581.07V580.899V580.728V580.557V580.385V580.213V580.041V579.868V579.696V579.522V579.349V579.175V579.001V578.827V578.652V578.477V578.302V578.127V577.951V577.775V577.599V577.422V577.246V577.069V576.892V576.714V576.537V576.359V576.181V576.002V575.824V575.645V575.466V575.287V575.108V574.928V574.749V574.569V574.389V574.209V574.028V573.848V573.667V573.486V573.305V573.124V572.942V572.761V572.579V572.398V572.216V572.034V571.852V571.669V571.487V571.304V571.122V570.939V570.756V570.574V570.391V570.208V570.024V569.841V569.658V569.475V569.291V569.108V568.924V568.741V568.557V568.374V568.19V568.006V567.822V567.639V567.455V567.271V567.087V566.903V566.719V566.536V566.352V566.168V565.984V565.8V565.616V565.433V565.249V565.065V564.882V564.698V564.514V564.331V564.147V563.964V563.78V563.597V563.414V563.231V563.048V562.865V562.682V562.499V562.316V562.134V561.951V561.769V561.586V561.404V561.222V561.04V560.858V560.676V560.495V560.313V560.132V559.951V559.77V559.589V559.408V559.228V559.047V558.867V558.687V558.507V558.328V558.148V557.969V557.79V557.611V557.432V557.254V557.076V556.898V556.72V556.542V556.365V556.188V556.011V555.834V555.658V555.482V555.306V555.13V554.955V554.78V554.605V554.431V554.256V554.082V553.909V553.735V553.562V553.389V553.217V553.045V552.873V552.701V552.53V552.359V552.188V552.018V551.848V551.679V551.509V551.341V551.172V551.004V550.836V550.669V550.501V550.335V550.168V550.002V549.837V549.672V549.507V549.343V549.179V549.015V548.852V548.689V548.527V548.365V548.204V548.043V547.882V547.722V547.562V547.403V547.244V547.086V546.928V546.77V546.613V546.457V546.301V546.145V545.99V545.836V545.682V545.528V545.375V545.223V545.071V544.919V544.768V544.618V544.468V544.318V544.169V544.021V543.873V543.726V543.579V543.433V543.287V543.142V542.998V542.854V542.711V542.568V542.426V542.284V542.143V542.003V541.863V541.724V541.586V541.448V541.31V541.174V541.038V540.902V540.767V540.633V540.5V540.367V540.235V540.103V539.972V539.842V539.712V539.583V539.455V539.328V539.201V539.075V538.949V538.824V538.7V538.577V538.454V538.332V538.211V538.091V537.971V537.852V537.733V537.616V537.499V537.383V537.267V537.153V537.039V536.926V536.814V536.702V536.591V536.481V536.372V536.264V536.156V536.049V535.943V535.838V535.734V535.63V535.527V535.425V535.324V535.224V535.124V535.026V534.928V534.831V534.735V534.639V534.545V534.451V534.359V534.267V534.176V534.086C466.613 532.008 468.296 530.325 470.371 530.325H470.47H470.571H470.673H470.776H470.88H470.985H471.091H471.198H471.307H471.416H471.527H471.638H471.751H471.865H471.979H472.095H472.212H472.33H472.449H472.569H472.69H472.812H472.935H473.059H473.184H473.31H473.437H473.565H473.694H473.824H473.954H474.086H474.219H474.353H474.488H474.624H474.76H474.898H475.037H475.176H475.317H475.458H475.601H475.744H475.888H476.033H476.179H476.326H476.474H476.623H476.773H476.923H477.075H477.227H477.38H477.534H477.689H477.845H478.001H478.159H478.317H478.476H478.636H478.797H478.959H479.122H479.285H479.449H479.614H479.78H479.946H480.114H480.282H480.451H480.621H480.791H480.963H481.135H481.308H481.482H481.656H481.831H482.007H482.184H482.361H482.54H482.718H482.898H483.079H483.26H483.441H483.624H483.807H483.991H484.176H484.361H484.547H484.734H484.922H485.11H485.299H485.488H485.678H485.869H486.06H486.253H486.445H486.639H486.833H487.027H487.223H487.419H487.615H487.813H488.01H488.209H488.408H488.607H488.808H489.009H489.21H489.412H489.615H489.818H490.022H490.226H490.431H490.636H490.842H491.049H491.256H491.463H491.672H491.88H492.09H492.299H492.51H492.72H492.932H493.143H493.356H493.569H493.782H493.996H494.21H494.425H494.64H494.856H495.072H495.289H495.506H495.723H495.941H496.16H496.379H496.598H496.818H497.038H497.259H497.48H497.701H497.923H498.145H498.368H498.591H498.815H499.038H499.263H499.487H499.712H499.938H500.164H500.39H500.616H500.843H501.07H501.298H501.526H501.754H501.983H502.211H502.441H502.67H502.9H503.13H503.361H503.591H503.823H504.054H504.286H504.518H504.75H504.982H505.215H505.448H505.681H505.915H506.149H506.383H506.617H506.852H507.087H507.322H507.557H507.792H508.028H508.264H508.5H508.737H508.973H509.21H509.447H509.684H509.921H510.159H510.397H510.635H510.873H511.111H511.349H511.588H511.826H512.065H512.304H512.543H512.783H513.022H513.261H513.501H513.741H513.981H514.221H514.461H514.701H514.941H515.181H515.422H515.662H515.903H516.144H516.384H516.625H516.866H517.107H517.348H517.589H517.83H518.071H518.312H518.553H518.795H519.036H519.277H519.518H519.76H520.001H520.242H520.483H520.725H520.966H521.207H521.448H521.689H521.931H522.172H522.413H522.654H522.895H523.136H523.376H523.617H523.858H524.099H524.339H524.58H524.82H525.061H525.301H525.541H525.781H526.021H526.261H526.501H526.74H526.98H527.219H527.458H527.697H527.936H528.175H528.414H528.652H528.891H529.129H529.367H529.605H529.843H530.08H530.318H530.555H530.792H531.028H531.265H531.501H531.738H531.974H532.209H532.445H532.68H532.915H533.15H533.384H533.619H533.853H534.087H534.32H534.554H534.787H535.02H535.252H535.484H535.716H535.948H536.179H536.41H536.641H536.872H537.102H537.332H537.561H537.79H538.019H538.248H538.476H538.704H538.932H539.159H539.386H539.612H539.838H540.064H540.289H540.514H540.739H540.963H541.187H541.411H541.634H541.857H542.079H542.301H542.522H542.743H542.964H543.184H543.404H543.623H543.842H544.061H544.279H544.496H544.713H544.93H545.146H545.362H545.577H545.792H546.006H546.22H546.434H546.646H546.859H547.071H547.282H547.493H547.703H547.913H548.122H548.331H548.539H548.746H548.954H549.16H549.366H549.572H549.776H549.981H550.185H550.388H550.59H550.792H550.994H551.195H551.395H551.595H551.794H551.992H552.19H552.387H552.584H552.78H552.975H553.17H553.364H553.557H553.75H553.942H554.134H554.324H554.515H554.704H554.893H555.081H555.268H555.455H555.641H555.827H556.011H556.195H556.379H556.561H556.743H556.924H557.105H557.284H557.463H557.641H557.819H557.996H558.172H558.347H558.521H558.695H558.868H559.04H559.211H559.382H559.552H559.721H559.889H560.056H560.223H560.389H560.554H560.718H560.881H561.044H561.206H561.367H561.527H561.686H561.844H562.002H562.158H562.314H562.469H562.623H562.776H562.929H563.08H563.231H563.38H563.529H563.677H563.824H563.97H564.115H564.259H564.403H564.545H564.687H564.827H564.967H565.105H565.243H565.38H565.516H565.65H565.784H565.917H566.049H566.18H566.31H566.439H566.567H566.694H566.82H566.945H567.069H567.192H567.314H567.435H567.555H567.674H567.792H567.909H568.024H568.139H568.253H568.366H568.477H568.588H568.697H568.806H568.913H569.019H569.124H569.228H569.331H569.433H569.534H569.634Z" fill="black" stroke="black" strokeWidth="0.5"/>
<path d="M506.404 523.718V529.828H500.314V520.425C500.314 518.744 501.68 517.382 503.361 517.382H536.653C538.334 517.382 539.696 518.744 539.696 520.425V529.828H533.61V523.718V523.468H533.36H506.654H506.404V523.718Z" fill="black" stroke="black" strokeWidth="0.5"/>
<path d="M522.588 566.719L572.608 531.792C573.099 532.427 573.391 533.222 573.391 534.086V534.886L524.298 569.166C524.298 569.166 524.298 569.166 524.298 569.166C521.718 570.967 518.285 570.971 515.702 569.173L466.613 535.001V534.086C466.613 533.256 466.881 532.49 467.335 531.869L517.41 566.723C517.41 566.723 517.41 566.723 517.41 566.723C518.966 567.807 521.035 567.803 522.588 566.719Z" fill="white" stroke="black" strokeWidth="0.5"/>
<defs>
<linearGradient id="paint0_linear_2136:7427" x1="286.718" y1="532.078" x2="474.248" y2="387.387" gradientUnits="userSpaceOnUse">
<stop stopColor="#ABD1CE"/>
<stop offset="0.52" stopColor="#BFDCD9"/>
<stop offset="1" stopColor="white"/>
</linearGradient>
</defs>
</svg>
