<svg width="604" height="718" viewBox="0 0 604 718" fill="none" xmlns="http://www.w3.org/2000/svg">
<path d="M122.091 441.822C101.373 453.845 77.2873 457.208 54.2809 451.305C31.2746 445.402 12.0836 430.937 0.260637 410.564C-11.5623 390.192 -14.6015 366.353 -8.31298 343.449C-2.02444 320.545 12.844 301.3 33.5616 289.277C54.2791 277.254 78.365 273.891 101.371 279.794C124.378 285.697 143.569 300.162 155.392 320.535C167.215 340.907 170.254 364.746 163.965 387.65C157.677 410.554 142.808 429.799 122.091 441.822ZM36.5738 294.467C-3.27781 317.595 -17.2033 368.314 5.539 407.501C28.2812 446.688 79.2268 459.759 119.078 436.632C158.93 413.504 172.855 362.785 150.113 323.598C127.371 284.411 76.4254 271.34 36.5738 294.467Z" fill="#CBF5E7"/>
<path d="M366.261 44.3382C351.6 23.3926 339.075 24.0003 331.192 28.2285C330.08 28.8046 329.054 29.4691 328.1 30.1962C329.959 35.952 328.063 41.8049 327.188 43.9436C325.119 49.1337 321.556 52.9019 318.736 52.9074C317.715 52.9104 316.272 52.4297 315.38 50.1026C314.665 48.2625 316.001 43.8787 318.62 39.5145C320.053 37.1213 322.841 33.1098 326.966 29.8831C326.247 27.9759 325.053 26.1014 323.215 24.3928C319.313 20.8294 315.013 19.4391 310.508 20.2492C296.792 22.6936 284.907 44.6476 284.797 44.8846L283.999 44.4808C284.493 43.5695 296.178 21.9398 310.351 19.3694C315.153 18.5252 319.701 19.9793 323.819 23.7304C325.698 25.4496 326.949 27.3607 327.724 29.3045C328.64 28.634 329.654 28.0107 330.699 27.4393C338.94 23.038 351.936 22.3302 366.955 43.8315L366.261 44.3382ZM327.301 30.7642C323.413 33.853 320.803 37.6229 319.433 39.9442C316.706 44.5454 315.75 48.4306 316.247 49.7728C316.819 51.2448 317.651 52.0106 318.741 52.003C321.164 51.9842 324.411 48.3998 326.325 43.6118C327.14 41.6122 328.949 36.1567 327.301 30.7642Z" fill="#231F20"/>
<path d="M402.723 359.915L376.379 360.57L376.656 386.689L403 386.033L402.723 359.915Z" fill="#23E0A2"/>
<path d="M409.247 391.033C409.194 391.064 409.1 391.084 409.032 391.088L382.698 391.731C382.588 391.725 382.464 391.693 382.377 391.605C382.291 391.516 382.231 391.413 382.238 391.304L381.974 365.195C381.974 364.952 382.167 364.736 382.412 364.733L408.746 364.09C408.855 364.096 408.98 364.128 409.066 364.216C409.153 364.305 409.213 364.409 409.206 364.517L409.47 390.626C409.492 390.787 409.379 390.956 409.247 391.033ZM383.15 390.809L408.573 390.175L408.305 364.971L382.882 365.605L383.15 390.809Z" fill="#231F20"/>
<path d="M529.477 459.627L503.133 460.283L503.41 486.402L529.754 485.746L529.477 459.627Z" fill="#23E0A2"/>
<path d="M536.001 490.745C535.948 490.776 535.854 490.796 535.786 490.801L509.452 491.444C509.342 491.438 509.218 491.406 509.131 491.317C509.045 491.229 508.984 491.125 508.992 491.016L508.728 464.907C508.728 464.664 508.921 464.449 509.166 464.445L535.5 463.803C535.609 463.808 535.734 463.84 535.82 463.929C535.907 464.017 535.967 464.121 535.96 464.23L536.223 490.339C536.246 490.499 536.133 490.669 536.001 490.745ZM509.904 490.522L535.327 489.888L535.058 464.683L509.636 465.317L509.904 490.522Z" fill="#231F20"/>
<path d="M209.915 148.981L209.328 149.321L215.368 159.729L215.955 159.389L209.915 148.981Z" fill="#231F20"/>
<path d="M226.018 135.442L223.867 156.361L224.539 156.419L226.69 135.5L226.018 135.442Z" fill="#231F20"/>
<path d="M341.953 184.308C349.938 179.674 352.717 169.552 348.16 161.7C343.603 153.848 333.436 151.239 325.451 155.873C317.465 160.508 314.686 170.63 319.243 178.482C323.8 186.334 333.967 188.942 341.953 184.308Z" fill="#CBF5E7"/>
<path d="M339.341 189.551C331.222 194.263 320.866 191.606 316.232 183.622C311.599 175.638 314.429 165.328 322.549 160.616C330.668 155.904 341.024 158.561 345.658 166.545C350.28 174.51 347.46 184.839 339.341 189.551ZM322.839 161.116C315.013 165.658 312.275 175.631 316.741 183.327C321.207 191.022 331.225 193.592 339.051 189.051C346.877 184.509 349.615 174.535 345.149 166.84C340.683 159.144 330.665 156.574 322.839 161.116Z" fill="#231F20"/>
<path d="M167.847 126.615L124.725 128.37L125.865 171.113L168.987 169.358L167.847 126.615Z" fill="#23E0A2"/>
<path d="M119.453 176.251C119.33 176.219 119.244 176.115 119.247 175.985L118.106 133.234C118.087 133.066 118.24 132.925 118.402 132.934L161.532 131.179C161.703 131.157 161.842 131.307 161.831 131.468L162.972 174.219C162.991 174.387 162.837 174.528 162.675 174.519L119.545 176.275C119.534 176.255 119.484 176.259 119.453 176.251ZM118.726 133.492L119.833 175.644L162.368 173.9L161.23 131.74L118.726 133.492Z" fill="#231F20"/>
<path d="M110.227 420.377C94.8689 429.29 77.0135 431.782 59.9584 427.407C42.9033 423.031 28.6766 412.307 19.9119 397.205C11.1473 382.102 8.8943 364.43 13.5561 347.451C18.218 330.472 29.2403 316.205 44.5987 307.292C59.9571 298.379 77.8124 295.886 94.8675 300.262C111.923 304.638 126.149 315.361 134.914 330.464C143.679 345.566 145.932 363.239 141.27 380.218C136.608 397.197 125.586 411.463 110.227 420.377ZM46.8317 311.139C17.2888 328.285 6.96558 365.884 23.8249 394.934C40.6843 423.984 78.4514 433.674 107.994 416.529C137.537 399.384 147.86 361.785 131.001 332.735C114.142 303.684 76.3746 293.994 46.8317 311.139Z" fill="#CBF5E7"/>
<path d="M93.7815 392.037C77.9731 401.211 57.7528 396.024 48.7314 380.479C39.7099 364.934 45.2369 344.804 61.0453 335.629C76.8537 326.455 97.074 331.643 106.095 347.188C115.117 362.733 109.59 382.863 93.7815 392.037ZM62.1618 337.553C47.4295 346.103 42.2805 364.857 50.6878 379.343C59.0952 393.83 77.9326 398.663 92.6649 390.113C107.397 381.563 112.546 362.81 104.139 348.323C95.7316 333.836 76.8941 329.003 62.1618 337.553Z" fill="#23E0A2"/>
<path d="M42.2036 284.427C31.3353 268.9 22.0504 269.35 16.2063 272.485C15.3818 272.912 14.6215 273.404 13.9143 273.943C15.2921 278.21 13.887 282.549 13.2379 284.135C11.7046 287.982 9.06259 290.776 6.97264 290.78C6.21545 290.782 5.14555 290.426 4.48435 288.7C3.95427 287.336 4.94522 284.087 6.88614 280.851C7.9489 279.077 10.0154 276.103 13.0735 273.711C12.5406 272.297 11.6557 270.908 10.2929 269.641C7.39982 267 4.21241 265.969 0.873184 266.569C-9.29538 268.382 -18.106 284.657 -18.1871 284.832L-18.7793 284.533C-18.4129 283.857 -9.75049 267.823 0.756205 265.917C4.31618 265.291 7.68797 266.369 10.7403 269.15C12.1338 270.425 13.0606 271.841 13.6353 273.282C14.3145 272.785 15.0664 272.323 15.8406 271.9C21.9503 268.637 31.5844 268.112 42.7179 284.052L42.2036 284.427ZM13.3218 274.364C10.4398 276.654 8.5047 279.449 7.48947 281.17C5.46742 284.581 4.75888 287.461 5.12712 288.456C5.55119 289.547 6.16834 290.115 6.97582 290.109C8.7724 290.095 11.1796 287.438 12.5982 283.889C13.2026 282.406 14.5433 278.362 13.3218 274.364Z" fill="#231F20"/>
<path d="M157.532 229.095C157.166 228.871 148.267 223.542 147.902 218.045C147.791 216.231 148.58 214.616 150.31 213.226C151.026 212.657 151.811 212.252 152.616 212.017C152.272 211.47 151.968 210.901 151.742 210.286C150.61 207.163 151.188 202.481 160.294 197.891L160.589 198.491C153.722 201.936 150.876 205.954 152.366 210.053C152.603 210.687 152.898 211.287 153.284 211.861C155.553 211.444 157.964 212.128 159.693 213.079C161.547 214.112 162.65 215.426 162.493 216.418C162.426 216.842 162.132 217.373 161.087 217.645C159.712 217.98 155.385 215.888 152.982 212.602C152.185 212.807 151.397 213.161 150.693 213.75C149.166 214.996 148.447 216.416 148.544 217.98C148.882 223.159 157.759 228.45 157.854 228.523L157.532 229.095ZM153.761 212.458C156.067 215.44 159.964 217.242 160.99 216.982C161.537 216.844 161.828 216.624 161.881 216.31C161.979 215.713 161.15 214.599 159.41 213.629C157.86 212.806 155.745 212.181 153.761 212.458Z" fill="#231F20"/>
<path d="M281.732 123.1L283.857 103.819L264.444 101.992L262.318 121.274L281.732 123.1Z" fill="#00E4AF"/>
<path d="M277.856 127.425C277.797 127.459 277.728 127.473 277.646 127.469L258.248 125.636C258.167 125.632 258.084 125.577 258.019 125.512C257.955 125.446 257.93 125.358 257.955 125.266L260.087 106C260.107 105.809 260.272 105.687 260.464 105.704L279.862 107.537C279.943 107.542 280.027 107.596 280.091 107.661C280.156 107.727 280.181 107.815 280.156 107.907L278.024 127.173C278.01 127.284 277.954 127.368 277.856 127.425ZM258.668 125.007L277.395 126.766L279.443 108.166L260.715 106.407L258.668 125.007Z" fill="#231F20"/>
<path d="M86.9672 239.602L83.0547 220.685L63.9204 224.841L67.8329 243.758L86.9672 239.602Z" fill="#00E4AF"/>
<path d="M84.4943 244.944C84.4552 244.967 84.4356 244.978 84.3854 244.981L65.2689 249.132C65.0789 249.165 64.9113 249.056 64.8611 248.88L60.9547 229.981C60.9241 229.793 61.036 229.625 61.2148 229.572L80.3313 225.422C80.5213 225.389 80.6888 225.498 80.739 225.674L84.6454 244.573C84.704 244.719 84.6313 244.864 84.4943 244.944ZM65.4705 248.397L83.9387 244.392L80.1688 226.134L61.7007 230.139L65.4705 248.397Z" fill="#231F20"/>
<path d="M119.866 476.296L100.336 476.782L100.541 496.144L120.071 495.658L119.866 476.296Z" fill="#23E0A2"/>
<path d="M124.707 499.364C124.668 499.386 124.598 499.401 124.548 499.405L105.025 499.881C104.944 499.877 104.852 499.853 104.788 499.788C104.724 499.722 104.679 499.645 104.685 499.565L104.489 480.209C104.489 480.029 104.632 479.869 104.813 479.867L124.336 479.39C124.417 479.395 124.509 479.418 124.573 479.484C124.637 479.55 124.682 479.627 124.676 479.707L124.872 499.062C124.889 499.181 124.805 499.307 124.707 499.364ZM105.361 499.198L124.207 498.728L124.008 480.043L105.162 480.513L105.361 499.198Z" fill="#231F20"/>
<path d="M506.23 625.828C522.419 621.485 524.85 613.632 524.01 607.828C523.904 607.014 523.724 606.233 523.49 605.482C519.527 605.338 516.345 602.86 515.224 601.841C512.489 599.405 510.965 596.365 511.593 594.627C511.82 593.997 512.439 593.215 514.073 593.187C515.367 593.158 517.769 594.963 519.871 597.554C521.025 598.973 522.872 601.589 523.937 604.853C525.273 604.838 526.695 604.522 528.16 603.772C531.229 602.165 533.049 599.827 533.558 596.871C535.124 587.872 524.258 575.632 524.137 575.512L524.565 575.11C525.015 575.619 535.726 587.662 534.136 596.97C533.58 600.118 531.666 602.595 528.433 604.292C526.952 605.065 525.495 605.408 524.124 605.45C524.331 606.165 524.488 606.929 524.607 607.701C525.473 613.764 522.999 621.93 506.387 626.369L506.23 625.828ZM523.319 604.863C522.286 601.775 520.548 599.323 519.424 597.959C517.2 595.248 515.02 593.789 514.082 593.795C513.047 593.818 512.389 594.159 512.15 594.832C511.618 596.329 513.1 599.133 515.621 601.384C516.671 602.334 519.627 604.67 523.319 604.863Z" fill="#231F20"/>
<path d="M377.613 634.526C378.68 640.484 384.295 644.463 390.153 643.414C396.012 642.364 399.896 636.684 398.829 630.726C397.762 624.768 392.147 620.789 386.289 621.838C380.43 622.888 376.546 628.568 377.613 634.526Z" fill="#CBF5E7"/>
<path d="M374.967 631.743C373.882 625.685 377.838 619.899 383.795 618.832C389.752 617.765 395.471 621.818 396.556 627.876C397.641 633.934 393.685 639.72 387.728 640.787C381.785 641.851 376.052 637.801 374.967 631.743ZM396.183 627.943C395.137 622.104 389.605 618.183 383.863 619.212C378.122 620.24 374.295 625.837 375.34 631.676C376.386 637.515 381.918 641.436 387.66 640.407C393.402 639.379 397.229 633.782 396.183 627.943Z" fill="#231F20"/>
<path d="M428.811 611.134L440.215 616.761L445.688 605.208L434.284 599.581L428.811 611.134Z" fill="#00E4AF"/>
<path d="M427.013 607.778C427.006 607.734 427.012 607.688 427.033 607.639L432.506 596.097C432.527 596.048 432.579 596.009 432.634 595.984C432.689 595.959 432.749 595.963 432.8 595.999L444.193 601.627C444.307 601.682 444.345 601.811 444.291 601.926L438.818 613.468C438.797 613.516 438.745 613.556 438.69 613.581C438.635 613.606 438.575 613.601 438.524 613.565L427.131 607.937C427.066 607.904 427.026 607.851 427.013 607.778ZM432.8 596.496L427.522 607.641L438.524 613.068L443.802 601.923L432.8 596.496Z" fill="#231F20"/>
<path d="M411.647 495.041C413.16 478.348 406.628 473.357 400.891 472.141C400.09 471.959 399.295 471.859 398.51 471.82C397.007 475.489 393.583 477.62 392.24 478.321C389.009 480.046 385.63 480.427 384.215 479.238C383.702 478.807 383.182 477.956 383.72 476.413C384.139 475.189 386.663 473.558 389.82 472.479C391.55 471.886 394.643 471.055 398.074 471.183C398.521 469.924 398.715 468.48 398.517 466.846C398.068 463.411 396.502 460.896 393.903 459.397C385.998 454.822 370.76 460.794 370.605 460.867L370.376 460.327C371.009 460.079 386.009 454.184 394.196 458.89C396.959 460.498 398.623 463.15 399.099 466.77C399.314 468.426 399.132 469.912 398.698 471.214C399.441 471.265 400.213 471.382 400.978 471.537C406.968 472.817 413.777 477.958 412.209 495.081L411.647 495.041ZM397.869 471.766C394.616 471.67 391.714 472.454 390.046 473.038C386.734 474.19 384.612 475.732 384.293 476.615C383.957 477.594 384.051 478.33 384.6 478.786C385.822 479.802 388.964 479.379 391.948 477.79C393.202 477.133 396.415 475.164 397.869 471.766Z" fill="#231F20"/>
<path d="M451.175 286.848L422.879 230.397L408.871 237.323L437.167 293.774L451.175 286.848Z" fill="#23E0A2"/>
<path d="M486.616 320.586C488.147 322.7 491.073 323.192 493.151 321.687C495.229 320.181 495.673 317.247 494.142 315.134C492.61 313.021 489.684 312.528 487.606 314.034C485.528 315.539 485.085 318.473 486.616 320.586Z" fill="#23E0A2"/>
<path d="M479.692 306.885C481.223 308.999 484.149 309.491 486.227 307.986C488.306 306.48 488.749 303.546 487.218 301.433C485.687 299.319 482.761 298.827 480.683 300.332C478.604 301.838 478.161 304.772 479.692 306.885Z" fill="#CBF5E7"/>
<path d="M493.565 334.317C495.096 336.43 498.022 336.923 500.1 335.417C502.179 333.912 502.622 330.978 501.091 328.865C499.56 326.751 496.634 326.259 494.556 327.764C492.477 329.27 492.034 332.204 493.565 334.317Z" fill="#00E4AF"/>
<path d="M398.754 243.499L397.801 243.991L453.247 350.684L454.2 350.193L398.754 243.499Z" fill="#CBF5E7"/>
<path d="M382.286 250.784L381.332 251.275L436.778 357.969L437.732 357.478L382.286 250.784Z" fill="#CBF5E7"/>
<path d="M513.461 269.488C522.165 281.501 538.798 284.302 550.611 275.743C562.424 267.184 564.945 250.506 556.241 238.493C547.537 226.479 530.904 223.678 519.09 232.238C507.277 240.797 504.757 257.474 513.461 269.488Z" fill="#CBF5E7"/>
<path d="M504.659 266.17C495.809 253.954 498.376 236.967 510.388 228.264C522.4 219.561 539.341 222.414 548.192 234.629C557.042 246.845 554.475 263.832 542.463 272.535C530.48 281.217 513.51 278.385 504.659 266.17ZM547.439 235.175C538.909 223.401 522.52 220.641 510.943 229.03C499.365 237.418 496.881 253.851 505.412 265.625C513.942 277.399 530.331 280.158 541.909 271.77C553.486 263.381 555.97 246.949 547.439 235.175Z" fill="#231F20"/>
<path d="M336.809 600.794C346.703 579.819 340.585 570.23 333.706 565.926C332.752 565.309 331.767 564.801 330.765 564.377C327.069 568.432 321.607 569.574 319.528 569.848C314.51 570.556 309.938 569.446 308.665 567.228C308.202 566.425 307.931 565.072 309.362 563.322C310.489 561.931 314.543 561.01 319.158 561.107C321.688 561.158 326.102 561.547 330.501 563.343C331.679 561.918 332.617 560.134 333.135 557.917C334.184 553.24 333.343 549.228 330.677 546.046C322.577 536.345 299.938 536.87 299.702 536.891L299.66 536.08C300.6 536.059 322.894 535.522 331.299 545.525C334.126 548.927 335.029 553.163 333.929 558.094C333.421 560.348 332.479 562.193 331.297 563.679C332.238 564.099 333.185 564.617 334.105 565.182C341.282 569.69 347.69 579.605 337.521 601.112L336.809 600.794ZM329.957 564.003C325.775 562.332 321.631 561.974 319.187 561.941C314.335 561.865 310.845 562.861 310.012 563.857C309.111 564.97 308.882 565.97 309.379 566.824C310.485 568.724 314.769 569.668 319.401 569.019C321.343 568.761 326.453 567.728 329.957 564.003Z" fill="#231F20"/>
<path d="M211.359 493.931C227.981 503.277 236.205 498.823 240.139 493.434C240.701 492.688 241.175 491.91 241.582 491.113C238.473 487.844 237.857 483.296 237.755 481.576C237.469 477.418 238.648 473.734 240.541 472.82C241.227 472.488 242.353 472.345 243.704 473.621C244.779 474.627 245.296 478.006 244.946 481.786C244.755 483.858 244.177 487.455 242.446 490.957C243.545 492.007 244.953 492.882 246.741 493.437C250.515 494.572 253.855 494.118 256.622 492.118C265.054 486.044 265.953 467.445 265.95 467.251L266.617 467.264C266.579 468.037 265.71 486.352 257.012 492.658C254.056 494.777 250.529 495.269 246.549 494.077C244.73 493.528 243.272 492.647 242.123 491.591C241.724 492.337 241.243 493.084 240.725 493.806C236.606 499.427 228.098 504.1 211.056 494.496L211.359 493.931ZM241.936 490.473C243.552 487.14 244.089 483.763 244.26 481.76C244.607 477.785 243.995 474.865 243.228 474.123C242.368 473.318 241.561 473.072 240.831 473.429C239.207 474.224 238.182 477.683 238.442 481.52C238.54 483.128 239.086 487.38 241.936 490.473Z" fill="#231F20"/>
<path d="M24.024 494.448L41.5234 485.497L32.9008 468.027L15.4014 476.977L24.024 494.448Z" fill="#23E0A2"/>
<path d="M9.58755 475.631C9.61314 475.593 9.67005 475.549 9.71415 475.524L27.211 466.586C27.2864 466.554 27.3803 466.536 27.4672 466.567C27.554 466.599 27.628 466.649 27.6579 466.724L36.2687 484.192C36.3471 484.356 36.2875 484.563 36.1239 484.644L18.627 493.582C18.5516 493.614 18.4577 493.632 18.3709 493.601C18.284 493.569 18.21 493.519 18.1801 493.444L9.56928 475.976C9.50233 475.875 9.52357 475.725 9.58755 475.631ZM27.2044 467.352L10.3178 475.989L18.6393 492.848L35.5259 484.21L27.2044 467.352Z" fill="#231F20"/>
<path d="M221.778 573.979L222.062 573.561L214.64 568.514L214.355 568.933L221.778 573.979Z" fill="#231F20"/>
<path d="M215.325 588.283L210.014 573.524L209.543 573.702L214.854 588.461L215.325 588.283Z" fill="#231F20"/>
<path d="M121.602 592.877C117.73 598.572 119.131 606.274 124.731 610.081C130.331 613.888 138.009 612.358 141.881 606.663C145.752 600.968 144.351 593.266 138.751 589.459C133.151 585.652 125.473 587.182 121.602 592.877Z" fill="#CBF5E7"/>
<path d="M121.665 588.509C125.601 582.719 133.422 581.16 139.116 585.031C144.81 588.902 146.237 596.748 142.3 602.538C138.364 608.329 130.543 609.888 124.849 606.017C119.169 602.155 117.728 594.3 121.665 588.509ZM141.943 602.296C145.738 596.715 144.357 589.125 138.869 585.394C133.381 581.663 125.816 583.171 122.021 588.752C118.227 594.333 119.608 601.923 125.096 605.654C130.584 609.385 138.149 607.877 141.943 602.296Z" fill="#231F20"/>
<path d="M-8.01769 619.545L20.4062 604.437L5.83351 576.069L-22.5904 591.177L-8.01769 619.545Z" fill="#23E0A2"/>
<path d="M8.48829 570.542C8.58111 570.523 8.67292 570.565 8.71306 570.654L23.2885 599.027C23.3561 599.134 23.2982 599.278 23.1864 599.324L-5.24273 614.436C-5.35029 614.505 -5.49275 614.449 -5.53713 614.337L-20.1126 585.965C-20.1802 585.858 -20.1222 585.713 -20.0105 585.667L8.41867 570.556C8.43239 570.565 8.46508 570.547 8.48829 570.542ZM22.7885 599.054L8.42849 571.073L-19.6041 585.984L-5.22087 613.961L22.7885 599.054Z" fill="#231F20"/>
<path d="M226.902 277.456C234.567 266.182 249.837 263.138 260.923 270.675C272.009 278.212 274.795 293.531 267.131 304.805C259.466 316.079 244.197 319.122 233.11 311.586C222.024 304.049 219.238 288.73 226.902 277.456ZM265.759 303.872C272.902 293.365 270.306 279.094 259.974 272.07C249.643 265.047 235.417 267.882 228.275 278.389C221.132 288.895 223.728 303.166 234.059 310.19C244.391 317.214 258.616 314.379 265.759 303.872Z" fill="#23E0A2"/>
<path d="M28.9044 127.456C36.569 116.182 51.8387 113.138 62.9249 120.675C74.011 128.212 76.7974 143.53 69.1328 154.805C61.4683 166.079 46.1985 169.122 35.1124 161.585C24.0263 154.049 21.2399 138.73 28.9044 127.456ZM67.7608 153.872C74.9036 143.365 72.3078 129.094 61.9763 122.07C51.6448 115.046 37.4193 117.882 30.2765 128.388C23.1336 138.895 25.7295 153.166 36.061 160.19C46.3925 167.214 60.6179 164.378 67.7608 153.872Z" fill="#23E0A2"/>
<path d="M296.333 333.144C308.655 340.072 314.752 336.77 317.669 332.775C318.085 332.222 318.437 331.645 318.738 331.054C316.434 328.631 315.977 325.26 315.901 323.984C315.689 320.902 316.563 318.171 317.967 317.493C318.475 317.247 319.31 317.141 320.311 318.087C321.108 318.833 321.492 321.338 321.232 324.14C321.091 325.676 320.662 328.343 319.379 330.939C320.193 331.717 321.237 332.365 322.563 332.777C325.361 333.618 327.837 333.282 329.888 331.799C336.139 327.297 336.805 313.509 336.803 313.365L337.298 313.375C337.269 313.947 336.625 327.525 330.177 332.2C327.986 333.771 325.371 334.135 322.42 333.251C321.072 332.845 319.991 332.192 319.139 331.408C318.843 331.962 318.487 332.516 318.103 333.05C315.05 337.217 308.742 340.682 296.109 333.562L296.333 333.144ZM319.001 330.58C320.199 328.109 320.597 325.605 320.724 324.121C320.981 321.174 320.527 319.009 319.958 318.459C319.321 317.862 318.722 317.68 318.181 317.945C316.978 318.534 316.218 321.098 316.411 323.943C316.483 325.135 316.888 328.287 319.001 330.58Z" fill="#231F20"/>
<path d="M231.118 503.196C231.436 503.229 239.14 503.937 241.162 507.515C241.822 508.698 241.813 510.039 241.099 511.532C240.802 512.146 240.404 512.672 239.939 513.09C240.347 513.347 240.735 513.631 241.086 513.972C242.856 515.706 243.979 519.04 239.34 525.067L238.948 524.759C242.451 520.225 243.067 516.604 240.742 514.33C240.378 513.98 239.985 513.672 239.541 513.411C238.15 514.424 236.308 514.743 234.839 514.662C233.258 514.567 232.092 514.039 231.877 513.322C231.785 513.015 231.812 512.563 232.426 512.043C233.242 511.373 236.827 511.383 239.504 512.815C239.974 512.42 240.389 511.927 240.672 511.304C241.296 509.973 241.321 508.786 240.75 507.766C238.85 504.393 231.174 503.704 231.086 503.685L231.118 503.196ZM239.027 513.164C236.513 511.904 233.311 511.951 232.706 512.457C232.382 512.727 232.258 512.969 232.324 513.197C232.45 513.63 233.368 514.111 234.851 514.201C236.159 514.254 237.782 513.991 239.027 513.164Z" fill="#231F20"/>
<path d="M181.855 614.579L186.654 628.228L200.296 623.185L195.497 609.536L181.855 614.579Z" fill="#00E4AF"/>
<path d="M183.064 610.419C183.093 610.377 183.135 610.345 183.191 610.322L196.824 605.288C196.88 605.265 196.954 605.275 197.018 605.298C197.083 605.321 197.128 605.373 197.141 605.442L201.931 619.083C201.979 619.218 201.908 619.353 201.773 619.404L188.139 624.438C188.083 624.461 188.01 624.451 187.945 624.428C187.881 624.405 187.835 624.353 187.823 624.284L183.033 610.643C183.007 610.564 183.017 610.489 183.064 610.419ZM196.746 605.847L183.587 610.713L188.218 623.879L201.377 619.013L196.746 605.847Z" fill="#231F20"/>
<path d="M275.168 473.342L283.908 484.796L295.43 475.821L286.689 464.367L275.168 473.342Z" fill="#00E4AF"/>
<path d="M275.108 468.949C275.126 468.921 275.136 468.907 275.169 468.889L286.68 459.924C286.797 459.84 286.945 459.859 287.036 459.962L295.766 471.406C295.848 471.522 295.827 471.671 295.723 471.764L284.212 480.729C284.095 480.813 283.947 480.794 283.856 480.691L275.126 469.247C275.039 469.168 275.041 469.047 275.108 468.949ZM286.782 460.483L275.659 469.141L284.091 480.198L295.214 471.54L286.782 460.483Z" fill="#231F20"/>
<path d="M176.594 324.841L189.566 318.206L183.174 305.254L170.202 311.89L176.594 324.841Z" fill="#23E0A2"/>
<path d="M165.888 310.896C165.907 310.868 165.949 310.836 165.982 310.817L178.953 304.191C179.009 304.168 179.078 304.154 179.143 304.177C179.207 304.201 179.262 304.238 179.284 304.294L185.667 317.243C185.725 317.364 185.681 317.518 185.56 317.578L172.589 324.204C172.533 324.228 172.464 324.241 172.399 324.218C172.335 324.195 172.28 324.157 172.258 324.102L165.874 311.152C165.825 311.078 165.841 310.966 165.888 310.896ZM178.948 304.759L166.429 311.162L172.598 323.66L185.117 317.256L178.948 304.759Z" fill="#231F20"/>
</svg>
