<svg width="547" height="560" viewBox="0 0 547 560" fill="none" xmlns="http://www.w3.org/2000/svg">
<path d="M388.127 250.317L371.405 280.476L350.062 266.461C350.062 266.461 350.458 279.595 358.575 293.459C349.059 294.918 299.897 297.016 299.897 297.016C299.897 297.016 303.971 286.375 247.33 244.662C259.309 226.207 266.423 215.262 266.423 215.262C266.423 215.262 279.162 225.234 304.184 231.193C321.635 235.358 337.627 232.591 349.88 235.358C362.102 238.125 388.127 250.317 388.127 250.317Z" fill="#00E4AF"/>
<path d="M274.357 220.734L325.647 272.054L348.023 294.431C347.628 294.462 347.233 294.492 346.807 294.522L325.464 273.179L273.171 220.886L270.009 217.724C270.891 218.271 271.924 218.879 273.11 219.548L274.357 220.734Z" fill="white"/>
<path d="M323.916 295.89C323.49 295.921 323.095 295.921 322.7 295.951L299.29 272.541L299.928 271.902L323.916 295.89Z" fill="white"/>
<path d="M299.926 271.902L299.287 272.541L273.718 246.972L256.814 230.068C256.997 229.794 257.149 229.551 257.331 229.277L274.387 246.333L299.926 271.902Z" fill="white"/>
<path d="M374.688 244.327C375.448 244.661 376.208 244.965 376.937 245.3L377.941 246.303L385.906 254.299L385.45 255.12L377.302 246.972L374.688 244.327Z" fill="white"/>
<path d="M311.085 232.531C311.571 232.592 312.088 232.683 312.575 232.744L326.134 246.303L350.487 270.656C350.548 271.143 350.639 271.66 350.73 272.207L325.466 246.942L311.085 232.531Z" fill="white"/>
<path d="M338.173 234.05C338.629 234.081 339.085 234.081 339.511 234.111L376.572 271.172L376.116 271.993L338.173 234.05Z" fill="white"/>
<path d="M314.094 468.277L328.414 489.073L264.659 549.727L261.77 546.504L275.117 490.836C275.148 490.836 311.814 471.439 314.094 468.277Z" fill="#23E0A2"/>
<path d="M294.824 156.057L302.938 184.852L302.06 185.099L293.946 156.305L294.824 156.057Z" fill="#231F20"/>
<path d="M327.496 173.879L328.354 174.189L322.946 189.143L322.088 188.832L327.496 173.879Z" fill="#231F20"/>
<path d="M361.921 181.488L362.303 182.316L331.601 196.475L331.219 195.647L361.921 181.488Z" fill="#231F20"/>
<path d="M325.404 297.654C325.404 297.654 357.845 293.52 361.25 298.323C368.486 308.6 377.12 323.527 392.17 341.861C439.264 399.262 479.244 449.275 479.244 449.275C479.244 449.275 449.844 480.62 435.585 488.039C416.948 470.861 341.153 359.069 332.823 339.428C326.438 346.786 296.522 366.882 280.073 374.97C285.941 386.492 320.54 464.233 320.54 464.233C320.54 464.233 288.374 485.454 273.78 491.231C264.446 469.645 210.663 376.794 228.479 356.302C255.873 324.835 298.498 316.535 303.757 301.698C304.122 297.837 300.626 297.381 325.404 297.654Z" fill="#CBF5E7"/>
<path d="M235.564 375.091H225.349C225.318 374.848 225.288 374.635 225.257 374.392H235.564V361.197V348.945C235.807 348.732 236.02 348.519 236.263 348.306V361.197V374.392H249.458H262.653V361.197V348.002H249.458H236.567C236.811 347.759 237.084 347.546 237.328 347.303H249.428H262.623V334.108V329.274C262.866 329.152 263.079 329 263.322 328.878V334.108V347.303H276.517H289.712V334.108V320.913H277.855C278.311 320.67 278.737 320.457 279.162 320.214H289.712V314.437C289.955 314.285 290.168 314.163 290.411 314.042V320.214H303.606H316.801V307.019V297.533C317.044 297.533 317.257 297.533 317.5 297.533V307.019V320.214H330.695H343.89V307.019V296.043C344.134 296.043 344.346 296.013 344.59 296.013V307.019V320.214H357.785H370.949V312.765C371.192 313.099 371.405 313.464 371.648 313.829V320.244H375.996C376.148 320.487 376.33 320.7 376.482 320.943H371.648V334.138V347.333H384.843H396.67C396.853 347.576 397.065 347.789 397.248 348.032H384.843H371.648V361.227V374.422H384.843H398.008V361.227V348.975C398.251 349.249 398.464 349.553 398.707 349.826V361.227V374.422H411.902H418.773C418.956 374.666 419.138 374.878 419.351 375.122H411.902H398.707V388.317V401.511H411.902H425.097V388.317V382.205C425.34 382.479 425.553 382.783 425.796 383.057V388.317V401.511H438.991H440.755C440.937 401.755 441.119 401.967 441.332 402.211H438.991H425.796V415.406V428.601H438.991H452.186V415.649C452.429 415.953 452.642 416.227 452.885 416.5V428.601H462.645C462.827 428.844 463.01 429.057 463.192 429.3H452.885V442.495V455.69H466.08H473.104C472.891 455.933 472.647 456.146 472.404 456.389H466.05H452.855V469.584V475.087C452.612 475.3 452.399 475.513 452.156 475.695V469.584V456.389H438.961H425.766V469.584V477.124C425.523 476.85 425.31 476.546 425.067 476.273V469.614V456.419H411.872H409.865C409.683 456.176 409.531 455.963 409.348 455.72H411.872H425.067V442.525V429.33H411.872H398.677V441.005C398.434 440.671 398.221 440.367 397.977 440.032V429.361H390.437C390.285 429.117 390.103 428.905 389.951 428.661H398.008V415.466V402.272H384.813H371.861C371.557 401.815 371.223 401.329 370.919 400.873V388.377V375.182H357.724H353.984C353.832 374.939 353.68 374.726 353.528 374.483H357.724H370.949V361.288V348.093H357.754H344.559V360.224C344.316 359.829 344.103 359.464 343.86 359.099V348.093H337.323C337.202 347.85 337.05 347.637 336.928 347.394H343.89V334.199V321.004H330.695H317.5V334.199V347.394H323.703C323.399 347.637 323.095 347.85 322.791 348.093H317.5V351.954C317.257 352.106 317.044 352.289 316.801 352.441V348.093H303.606H290.411V361.288V369.436C290.168 369.558 289.955 369.71 289.712 369.831V361.288V348.093H276.517H263.322V361.288V374.483H276.517H281.199C280.834 374.666 280.439 374.848 280.105 375.03C280.135 375.091 280.165 375.122 280.165 375.182H276.517H263.322V388.377V401.572H276.517H289.712V395.674C289.955 396.191 290.168 396.677 290.411 397.194V401.572H292.388C292.479 401.815 292.6 402.028 292.692 402.272H290.381V415.466V428.661H303.576H304.579C304.67 428.905 304.792 429.117 304.883 429.361H303.545H290.351V442.556V455.751H303.545H316.68C316.953 456.359 317.196 456.906 317.44 457.453V466.361C317.227 466.513 316.984 466.665 316.74 466.817V456.45H303.545H290.351V469.645V482.84H290.533C290.107 483.083 289.712 483.296 289.286 483.539H276.456H270.041C269.92 483.296 269.798 483.083 269.707 482.84H276.456H289.651V469.645V456.45H276.456H263.261V469.645V470.07C263.018 469.614 262.805 469.158 262.562 468.702V456.48H256.421C256.299 456.237 256.177 456.024 256.086 455.781H262.592V442.586V429.391H249.398H243.53C243.439 429.148 243.317 428.935 243.226 428.692H249.398H262.592V415.497V402.302H249.398H236.203V412.183C235.959 411.605 235.747 410.997 235.503 410.42V402.302H232.433C232.341 402.059 232.281 401.846 232.189 401.603H235.503V388.408V375.091H235.564ZM425.796 442.434V455.629H438.991H452.186V442.434V429.239H438.991H425.796V442.434ZM398.707 415.375V428.57H411.902H425.097V415.375V402.18H411.902H398.707V415.375ZM371.648 388.286V401.481H384.843H398.008V388.286V375.091H384.813H371.618V388.286H371.648ZM344.559 334.138V347.333H357.754H370.949V334.138V320.943H357.754H344.559V334.138ZM290.411 334.138V347.333H303.606H316.801V334.138V320.943H303.606H290.411V334.138ZM263.322 442.434V455.629H276.517H289.712V442.434V429.239H276.517H263.322V442.434ZM263.322 415.375V428.57H276.517H289.712V415.375V402.18H276.517H263.322V415.375ZM236.263 388.286V401.481H249.458H262.653V388.286V375.091H249.458H236.263V388.286Z" fill="white"/>
<path d="M430.539 482.718H438.961H443.582C443.278 482.961 442.974 483.174 442.67 483.418H438.961H431.147C430.965 483.174 430.752 482.961 430.539 482.718Z" fill="white"/>
<path d="M345.523 503.63L371.178 516.964L370.757 517.774L345.102 504.439L345.523 503.63Z" fill="#231F20"/>
<path d="M340.868 513.25L354.803 534.397L354.041 534.899L340.107 513.752L340.868 513.25Z" fill="#231F20"/>
<path d="M511.989 452.254C518.252 445.808 518.252 445.261 518.252 445.048H517.34C517.34 444.987 517.37 444.957 517.37 444.957C517.157 445.474 514.148 448.727 511.35 451.615L511.989 452.254Z" fill="#231F20"/>
<path d="M546.749 458.727L546.84 459.634L518.948 462.424L518.858 461.516L546.749 458.727Z" fill="#231F20"/>
<path d="M519.07 472.493L543.613 482.354L543.273 483.2L518.73 473.34L519.07 472.493Z" fill="#231F20"/>
<path d="M434.248 310.636C434.248 313.707 435.525 316.504 437.592 318.48C438.869 318.997 440.268 319.301 441.727 319.301C447.716 319.301 452.611 314.437 452.611 308.417C452.611 305.346 451.334 302.549 449.267 300.573C447.99 300.056 446.592 299.752 445.132 299.752C439.112 299.782 434.248 304.647 434.248 310.636Z" fill="#23E0A2"/>
<path d="M491.618 462.53C492.408 462.773 479.365 549.757 479.365 549.757L473.802 548.723L443.125 483.326C443.125 483.326 471.795 459.155 472.525 456.389C476.295 457.483 491.618 462.53 491.618 462.53Z" fill="#23E0A2"/>
<path d="M323.216 214.046C323.033 214.046 322.821 214.016 322.638 213.986C322 215.719 320.753 216.995 318.838 217.451C316.77 219.549 313.912 220.887 310.751 220.887C304.518 220.887 299.441 215.81 299.441 209.577C299.441 206.871 300.383 204.409 301.964 202.463C300.626 201.49 299.38 198.358 299.562 196.717C300.049 192.491 303.423 191.274 306.068 191.274C307.984 191.274 309.626 192.399 310.386 194.041C311.115 193.007 312.332 192.308 313.7 192.308C315.919 192.308 317.743 194.102 317.743 196.352C317.743 196.808 317.652 197.264 317.5 197.689C318.078 197.325 318.747 197.112 319.507 197.112C321.574 197.112 323.246 198.784 323.246 200.851C323.246 201.186 323.185 201.52 323.125 201.824C324.341 202.159 325.253 203.253 325.253 204.591C325.253 205.351 324.949 206.081 324.432 206.567C325.983 207.084 327.107 208.513 327.107 210.216C327.077 212.313 325.344 214.046 323.216 214.046ZM310.751 219.975C313.7 219.975 316.345 218.759 318.26 216.783C318.686 214.685 319.324 209.425 315.068 210.428C313.456 207.114 310.112 203.253 304.336 201.368C301.903 203.284 300.322 206.233 300.322 209.547C300.322 215.293 305.004 219.975 310.751 219.975Z" fill="#231F20"/>
<path d="M125.504 155.733C126.751 154.273 130.369 154.942 136.602 157.77C137.118 158.013 137.605 158.226 138.091 158.469C133.561 155.185 128.332 150.777 127.754 147.767C127.602 147.007 127.754 146.369 128.15 145.821C128.545 145.274 129.153 144.97 129.943 144.848C132.436 144.544 136.662 146.642 140.584 149.105C136.541 145.365 132.588 141.048 132.345 138.251C132.284 137.46 132.467 136.822 132.953 136.305C134.777 134.329 139.764 136.396 148.216 142.659C150.617 144.423 152.928 146.277 154.874 147.889C152.168 144.605 149.31 140.501 149.614 138.19C149.705 137.521 150.04 137.004 150.617 136.67C151.286 136.275 152.958 136.488 164.694 143.45C172.477 148.102 182.966 154.669 195.097 162.269C230.304 184.372 278.554 214.624 303.727 223.988C306.129 224.869 310.294 225.113 316.041 225.447C332.033 226.359 358.818 227.879 390.589 245.848C414.912 259.62 444.281 285.858 459.634 300.269C479.731 319.149 497.426 338.121 498.277 341.708C498.338 342.013 498.307 342.256 498.186 342.438C497.882 342.894 497.395 343.168 496.696 343.259C494.02 343.563 488.548 340.584 484.139 337.634C491.284 344.779 496.696 350.404 493.26 354.022C492.804 354.508 492.196 354.751 491.406 354.751C491.375 354.751 491.345 354.751 491.315 354.751C487.909 354.751 481.707 350.191 476.934 346.178C479.64 349.522 482.254 353.353 482.224 355.816C482.224 356.576 481.981 357.184 481.494 357.64C479.427 359.616 474.046 355.39 466.11 348.732C461.519 344.87 455.804 340.097 454.588 340.918C453.402 341.739 455.044 344.627 456.655 347.455C458.783 351.133 460.972 354.964 459.118 357.214C458.722 357.701 458.236 357.944 457.689 357.944H457.658C455.652 357.944 452.733 354.721 447.017 348.367C434.065 333.956 407.645 304.586 350.822 267.586C350.639 269.167 350.609 273.879 354.136 282.909C358.271 293.428 368.273 312.157 392.413 341.587C438.96 398.319 479.092 448.515 479.488 449.001C479.64 449.183 479.609 449.427 479.457 449.609C479.123 449.974 476.782 452.528 473.225 456.176C473.377 456.237 473.559 456.298 473.772 456.359C474.593 456.632 475.748 456.997 477.116 457.453C479.883 458.335 483.592 459.551 487.271 460.737C494.659 463.138 502.047 465.54 502.047 465.54C502.26 465.601 502.381 465.814 502.351 466.027L490.159 551.824C490.129 551.946 490.068 552.067 489.977 552.128C489.886 552.189 489.794 552.22 489.703 552.22C489.673 552.22 489.642 552.22 489.612 552.22L473.498 549.21C473.346 549.179 473.225 549.088 473.164 548.966L442.73 484.086C437.957 487.704 433.488 490.501 429.9 491.717C429.748 491.778 429.566 491.748 429.444 491.626C410.746 474.418 338.661 364.328 329.114 343.137C321.848 350.921 296.218 367.43 280.53 375.243C286.884 387.982 320.449 463.351 320.784 464.111C320.875 464.324 320.814 464.567 320.601 464.689C320.51 464.75 318.199 466.209 314.551 468.489C314.703 468.702 314.916 468.976 315.159 469.371C315.706 470.192 316.527 471.347 317.5 472.746C319.415 475.543 322 479.252 324.554 482.992C329.692 490.44 334.799 497.889 334.799 497.889C334.921 498.072 334.891 498.315 334.739 498.467L272.838 559.121C272.747 559.212 272.625 559.243 272.534 559.243C272.412 559.243 272.291 559.182 272.199 559.091L261.254 546.899C261.163 546.777 261.102 546.625 261.163 546.473L274.297 491.748C272.108 492.842 270.102 493.724 268.429 494.393C268.369 494.423 268.308 494.423 268.277 494.423C268.095 494.423 267.943 494.332 267.852 494.15C266.119 490.136 262.805 483.509 258.609 475.117C249.275 456.48 236.506 430.972 227.568 407.41C222.673 394.488 219.511 383.634 218.234 375.152C216.683 365.119 217.656 358.005 221.153 354.022C236.233 336.692 256.603 326.811 272.959 318.845C286.215 312.4 296.674 307.323 298.985 300.816C301.934 292.455 288.526 276.798 259.156 254.239C234.074 234.994 202.242 214.411 178.984 199.361C164.876 190.24 153.749 183.035 149.219 179.417C143.381 174.765 138.608 171.299 134.747 168.502C127.998 163.607 124.592 161.144 124.288 158.651C124.319 157.648 124.653 156.706 125.504 155.733ZM449.085 301.029C447.838 300.512 446.5 300.239 445.132 300.239C439.386 300.239 434.734 304.921 434.734 310.637C434.734 313.494 435.859 316.17 437.927 318.146C439.872 320.031 442.426 321.065 445.132 321.065C450.878 321.065 455.53 316.383 455.53 310.667C455.53 306.41 453.007 302.64 449.085 301.029ZM437.288 318.815C435.981 317.568 435.038 316.079 434.461 314.437L424.124 323.223C426.465 325.443 428.654 327.571 430.691 329.608L440.268 320.882C439.204 320.366 438.17 319.666 437.288 318.815ZM434.157 313.464C433.913 312.552 433.792 311.609 433.792 310.637C433.792 304.404 438.869 299.327 445.102 299.327C446.592 299.327 448.051 299.6 449.419 300.178C449.723 300.299 449.997 300.421 450.27 300.573L454.496 296.742C438.413 281.875 412.966 259.833 391.258 247.307L375.114 283.091C396.001 298.11 411.658 311.488 423.424 322.615L434.157 313.464ZM455.196 297.35L451.122 301.06C453.615 302.61 455.408 305.073 456.108 307.9L461.124 302.914C460.729 302.549 460.334 302.184 459.969 301.82C458.479 300.421 456.898 298.931 455.196 297.35ZM447.777 347.759C452.976 353.535 456.138 357.062 457.749 357.062H457.78C458.054 357.062 458.297 356.94 458.51 356.667C459.969 354.903 457.841 351.194 455.956 347.941C453.98 344.506 452.247 341.496 454.162 340.219C455.865 339.033 460.06 342.438 466.81 348.093C472.1 352.532 479.336 358.613 480.977 357.032C481.281 356.758 481.434 356.363 481.434 355.846C481.494 351.225 470.58 340.432 470.458 340.31C470.276 340.128 470.276 339.854 470.458 339.671C470.64 339.489 470.914 339.489 471.096 339.671C471.248 339.824 485.842 353.87 491.406 353.87C491.436 353.87 491.436 353.87 491.467 353.87C491.983 353.87 492.379 353.718 492.652 353.414C495.601 350.313 489.916 344.627 482.71 337.452C481.403 336.145 480.065 334.807 478.697 333.439C478.515 333.256 478.515 332.983 478.697 332.8C478.88 332.618 479.153 332.618 479.336 332.8C482.498 335.78 492.987 342.773 496.605 342.377C496.969 342.347 497.243 342.225 497.395 342.013C497.365 341.344 495.115 337.847 486.845 328.878C480.005 321.43 471.127 312.522 461.732 303.583L456.29 308.995C456.381 309.542 456.412 310.12 456.412 310.697C456.412 316.93 451.334 322.007 445.102 322.007C443.734 322.007 442.426 321.764 441.18 321.308L431.299 330.277C438.444 337.361 443.764 343.259 447.777 347.759ZM474.106 548.297L489.521 551.186L501.591 466.24C495.085 464.142 485.051 460.889 478.636 458.791L445.223 486.64L474.106 548.297ZM272.747 558.026L334.039 497.98C332.489 495.7 322.942 481.836 317.5 473.992L274.814 494.18L262.288 546.352L272.747 558.026ZM273.507 319.605C257.211 327.51 236.962 337.361 222.004 354.539C215.862 361.592 218.082 379.256 228.601 407.014C237.509 430.516 250.279 456.024 259.582 474.631C263.656 482.748 266.879 489.224 268.673 493.298C270.466 492.569 272.625 491.565 274.997 490.38C280.135 487.613 286.185 484.299 291.931 481.107C304.913 473.567 317.804 465.449 319.993 464.051C317.439 458.274 285.273 386.158 279.709 375.152C279.648 375.03 279.648 374.909 279.679 374.787C279.709 374.665 279.8 374.574 279.922 374.513C295.853 366.669 322.577 349.431 329.114 341.891C329.205 341.769 329.388 341.708 329.54 341.739C329.692 341.769 329.813 341.86 329.874 342.013C338.113 361.379 410.898 472.685 430.083 490.653C433.64 489.376 438.139 486.488 442.943 482.809C444.22 481.715 455.348 472.138 463.556 464.598C466.81 461.436 469.759 458.487 472.191 455.963C472.221 455.933 472.221 455.933 472.252 455.902C475.566 452.528 477.876 450.035 478.636 449.214C475.201 444.897 436.467 396.525 391.836 342.104C377.577 324.713 368.212 311.032 362.071 300.573L300.413 298.84C300.353 299.6 300.231 300.33 299.988 301.029C297.525 307.931 286.915 313.069 273.507 319.605ZM259.825 253.448C285.82 273.393 299.167 287.743 300.322 296.986L358.119 293.489C355.96 289.354 354.409 285.858 353.284 282.97C349.393 272.997 349.819 268.255 350.062 267.008C348.116 265.731 346.109 264.454 344.072 263.177L344.559 262.417C353.254 267.951 361.28 273.302 368.699 278.47C370.857 275.004 386.819 249.435 388.886 245.908C357.845 228.7 331.698 227.21 315.98 226.329C310.142 225.994 305.947 225.751 303.423 224.809C294.698 221.555 283.266 215.84 270.558 208.817L247.542 244.236C251.769 247.368 255.903 250.408 259.825 253.448ZM125.322 158.499C125.565 160.597 129.062 163.151 135.385 167.742C139.247 170.539 144.05 174.005 149.888 178.687C154.387 182.275 165.515 189.48 179.592 198.571C197.742 210.306 221.153 225.447 242.465 240.679L269.22 208.178C245.353 194.922 217.291 177.319 194.611 163.09C182.662 155.581 172.325 149.105 164.572 144.484C154.418 138.433 151.621 137.339 151.073 137.491C150.739 137.673 150.557 137.947 150.526 138.342C150.101 141.443 157.245 149.47 160.012 152.297C160.194 152.48 160.194 152.753 160.012 152.936C159.83 153.118 159.556 153.118 159.374 152.966C150.8 145.274 136.206 134.147 133.592 136.974C133.288 137.278 133.166 137.704 133.227 138.221C133.622 142.568 144.446 151.476 148.398 154.608C149.219 155.216 149.736 155.642 149.827 155.733C150.009 155.885 150.07 156.158 149.888 156.371C149.736 156.554 149.462 156.614 149.249 156.462C149.128 156.371 148.611 155.976 147.82 155.368C144.111 152.54 134.109 145.335 130.035 145.852C129.487 145.913 129.122 146.125 128.879 146.46C128.636 146.794 128.545 147.189 128.636 147.676C129.548 152.571 145.084 162.209 145.236 162.3C145.449 162.421 145.51 162.695 145.388 162.908C145.266 163.121 144.993 163.182 144.78 163.06C138.487 159.412 127.876 154.395 126.143 156.371C125.535 157.101 125.261 157.8 125.322 158.499Z" fill="#231F20"/>
<path d="M456.898 483.417C459.452 483.417 461.52 485.485 461.52 488.039C461.52 490.593 459.452 492.66 456.898 492.66C454.344 492.66 452.277 490.593 452.277 488.039C452.277 485.485 454.344 483.417 456.898 483.417ZM456.898 491.718C458.935 491.718 460.607 490.045 460.607 488.008C460.607 485.971 458.935 484.299 456.898 484.299C454.861 484.299 453.189 485.971 453.189 488.008C453.189 490.045 454.861 491.718 456.898 491.718Z" fill="#231F20"/>
<path d="M462.066 496.37C464.62 496.37 466.688 498.437 466.688 500.991C466.688 503.545 464.62 505.612 462.066 505.612C459.512 505.612 457.445 503.545 457.445 500.991C457.445 498.437 459.543 496.37 462.066 496.37ZM462.066 504.7C464.103 504.7 465.775 503.028 465.775 500.991C465.775 498.954 464.103 497.282 462.066 497.282C460.029 497.282 458.357 498.954 458.357 500.991C458.357 503.028 460.029 504.7 462.066 504.7Z" fill="#231F20"/>
<path d="M467.357 509.352C469.911 509.352 471.979 511.419 471.979 513.973C471.979 516.527 469.911 518.595 467.357 518.595C464.803 518.595 462.736 516.527 462.736 513.973C462.736 511.419 464.834 509.352 467.357 509.352ZM467.357 517.683C469.394 517.683 471.066 516.01 471.066 513.973C471.066 511.936 469.394 510.264 467.357 510.264C465.32 510.264 463.648 511.936 463.648 513.973C463.648 516.01 465.32 517.683 467.357 517.683Z" fill="#231F20"/>
<path d="M277.428 503.636C275.3 502.268 274.661 499.38 276.06 497.251C277.428 495.123 280.316 494.515 282.445 495.883C284.573 497.251 285.211 500.14 283.813 502.268C282.931 503.636 281.441 504.366 279.921 504.366C279.07 504.366 278.188 504.123 277.428 503.636ZM283.053 501.782C284.147 500.079 283.661 497.768 281.958 496.674C281.35 496.279 280.651 496.066 279.951 496.066C279.678 496.066 279.435 496.096 279.161 496.157C278.188 496.37 277.367 496.947 276.82 497.768C275.725 499.471 276.212 501.782 277.914 502.876C279.647 503.971 281.928 503.484 283.053 501.782Z" fill="#231F20"/>
<path d="M279.739 509.595C281.868 510.963 282.506 513.851 281.108 515.98C280.226 517.348 278.736 518.078 277.216 518.078C276.365 518.078 275.483 517.834 274.723 517.348C272.595 515.98 271.956 513.091 273.355 510.963C274.753 508.835 277.611 508.197 279.739 509.595ZM275.24 516.588C276.061 517.135 277.064 517.317 278.037 517.105C279.01 516.892 279.831 516.314 280.378 515.493C280.925 514.672 281.108 513.669 280.895 512.696C280.682 511.723 280.104 510.902 279.283 510.355C278.675 509.96 277.976 509.777 277.277 509.777C276.061 509.777 274.875 510.386 274.176 511.48C273.02 513.183 273.507 515.463 275.24 516.588Z" fill="#231F20"/>
<path d="M277.155 523.337C279.284 524.705 279.922 527.593 278.524 529.722C277.855 530.755 276.821 531.485 275.605 531.728C275.27 531.789 274.966 531.819 274.632 531.819C273.75 531.819 272.899 531.576 272.139 531.09C270.011 529.722 269.372 526.833 270.771 524.705C272.139 522.577 274.997 521.969 277.155 523.337ZM271.531 525.222C270.436 526.925 270.923 529.235 272.625 530.33C273.446 530.877 274.45 531.059 275.423 530.847C276.395 530.634 277.216 530.056 277.764 529.235C278.311 528.414 278.493 527.411 278.28 526.438C278.068 525.465 277.49 524.644 276.669 524.097C276.061 523.702 275.362 523.519 274.662 523.519C273.416 523.519 272.23 524.127 271.531 525.222Z" fill="#231F20"/>
<path d="M511.653 411.848C504.433 411.848 498.58 405.995 498.58 398.775C498.58 391.554 504.433 385.701 511.653 385.701C518.873 385.701 524.727 391.554 524.727 398.775C524.727 405.995 518.873 411.848 511.653 411.848Z" fill="#00E4AF"/>
<path d="M517.248 414.524C524.697 414.524 530.777 408.443 530.777 400.994C530.777 393.545 524.697 387.465 517.248 387.465C509.799 387.465 503.719 393.545 503.719 400.994C503.719 408.443 509.799 414.524 517.248 414.524ZM517.248 388.377C524.21 388.377 529.865 394.032 529.865 400.994C529.865 407.957 524.21 413.612 517.248 413.612C510.286 413.612 504.631 407.957 504.631 400.994C504.631 394.032 510.286 388.377 517.248 388.377Z" fill="#231F20"/>
<path d="M193.274 496.764C188.001 496.764 183.727 492.489 183.727 487.217C183.727 481.945 188.001 477.67 193.274 477.67C198.546 477.67 202.82 481.945 202.82 487.217C202.82 492.489 198.546 496.764 193.274 496.764Z" fill="#00E4AF"/>
<path d="M197.347 498.831C202.85 498.831 207.35 494.362 207.35 488.828C207.35 483.325 202.88 478.826 197.347 478.826C191.814 478.826 187.344 483.295 187.344 488.828C187.375 494.362 191.844 498.831 197.347 498.831ZM197.347 479.768C202.363 479.768 206.438 483.842 206.438 488.859C206.438 493.875 202.363 497.949 197.347 497.949C192.33 497.949 188.256 493.875 188.256 488.859C188.256 483.842 192.361 479.768 197.347 479.768Z" fill="#231F20"/>
<path d="M310.204 82.1269C302.177 82.1269 295.671 75.6204 295.671 67.5942C295.671 59.568 302.177 53.0615 310.204 53.0615C318.23 53.0615 324.736 59.568 324.736 67.5942C324.736 75.6204 318.23 82.1269 310.204 82.1269Z" fill="#00E4AF"/>
<path d="M316.435 85.0761C324.705 85.0761 331.424 78.357 331.424 70.0874C331.424 61.8177 324.705 55.0986 316.435 55.0986C308.165 55.0986 301.446 61.8177 301.446 70.0874C301.446 78.357 308.165 85.0761 316.435 85.0761ZM316.435 56.0107C324.218 56.0107 330.512 62.3346 330.512 70.0874C330.512 77.8402 324.188 84.164 316.435 84.164C308.682 84.164 302.358 77.8402 302.358 70.0874C302.358 62.3346 308.652 56.0107 316.435 56.0107Z" fill="#231F20"/>
<path d="M400.318 46.4028L408.861 134.481L379.978 123.596L396.183 194.831L365.233 109.398L398.767 117.12L400.318 46.4028Z" fill="#23E0A2"/>
<path d="M396.183 195.286C396.214 195.286 396.274 195.286 396.335 195.256C396.548 195.195 396.7 194.952 396.639 194.709L380.617 124.295L408.74 134.875C408.892 134.936 409.044 134.906 409.165 134.815C409.287 134.723 409.348 134.571 409.348 134.419L400.774 46.3417C400.744 46.0984 400.561 45.916 400.318 45.916C400.075 45.916 399.892 46.0984 399.862 46.3417L393.842 110.553L357.389 99.4863C357.206 99.4255 357.024 99.4863 356.933 99.6079C356.811 99.7295 356.781 99.9119 356.842 100.094L395.757 195.013C395.818 195.195 396.001 195.286 396.183 195.286ZM379.978 123.14C379.857 123.14 379.765 123.17 379.674 123.261C379.553 123.383 379.492 123.535 379.522 123.718L394.511 189.571L358.058 100.642L394.116 111.587C394.237 111.617 394.389 111.617 394.511 111.526C394.633 111.435 394.693 111.313 394.724 111.191L400.348 51.2062L408.344 133.811L380.13 123.17C380.069 123.17 380.009 123.14 379.978 123.14Z" fill="#231F20"/>
<path d="M529.227 192.55L470.397 228.912L466.079 199.087L422.39 236.939L470.001 181.088L478.484 214.106L529.227 192.55Z" fill="#23E0A2"/>
<path d="M422.39 237.395C422.481 237.395 422.602 237.364 422.694 237.273L465.744 199.969L469.97 228.943C470.001 229.095 470.092 229.216 470.244 229.277C470.396 229.338 470.548 229.338 470.67 229.247L529.469 192.946C529.652 192.824 529.743 192.581 529.652 192.368C529.561 192.155 529.317 192.064 529.104 192.125L481.22 207.448L473.862 170.69C473.832 170.508 473.68 170.386 473.528 170.326C473.345 170.295 473.163 170.356 473.072 170.478L422.025 236.665C421.873 236.848 421.903 237.121 422.086 237.273C422.177 237.364 422.268 237.395 422.39 237.395ZM466.079 198.631C465.957 198.631 465.866 198.661 465.775 198.753L425.521 233.625L473.163 171.846L480.399 208.117C480.429 208.238 480.49 208.36 480.612 208.421C480.733 208.481 480.855 208.512 480.976 208.451L525.821 194.101L470.761 228.152L466.535 199.026C466.504 198.874 466.413 198.722 466.231 198.661C466.17 198.631 466.14 198.631 466.079 198.631Z" fill="#231F20"/>
<path d="M155.451 261.991L208.17 274.365L194.094 293.276L239.242 296.468L181.963 301.12L195.523 278.105L155.451 261.991Z" fill="#23E0A2"/>
<path d="M174.392 305.407C174.423 305.407 174.423 305.407 174.453 305.407L239.333 296.924C239.576 296.894 239.729 296.681 239.729 296.468C239.729 296.225 239.546 296.043 239.303 296.012L194.975 292.911L208.565 274.639C208.657 274.517 208.687 274.365 208.626 274.213C208.565 274.061 208.444 273.97 208.292 273.94L155.573 261.565C155.36 261.505 155.117 261.626 155.025 261.839C154.934 262.052 155.025 262.295 155.238 262.417L190.171 280.355L173.997 304.707C173.906 304.859 173.906 305.042 173.997 305.194C174.088 305.316 174.24 305.407 174.392 305.407ZM234.682 296.59L175.304 304.343L191.236 280.415C191.296 280.294 191.327 280.172 191.296 280.051C191.266 279.929 191.175 279.807 191.053 279.747L158.978 263.268L207.41 274.639L193.729 293.002C193.637 293.124 193.607 293.306 193.668 293.458C193.729 293.61 193.881 293.702 194.063 293.732L234.682 296.59Z" fill="#231F20"/>
<path d="M142.773 21.4721L171.838 0.311523L163.933 32.8428L207.531 25.5765L169.953 48.1356L222.398 72.3973H171.868C171.868 72.3973 196.495 110.827 195.552 109.428C194.61 108.03 149.553 77.0489 149.553 77.0489C149.553 77.0489 157.64 64.9485 155.116 49.9294C153.383 39.6531 150.495 31.5659 142.773 21.4721Z" fill="#23E0A2"/>
<path d="M189.35 110.036C189.502 110.036 189.624 109.976 189.624 109.976C189.897 109.793 189.867 109.611 189.745 109.337C189.745 109.337 189.745 109.307 189.715 109.307C189.654 109.185 189.593 109.094 189.502 108.942C189.32 108.668 189.077 108.273 188.742 107.756C188.104 106.753 187.161 105.294 186.067 103.561C183.847 100.095 180.868 95.4429 177.919 90.8216C172.963 83.0689 167.977 75.3161 166.487 73.0054H216.196C216.409 73.0054 216.591 72.8534 216.652 72.6406C216.713 72.4278 216.591 72.2149 216.409 72.1237L164.754 48.2269L201.603 26.1239C201.785 26.0022 201.876 25.7894 201.785 25.5766C201.724 25.3638 201.511 25.2422 201.268 25.2726L158.369 32.4173L166.092 0.554856C166.122 0.372437 166.061 0.159616 165.909 0.068407C165.757 -0.0228023 165.545 -0.0228023 165.393 0.068407L136.327 21.229L136.874 21.9586L164.936 1.52775L157.336 32.8429C157.305 32.995 157.336 33.147 157.457 33.2686C157.549 33.3902 157.701 33.4206 157.853 33.4206L199.079 26.5495L163.568 47.8621C163.416 47.9533 163.325 48.1053 163.356 48.2877C163.356 48.4701 163.477 48.5917 163.629 48.683L214.19 72.0933H165.727C165.575 72.0933 165.393 72.1846 165.332 72.3366C165.241 72.4886 165.271 72.671 165.362 72.7926C171.99 83.1601 183.574 101.189 187.617 107.543C178.952 101.067 147.728 79.5725 143.715 76.8058L143.198 77.5659C161.106 89.8792 188.104 108.668 189.077 109.854C189.077 109.976 189.229 110.036 189.35 110.036Z" fill="#231F20"/>
<path d="M60.168 103.257L34.6598 133.386L42.595 102.557L7.84421 108.03L33.3524 82.3393L0.000235365 68.3842L33.2916 62.6685C33.2916 62.6685 36.9096 77.2619 43.4463 86.3525C49.9829 95.443 60.168 103.257 60.168 103.257Z" fill="#23E0A2"/>
<path d="M38.7647 132.626C38.8863 132.626 39.0383 132.565 39.1295 132.474L60.0469 107.3L59.3476 106.723L39.7072 130.346L47.156 100.916C47.1864 100.764 47.1559 100.612 47.0647 100.49C46.9735 100.369 46.8215 100.338 46.6695 100.338L13.2869 105.689L37.8222 80.5153C37.9134 80.3937 37.9742 80.2417 37.9438 80.1201C37.9134 79.9681 37.8222 79.8465 37.6702 79.7856L5.74695 66.1651L34.6299 61.1181L34.4779 60.2061L4.07478 65.5266C3.86196 65.557 3.70992 65.709 3.70992 65.9218C3.67952 66.1347 3.80114 66.3171 3.98356 66.4083L36.7277 80.3633L11.6756 106.054C11.5235 106.206 11.4931 106.419 11.5843 106.571C11.6755 106.753 11.858 106.844 12.0708 106.814L46.1526 101.372L38.3695 132.079C38.3086 132.292 38.3999 132.505 38.6127 132.596C38.6431 132.626 38.7039 132.626 38.7647 132.626Z" fill="#231F20"/>
<path d="M93.8237 254.725L124.865 207.205L22.7412 173.245L93.8237 254.725Z" fill="#CBF5E7"/>
<path d="M105.56 250.772H105.59C105.742 250.772 105.864 250.681 105.955 250.56L136.966 203.04C137.057 202.918 137.057 202.766 137.027 202.644C136.966 202.523 136.875 202.401 136.753 202.371L34.6595 168.41C34.4771 168.35 34.2643 168.41 34.1426 168.593C34.021 168.775 34.0515 168.988 34.1731 169.14L105.255 250.62C105.316 250.712 105.438 250.772 105.56 250.772ZM135.871 203.04L105.499 249.556L35.906 169.779L135.871 203.04Z" fill="#231F20"/>
<path d="M246.233 153.878L274.873 143.206L241.521 95.8384L246.233 153.878Z" fill="#CBF5E7"/>
<path d="M252.741 156.158C252.801 156.158 252.862 156.158 252.893 156.127L281.532 145.456C281.654 145.395 281.776 145.304 281.806 145.152C281.836 145 281.836 144.878 281.745 144.757L248.363 97.419C248.241 97.2366 248.028 97.1758 247.846 97.267C247.663 97.3278 247.542 97.5406 247.542 97.723L252.285 155.732C252.285 155.884 252.376 156.006 252.497 156.067C252.558 156.127 252.649 156.158 252.741 156.158ZM280.651 144.817L253.136 155.063L248.606 99.304L280.651 144.817Z" fill="#231F20"/>
<path d="M480.46 242.837L472.191 273.484L530.291 273.271L480.46 242.837Z" fill="#CBF5E7"/>
<path d="M466.9 278.348L524.97 278.166C525.182 278.166 525.365 278.014 525.395 277.831C525.456 277.649 525.365 277.436 525.182 277.314L475.352 246.881C475.23 246.82 475.078 246.79 474.957 246.851C474.835 246.911 474.713 247.003 474.683 247.155L466.444 277.77C466.413 277.922 466.444 278.044 466.535 278.166C466.626 278.287 466.748 278.348 466.9 278.348ZM523.358 277.254L467.477 277.436L475.413 247.975L523.358 277.254Z" fill="#231F20"/>
<path d="M93.2164 316.383L93.7637 315.653C86.4973 310.363 85.9805 310.424 85.7676 310.454L85.8893 311.366C85.8285 311.366 85.798 311.366 85.798 311.366C86.2845 311.488 89.9633 314.012 93.2164 316.383Z" fill="#231F20"/>
<path d="M96.2081 280.097L102.852 307.33L101.965 307.546L95.322 280.313L96.2081 280.097Z" fill="#231F20"/>
<path d="M119.191 280.131L120.076 280.35L113.733 306.028L112.848 305.809L119.191 280.131Z" fill="#231F20"/>
<path d="M167.918 436.779L168.313 435.958C168.374 435.989 168.404 436.019 168.404 436.019C168.039 435.624 166.398 431.458 165.03 427.688L164.178 427.993C167.249 436.445 167.735 436.688 167.918 436.779Z" fill="#231F20"/>
<path d="M151.973 429.849L152.83 430.162L143.221 456.495L142.364 456.182L151.973 429.849Z" fill="#231F20"/>
<path d="M127.48 399.018L126.112 432.188L112.948 408.899L82.8183 430.273L91.5744 403.184L60.6241 395.461L83.0919 379.013L60.6241 374.635L82.5447 364.359C82.5447 364.359 88.5341 379.135 99.8136 388.104C111.093 397.073 119.272 397.924 127.48 399.018Z" fill="#23E0A2"/>
<path d="M128.272 429.513C128.302 429.513 128.332 429.513 128.393 429.513C128.606 429.452 128.728 429.3 128.728 429.087L130.096 395.918L129.184 395.887L127.876 427.446L115.502 405.555C115.441 405.434 115.32 405.373 115.198 405.343C115.077 405.312 114.955 405.343 114.833 405.403L85.7984 425.986L94.1288 400.204C94.1592 400.083 94.1592 399.961 94.0984 399.84C94.0376 399.718 93.9464 399.657 93.8248 399.627L63.817 392.148L85.4943 376.277C85.6464 376.156 85.7072 375.973 85.6768 375.821C85.6464 375.639 85.4944 375.517 85.3119 375.487L64.2122 371.382L84.8559 361.684L84.4606 360.863L62.54 371.139C62.3576 371.23 62.2664 371.413 62.2664 371.595C62.2968 371.778 62.4488 371.96 62.6312 371.99L84.0654 376.186L62.4488 392.026C62.2968 392.117 62.236 392.3 62.2664 392.482C62.2968 392.664 62.4184 392.786 62.6008 392.847L93.0951 400.448L84.4911 427.05C84.4303 427.233 84.4911 427.446 84.6431 427.567C84.7951 427.689 85.0079 427.689 85.1903 427.567L114.925 406.498L127.815 429.361C127.967 429.452 128.12 429.513 128.272 429.513Z" fill="#231F20"/>
<circle cx="92" cy="46" r="45" fill="#23DFA2"/>
<path fillRule="evenodd" clipRule="evenodd" d="M80.7262 49.9144C80.5459 49.6921 80.3497 49.5026 80.1379 49.3464C79.9433 49.203 79.7354 49.0876 79.5145 49.0008C79.1757 48.8676 78.8061 48.8014 78.4062 48.8037L79.4317 52.1064C82.8251 52.102 84.6617 52.8485 85.3434 55.044C86.0951 57.4648 84.9727 59.7473 82.189 60.9202L82.7483 62.7217L81.1908 63.2053L80.6314 61.4039C78.2159 61.907 76.024 61.2091 74.6661 59.5527L76.8362 57.3975C76.9561 57.5339 77.0805 57.6591 77.2093 57.7731C77.6647 58.176 78.1757 58.4382 78.7414 58.5566C79.0773 58.6269 79.4324 58.6465 79.8066 58.6149L78.7404 55.1809C77.0372 55.1953 75.7798 54.9891 74.9566 54.5246C74.0033 54.0387 73.3484 53.2545 73.0162 52.1849C72.655 51.0215 72.7648 49.9175 73.3458 48.873C73.9209 47.8097 74.8074 47.0201 75.9993 46.4854L75.4049 44.5713L76.9625 44.0877L77.5568 46.0018C79.6404 45.6223 81.5042 46.2575 82.7967 47.7696L80.7262 49.9144ZM78.2645 44.9089C80.1362 44.791 81.8545 45.4071 83.1638 46.6976L87.4383 42.0099L91.1485 40.8579L96.3038 57.4612L91.3538 58.9982L88.1297 48.6148L86.0628 50.8251L83.5634 48.4152L80.9148 51.1589C82.0299 51.2472 83.0099 51.4553 83.8339 51.8471C85.0686 52.4342 85.8795 53.3981 86.2985 54.7475C86.7458 56.1883 86.6456 57.6401 85.9776 58.9143C85.4364 59.9468 84.553 60.8058 83.3987 61.4441L83.9999 63.3802L80.5323 64.4569L79.9317 62.5225C77.5474 62.7621 75.3403 61.9524 73.8928 60.1866L73.3165 59.4837L76.7464 56.0773C75.87 55.9645 75.1059 55.7526 74.484 55.4061C73.2915 54.7923 72.4682 53.7921 72.0612 52.4815C71.6213 51.0646 71.7549 49.6791 72.469 48.3921C73.0199 47.3759 73.8068 46.578 74.7968 45.9852L74.1534 43.9129L77.621 42.8362L78.2645 44.9089ZM77.0367 56.1107L77.5874 56.7374C77.8321 57.0158 78.0925 57.2268 78.374 57.3734L78.0013 56.1729C77.6677 56.1624 77.3458 56.1421 77.0367 56.1107ZM80.423 51.128L80.0212 50.6326L80.1718 51.1178C80.2562 51.1206 80.34 51.124 80.423 51.128ZM88.5745 46.6751L92.0123 57.7467L95.0522 56.8027L90.49 42.1095L87.9942 42.8844L83.9116 47.3617L86.026 49.4004L88.5745 46.6751ZM77.7848 52.1034C77.3233 52.0715 76.9477 51.9841 76.6564 51.8416C76.2975 51.666 76.0666 51.4068 75.9604 51.065C75.8373 50.6684 75.8745 50.2825 76.0665 49.9416C76.2288 49.6535 76.5016 49.3976 76.8817 49.1947L77.7848 52.1034ZM80.3931 55.2026L81.3137 58.1676C81.6632 57.9665 81.9451 57.7247 82.1408 57.459C82.424 57.0745 82.5265 56.6401 82.3921 56.2073C82.261 55.7849 82.003 55.5296 81.494 55.3759C81.2114 55.2905 80.8515 55.2365 80.3931 55.2026ZM99.6607 50.1665L99.5857 50.1898L101.06 54.9374L98.1324 55.8463L93.3837 40.5526L96.3111 39.6436L99.172 48.8574L101.42 43.8388L105.154 42.6793L102.553 48.5483L108.378 52.665L104.682 53.8128L99.6607 50.1665ZM101.402 52.6669L102.311 55.5959L97.4739 57.0979L92.1321 39.8941L96.9696 38.3921L99.3418 46.0321L100.692 43.0177L106.961 41.0712L103.799 48.2045L110.611 53.0187L104.499 54.9165L101.402 52.6669Z" fill="black"/>
<circle cx="92" cy="55" r="44.5" stroke="black"/>
<circle cx="131" cy="336" r="45" fill="#23DFA2"/>
<path fillRule="evenodd" clipRule="evenodd" d="M123.935 348.914L128.206 350.251L128.17 351.022C128.069 353.189 126.638 354.677 124.664 355.29C123.895 355.529 122.999 355.604 122.028 355.515C121.179 355.436 120.695 355.474 120.464 355.545C120.06 355.671 119.487 356.047 118.739 356.879L118.054 357.642L114.386 354.176L115.04 353.451C115.759 352.654 116.239 352.015 116.501 351.474C116.591 351.289 116.651 351.125 116.687 350.978L114.186 351.754L112.853 347.461L113.979 347.111C113.728 346.731 113.539 346.356 113.424 345.985C112.962 344.499 113.159 343.031 113.981 341.644C114.8 340.232 116.042 339.29 117.648 338.791C119.046 338.357 120.391 338.324 121.59 338.704C122.567 339.013 123.405 339.582 124.068 340.358L128.281 335.737L131.992 334.585L137.147 351.188L132.197 352.725L128.973 342.342L126.906 344.552L124.421 342.156L121.551 344.76L123.189 344.252L124.522 348.545L121.577 349.459C121.615 349.812 121.602 350.16 121.543 350.5C121.708 350.504 121.876 350.514 122.048 350.53C122.632 350.587 123.009 350.542 123.211 350.479C123.495 350.391 123.622 350.257 123.691 349.963L123.935 348.914ZM121.221 351.503C120.868 351.517 120.55 351.57 120.265 351.659C120.134 351.7 119.971 351.771 119.813 351.861C119.95 351.694 120.069 351.524 120.17 351.353C120.321 351.098 120.432 350.839 120.503 350.575C120.644 350.053 120.628 349.515 120.457 348.965L120.399 348.778L123.27 347.886L122.53 345.503L118.89 346.634C118.124 345.822 117.664 345.204 117.53 344.772C117.221 343.777 117.798 342.919 118.868 342.587C119.558 342.373 120.169 342.493 120.717 342.943C120.93 343.117 121.132 343.341 121.326 343.614L123.67 341.487C123.632 341.43 123.593 341.374 123.553 341.319C123.5 341.245 123.445 341.173 123.388 341.103C122.167 339.598 120.236 339.035 117.945 339.746C116.556 340.178 115.527 340.97 114.844 342.15C114.154 343.31 114.006 344.488 114.379 345.689C114.482 346.021 114.681 346.392 114.981 346.8C115.173 347.061 115.406 347.338 115.681 347.63L114.105 348.119L114.845 350.503L117.491 349.681C117.508 349.72 117.525 349.756 117.54 349.789C117.583 349.88 117.616 349.952 117.633 350.007C117.675 350.141 117.702 350.275 117.717 350.41C117.726 350.491 117.73 350.572 117.73 350.654C117.724 351.681 116.995 352.777 115.783 354.12L117.996 356.211C118.121 356.071 118.245 355.94 118.367 355.817C119.017 355.166 119.614 354.762 120.167 354.59C120.599 354.456 121.252 354.439 122.12 354.519C122.988 354.599 123.748 354.528 124.367 354.335C126.019 353.823 127.093 352.645 127.172 350.975L124.665 350.19C124.64 350.296 124.608 350.397 124.57 350.49C124.38 350.963 124.024 351.273 123.508 351.434C123.132 351.55 122.61 351.589 121.952 351.526C121.694 351.501 121.45 351.494 121.221 351.503ZM119.201 345.49L121.029 344.922L120.511 344.193C120.233 343.801 119.992 343.621 119.808 343.544C119.644 343.475 119.448 343.454 119.164 343.542C118.808 343.653 118.616 343.825 118.528 343.964C118.452 344.085 118.413 344.244 118.485 344.475C118.503 344.535 118.576 344.692 118.779 344.969C118.892 345.122 119.032 345.295 119.201 345.49ZM129.418 340.402L132.855 351.473L135.895 350.53L131.333 335.836L128.837 336.611L124.755 341.089L126.869 343.127L129.418 340.402ZM140.504 343.893L140.429 343.917L141.903 348.664L138.976 349.573L134.227 334.279L137.154 333.37L140.015 342.584L142.263 337.566L145.997 336.406L143.396 342.275L149.221 346.392L145.525 347.54L140.504 343.893ZM142.245 346.394L143.154 349.323L138.317 350.825L132.975 333.621L137.813 332.119L140.185 339.759L141.535 336.745L147.804 334.798L144.642 341.931L151.455 346.745L145.343 348.643L142.245 346.394Z" fill="black"/>
<circle cx="131" cy="345" r="44.5" stroke="black"/>
</svg>
