<svg width="573" height="599" viewBox="0 0 573 599" fill="none" xmlns="http://www.w3.org/2000/svg">
<path d="M197.577 314.258C177.48 301.064 153.442 293.365 127.597 293.365C57.1115 293.365 0 350.477 0 420.963C0 477.423 36.6887 525.318 87.5108 542.126C83.7515 511.112 86.9686 481.833 90.4025 462.603C93.728 443.807 97.8848 430.758 98.7885 428.011C98.7523 427.035 98.7523 426.095 98.8246 425.156V425.119C98.7162 415.649 101.897 393.6 121.127 387.129C132.513 383.298 145.092 382.539 155.177 381.924C164.431 381.382 172.419 380.876 175.744 378.237C184.384 371.261 203.324 351.417 197.577 314.258ZM178.275 365.08C178.058 372.382 172.058 378.237 164.72 378.237C159.768 378.237 155.394 375.562 153.044 371.55V371.586C153.044 371.586 139.706 355.682 158.575 342.452C165.117 337.862 170.033 340.247 171.696 344.151C175.13 341.657 184.528 335.331 190.275 337.789C200.396 342.199 187.348 357.525 178.275 365.08Z" fill="#00E4AF"/>
<path d="M255.195 420.963C255.195 443.229 249.484 464.122 239.508 482.34C234.736 483.207 229.929 483.749 225.085 483.93C224.651 483.93 224.218 483.966 223.784 483.966C212.687 483.966 202.458 478.761 193.457 471.206C194.072 468.821 198.771 451.76 206.578 440.265C218.796 422.3 228.411 402.6 234.592 382.973C234.989 381.708 235.387 380.406 235.748 379.141C236.652 376.069 237.447 372.996 238.17 369.924L243.592 392.877L251.653 390.853C252.484 394.323 253.207 397.865 253.749 401.444C254.689 407.805 255.195 414.312 255.195 420.963Z" fill="#00E4AF"/>
<path d="M195.878 528.751C186.335 534.824 175.889 539.668 164.828 543.029C168.117 536.017 172.78 525.064 173.792 522.606C180.986 525.607 188.468 527.559 195.878 528.751Z" fill="#00E4AF"/>
<path d="M232.783 373.466C231.41 384.346 210.083 425.951 199.059 440.554C196.059 444.494 189.986 463.688 188.938 467.158C188.829 467.519 188.757 467.7 188.757 467.7C188.757 467.7 173.901 451.109 169.021 443.12C164.177 435.24 154.273 415.793 154.056 415.396C154.092 415.54 154.707 417.456 155.755 420.42C159.189 430.397 167.105 452.301 172.708 458.736C172.997 459.061 173.25 459.35 173.539 459.567C166.093 466.435 147.514 491.52 141.947 499.111C141.839 499.256 141.73 499.4 141.658 499.509C141.622 499.545 141.586 499.581 141.55 499.653C141.477 499.762 141.369 499.906 141.297 500.015C140.682 500.846 140.357 501.316 140.357 501.316L167.647 521.558L172.202 522.462C172.202 522.462 171.334 524.848 170.141 528.137C169.78 529.113 169.382 530.161 168.985 531.245C167.431 535.402 165.587 540.174 164.25 543.246C163.527 544.909 162.948 546.102 162.623 546.463C158.683 547.909 145.959 554.126 123.368 551.885C100.776 549.644 88.2696 543.463 88.2696 543.463C88.2696 543.463 88.1973 543.065 88.0888 542.342C86.9683 534.607 81.3294 487.834 98.8967 429.601C98.8605 429.059 98.8605 428.553 98.8244 428.047C98.7882 427.071 98.7882 426.131 98.8605 425.192V425.155C99.1858 415.721 102.15 407.986 105.15 402.492C105.511 401.841 105.873 401.19 106.271 400.54C109.054 395.913 111.548 393.346 111.548 393.346C122.5 386.045 128.537 384.093 161.755 382.105C177.805 381.129 180.877 374.442 180.877 374.442C180.877 374.442 190.673 363.779 193.564 355.862L193.673 355.646C193.89 355.212 194.251 354.85 194.721 354.597C195.553 354.127 196.781 353.983 198.3 354.091C200.938 354.272 204.445 355.248 208.204 356.694C219.698 361.104 233.759 369.996 232.783 373.466Z" fill="#CBF5E7"/>
<path d="M230.072 379.791V369.164C229.819 368.948 229.566 368.731 229.277 368.478V379.791H214.457H199.637V364.971V354.2C199.384 354.164 199.095 354.127 198.842 354.091V364.971V379.791H184.021H173.358C172.635 380.081 171.84 380.334 170.973 380.587H184.021H198.842V395.407V410.227H184.021H169.201V395.407V381.02C168.948 381.093 168.695 381.129 168.406 381.201V395.407V410.227H153.586H138.766V395.407V383.912C138.513 383.948 138.224 383.985 137.971 384.021V395.407V410.227H123.151H108.331V397.142C108.078 397.503 107.825 397.865 107.535 398.299V410.227H101.571C101.463 410.48 101.39 410.733 101.282 411.022H107.499V425.842V440.662H95.6431C95.5709 440.915 95.4986 441.168 95.4263 441.457H107.499V456.278V471.098H92.6791H89.4259C89.3898 471.351 89.3537 471.604 89.3175 471.893H92.6791H107.499V486.713V501.533H92.6791H86.4619C86.4619 501.786 86.4258 502.039 86.4258 502.328H92.6791H107.499V517.148V531.968H92.6791H86.8595C86.8957 532.221 86.8957 532.511 86.9318 532.764H92.7153H107.535V547.584V549.499C107.788 549.572 108.041 549.608 108.331 549.68V547.584V532.764H123.151H137.971V547.584V552.247C138.224 552.247 138.513 552.21 138.766 552.21V547.584V532.764H153.586H168.334C168.515 532.258 168.695 531.752 168.912 531.282C169.021 530.992 169.129 530.739 169.201 530.45V521.92L168.406 521.775V532.005H153.586H138.766V517.184V502.364H141.622L140.573 501.569H138.802V486.749V471.929H153.622H162.695C162.912 471.676 163.129 471.387 163.346 471.134H153.622H138.802V456.314V441.494H153.622H163.599C163.49 441.241 163.382 440.988 163.273 440.698H153.622H138.802V425.878V411.058H153.622H168.442V425.878V440.698H167.539C167.683 440.951 167.864 441.241 168.009 441.494H168.442V442.217C168.623 442.542 168.84 442.867 169.021 443.156C169.093 443.265 169.165 443.373 169.238 443.518V441.494H184.058H198.48C198.697 441.168 198.878 440.879 199.058 440.626C199.239 440.373 199.456 440.084 199.673 439.795V425.878V411.058H214.493H216.77C216.915 410.805 217.059 410.552 217.168 410.263H214.457H199.637V395.443V380.623H214.457H229.277V384.563C229.566 383.876 229.819 383.225 230.072 382.575V380.659H230.795C230.903 380.406 230.976 380.117 231.084 379.864H230.072V379.791ZM138.043 517.112V531.932H123.223H108.403V517.112V502.292H123.223H138.043V517.112ZM138.043 486.677V501.497H123.223H108.403V486.677V471.857H123.223H138.043V486.677ZM138.043 456.241V471.062H123.223H108.403V456.241V441.421H123.223H138.043V456.241ZM138.043 425.806V440.626H123.223H108.403V425.806V410.986H123.223H138.043V425.806ZM198.878 425.806V440.626H184.058H169.238V425.806V410.986H184.058H198.878V425.806Z" fill="white"/>
<path d="M169.237 464.049V456.278V453.459C168.984 452.989 168.731 452.483 168.441 451.977V456.242V464.917C168.731 464.628 168.984 464.339 169.237 464.049Z" fill="white"/>
<path d="M260.904 504.606C266.774 504.606 271.532 499.848 271.532 493.979C271.532 488.109 266.774 483.352 260.904 483.352C255.035 483.352 250.277 488.109 250.277 493.979C250.277 499.848 255.035 504.606 260.904 504.606Z" fill="#CBF5E7"/>
<path d="M493.617 496.364L540.029 484.472C540.029 484.472 537.463 423.348 541.222 406.721C544.945 390.13 552.355 375.888 544.584 362.152C533.125 341.874 521.161 340.97 489.75 333.235C477.532 330.235 467.23 283.678 466.291 274.099C465.351 264.521 457.652 221.542 446.771 197.686C433.831 200.866 422.734 210.265 422.734 210.265C422.734 210.265 429.602 293.185 428.445 315.017C427.252 336.814 457.037 411.818 459.784 416.77C467.52 409.974 483.496 392.009 487.834 380.37C490.328 383.19 481.87 408.926 455.772 427.505C429.674 446.085 403.215 454.904 403.215 454.904L416.842 493.545C416.842 493.545 470.014 477.279 481.002 470.556C482.665 474.785 489.967 492.967 493.617 496.364Z" fill="#00E4AF"/>
<path d="M556.223 421.252L544.801 424.686V429.529L557.271 425.734L556.223 421.252Z" fill="#CBF5E7"/>
<path d="M540.679 571.043C540.643 570.862 535.944 553.982 523.871 551.741C520.545 551.126 517.545 550.982 514.906 551.235C516.533 556.729 515.34 561.175 513.099 563.958C510.533 567.139 506.629 568.187 503.34 566.597C500.737 565.332 499.689 562.332 500.737 559.151C502.074 555.102 506.412 551.379 513.461 550.331C512.557 547.837 511.039 545.09 508.762 542.198C504.532 536.812 499.906 533.776 494.99 533.197C488.773 532.475 484.29 535.981 484.218 536.017L483.531 535.186C483.712 535.041 488.411 531.354 495.098 532.113C500.303 532.728 505.183 535.872 509.629 541.511C512.051 544.584 513.641 547.512 514.581 550.186C517.364 549.897 520.545 550.006 524.088 550.656C536.847 553.006 541.546 570.031 541.727 570.754L540.679 571.043ZM513.822 551.379C507.135 552.319 503.014 555.753 501.785 559.512C500.882 562.223 501.713 564.609 503.809 565.657C506.629 567.031 510.027 566.055 512.268 563.308C514.328 560.705 515.376 556.548 513.822 551.379Z" fill="#231F20"/>
<path d="M496.979 207.77L495.895 207.698C495.895 207.445 496.256 201.698 499.292 195.734C502.112 190.203 507.823 183.516 519.137 183.118C520.366 183.082 521.522 183.082 522.607 183.191C523.908 180.299 525.788 177.443 528.354 174.841C533.487 169.708 541.186 167.792 550.657 169.31C557.741 170.431 563.416 173.106 563.452 173.142L562.982 174.118C562.766 174.009 540.933 163.816 529.113 175.6C526.728 177.986 524.956 180.624 523.727 183.299C532.005 184.384 535.294 189.516 535.511 194.468C535.728 199.818 532.511 204.662 528.571 204.842C525.752 204.987 523.257 203.144 521.775 199.818C519.968 195.77 519.896 189.986 522.137 184.239C521.233 184.167 520.221 184.167 519.173 184.203C510.534 184.528 504.172 188.577 500.268 196.203C497.34 201.951 496.979 207.698 496.979 207.77ZM523.257 184.347C520.98 189.914 521.016 195.517 522.751 199.384C524.053 202.276 526.113 203.903 528.499 203.758C531.86 203.577 534.607 199.276 534.427 194.505C534.318 192.264 533.162 185.468 523.257 184.347Z" fill="#231F20"/>
<path d="M132.441 269.364C132.441 269.328 131.574 265.388 128.935 261.846C125.863 257.689 121.742 255.845 116.754 256.315C117.802 260.002 117.115 263.328 115.85 265.352C114.513 267.485 112.525 268.244 110.826 267.304C108.946 266.256 108.043 264.376 108.404 262.171C108.91 259.026 111.621 256.171 114.73 255.556C114.91 255.52 115.127 255.484 115.308 255.448C114.26 252.737 112.163 249.881 108.549 247.279C95.8612 238.206 79.0892 251.219 78.9446 251.363L78.2578 250.496C78.4385 250.351 82.6677 247.026 88.5957 244.821C96.5118 241.893 103.633 242.399 109.163 246.375C113.103 249.194 115.308 252.303 116.392 255.267C130.02 253.749 133.454 268.967 133.49 269.111L132.441 269.364ZM115.669 256.496C115.416 256.532 115.2 256.568 114.947 256.641C111.983 257.219 109.85 260.038 109.452 262.388C109.308 263.4 109.308 265.316 111.332 266.436C112.742 267.232 114.079 266.111 114.91 264.846C116.103 262.966 116.682 259.894 115.669 256.496Z" fill="#231F20"/>
<path d="M388.722 49.4877L387.914 64.6841L388.889 64.7359L389.697 49.5395L388.722 49.4877Z" fill="#231F20"/>
<path d="M433.478 51.3213L403.535 73.3267L404.113 74.1131L434.056 52.1077L433.478 51.3213Z" fill="#231F20"/>
<path d="M425.518 84.2935H408.457V85.2694H425.518V84.2935Z" fill="#231F20"/>
<path d="M130.459 110.669L129.824 111.411L159.097 136.468L159.732 135.727L130.459 110.669Z" fill="#231F20"/>
<path d="M134.583 155.591L134.547 156.566L155.606 157.342L155.642 156.367L134.583 155.591Z" fill="#231F20"/>
<path d="M561.066 250.532C563.901 250.532 566.199 248.234 566.199 245.399C566.199 242.564 563.901 240.266 561.066 240.266C558.232 240.266 555.934 242.564 555.934 245.399C555.934 248.234 558.232 250.532 561.066 250.532Z" fill="#CBF5E7"/>
<path d="M635.351 403.829L556.227 426.095V382.105L635.351 359.839V403.829Z" fill="#CBF5E7"/>
<path d="M367.398 102.114L218.359 141.223L226.185 171.044L375.223 131.936L367.398 102.114Z" fill="#CBF5E7"/>
<path d="M230.933 147.231L234.362 160.252L242.61 158.079L241.936 155.518L236.365 156.986L233.61 146.526L230.933 147.231Z" fill="black"/>
<path d="M242.368 153.413C242.719 154.743 243.473 155.718 244.637 156.354C245.8 156.99 247.062 157.12 248.425 156.761C249.772 156.406 250.801 155.655 251.517 154.524C252.228 153.376 252.4 152.14 252.05 150.809C251.704 149.496 250.954 148.537 249.79 147.901C248.627 147.265 247.361 147.118 246.014 147.473C244.667 147.828 243.622 148.584 242.91 149.731C242.194 150.862 242.022 152.099 242.368 153.413ZM245.02 152.679C244.849 152.03 244.921 151.424 245.227 150.899C245.529 150.357 245.988 150.005 246.603 149.843C247.218 149.681 247.807 149.757 248.337 150.08C248.862 150.386 249.223 150.878 249.394 151.527C249.744 152.857 249.063 154.05 247.815 154.379C247.2 154.541 246.611 154.465 246.086 154.159C245.556 153.836 245.195 153.344 245.02 152.679Z" fill="black"/>
<path d="M257.614 154.305C258.795 153.994 259.563 153.329 259.938 152.324L259.975 152.332L260.265 153.429L262.659 152.798L261.209 147.294C260.596 144.966 258.754 144.117 256.41 144.735C254.464 145.248 253.284 146.305 252.892 147.92L255.182 148.58C255.42 147.663 255.964 147.093 256.845 146.861C257.776 146.616 258.402 146.967 258.564 147.582C258.678 148.014 258.502 148.292 258.037 148.414L257.155 148.646C256.158 148.909 255.366 149.278 254.651 149.875C253.954 150.468 253.64 151.368 253.916 152.416L253.925 152.449C254.135 153.248 254.588 153.822 255.298 154.151C256.007 154.48 256.783 154.524 257.614 154.305ZM257.863 152.212C257.198 152.387 256.654 152.211 256.496 151.612C256.321 150.947 256.828 150.44 257.576 150.243L259.139 149.831L259.192 150.031C259.45 151.012 258.978 151.919 257.863 152.212Z" fill="black"/>
<path d="M273.28 150.001L271.826 144.48C271.563 143.482 271.078 142.721 270.35 142.183C269.638 141.642 268.753 141.519 267.688 141.8C267.306 141.901 266.845 142.04 266.181 142.695C265.856 143.012 265.648 143.369 265.528 143.792L265.511 143.796L265.204 142.632L262.627 143.311L264.966 152.191L267.56 151.507L266.264 146.585C266.005 145.604 266.357 144.711 267.404 144.435C268.419 144.168 269.13 144.71 269.406 145.757L270.703 150.68L273.28 150.001Z" fill="black"/>
<path d="M280.851 148.007L281.123 145.125L286.893 143.605L288.566 145.974L291.343 145.243L282.925 133.536L279.682 134.39L278.14 148.721L280.851 148.007ZM281.967 136.581L285.322 141.352L281.397 142.386L281.967 136.581Z" fill="black"/>
<path d="M292.763 135.373L290.185 136.052L293.68 149.322L296.275 148.639L294.86 143.267L294.893 143.259C295.726 143.857 296.708 144.007 297.823 143.714C299.07 143.385 299.962 142.653 300.531 141.507C301.096 140.344 301.215 139.175 300.895 137.961C300.58 136.764 299.9 135.805 298.874 135.079C297.847 134.354 296.71 134.155 295.463 134.484C294.282 134.795 293.477 135.452 293.085 136.462L293.052 136.47L292.763 135.373ZM293.878 139.809C293.707 139.161 293.779 138.555 294.085 138.03C294.391 137.505 294.85 137.153 295.465 136.991C296.08 136.829 296.669 136.905 297.194 137.211C297.736 137.513 298.097 138.004 298.268 138.653C298.443 139.318 298.371 139.924 298.07 140.466C297.763 140.991 297.288 141.347 296.673 141.509C296.058 141.671 295.469 141.595 294.943 141.289C294.414 140.966 294.053 140.475 293.878 139.809Z" fill="black"/>
<path d="M304.162 132.37L301.585 133.049L305.08 146.319L307.674 145.636L306.26 140.265L306.293 140.256C307.126 140.854 308.108 141.005 309.223 140.711C310.47 140.383 311.361 139.65 311.931 138.504C312.496 137.341 312.615 136.172 312.295 134.958C311.98 133.761 311.3 132.802 310.274 132.076C309.247 131.351 308.11 131.153 306.862 131.481C305.682 131.792 304.877 132.449 304.485 133.459L304.452 133.468L304.162 132.37ZM305.278 136.807C305.107 136.158 305.179 135.552 305.485 135.027C305.791 134.502 306.25 134.15 306.865 133.988C307.48 133.826 308.069 133.902 308.594 134.208C309.136 134.51 309.497 135.002 309.668 135.65C309.843 136.315 309.771 136.921 309.47 137.463C309.163 137.988 308.688 138.345 308.073 138.507C307.458 138.669 306.868 138.593 306.343 138.286C305.814 137.964 305.453 137.472 305.278 136.807Z" fill="black"/>
<path d="M318.597 128.532C318.451 128.518 318.28 128.545 318.064 128.602C316.883 128.913 316.106 129.811 315.938 130.727L315.922 130.731L315.562 129.367L312.985 130.046L315.324 138.926L317.918 138.243L316.928 134.485C316.508 132.888 316.963 131.648 318.643 131.206C318.859 131.149 319.063 131.113 319.271 131.093L318.597 128.532Z" fill="black"/>
<path d="M320.479 132.838C320.83 134.168 321.584 135.143 322.748 135.779C323.911 136.415 325.172 136.545 326.536 136.186C327.883 135.831 328.912 135.08 329.628 133.949C330.339 132.802 330.511 131.565 330.161 130.234C329.815 128.921 329.065 127.963 327.901 127.326C326.738 126.69 325.472 126.544 324.125 126.898C322.778 127.253 321.732 128.009 321.021 129.156C320.305 130.287 320.133 131.524 320.479 132.838ZM323.131 132.104C322.96 131.455 323.032 130.85 323.338 130.324C323.64 129.783 324.099 129.431 324.714 129.269C325.329 129.106 325.918 129.182 326.448 129.505C326.973 129.812 327.334 130.303 327.505 130.952C327.855 132.282 327.173 133.475 325.926 133.804C325.311 133.966 324.722 133.89 324.197 133.584C323.667 133.261 323.306 132.769 323.131 132.104Z" fill="black"/>
<path d="M329.884 125.595L335.815 133.529L338.459 132.832L339.761 122.993L337.018 123.716L336.382 130.214L332.627 124.872L329.884 125.595Z" fill="black"/>
<path d="M350.724 125.618C350.688 125.414 350.622 125.094 350.512 124.678C350.166 123.364 349.466 122.393 348.436 121.793C347.407 121.193 346.233 121.057 344.919 121.403C343.639 121.741 342.643 122.483 341.953 123.643C341.279 124.798 341.098 126.002 341.435 127.282C341.795 128.646 342.554 129.638 343.717 130.274C344.893 130.889 346.154 131.019 347.534 130.655C349.347 130.178 350.435 129.18 350.829 127.636L348.626 126.9C348.397 127.654 347.709 128.28 346.927 128.486C345.813 128.779 344.707 128.359 344.272 127.318L350.724 125.618ZM343.888 125.587C343.845 125.225 343.953 124.823 344.215 124.399C344.472 123.957 344.877 123.673 345.409 123.533C346.59 123.222 347.44 123.816 347.712 124.58L343.888 125.587Z" fill="black"/>
<path d="M360.069 127.14L362.58 126.479L359.015 112.943L356.437 113.622L357.931 119.292L357.897 119.301C357.026 118.694 356.04 118.528 354.926 118.821C353.712 119.141 352.82 119.874 352.255 121.036C351.685 122.182 351.567 123.351 351.878 124.532C352.206 125.779 352.894 126.771 353.917 127.48C354.939 128.189 356.072 128.371 357.319 128.042C358.566 127.714 359.384 127.036 359.738 126.018L359.771 126.009L360.069 127.14ZM358.895 122.683C359.07 123.349 358.999 123.954 358.697 124.496C358.391 125.021 357.915 125.378 357.3 125.54C356.685 125.702 356.096 125.626 355.571 125.32C355.041 124.997 354.68 124.505 354.505 123.84C354.159 122.526 354.862 121.345 356.109 121.017C357.356 120.688 358.549 121.37 358.895 122.683Z" fill="black"/>
<path d="M153.046 371.586C155.395 375.562 159.769 378.273 164.721 378.273C172.059 378.273 178.059 372.418 178.276 365.116C187.385 357.525 200.397 342.199 190.24 337.862C184.493 335.404 175.095 341.693 171.661 344.223C169.998 340.319 165.082 337.934 158.54 342.524C139.671 355.754 153.009 371.659 153.009 371.659C153.046 371.622 153.046 371.586 153.046 371.586ZM164.721 377.189C159.733 377.189 155.395 374.225 153.407 369.96C154.997 363.996 159.371 360.056 163.709 357.381C167.974 354.742 171.914 355.537 173.794 356.152C175.89 358.393 177.191 361.393 177.191 364.682C177.191 371.586 171.589 377.189 164.721 377.189Z" fill="#231F20"/>
<path d="M495.21 309.017C494.378 310.824 493.908 312.848 493.908 314.981C493.908 323.005 500.451 329.548 508.475 329.548C514.873 329.548 520.332 325.391 522.283 319.644C529.838 313.029 525.211 304.679 520.874 302.944L527.091 300.703L526.729 299.691L519.789 302.185L520.223 297.45L519.139 297.341L518.741 301.534C514.331 293.835 502.692 285.594 493.836 288.883C484.763 292.245 488.233 307.065 495.21 309.017ZM508.475 328.464C501.065 328.464 494.993 322.427 494.993 314.981C494.993 312.306 495.788 309.776 497.162 307.679C502.511 302.944 509.741 304.643 515.163 310.029C515.958 315.198 519.717 318.812 521.018 319.933C519.03 324.921 514.15 328.464 508.475 328.464Z" fill="#231F20"/>
<path d="M612.721 243.736L612.613 243.266L471.46 278.401C469.364 269.581 467.304 259.713 465.316 248.797C459.677 217.855 452.447 195.625 440.411 172.057C434.663 160.852 427.795 156.334 423.024 154.526C418.795 152.936 415.469 153.08 414.313 153.225L394.251 74.1364L394.143 73.6665L175.89 129.26L163.745 139.598L185.18 197.035C165.371 207.951 177.228 245.11 187.674 277.858C191.469 289.787 195.084 301.028 196.855 310.173C197.144 311.547 197.361 312.884 197.578 314.222C203.325 351.38 184.385 371.261 175.746 378.201C172.42 380.876 164.432 381.346 155.178 381.888C145.057 382.503 132.514 383.262 121.128 387.093C101.898 393.563 98.7173 415.613 98.8257 425.083V425.119C98.8257 426.059 98.898 426.854 98.9341 427.541C98.898 427.613 98.8618 427.758 98.7895 427.975C97.8859 430.758 93.729 443.807 90.4036 462.567C87.0058 481.797 83.7526 511.076 87.5118 542.09C87.5841 542.559 87.6203 542.993 87.6926 543.463C87.7287 543.644 87.8371 543.825 88.0179 543.897C94.0544 546.644 104.898 550.15 117.26 551.741C122.032 552.355 126.659 552.68 131.177 552.68C142.491 552.68 153.082 550.765 162.769 546.933C162.877 546.897 162.986 546.789 163.058 546.68C163.564 545.704 164.179 544.439 164.829 543.029C168.119 536.017 172.782 525.065 173.794 522.607C180.987 525.607 188.433 527.559 195.843 528.751C202.675 529.836 209.47 530.27 215.941 530.27C223.495 530.27 230.652 529.691 237.014 528.824C244.352 527.848 251.545 526.402 258.268 524.703C258.304 524.703 258.34 524.703 258.377 524.703C258.557 524.667 258.774 524.595 258.955 524.558H258.991C259.027 524.558 259.099 524.522 259.136 524.522C259.172 524.522 259.244 524.486 259.28 524.486C261.485 523.908 263.618 523.293 265.714 522.679C265.787 522.643 265.823 522.643 265.895 522.643C265.895 522.643 265.895 522.643 265.931 522.643C266.003 522.607 266.04 522.607 266.076 522.607C266.148 522.607 266.184 522.57 266.22 522.57C266.546 522.462 266.726 522.426 266.726 522.426C266.726 522.426 266.726 522.426 266.763 522.426C266.763 522.426 266.799 522.426 266.835 522.426C269.799 521.522 272.618 520.546 275.293 519.57C282.45 516.932 288.342 514.148 292.246 511.618C296.114 513.751 302.222 514.763 308.295 514.763C313.608 514.763 318.85 514.004 322.645 512.558C324.85 511.726 326.368 510.136 327.091 507.895C327.2 507.57 327.272 507.208 327.344 506.883C328.79 506.847 335.26 506.124 338.766 497.774C339.562 495.93 339.634 493.762 339.236 491.557C340.935 491.051 342.128 488.593 342.453 485.014C343.032 478.182 340.068 465.17 325.248 459.639C315.307 455.916 300.343 461.808 282.992 468.604C281.872 469.037 280.751 469.471 279.631 469.905C275.365 471.568 270.919 473.267 266.401 474.893C266.365 474.893 266.329 474.929 266.329 474.929C266.329 474.929 266.329 474.929 266.293 474.929H266.256C263.22 476.014 260.148 477.062 257.003 478.038C256.931 478.038 256.895 478.074 256.895 478.074C256.858 478.074 256.858 478.074 256.822 478.11H256.786C251.111 479.845 245.291 481.363 239.363 482.448C234.592 483.315 229.785 483.857 224.941 484.038C224.507 484.074 224.073 484.074 223.64 484.074C212.543 484.074 202.313 478.869 193.313 471.315C193.927 468.929 198.626 451.868 206.434 440.373C218.651 422.408 228.266 402.708 234.448 383.081C235.568 386.912 239.58 405.275 239.58 405.275L253.605 401.552L408.674 360.236L426.783 436.361C418.723 440.698 410.807 444.566 404.662 446.988C403.83 447.313 402.999 447.639 402.24 447.892C396.42 449.952 390.095 450.205 383.371 450.494C374.479 450.856 365.298 451.253 356.189 455.772C343.61 462.061 344.297 476.809 344.803 487.581C345.273 497.629 353.189 500.087 354.707 500.449C355.936 502.798 357.49 504.533 359.406 505.184C362.153 506.124 364.43 506.413 366.31 506.413C369.093 506.413 370.901 505.726 371.66 505.328C372.274 506.015 372.961 506.557 373.684 507.027C374.913 507.786 376.287 508.148 377.769 508.148C378.998 508.148 380.263 507.895 381.636 507.389C387.347 505.256 392.625 500.015 395.878 494.701C396.312 494.774 396.962 494.846 397.83 494.882C398.625 494.918 399.637 494.954 400.83 494.954C404.192 494.954 409.035 494.665 415.542 493.617C421.397 492.677 429.097 490.978 438.784 487.978L444.748 509.738L563.381 479.375L567.574 478.291L648.181 457.651L652.374 456.567L665.531 453.205L666.001 453.097L612.721 243.736ZM611.89 244.423L651.253 398.696L556.766 425.264V382.105H555.682V425.589L545.452 428.481C545.199 412.36 545.272 397.865 546.067 393.78C550.404 377.442 550.043 363.345 547.151 355.176C541.223 338.548 523.728 335.91 509.631 333.777C503.92 332.91 498.498 332.114 494.667 330.452C486.787 327.09 478.943 309.595 471.677 279.34L611.89 244.423ZM493.763 495.786C490.329 492.424 482.919 474.026 481.654 470.845C495.606 464.121 507.896 455.157 518.162 444.096C527.198 434.373 534.536 423.276 539.922 411.058C541.729 407.01 543.211 403.034 544.44 399.166C544.115 405.926 544.115 416.914 544.296 428.734C544.296 429.638 544.332 430.505 544.332 431.409C544.729 453.892 545.597 478.436 545.778 482.339C541.332 483.568 502.474 493.725 493.763 495.786ZM422.735 155.538C427.289 157.273 433.904 161.647 439.471 172.527C443.266 179.973 446.592 187.239 449.519 194.721L421.831 203.396C420.096 190.384 418.289 180.805 416.735 177.732L416.626 177.516L416.373 177.443C404.445 174.298 396.673 170.178 394.504 165.768C393.637 164.033 393.601 162.298 394.396 160.418C394.649 159.768 395.155 159.37 395.878 159.117C399.023 158.069 406.614 160.78 416.192 166.382L417.204 166.961L416.988 165.804C415.903 159.876 414.963 155.755 414.602 154.273C415.831 154.165 418.903 154.093 422.735 155.538ZM393.42 74.8593L413.337 153.37H413.301L413.445 153.912C413.445 153.948 414.493 158.033 415.722 164.792C410.517 161.828 400.143 156.478 395.516 158.033C394.504 158.358 393.781 159.008 393.384 159.948C392.48 162.081 392.516 164.214 393.492 166.202C396.42 172.166 407.228 176.106 415.831 178.419C420.675 188.974 428.193 263.58 427.506 305.836C427.325 317.547 429.603 331.066 432.82 344.187L243.882 392.334L238.098 369.887C238.821 366.815 239.472 363.742 240.014 360.67C242.617 346.284 243.267 332.223 241.93 319.246C238.641 288.015 212.94 237.953 203.253 219.12C201.554 215.831 200.361 213.517 199.928 212.505C204.59 207.626 210.446 195.77 208.639 191.215C208.133 189.986 207.121 189.299 205.711 189.263H205.603C201.771 189.263 197.614 193.854 194.469 198.227L177.083 129.947L393.42 74.8593ZM199.711 327.704C199.711 323.728 199.422 319.499 198.771 315.053C198.518 313.39 198.229 311.691 197.903 309.956C196.096 300.739 192.481 289.461 188.686 277.497C178.42 245.363 166.817 208.963 185.252 198.191C186.879 201.264 189.59 206.505 189.59 206.577C189.698 206.758 189.879 206.867 190.06 206.867C190.276 206.867 190.457 206.758 190.529 206.577C190.602 206.433 199.168 190.203 205.675 190.348C206.687 190.384 207.301 190.781 207.627 191.613C209.181 195.48 203.651 207.228 198.915 211.963C198.771 212.108 198.735 212.361 198.807 212.542C199.132 213.409 200.397 215.867 202.313 219.59C211.964 238.386 237.628 288.341 240.882 319.355C242.219 332.078 241.641 345.488 239.255 359.188C238.966 360.959 238.604 362.767 238.243 364.538L195.12 353.152C197.903 346.139 199.711 337.681 199.711 327.704ZM168.95 531.209C167.143 535.33 165.082 539.993 163.456 543.427C162.986 544.403 162.588 545.27 162.191 545.993C127.851 559.476 92.4639 544.692 88.7408 543.029C88.7047 542.849 88.7047 542.668 88.6685 542.451C84.837 511.401 88.054 482.014 91.4879 462.748C94.4158 446.337 97.922 434.301 99.3679 429.746C99.5486 430.469 99.7655 431.337 100.091 432.349C101.031 441.205 105.91 469.471 131.141 498.497C151.166 521.486 167.251 527.197 170.287 528.101C169.854 529.113 169.42 530.125 168.95 531.209ZM258.81 523.474C258.774 523.474 258.774 523.474 258.738 523.474C258.702 523.474 258.63 523.51 258.593 523.51C256.605 517.618 255.882 510.606 255.738 503.847C257.292 504.642 259.027 505.112 260.907 505.112C262.1 505.112 263.256 504.931 264.305 504.569C264.702 513.136 265.678 519.643 265.967 521.414C264.955 521.739 262.172 522.534 258.81 523.474ZM255.738 502.618C255.376 502.401 255.015 502.148 254.653 501.858C252.34 500.015 250.822 497.159 250.822 493.979C250.822 490.364 252.738 487.183 255.593 485.412C255.955 485.159 256.352 484.978 256.75 484.797C258.015 484.219 259.425 483.894 260.871 483.894C262.208 483.894 263.509 484.147 264.666 484.653C265.028 484.797 265.389 484.978 265.714 485.159C268.823 486.894 270.956 490.183 270.956 493.979C270.956 497.955 268.642 501.389 265.317 503.015C264.991 503.196 264.63 503.34 264.268 503.449C263.22 503.81 262.063 504.027 260.907 504.027C259.027 504.027 257.256 503.521 255.738 502.618ZM267.088 475.725C271.678 474.062 276.197 472.327 280.534 470.628C281.51 470.23 282.486 469.869 283.462 469.471C300.596 462.748 315.38 456.928 324.922 460.507C339.128 465.82 341.983 478.255 341.405 484.761C341.152 487.653 340.212 489.894 339.056 490.328C338.044 485.918 335.441 481.183 333.055 477.532C330.633 473.845 328.429 471.242 328.212 470.953L327.85 470.556L327.019 471.242L327.38 471.64C327.525 471.821 341.477 488.412 337.79 497.196C334.61 504.786 329.079 505.582 327.525 505.654C328.501 497.123 321.235 483.785 319.03 480.424L318.741 479.954L317.838 480.532L318.127 481.002C320.332 484.363 328.609 499.654 326.079 507.425C325.428 509.377 324.199 510.678 322.284 511.401C313.789 514.618 297.523 514.401 291.378 509.594C289.716 508.293 288.957 506.738 289.173 504.967C289.354 503.449 290.041 502.292 291.342 501.352C296.728 497.449 309.958 500.015 310.102 500.051L310.644 500.16L310.861 499.111L310.319 499.003C309.741 498.894 296.475 496.328 290.728 500.485C289.21 501.569 288.342 503.051 288.125 504.859C287.872 507.027 288.74 508.907 290.764 510.461C290.945 510.606 291.125 510.714 291.306 510.859C287.691 513.136 282.522 515.594 276.305 517.944C273.45 519.028 270.377 520.076 267.124 521.088C266.835 519.137 265.859 512.63 265.461 504.172C269.401 502.437 272.148 498.497 272.148 493.942C272.148 489.569 269.618 485.773 265.967 483.93C266.184 481.219 266.582 478.472 267.088 475.725ZM257.617 478.942C258.774 478.652 262.57 477.64 265.895 476.231C265.461 478.652 265.1 481.074 264.847 483.532C263.618 483.062 262.317 482.809 260.943 482.809C259.533 482.809 258.196 483.062 256.967 483.532C257.22 481.219 257.473 479.592 257.617 478.942ZM225.086 485.014C229.712 484.833 234.267 484.327 238.785 483.568C244.785 482.52 250.677 481.038 256.425 479.303C256.28 480.243 256.027 481.906 255.774 484.074C252.195 485.918 249.738 489.677 249.738 493.979C249.738 497.81 251.689 501.208 254.653 503.232C254.726 510.244 255.485 517.618 257.545 523.799C251.003 525.462 244.026 526.836 236.869 527.776C225.519 529.294 211.494 530.017 197.217 527.884C185.18 526.077 172.926 522.281 161.938 515.197C155.684 511.148 149.973 506.666 144.84 501.931C148.816 494.882 175.203 461.447 178.493 457.29C181.493 460.977 184.71 464.628 188.144 467.953C200.434 479.701 212.832 485.448 225.086 485.014ZM205.639 439.614C198.156 450.639 193.493 466.688 192.481 470.411C191.252 469.363 190.06 468.278 188.903 467.122C167.576 446.554 154.166 414.348 154.021 413.842L153.479 413.95H152.937C152.937 414.203 153.949 416.661 155.72 420.348C157.383 423.854 159.696 428.445 162.48 433.361C165.95 439.506 170.793 447.277 176.649 454.904C171.155 459.82 140.647 490.002 136.78 493.834C126.875 483.062 119.538 471.857 114.441 462.784C104.718 445.361 100.38 430.65 100.019 428.011C99.4763 424.143 99.7294 412.432 105.043 402.419C105.404 401.769 105.766 401.118 106.163 400.467C109.417 395.154 114.296 390.527 121.417 388.141C132.659 384.346 145.166 383.587 155.214 383.009C165.046 382.43 172.818 381.96 176.396 379.069C181.059 375.309 188.722 367.827 193.963 356.007C198.301 357.887 230.182 371.803 235.785 375.02C229.893 396.853 219.7 418.974 205.639 439.614ZM409.722 359.875L435.242 353.079V353.043C437.736 361.935 440.555 370.393 443.194 377.731C450.423 397.901 457.833 413.842 459.098 416.553C451.833 421.866 439.688 429.312 427.795 435.746L409.722 359.875ZM396.529 493.581C397.974 491.014 398.914 488.448 399.131 486.279C399.167 485.918 399.167 485.592 399.167 485.267C399.167 482.809 398.083 481.146 396.059 480.387C387.853 477.387 378.781 489.352 378.383 489.858L379.251 490.508C379.323 490.4 388.215 478.689 395.661 481.4C397.252 481.978 398.047 483.279 398.047 485.267C398.047 485.918 397.974 486.641 397.794 487.364C397.396 489.207 396.529 491.268 395.336 493.328C395.336 493.328 395.336 493.364 395.3 493.364C392.191 498.678 386.841 504.1 381.239 506.232C378.528 507.244 376.214 507.172 374.262 505.943C368.479 502.401 366.238 489.496 364.864 477.315L363.78 477.423C365.045 488.34 366.816 498.931 370.973 504.316C369.636 504.895 365.84 506.051 359.804 503.991C352.249 501.425 350.731 477.568 350.695 477.351L349.61 477.423C349.647 478.146 350.478 490.978 354.129 498.967C351.743 498.172 346.321 495.497 345.923 487.364C345.417 476.881 344.767 462.531 356.695 456.567C365.587 452.121 374.66 451.759 383.444 451.398C389.408 451.145 395.047 450.928 400.36 449.446L401.011 452.012L411.566 492.966C403.613 494.051 398.661 493.798 396.529 493.581ZM402.963 449.446L402.71 448.795C403.035 448.687 403.324 448.578 403.649 448.434C420.819 442.072 454.255 422.553 463.906 414.131C475.581 403.901 487.763 383.587 488.919 378.816L487.871 378.563C486.75 383.225 474.75 403.215 463.219 413.299C462.315 414.095 461.231 414.962 459.966 415.902C456.785 409.106 428.012 346.392 428.663 305.872C429.097 279.16 426.241 239.543 422.843 211.24L450.532 197.324C456.351 212.722 460.653 229.024 464.303 248.977C473.448 299.149 483.533 326.873 494.305 331.464C498.281 333.163 503.739 333.958 509.523 334.861C524.017 337.066 540.464 339.524 546.175 355.537C549.031 363.562 549.356 377.37 545.091 393.455C545.091 393.491 545.055 393.563 545.055 393.636C543.609 399.094 541.621 404.841 539.018 410.697C530.885 429.059 514.149 454.29 480.822 470.122C452.664 483.532 432.278 489.316 419.301 491.846L402.963 449.446ZM445.543 508.473L439.796 487.617C450.893 484.147 464.52 478.978 480.678 471.315C482.015 474.712 489.136 492.316 492.823 496.364L445.543 508.473ZM546.898 482.52C546.79 479.665 545.922 455.482 545.489 432.927L550.079 431.626L563.2 478.327L546.898 482.52ZM567.43 477.279L554.272 430.469L634.337 407.95L648.036 456.639L567.43 477.279ZM652.229 455.591L638.494 406.793L652.302 402.925L664.917 452.338L652.229 455.591Z" fill="#231F20"/>
<path d="M375.382 132.477L375.924 132.332L367.828 101.463L218.253 140.718L217.711 140.863L225.808 171.732L375.382 132.477ZM367.032 102.764L374.587 131.537L226.603 170.394L219.048 141.622L367.032 102.764Z" fill="#231F20"/>
<path d="M380.436 156.336L234.188 194.031L234.458 195.081L380.706 157.386L380.436 156.336Z" fill="#231F20"/>
<path d="M388.025 185.514L241.777 223.208L242.048 224.259L388.296 186.564L388.025 185.514Z" fill="#231F20"/>
<path d="M396.451 214.721L250.203 252.416L250.474 253.466L396.722 215.771L396.451 214.721Z" fill="#231F20"/>
<path d="M423.131 324.72L276.883 362.415L277.153 363.465L423.401 325.771L423.131 324.72Z" fill="#231F20"/>
<path d="M348.337 258.197L257.605 281.583L257.876 282.633L348.607 259.247L348.337 258.197Z" fill="#231F20"/>
<path d="M354.43 287.617L264.469 310.804L264.739 311.854L354.7 288.667L354.43 287.617Z" fill="#231F20"/>
<path d="M388.069 286.57C397.332 286.57 404.841 279.061 404.841 269.798C404.841 260.535 397.332 253.026 388.069 253.026C378.806 253.026 371.297 260.535 371.297 269.798C371.297 279.061 378.806 286.57 388.069 286.57Z" fill="#CBF5E7"/>
<path d="M388.072 296.221C373.504 296.221 361.648 284.365 361.648 269.798C361.648 255.231 373.504 243.375 388.072 243.375C402.639 243.375 414.495 255.231 414.495 269.798C414.495 284.365 402.639 296.221 388.072 296.221ZM388.072 246.953C375.493 246.953 365.263 257.182 365.263 269.761C365.263 282.34 375.493 292.57 388.072 292.57C400.651 292.57 410.88 282.34 410.88 269.761C410.88 257.182 400.651 246.953 388.072 246.953Z" fill="#CBF5E7"/>
<path d="M287.365 358.393L260.074 339.994L262.713 336.127L282.666 349.573V309.776H287.365V358.393Z" fill="#00E4AF"/>
<path d="M389.922 307.644L296.023 331.455L299.462 345.014L393.361 321.203L389.922 307.644Z" fill="#00E4AF"/>
<path d="M350.656 574.179L349.703 574.39L354.841 597.613L355.794 597.402L350.656 574.179Z" fill="#231F20"/>
<path d="M282.449 598.623L281.617 598.081C285.196 592.767 303.161 566.236 303.667 565.693L304.353 566.38L303.992 566.019L304.353 566.344C303.775 567.103 288.34 589.912 282.449 598.623Z" fill="#231F20"/>
<path d="M389.941 382.209L375.773 409.065L376.637 409.521L390.804 382.665L389.941 382.209Z" fill="#231F20"/>
<path d="M270.781 411.034L270.379 411.923L297.845 424.353L298.248 423.463L270.781 411.034Z" fill="#231F20"/>
<path d="M398.009 515.775L427.902 511.763L397.864 494.774C396.997 494.738 396.346 494.666 395.912 494.593C392.659 499.907 387.382 505.148 381.671 507.281C380.297 507.787 379.032 508.04 377.803 508.04C376.321 508.04 374.984 507.678 373.718 506.919C372.996 506.485 372.309 505.907 371.694 505.22C370.935 505.582 369.128 506.305 366.345 506.305C364.501 506.305 362.188 505.979 359.441 505.076C357.561 504.425 356.007 502.69 354.742 500.341C353.223 499.979 345.307 497.521 344.837 487.472C344.331 476.701 343.645 461.953 356.224 455.663C365.332 451.109 374.514 450.748 383.406 450.386C390.129 450.097 396.455 449.844 402.274 447.783C403.033 447.494 403.865 447.205 404.696 446.88L411.817 436.686L388.755 442.651L403.069 413.878L365.694 436.686L360.814 411.456L344.584 432.53L323.366 386.66L319.137 436.686L267.086 429.566L292.425 456.965L269.508 459.097C269.508 459.097 274.894 464.953 279.629 469.797C280.75 469.363 281.87 468.929 282.991 468.495C300.341 461.7 315.306 455.808 325.246 459.531C340.066 465.062 343.03 478.074 342.452 484.906C342.126 488.484 340.934 490.979 339.235 491.449C339.632 493.69 339.524 495.822 338.765 497.666C335.259 506.052 328.788 506.738 327.342 506.775C327.27 507.136 327.198 507.461 327.089 507.787C326.33 510.028 324.848 511.618 322.643 512.45C318.884 513.859 313.607 514.618 308.293 514.618C302.221 514.618 296.112 513.606 292.244 511.474C288.34 514.004 282.448 516.787 275.291 519.426L263.941 538.078L298.028 528.246L282.051 565.983L318.993 535.005L329.584 593.562L344.693 543.247L375.779 568.874L374.044 526.764L414.745 571.911L398.009 515.775ZM329.837 418.649L332.114 451.543L292.859 440.518L306.088 456.061L305.257 456.748L289.714 438.494L330.921 450.061L328.391 413.119L345.958 449.302L357.308 427.903L361.284 447.314L389.514 427.867L379.177 448.47L378.201 448L386.659 431.156L360.561 449.157L356.874 431.084L345.922 451.687L329.837 418.649ZM367.827 515.992V556.187L344.114 529.366L331.029 569.887L323.872 525.715L295.461 548.379L296.112 546.572C298.353 540.427 305.691 520.33 306.161 519.715L306.594 520.04L307.064 520.33C306.63 521.089 301.534 534.933 297.811 545.126L324.631 523.727L331.355 565.296L343.645 527.234L366.706 553.331V513.353L399.166 546.247L389.37 511.582L390.418 511.293L401.371 550.006L367.827 515.992Z" fill="#23E0A2"/>
<path d="M290.76 73.811L268.422 76.4136L275.254 37.8452L290.76 73.811Z" fill="#00E4AF"/>
<path d="M273.191 71.2446L280.457 30.146L296.976 68.4613L273.191 71.2446ZM280.891 33.9052L274.529 70.0156L295.385 67.5938L280.891 33.9052Z" fill="#231F20"/>
<path d="M164.539 66.365L134.79 83.0647L121.488 24.6157L164.539 66.365Z" fill="#23E0A2"/>
<path d="M138.586 72.5461L124.742 11.603L169.6 55.1235L138.586 72.5461ZM126.622 14.8924L139.309 70.8834L167.793 54.8704L126.622 14.8924Z" fill="#231F20"/>
<path d="M509.991 76.4136L475.254 57.2198L527.196 4.229L509.991 76.4136Z" fill="#23E0A2"/>
<path d="M519.1 74.7872L483.098 54.9066L536.92 0L519.1 74.7872ZM484.869 54.6536L518.377 73.1606L534.968 3.54236L484.869 54.6536Z" fill="#231F20"/>
<path d="M109.74 202.638C118.743 202.638 126.042 195.339 126.042 186.336C126.042 177.332 118.743 170.034 109.74 170.034C100.736 170.034 93.4375 177.332 93.4375 186.336C93.4375 195.339 100.736 202.638 109.74 202.638Z" fill="#CBF5E7"/>
<path d="M101.86 199.204C92.5702 199.204 85.0156 191.649 85.0156 182.359C85.0156 173.07 92.5702 165.515 101.86 165.515C111.15 165.515 118.704 173.07 118.704 182.359C118.704 191.649 111.15 199.204 101.86 199.204ZM101.86 166.6C93.1847 166.6 86.1 173.684 86.1 182.359C86.1 191.035 93.1847 198.119 101.86 198.119C110.535 198.119 117.62 191.035 117.62 182.359C117.62 173.684 110.571 166.6 101.86 166.6Z" fill="#231F20"/>
<path d="M508.694 157.237C519.055 157.237 527.454 148.838 527.454 138.477C527.454 128.116 519.055 119.717 508.694 119.717C498.333 119.717 489.934 128.116 489.934 138.477C489.934 148.838 498.333 157.237 508.694 157.237Z" fill="#CBF5E7"/>
<path d="M518.451 154.96C513.282 154.96 508.149 152.9 504.354 148.851C497.088 141.08 497.486 128.862 505.257 121.597C513.029 114.332 525.246 114.729 532.512 122.501C539.777 130.272 539.38 142.49 531.608 149.755C527.921 153.225 523.186 154.96 518.451 154.96ZM505.149 148.092C512.017 155.43 523.548 155.792 530.885 148.924C538.223 142.056 538.585 130.525 531.717 123.187C524.849 115.85 513.318 115.488 505.98 122.356C498.679 129.224 498.281 140.791 505.149 148.092Z" fill="#231F20"/>
</svg>
