<svg width="573" height="599" viewBox="0 0 573 599" fill="none" xmlns="http://www.w3.org/2000/svg">
<path d="M197.577 314.258C177.48 301.064 153.442 293.365 127.597 293.365C57.1115 293.365 0 350.477 0 420.963C0 477.423 36.6887 525.318 87.5108 542.126C83.7515 511.112 86.9686 481.833 90.4025 462.603C93.728 443.807 97.8848 430.758 98.7885 428.011C98.7523 427.035 98.7523 426.095 98.8246 425.156V425.119C98.7162 415.649 101.897 393.6 121.127 387.129C132.513 383.298 145.092 382.539 155.177 381.924C164.431 381.382 172.419 380.876 175.744 378.237C184.383 371.261 203.324 351.417 197.577 314.258ZM178.275 365.08C178.058 372.382 172.058 378.237 164.72 378.237C159.768 378.237 155.394 375.562 153.044 371.55V371.586C153.044 371.586 139.706 355.682 158.575 342.452C165.117 337.862 170.033 340.247 171.696 344.151C175.13 341.657 184.528 335.331 190.275 337.789C200.396 342.199 187.348 357.525 178.275 365.08Z" fill="#00E4AF"/>
<path d="M255.195 420.963C255.195 443.229 249.484 464.122 239.508 482.339C234.736 483.207 229.929 483.749 225.085 483.93C224.651 483.93 224.218 483.966 223.784 483.966C212.687 483.966 202.458 478.761 193.457 471.206C194.072 468.821 198.771 451.759 206.578 440.265C218.796 422.3 228.411 402.6 234.592 382.973C234.989 381.707 235.387 380.406 235.748 379.141C236.652 376.069 237.447 372.996 238.17 369.924L243.592 392.877L251.653 390.853C252.484 394.323 253.207 397.865 253.749 401.443C254.689 407.805 255.195 414.312 255.195 420.963Z" fill="#00E4AF"/>
<path d="M195.878 528.752C186.335 534.824 175.889 539.668 164.828 543.029C168.117 536.017 172.78 525.065 173.792 522.607C180.986 525.607 188.468 527.559 195.878 528.752Z" fill="#00E4AF"/>
<path d="M232.784 373.466C231.411 384.346 210.084 425.951 199.06 440.554C196.06 444.494 189.987 463.688 188.939 467.158C188.83 467.519 188.758 467.7 188.758 467.7C188.758 467.7 173.902 451.109 169.022 443.12C164.178 435.24 154.274 415.794 154.057 415.396C154.093 415.541 154.708 417.456 155.756 420.42C159.19 430.397 167.106 452.302 172.709 458.736C172.998 459.061 173.251 459.35 173.54 459.567C166.094 466.435 147.515 491.521 141.948 499.111C141.84 499.256 141.731 499.401 141.659 499.509C141.623 499.545 141.587 499.581 141.551 499.654C141.478 499.762 141.37 499.907 141.298 500.015C140.683 500.846 140.358 501.316 140.358 501.316L167.648 521.558L172.203 522.462C172.203 522.462 171.335 524.848 170.142 528.137C169.781 529.113 169.383 530.161 168.986 531.246C167.431 535.402 165.588 540.174 164.251 543.246C163.528 544.909 162.949 546.102 162.624 546.463C158.684 547.909 145.96 554.126 123.369 551.885C100.777 549.644 88.2706 543.463 88.2706 543.463C88.2706 543.463 88.1983 543.066 88.0898 542.343C86.9693 534.607 81.3304 487.834 98.8976 429.602C98.8615 429.059 98.8615 428.553 98.8253 428.047C98.7892 427.071 98.7892 426.131 98.8615 425.192V425.156C99.1868 415.721 102.151 407.986 105.151 402.492C105.512 401.841 105.874 401.19 106.272 400.54C109.055 395.913 111.549 393.347 111.549 393.347C122.501 386.045 128.538 384.093 161.756 382.105C177.806 381.129 180.878 374.442 180.878 374.442C180.878 374.442 190.674 363.779 193.565 355.863L193.674 355.646C193.891 355.212 194.252 354.851 194.722 354.597C195.553 354.128 196.782 353.983 198.301 354.091C200.939 354.272 204.446 355.248 208.205 356.694C219.699 361.104 233.76 369.996 232.784 373.466Z" fill="#CBF5E7"/>
<path d="M230.073 379.791V369.164C229.82 368.947 229.567 368.731 229.278 368.478V379.791H214.458H199.638V364.971V354.2C199.385 354.163 199.096 354.127 198.842 354.091V364.971V379.791H184.022H173.359C172.636 380.081 171.841 380.334 170.974 380.587H184.022H198.842V395.407V410.227H184.022H169.202V395.407V381.02C168.949 381.093 168.696 381.129 168.407 381.201V395.407V410.227H153.587H138.767V395.407V383.912C138.514 383.948 138.225 383.984 137.972 384.021V395.407V410.227H123.152H108.332V397.142C108.079 397.503 107.826 397.865 107.536 398.298V410.227H101.572C101.464 410.48 101.391 410.733 101.283 411.022H107.5V425.842V440.662H95.6441C95.5718 440.915 95.4995 441.168 95.4272 441.457H107.5V456.277V471.098H92.6801H89.4269C89.3908 471.351 89.3546 471.604 89.3185 471.893H92.6801H107.5V486.713V501.533H92.6801H86.4629C86.4629 501.786 86.4268 502.039 86.4268 502.328H92.6801H107.5V517.148V531.968H92.6801H86.8605C86.8967 532.221 86.8967 532.511 86.9328 532.764H92.7163H107.536V547.584V549.499C107.789 549.572 108.042 549.608 108.332 549.68V547.584V532.764H123.152H137.972V547.584V552.247C138.225 552.247 138.514 552.21 138.767 552.21V547.584V532.764H153.587H168.335C168.516 532.257 168.696 531.751 168.913 531.282C169.022 530.992 169.13 530.739 169.202 530.45V521.92L168.407 521.775V532.004H153.587H138.767V517.184V502.364H141.623L140.574 501.569H138.803V486.749V471.929H153.623H162.696C162.913 471.676 163.13 471.387 163.347 471.134H153.623H138.803V456.314V441.494H153.623H163.6C163.491 441.241 163.383 440.987 163.274 440.698H153.623H138.803V425.878V411.058H153.623H168.443V425.878V440.698H167.54C167.684 440.951 167.865 441.241 168.009 441.494H168.443V442.216C168.624 442.542 168.841 442.867 169.022 443.156C169.094 443.265 169.166 443.373 169.238 443.518V441.494H184.059H198.481C198.698 441.168 198.879 440.879 199.059 440.626C199.24 440.373 199.457 440.084 199.674 439.795V425.878V411.058H214.494H216.771C216.916 410.805 217.06 410.552 217.169 410.263H214.458H199.638V395.443V380.623H214.458H229.278V384.563C229.567 383.876 229.82 383.225 230.073 382.575V380.659H230.796C230.904 380.406 230.977 380.117 231.085 379.864H230.073V379.791ZM138.044 517.112V531.932H123.224H108.404V517.112V502.292H123.224H138.044V517.112ZM138.044 486.677V501.497H123.224H108.404V486.677V471.857H123.224H138.044V486.677ZM138.044 456.241V471.061H123.224H108.404V456.241V441.421H123.224H138.044V456.241ZM138.044 425.806V440.626H123.224H108.404V425.806V410.986H123.224H138.044V425.806ZM198.879 425.806V440.626H184.059H169.238V425.806V410.986H184.059H198.879V425.806Z" fill="white"/>
<path d="M169.239 464.049V456.278V453.458C168.986 452.988 168.733 452.482 168.443 451.976V456.242V464.917C168.733 464.628 168.986 464.338 169.239 464.049Z" fill="white"/>
<path d="M260.906 504.606C266.776 504.606 271.533 499.848 271.533 493.979C271.533 488.109 266.776 483.351 260.906 483.351C255.037 483.351 250.279 488.109 250.279 493.979C250.279 499.848 255.037 504.606 260.906 504.606Z" fill="#CBF5E7"/>
<path d="M493.616 496.364L540.029 484.472C540.029 484.472 537.462 423.348 541.221 406.721C544.944 390.129 552.354 375.888 544.583 362.152C533.125 341.874 521.16 340.97 489.749 333.235C477.531 330.235 467.229 283.678 466.29 274.099C465.35 264.52 457.651 221.542 446.77 197.685C433.83 200.866 422.733 210.264 422.733 210.264C422.733 210.264 429.601 293.184 428.444 315.017C427.251 336.813 457.036 411.817 459.783 416.77C467.519 409.974 483.495 392.009 487.833 380.37C490.327 383.189 481.869 408.926 455.771 427.505C429.673 446.084 403.214 454.904 403.214 454.904L416.841 493.545C416.841 493.545 470.013 477.279 481.001 470.556C482.664 474.785 489.966 492.966 493.616 496.364Z" fill="#00E4AF"/>
<path d="M556.223 421.252L544.801 424.686V429.529L557.271 425.734L556.223 421.252Z" fill="#CBF5E7"/>
<path d="M540.679 571.043C540.643 570.862 535.944 553.982 523.871 551.741C520.545 551.126 517.545 550.982 514.906 551.235C516.533 556.729 515.34 561.175 513.099 563.958C510.533 567.139 506.629 568.187 503.34 566.597C500.737 565.332 499.689 562.332 500.737 559.151C502.074 555.102 506.412 551.379 513.461 550.331C512.557 547.837 511.039 545.09 508.762 542.198C504.532 536.812 499.906 533.776 494.99 533.197C488.773 532.475 484.29 535.981 484.218 536.017L483.531 535.186C483.712 535.041 488.411 531.354 495.098 532.113C500.303 532.728 505.183 535.872 509.629 541.511C512.051 544.584 513.641 547.512 514.581 550.186C517.364 549.897 520.545 550.006 524.088 550.656C536.847 553.006 541.546 570.031 541.727 570.754L540.679 571.043ZM513.822 551.379C507.135 552.319 503.014 555.753 501.785 559.512C500.882 562.223 501.713 564.609 503.809 565.657C506.629 567.031 510.027 566.055 512.268 563.308C514.328 560.705 515.376 556.548 513.822 551.379Z" fill="#231F20"/>
<path d="M496.978 207.77L495.894 207.698C495.894 207.445 496.255 201.698 499.291 195.733C502.111 190.203 507.822 183.516 519.136 183.118C520.365 183.082 521.521 183.082 522.606 183.191C523.907 180.299 525.787 177.443 528.353 174.841C533.486 169.708 541.185 167.792 550.656 169.31C557.74 170.431 563.415 173.106 563.451 173.142L562.982 174.118C562.765 174.009 540.932 163.816 529.112 175.6C526.727 177.986 524.955 180.624 523.726 183.299C532.004 184.383 535.293 189.516 535.51 194.468C535.727 199.818 532.51 204.662 528.57 204.842C525.751 204.987 523.256 203.143 521.774 199.818C519.967 195.77 519.895 189.986 522.136 184.239C521.232 184.167 520.22 184.167 519.172 184.203C510.533 184.528 504.171 188.576 500.267 196.203C497.339 201.951 496.978 207.698 496.978 207.77ZM523.256 184.347C520.979 189.914 521.015 195.517 522.75 199.384C524.052 202.276 526.112 203.903 528.498 203.758C531.859 203.577 534.606 199.276 534.426 194.504C534.317 192.263 533.161 185.468 523.256 184.347Z" fill="#231F20"/>
<path d="M132.441 269.364C132.441 269.328 131.574 265.388 128.935 261.845C125.863 257.689 121.742 255.845 116.754 256.315C117.802 260.002 117.115 263.327 115.85 265.352C114.513 267.484 112.525 268.243 110.826 267.304C108.946 266.255 108.043 264.376 108.404 262.171C108.91 259.026 111.621 256.17 114.73 255.556C114.91 255.52 115.127 255.484 115.308 255.448C114.26 252.737 112.163 249.881 108.549 247.278C95.8612 238.206 79.0892 251.218 78.9446 251.363L78.2578 250.495C78.4385 250.351 82.6677 247.025 88.5957 244.82C96.5118 241.893 103.633 242.399 109.163 246.375C113.103 249.194 115.308 252.303 116.392 255.267C130.02 253.749 133.454 268.966 133.49 269.111L132.441 269.364ZM115.669 256.496C115.416 256.532 115.2 256.568 114.947 256.64C111.983 257.219 109.85 260.038 109.452 262.388C109.308 263.4 109.308 265.316 111.332 266.436C112.742 267.231 114.079 266.111 114.91 264.846C116.103 262.966 116.682 259.894 115.669 256.496Z" fill="#231F20"/>
<path d="M388.722 49.4879L387.913 64.6843L388.888 64.7362L389.696 49.5398L388.722 49.4879Z" fill="#231F20"/>
<path d="M433.476 51.3215L403.533 73.3269L404.111 74.1133L434.054 52.108L433.476 51.3215Z" fill="#231F20"/>
<path d="M425.518 84.2937H408.457V85.2697H425.518V84.2937Z" fill="#231F20"/>
<path d="M130.459 110.669L129.824 111.411L159.097 136.468L159.732 135.727L130.459 110.669Z" fill="#231F20"/>
<path d="M134.583 155.591L134.547 156.566L155.606 157.342L155.642 156.367L134.583 155.591Z" fill="#231F20"/>
<path d="M561.067 250.531C563.902 250.531 566.2 248.233 566.2 245.399C566.2 242.564 563.902 240.266 561.067 240.266C558.233 240.266 555.935 242.564 555.935 245.399C555.935 248.233 558.233 250.531 561.067 250.531Z" fill="#CBF5E7"/>
<path d="M635.349 403.829L556.225 426.095V382.105L635.349 359.839V403.829Z" fill="#CBF5E7"/>
<path d="M367.4 102.114L218.361 141.222L226.187 171.044L375.225 131.935L367.4 102.114Z" fill="#CBF5E7"/>
<path d="M230.932 147.231L234.361 160.252L242.609 158.079L241.935 155.518L236.364 156.986L233.609 146.526L230.932 147.231Z" fill="black"/>
<path d="M242.367 153.413C242.718 154.743 243.473 155.718 244.636 156.354C245.799 156.99 247.061 157.12 248.424 156.761C249.771 156.406 250.8 155.655 251.516 154.524C252.227 153.376 252.399 152.139 252.049 150.809C251.703 149.495 250.953 148.537 249.789 147.901C248.626 147.265 247.36 147.118 246.013 147.473C244.666 147.828 243.621 148.583 242.909 149.731C242.194 150.862 242.021 152.099 242.367 153.413ZM245.019 152.678C244.848 152.03 244.92 151.424 245.226 150.899C245.528 150.357 245.987 150.005 246.602 149.843C247.217 149.681 247.806 149.757 248.336 150.08C248.861 150.386 249.222 150.878 249.393 151.526C249.743 152.857 249.062 154.05 247.814 154.378C247.199 154.541 246.61 154.465 246.085 154.158C245.555 153.835 245.194 153.344 245.019 152.678Z" fill="black"/>
<path d="M257.613 154.305C258.794 153.994 259.562 153.329 259.937 152.323L259.974 152.331L260.264 153.429L262.658 152.798L261.208 147.294C260.595 144.966 258.753 144.117 256.409 144.735C254.463 145.247 253.283 146.305 252.891 147.92L255.181 148.579C255.419 147.663 255.963 147.093 256.844 146.861C257.775 146.615 258.401 146.966 258.563 147.582C258.677 148.014 258.501 148.291 258.036 148.414L257.154 148.646C256.157 148.909 255.365 149.278 254.651 149.875C253.953 150.468 253.639 151.368 253.915 152.416L253.924 152.449C254.134 153.247 254.588 153.821 255.297 154.15C256.006 154.479 256.782 154.524 257.613 154.305ZM257.862 152.212C257.197 152.387 256.653 152.21 256.495 151.612C256.32 150.947 256.827 150.44 257.575 150.243L259.138 149.831L259.191 150.03C259.449 151.012 258.977 151.918 257.862 152.212Z" fill="black"/>
<path d="M273.28 150L271.825 144.48C271.562 143.482 271.077 142.72 270.349 142.183C269.637 141.642 268.752 141.519 267.687 141.8C267.305 141.9 266.844 142.04 266.18 142.694C265.855 143.011 265.647 143.368 265.527 143.791L265.51 143.796L265.203 142.632L262.626 143.311L264.965 152.19L267.559 151.507L266.263 146.585C266.004 145.604 266.356 144.711 267.403 144.435C268.418 144.168 269.13 144.709 269.405 145.757L270.702 150.679L273.28 150Z" fill="black"/>
<path d="M280.85 148.006L281.122 145.125L286.892 143.605L288.565 145.974L291.343 145.242L282.924 133.536L279.681 134.39L278.139 148.72L280.85 148.006ZM281.966 136.58L285.321 141.352L281.396 142.385L281.966 136.58Z" fill="black"/>
<path d="M292.762 135.373L290.184 136.052L293.679 149.322L296.274 148.638L294.859 143.267L294.892 143.258C295.725 143.857 296.707 144.007 297.822 143.714C299.069 143.385 299.961 142.652 300.53 141.506C301.095 140.344 301.214 139.175 300.894 137.961C300.579 136.763 299.899 135.804 298.873 135.079C297.846 134.354 296.709 134.155 295.462 134.484C294.281 134.795 293.476 135.451 293.084 136.461L293.051 136.47L292.762 135.373ZM293.877 139.809C293.706 139.161 293.778 138.555 294.084 138.03C294.39 137.504 294.849 137.152 295.464 136.99C296.079 136.828 296.668 136.904 297.193 137.211C297.735 137.512 298.096 138.004 298.267 138.653C298.442 139.318 298.37 139.924 298.069 140.466C297.762 140.991 297.287 141.347 296.672 141.509C296.057 141.671 295.468 141.595 294.942 141.289C294.413 140.966 294.052 140.474 293.877 139.809Z" fill="black"/>
<path d="M304.162 132.37L301.584 133.049L305.079 146.319L307.674 145.635L306.259 140.264L306.292 140.256C307.125 140.854 308.107 141.004 309.222 140.711C310.469 140.382 311.36 139.65 311.93 138.504C312.495 137.341 312.614 136.172 312.294 134.958C311.979 133.761 311.299 132.801 310.273 132.076C309.246 131.351 308.109 131.152 306.861 131.481C305.681 131.792 304.876 132.448 304.484 133.459L304.451 133.467L304.162 132.37ZM305.277 136.806C305.106 136.158 305.178 135.552 305.484 135.027C305.79 134.502 306.249 134.15 306.864 133.988C307.479 133.826 308.068 133.902 308.593 134.208C309.135 134.51 309.496 135.001 309.667 135.65C309.842 136.315 309.77 136.921 309.469 137.463C309.162 137.988 308.687 138.344 308.072 138.506C307.457 138.668 306.868 138.592 306.342 138.286C305.813 137.963 305.452 137.472 305.277 136.806Z" fill="black"/>
<path d="M318.596 128.532C318.45 128.517 318.279 128.545 318.063 128.602C316.882 128.912 316.105 129.811 315.937 130.726L315.921 130.731L315.561 129.367L312.984 130.046L315.323 138.926L317.917 138.243L316.927 134.484C316.507 132.888 316.962 131.648 318.642 131.205C318.858 131.148 319.062 131.112 319.27 131.093L318.596 128.532Z" fill="black"/>
<path d="M320.478 132.838C320.829 134.168 321.583 135.143 322.747 135.779C323.91 136.415 325.171 136.545 326.535 136.186C327.882 135.831 328.911 135.08 329.627 133.949C330.338 132.801 330.51 131.565 330.16 130.234C329.814 128.921 329.064 127.962 327.9 127.326C326.737 126.69 325.471 126.543 324.124 126.898C322.777 127.253 321.731 128.009 321.02 129.156C320.304 130.287 320.132 131.524 320.478 132.838ZM323.13 132.104C322.959 131.455 323.031 130.849 323.337 130.324C323.639 129.782 324.098 129.43 324.713 129.268C325.328 129.106 325.917 129.182 326.447 129.505C326.972 129.811 327.333 130.303 327.504 130.952C327.854 132.282 327.173 133.475 325.925 133.804C325.31 133.966 324.721 133.89 324.196 133.583C323.666 133.261 323.305 132.769 323.13 132.104Z" fill="black"/>
<path d="M329.883 125.595L335.814 133.529L338.458 132.832L339.76 122.993L337.017 123.716L336.381 130.214L332.626 124.872L329.883 125.595Z" fill="black"/>
<path d="M350.723 125.618C350.687 125.414 350.621 125.094 350.511 124.678C350.165 123.364 349.465 122.393 348.435 121.793C347.406 121.192 346.232 121.057 344.918 121.403C343.638 121.74 342.642 122.483 341.952 123.643C341.278 124.798 341.097 126.002 341.434 127.282C341.794 128.646 342.553 129.637 343.716 130.273C344.892 130.888 346.153 131.018 347.533 130.655C349.346 130.178 350.434 129.179 350.828 127.635L348.625 126.9C348.396 127.653 347.708 128.279 346.926 128.485C345.812 128.779 344.706 128.359 344.271 127.317L350.723 125.618ZM343.887 125.587C343.844 125.225 343.952 124.823 344.214 124.398C344.471 123.957 344.876 123.673 345.408 123.533C346.589 123.222 347.439 123.816 347.711 124.58L343.887 125.587Z" fill="black"/>
<path d="M360.068 127.14L362.579 126.478L359.014 112.942L356.436 113.621L357.93 119.292L357.896 119.301C357.025 118.694 356.039 118.527 354.925 118.821C353.711 119.14 352.819 119.873 352.254 121.036C351.685 122.182 351.566 123.351 351.877 124.532C352.205 125.779 352.893 126.771 353.916 127.48C354.938 128.189 356.071 128.37 357.318 128.042C358.565 127.713 359.383 127.036 359.737 126.018L359.77 126.009L360.068 127.14ZM358.894 122.683C359.069 123.348 358.998 123.954 358.696 124.496C358.39 125.021 357.914 125.378 357.299 125.54C356.684 125.702 356.095 125.626 355.57 125.319C355.04 124.997 354.679 124.505 354.504 123.84C354.158 122.526 354.861 121.345 356.108 121.016C357.355 120.688 358.548 121.37 358.894 122.683Z" fill="black"/>
<path d="M153.044 371.586C155.393 375.562 159.767 378.273 164.719 378.273C172.057 378.273 178.057 372.418 178.274 365.116C187.383 357.525 200.396 342.199 190.238 337.862C184.491 335.404 175.093 341.693 171.659 344.223C169.996 340.319 165.08 337.934 158.538 342.524C139.669 355.754 153.007 371.659 153.007 371.659C153.044 371.622 153.044 371.586 153.044 371.586ZM164.719 377.189C159.731 377.189 155.393 374.225 153.405 369.96C154.995 363.996 159.369 360.056 163.707 357.381C167.972 354.742 171.912 355.537 173.792 356.152C175.888 358.393 177.189 361.393 177.189 364.682C177.189 371.586 171.587 377.189 164.719 377.189Z" fill="#231F20"/>
<path d="M495.207 309.017C494.375 310.824 493.905 312.848 493.905 314.981C493.905 323.005 500.448 329.548 508.473 329.548C514.87 329.548 520.329 325.391 522.281 319.644C529.835 313.029 525.208 304.679 520.871 302.944L527.088 300.703L526.727 299.691L519.786 302.185L520.22 297.45L519.136 297.341L518.738 301.534C514.328 293.835 502.689 285.594 493.833 288.883C484.76 292.245 488.23 307.065 495.207 309.017ZM508.473 328.463C501.062 328.463 494.99 322.427 494.99 314.981C494.99 312.306 495.785 309.776 497.159 307.679C502.508 302.944 509.738 304.643 515.16 310.029C515.955 315.198 519.714 318.812 521.015 319.933C519.027 324.921 514.148 328.463 508.473 328.463Z" fill="#231F20"/>
<path d="M612.72 243.736L612.612 243.266L471.459 278.401C469.363 269.581 467.303 259.713 465.315 248.797C459.676 217.855 452.446 195.625 440.41 172.057C434.662 160.852 427.794 156.334 423.023 154.526C418.794 152.936 415.468 153.08 414.312 153.225L394.25 74.1364L394.142 73.6665L175.889 129.26L163.744 139.598L185.179 197.035C165.37 207.951 177.227 245.11 187.673 277.858C191.468 289.787 195.083 301.028 196.854 310.173C197.143 311.547 197.36 312.884 197.577 314.222C203.324 351.38 184.384 371.261 175.745 378.201C172.419 380.876 164.431 381.346 155.177 381.888C145.056 382.503 132.513 383.262 121.127 387.093C101.897 393.563 98.7163 415.613 98.8247 425.083V425.119C98.8247 426.059 98.897 426.854 98.9332 427.541C98.897 427.613 98.8609 427.758 98.7886 427.975C97.8849 430.758 93.7281 443.807 90.4026 462.567C87.0048 481.797 83.7516 511.076 87.5109 542.09C87.5831 542.559 87.6193 542.993 87.6916 543.463C87.7277 543.644 87.8362 543.825 88.0169 543.897C94.0534 546.644 104.897 550.15 117.259 551.741C122.031 552.355 126.658 552.68 131.176 552.68C142.49 552.68 153.081 550.765 162.768 546.933C162.876 546.897 162.985 546.789 163.057 546.68C163.563 545.704 164.178 544.439 164.828 543.029C168.118 536.017 172.781 525.065 173.793 522.607C180.986 525.607 188.432 527.559 195.842 528.751C202.674 529.836 209.469 530.27 215.94 530.27C223.494 530.27 230.651 529.691 237.013 528.824C244.351 527.848 251.544 526.402 258.267 524.703C258.303 524.703 258.339 524.703 258.376 524.703C258.556 524.667 258.773 524.595 258.954 524.558H258.99C259.026 524.558 259.098 524.522 259.135 524.522C259.171 524.522 259.243 524.486 259.279 524.486C261.484 523.908 263.617 523.293 265.713 522.679C265.786 522.643 265.822 522.643 265.894 522.643C265.894 522.643 265.894 522.643 265.93 522.643C266.002 522.607 266.039 522.607 266.075 522.607C266.147 522.607 266.183 522.57 266.219 522.57C266.545 522.462 266.725 522.426 266.725 522.426C266.725 522.426 266.725 522.426 266.762 522.426C266.762 522.426 266.798 522.426 266.834 522.426C269.798 521.522 272.617 520.546 275.292 519.57C282.449 516.932 288.341 514.148 292.245 511.618C296.113 513.751 302.221 514.763 308.294 514.763C313.607 514.763 318.849 514.004 322.644 512.558C324.849 511.726 326.367 510.136 327.09 507.895C327.199 507.57 327.271 507.208 327.343 506.883C328.789 506.847 335.259 506.124 338.765 497.774C339.561 495.93 339.633 493.762 339.235 491.557C340.934 491.051 342.127 488.593 342.452 485.014C343.031 478.182 340.067 465.17 325.247 459.639C315.306 455.916 300.342 461.808 282.991 468.604C281.871 469.037 280.75 469.471 279.63 469.905C275.364 471.568 270.918 473.267 266.4 474.893C266.364 474.893 266.328 474.929 266.328 474.929C266.328 474.929 266.328 474.929 266.292 474.929H266.255C263.219 476.014 260.147 477.062 257.002 478.038C256.93 478.038 256.894 478.074 256.894 478.074C256.857 478.074 256.857 478.074 256.821 478.11H256.785C251.11 479.845 245.291 481.363 239.362 482.448C234.591 483.315 229.784 483.857 224.94 484.038C224.506 484.074 224.072 484.074 223.639 484.074C212.542 484.074 202.312 478.869 193.312 471.315C193.926 468.929 198.625 451.868 206.433 440.373C218.65 422.408 228.265 402.708 234.447 383.081C235.567 386.912 239.579 405.275 239.579 405.275L253.604 401.552L408.673 360.236L426.782 436.361C418.722 440.698 410.806 444.566 404.661 446.988C403.829 447.313 402.998 447.639 402.239 447.892C396.419 449.952 390.094 450.205 383.37 450.494C374.478 450.856 365.297 451.253 356.188 455.772C343.609 462.061 344.296 476.809 344.802 487.581C345.272 497.629 353.188 500.087 354.706 500.449C355.935 502.798 357.489 504.533 359.405 505.184C362.152 506.124 364.43 506.413 366.309 506.413C369.092 506.413 370.9 505.726 371.659 505.328C372.273 506.015 372.96 506.557 373.683 507.027C374.912 507.786 376.286 508.148 377.768 508.148C378.997 508.148 380.262 507.895 381.635 507.389C387.346 505.256 392.624 500.015 395.877 494.701C396.311 494.774 396.961 494.846 397.829 494.882C398.624 494.918 399.636 494.954 400.829 494.954C404.191 494.954 409.034 494.665 415.541 493.617C421.396 492.677 429.096 490.978 438.783 487.978L444.747 509.738L563.38 479.375L567.573 478.291L648.18 457.651L652.373 456.567L665.53 453.205L666 453.097L612.72 243.736ZM611.889 244.423L651.252 398.696L556.765 425.264V382.105H555.681V425.589L545.451 428.481C545.198 412.36 545.271 397.865 546.066 393.78C550.403 377.442 550.042 363.345 547.15 355.176C541.222 338.548 523.727 335.91 509.63 333.777C503.919 332.91 498.497 332.114 494.666 330.452C486.786 327.09 478.942 309.595 471.676 279.34L611.889 244.423ZM493.762 495.786C490.328 492.424 482.918 474.026 481.653 470.845C495.605 464.121 507.895 455.157 518.161 444.096C527.197 434.373 534.535 423.276 539.921 411.058C541.728 407.01 543.21 403.034 544.439 399.166C544.114 405.926 544.114 416.914 544.295 428.734C544.295 429.638 544.331 430.505 544.331 431.409C544.728 453.892 545.596 478.436 545.777 482.339C541.331 483.568 502.473 493.725 493.762 495.786ZM422.734 155.538C427.288 157.273 433.903 161.647 439.47 172.527C443.265 179.973 446.591 187.239 449.518 194.721L421.83 203.396C420.095 190.384 418.288 180.805 416.734 177.732L416.625 177.516L416.372 177.443C404.444 174.298 396.672 170.178 394.503 165.768C393.636 164.033 393.6 162.298 394.395 160.418C394.648 159.768 395.154 159.37 395.877 159.117C399.022 158.069 406.613 160.78 416.191 166.382L417.203 166.961L416.987 165.804C415.902 159.876 414.962 155.755 414.601 154.273C415.83 154.165 418.902 154.093 422.734 155.538ZM393.419 74.8593L413.336 153.37H413.3L413.444 153.912C413.444 153.948 414.492 158.033 415.721 164.792C410.516 161.828 400.142 156.478 395.516 158.033C394.503 158.358 393.781 159.008 393.383 159.948C392.479 162.081 392.515 164.214 393.491 166.202C396.419 172.166 407.227 176.106 415.83 178.419C420.674 188.974 428.192 263.58 427.505 305.836C427.324 317.547 429.602 331.066 432.819 344.187L243.881 392.334L238.097 369.887C238.82 366.815 239.471 363.742 240.013 360.67C242.616 346.284 243.266 332.223 241.929 319.246C238.64 288.015 212.939 237.953 203.252 219.12C201.553 215.831 200.36 213.517 199.927 212.505C204.589 207.626 210.445 195.77 208.638 191.215C208.132 189.986 207.12 189.299 205.71 189.263H205.602C201.77 189.263 197.613 193.854 194.468 198.227L177.082 129.947L393.419 74.8593ZM199.71 327.704C199.71 323.728 199.421 319.499 198.77 315.053C198.517 313.39 198.228 311.691 197.902 309.956C196.095 300.739 192.48 289.461 188.685 277.497C178.419 245.363 166.816 208.963 185.251 198.191C186.878 201.264 189.589 206.505 189.589 206.577C189.697 206.758 189.878 206.867 190.059 206.867C190.275 206.867 190.456 206.758 190.528 206.577C190.601 206.433 199.168 190.203 205.674 190.348C206.686 190.384 207.3 190.781 207.626 191.613C209.18 195.48 203.65 207.228 198.914 211.963C198.77 212.108 198.734 212.361 198.806 212.542C199.131 213.409 200.397 215.867 202.312 219.59C211.963 238.386 237.627 288.341 240.881 319.355C242.218 332.078 241.64 345.488 239.254 359.188C238.965 360.959 238.603 362.767 238.242 364.538L195.119 353.152C197.902 346.139 199.71 337.681 199.71 327.704ZM168.949 531.209C167.142 535.33 165.081 539.993 163.455 543.427C162.985 544.403 162.587 545.27 162.19 545.993C127.85 559.476 92.4629 544.692 88.7398 543.029C88.7037 542.849 88.7037 542.668 88.6675 542.451C84.836 511.401 88.0531 482.014 91.487 462.748C94.4148 446.337 97.9211 434.301 99.3669 429.746C99.5476 430.469 99.7645 431.337 100.09 432.349C101.03 441.205 105.909 469.471 131.14 498.497C151.165 521.486 167.25 527.197 170.286 528.101C169.853 529.113 169.419 530.125 168.949 531.209ZM258.809 523.474C258.773 523.474 258.773 523.474 258.737 523.474C258.701 523.474 258.629 523.51 258.592 523.51C256.604 517.618 255.881 510.606 255.737 503.847C257.291 504.642 259.026 505.112 260.906 505.112C262.099 505.112 263.255 504.931 264.304 504.569C264.701 513.136 265.677 519.643 265.966 521.414C264.954 521.739 262.171 522.534 258.809 523.474ZM255.737 502.617C255.375 502.401 255.014 502.148 254.652 501.858C252.339 500.015 250.821 497.159 250.821 493.979C250.821 490.364 252.737 487.183 255.592 485.412C255.954 485.159 256.351 484.978 256.749 484.797C258.014 484.219 259.424 483.894 260.87 483.894C262.207 483.894 263.508 484.147 264.665 484.653C265.027 484.797 265.388 484.978 265.713 485.159C268.822 486.894 270.955 490.183 270.955 493.979C270.955 497.955 268.641 501.389 265.316 503.015C264.99 503.196 264.629 503.34 264.267 503.449C263.219 503.81 262.062 504.027 260.906 504.027C259.026 504.027 257.255 503.521 255.737 502.617ZM267.087 475.725C271.677 474.062 276.196 472.327 280.533 470.628C281.509 470.23 282.485 469.869 283.461 469.471C300.595 462.748 315.379 456.928 324.921 460.507C339.127 465.82 341.983 478.255 341.404 484.761C341.151 487.653 340.211 489.894 339.055 490.328C338.043 485.918 335.44 481.183 333.054 477.532C330.633 473.845 328.428 471.242 328.211 470.953L327.849 470.556L327.018 471.242L327.379 471.64C327.524 471.821 341.476 488.412 337.79 497.196C334.609 504.786 329.078 505.582 327.524 505.654C328.5 497.123 321.234 483.785 319.029 480.424L318.74 479.954L317.837 480.532L318.126 481.002C320.331 484.363 328.608 499.654 326.078 507.425C325.427 509.377 324.198 510.678 322.283 511.401C313.788 514.618 297.522 514.401 291.377 509.594C289.715 508.293 288.956 506.738 289.172 504.967C289.353 503.449 290.04 502.292 291.341 501.352C296.727 497.449 309.957 500.015 310.101 500.051L310.643 500.16L310.86 499.111L310.318 499.003C309.74 498.894 296.474 496.328 290.727 500.485C289.209 501.569 288.341 503.051 288.124 504.859C287.871 507.027 288.739 508.907 290.763 510.461C290.944 510.606 291.124 510.714 291.305 510.859C287.69 513.136 282.521 515.594 276.304 517.944C273.449 519.028 270.376 520.076 267.123 521.088C266.834 519.137 265.858 512.63 265.46 504.172C269.4 502.437 272.147 498.497 272.147 493.942C272.147 489.569 269.617 485.773 265.966 483.93C266.183 481.219 266.581 478.472 267.087 475.725ZM257.616 478.942C258.773 478.652 262.569 477.64 265.894 476.231C265.46 478.652 265.099 481.074 264.846 483.532C263.617 483.062 262.316 482.809 260.942 482.809C259.532 482.809 258.195 483.062 256.966 483.532C257.219 481.219 257.472 479.592 257.616 478.942ZM225.085 485.014C229.711 484.833 234.266 484.327 238.784 483.568C244.784 482.52 250.676 481.038 256.424 479.303C256.279 480.243 256.026 481.906 255.773 484.074C252.194 485.918 249.737 489.677 249.737 493.979C249.737 497.81 251.688 501.208 254.652 503.232C254.725 510.244 255.484 517.618 257.544 523.799C251.002 525.462 244.025 526.836 236.868 527.776C225.518 529.294 211.493 530.017 197.216 527.884C185.179 526.077 172.925 522.281 161.937 515.197C155.683 511.148 149.972 506.666 144.839 501.931C148.815 494.882 175.202 461.447 178.492 457.29C181.492 460.977 184.709 464.628 188.143 467.953C200.433 479.701 212.831 485.448 225.085 485.014ZM205.638 439.614C198.155 450.639 193.493 466.688 192.48 470.411C191.251 469.363 190.059 468.278 188.902 467.122C167.575 446.554 154.165 414.348 154.02 413.842L153.478 413.95H152.936C152.936 414.203 153.948 416.661 155.719 420.348C157.382 423.854 159.695 428.445 162.479 433.361C165.949 439.506 170.792 447.277 176.648 454.904C171.154 459.82 140.646 490.002 136.779 493.834C126.874 483.062 119.537 471.857 114.44 462.784C104.717 445.361 100.379 430.65 100.018 428.011C99.4754 424.143 99.7284 412.432 105.042 402.419C105.403 401.769 105.765 401.118 106.162 400.467C109.416 395.154 114.295 390.527 121.416 388.141C132.658 384.346 145.165 383.587 155.213 383.009C165.045 382.43 172.817 381.96 176.395 379.069C181.058 375.309 188.721 367.827 193.962 356.007C198.3 357.887 230.181 371.803 235.784 375.02C229.892 396.853 219.699 418.974 205.638 439.614ZM409.721 359.875L435.241 353.079V353.043C437.735 361.935 440.554 370.393 443.193 377.731C450.422 397.901 457.832 413.842 459.097 416.553C451.832 421.866 439.687 429.312 427.794 435.746L409.721 359.875ZM396.528 493.581C397.974 491.014 398.913 488.448 399.13 486.279C399.166 485.918 399.166 485.592 399.166 485.267C399.166 482.809 398.082 481.146 396.058 480.387C387.852 477.387 378.78 489.352 378.382 489.858L379.25 490.508C379.322 490.4 388.214 478.689 395.66 481.4C397.251 481.978 398.046 483.279 398.046 485.267C398.046 485.918 397.974 486.641 397.793 487.364C397.395 489.207 396.528 491.268 395.335 493.328C395.335 493.328 395.335 493.364 395.299 493.364C392.19 498.678 386.84 504.1 381.238 506.232C378.527 507.244 376.213 507.172 374.261 505.943C368.478 502.401 366.237 489.496 364.863 477.315L363.779 477.423C365.044 488.34 366.815 498.931 370.972 504.316C369.635 504.895 365.839 506.051 359.803 503.991C352.248 501.425 350.73 477.568 350.694 477.351L349.609 477.423C349.646 478.146 350.477 490.978 354.128 498.967C351.742 498.172 346.32 495.497 345.922 487.364C345.416 476.881 344.766 462.531 356.694 456.567C365.586 452.121 374.659 451.759 383.443 451.398C389.407 451.145 395.046 450.928 400.359 449.446L401.01 452.012L411.565 492.966C403.612 494.051 398.66 493.798 396.528 493.581ZM402.962 449.446L402.709 448.795C403.034 448.687 403.323 448.578 403.648 448.434C420.818 442.072 454.254 422.553 463.905 414.131C475.58 403.901 487.762 383.587 488.918 378.816L487.87 378.563C486.749 383.225 474.749 403.215 463.218 413.299C462.314 414.095 461.23 414.962 459.965 415.902C456.784 409.106 428.011 346.392 428.662 305.872C429.096 279.16 426.24 239.543 422.842 211.24L450.531 197.324C456.35 212.722 460.652 229.024 464.302 248.977C473.448 299.149 483.532 326.873 494.304 331.464C498.28 333.163 503.738 333.958 509.522 334.861C524.017 337.066 540.463 339.524 546.174 355.537C549.03 363.562 549.355 377.37 545.09 393.455C545.09 393.491 545.054 393.563 545.054 393.636C543.608 399.094 541.62 404.841 539.017 410.697C530.884 429.059 514.148 454.29 480.821 470.122C452.663 483.532 432.277 489.316 419.3 491.846L402.962 449.446ZM445.542 508.473L439.795 487.617C450.892 484.147 464.519 478.978 480.677 471.315C482.014 474.712 489.135 492.316 492.822 496.364L445.542 508.473ZM546.897 482.52C546.789 479.664 545.921 455.482 545.488 432.927L550.078 431.626L563.199 478.327L546.897 482.52ZM567.429 477.279L554.271 430.469L634.336 407.95L648.035 456.639L567.429 477.279ZM652.228 455.591L638.493 406.793L652.301 402.925L664.916 452.338L652.228 455.591Z" fill="#231F20"/>
<path d="M375.381 132.477L375.923 132.332L367.827 101.463L218.252 140.718L217.71 140.863L225.807 171.732L375.381 132.477ZM367.031 102.764L374.586 131.537L226.602 170.395L219.047 141.622L367.031 102.764Z" fill="#231F20"/>
<path d="M380.436 156.336L234.188 194.031L234.458 195.081L380.706 157.386L380.436 156.336Z" fill="#231F20"/>
<path d="M388.023 185.514L241.775 223.209L242.046 224.259L388.294 186.564L388.023 185.514Z" fill="#231F20"/>
<path d="M396.45 214.721L250.202 252.415L250.473 253.466L396.721 215.771L396.45 214.721Z" fill="#231F20"/>
<path d="M423.13 324.72L276.882 362.415L277.153 363.465L423.4 325.77L423.13 324.72Z" fill="#231F20"/>
<path d="M348.336 258.197L257.604 281.583L257.875 282.633L348.606 259.247L348.336 258.197Z" fill="#231F20"/>
<path d="M354.43 287.617L264.469 310.804L264.739 311.854L354.7 288.667L354.43 287.617Z" fill="#231F20"/>
<path d="M388.07 286.57C397.333 286.57 404.842 279.061 404.842 269.798C404.842 260.535 397.333 253.026 388.07 253.026C378.807 253.026 371.298 260.535 371.298 269.798C371.298 279.061 378.807 286.57 388.07 286.57Z" fill="#CBF5E7"/>
<path d="M388.07 296.221C373.503 296.221 361.646 284.365 361.646 269.798C361.646 255.231 373.503 243.375 388.07 243.375C402.637 243.375 414.493 255.231 414.493 269.798C414.493 284.365 402.637 296.221 388.07 296.221ZM388.07 246.953C375.491 246.953 365.261 257.183 365.261 269.762C365.261 282.341 375.491 292.57 388.07 292.57C400.649 292.57 410.878 282.341 410.878 269.762C410.878 257.183 400.649 246.953 388.07 246.953Z" fill="#CBF5E7"/>
<path d="M287.365 358.393L260.074 339.994L262.713 336.127L282.666 349.573V309.776H287.365V358.393Z" fill="#00E4AF"/>
<path d="M389.921 307.644L296.022 331.455L299.461 345.014L393.36 321.203L389.921 307.644Z" fill="#00E4AF"/>
<path d="M350.657 574.179L349.704 574.39L354.842 597.613L355.794 597.402L350.657 574.179Z" fill="#231F20"/>
<path d="M282.45 598.623L281.618 598.081C285.197 592.767 303.162 566.236 303.668 565.693L304.354 566.38L303.993 566.019L304.354 566.344C303.776 567.103 288.341 589.912 282.45 598.623Z" fill="#231F20"/>
<path d="M389.94 382.21L375.772 409.066L376.636 409.521L390.803 382.665L389.94 382.21Z" fill="#231F20"/>
<path d="M270.784 411.034L270.382 411.923L297.848 424.353L298.25 423.464L270.784 411.034Z" fill="#231F20"/>
<path d="M398.01 515.775L427.903 511.763L397.865 494.774C396.998 494.738 396.347 494.665 395.913 494.593C392.66 499.907 387.383 505.148 381.672 507.281C380.298 507.787 379.033 508.04 377.804 508.04C376.322 508.04 374.985 507.678 373.719 506.919C372.997 506.485 372.31 505.907 371.695 505.22C370.936 505.582 369.129 506.305 366.346 506.305C364.502 506.305 362.189 505.979 359.442 505.076C357.562 504.425 356.008 502.69 354.743 500.34C353.224 499.979 345.308 497.521 344.838 487.472C344.332 476.701 343.646 461.953 356.225 455.663C365.333 451.109 374.515 450.747 383.407 450.386C390.13 450.097 396.456 449.844 402.275 447.783C403.034 447.494 403.866 447.205 404.697 446.88L411.818 436.686L388.756 442.651L403.07 413.878L365.695 436.686L360.815 411.456L344.585 432.53L323.367 386.66L319.138 436.686L267.087 429.566L292.426 456.965L269.509 459.097C269.509 459.097 274.895 464.953 279.63 469.797C280.751 469.363 281.871 468.929 282.992 468.495C300.342 461.7 315.307 455.808 325.247 459.531C340.067 465.061 343.031 478.074 342.453 484.906C342.127 488.484 340.935 490.978 339.236 491.448C339.633 493.689 339.525 495.822 338.766 497.666C335.26 506.052 328.789 506.738 327.343 506.775C327.271 507.136 327.199 507.461 327.09 507.787C326.331 510.028 324.849 511.618 322.644 512.45C318.885 513.859 313.608 514.618 308.294 514.618C302.222 514.618 296.113 513.606 292.245 511.474C288.341 514.004 282.449 516.787 275.292 519.426L263.942 538.077L298.029 528.246L282.052 565.983L318.994 535.005L329.584 593.562L344.694 543.246L375.78 568.874L374.045 526.764L414.746 571.911L398.01 515.775ZM329.838 418.649L332.115 451.543L292.86 440.518L306.089 456.061L305.258 456.748L289.715 438.494L330.922 450.061L328.392 413.119L345.959 449.302L357.309 427.903L361.285 447.313L389.515 427.867L379.178 448.47L378.202 448L386.66 431.156L360.562 449.157L356.875 431.084L345.923 451.687L329.838 418.649ZM367.828 515.992V556.187L344.115 529.366L331.03 569.886L323.873 525.715L295.462 548.379L296.113 546.572C298.354 540.427 305.692 520.329 306.162 519.715L306.595 520.04L307.065 520.329C306.631 521.089 301.535 534.933 297.812 545.126L324.632 523.727L331.356 565.296L343.645 527.233L366.707 553.331V513.353L399.167 546.247L389.371 511.582L390.419 511.293L401.372 550.006L367.828 515.992Z" fill="#23E0A2"/>
<path d="M290.762 73.8113L268.424 76.4138L275.256 37.8455L290.762 73.8113Z" fill="#00E4AF"/>
<path d="M273.195 71.2449L280.461 30.1462L296.98 68.4616L273.195 71.2449ZM280.895 33.9055L274.533 70.0159L295.389 67.5941L280.895 33.9055Z" fill="#231F20"/>
<path d="M164.539 66.365L134.79 83.0647L121.488 24.6157L164.539 66.365Z" fill="#23E0A2"/>
<path d="M138.585 72.5461L124.741 11.603L169.599 55.1235L138.585 72.5461ZM126.621 14.8924L139.308 70.8834L167.792 54.8704L126.621 14.8924Z" fill="#231F20"/>
<path d="M509.993 76.4136L475.256 57.2198L527.198 4.229L509.993 76.4136Z" fill="#23E0A2"/>
<path d="M519.1 74.7872L483.098 54.9066L536.92 0L519.1 74.7872ZM484.869 54.6536L518.377 73.1606L534.968 3.54236L484.869 54.6536Z" fill="#231F20"/>
<path d="M109.741 202.637C118.744 202.637 126.043 195.339 126.043 186.335C126.043 177.332 118.744 170.033 109.741 170.033C100.737 170.033 93.4385 177.332 93.4385 186.335C93.4385 195.339 100.737 202.637 109.741 202.637Z" fill="#CBF5E7"/>
<path d="M101.86 199.203C92.5702 199.203 85.0156 191.649 85.0156 182.359C85.0156 173.07 92.5702 165.515 101.86 165.515C111.15 165.515 118.704 173.07 118.704 182.359C118.704 191.649 111.15 199.203 101.86 199.203ZM101.86 166.599C93.1847 166.599 86.1 173.684 86.1 182.359C86.1 191.034 93.1847 198.119 101.86 198.119C110.535 198.119 117.62 191.034 117.62 182.359C117.62 173.684 110.571 166.599 101.86 166.599Z" fill="#231F20"/>
<path d="M508.692 157.237C519.053 157.237 527.452 148.838 527.452 138.477C527.452 128.116 519.053 119.717 508.692 119.717C498.331 119.717 489.932 128.116 489.932 138.477C489.932 148.838 498.331 157.237 508.692 157.237Z" fill="#CBF5E7"/>
<path d="M518.449 154.96C513.28 154.96 508.147 152.9 504.352 148.851C497.086 141.08 497.484 128.862 505.256 121.597C513.027 114.331 525.245 114.729 532.51 122.501C539.775 130.272 539.378 142.49 531.606 149.755C527.919 153.225 523.184 154.96 518.449 154.96ZM505.147 148.092C512.015 155.43 523.546 155.792 530.883 148.924C538.221 142.056 538.583 130.525 531.715 123.187C524.847 115.85 513.316 115.488 505.978 122.356C498.677 129.224 498.279 140.791 505.147 148.092Z" fill="#231F20"/>
</svg>
