<svg width="24" height="28" viewBox="0 0 24 28" fill="none" xmlns="http://www.w3.org/2000/svg">
<path d="M21.0787 10.0283C20.4767 10.0283 19.6793 10.015 18.6865 10.015C16.2653 10.015 14.2744 8.01099 14.2744 5.56699V1.27899C14.2744 0.941659 14.0051 0.666992 13.6711 0.666992H6.61849C3.32721 0.666992 0.666992 3.36833 0.666992 6.67899V21.0457C0.666992 24.519 3.45395 27.3337 6.8931 27.3337H17.3954C20.6748 27.3337 23.3337 24.6497 23.3337 21.3363V10.6283C23.3337 10.2897 23.0657 10.0163 22.7303 10.0177C22.1666 10.0217 21.4907 10.0283 21.0787 10.0283Z" fill="white"/>
<path opacity="0.4" d="M17.4492 1.4256C17.0505 1.01093 16.3545 1.29627 16.3545 1.87093V5.38693C16.3545 6.8616 17.5692 8.07493 19.0438 8.07493C19.9732 8.0856 21.2638 8.08827 22.3598 8.0856C22.9212 8.08427 23.2065 7.4136 22.8172 7.00827C21.4105 5.5456 18.8918 2.92427 17.4492 1.4256Z" fill="white"/>
<path fill-rule="evenodd" clip-rule="evenodd" d="M7.97149 13.1738H12.4848C13.0328 13.1738 13.4782 12.7298 13.4782 12.1818C13.4782 11.6338 13.0328 11.1885 12.4848 11.1885H7.97149C7.42349 11.1885 6.97949 11.6338 6.97949 12.1818C6.97949 12.7298 7.42349 13.1738 7.97149 13.1738ZM7.97159 19.8405H15.2303C15.7783 19.8405 16.2236 19.3965 16.2236 18.8485C16.2236 18.3005 15.7783 17.8552 15.2303 17.8552H7.97159C7.42359 17.8552 6.97959 18.3005 6.97959 18.8485C6.97959 19.3965 7.42359 19.8405 7.97159 19.8405Z" fill="#23E0A2"/>
</svg>
