<svg width="25" height="26" viewBox="0 0 25 26" fill="none" xmlns="http://www.w3.org/2000/svg">
<path fillRule="evenodd" clipRule="evenodd" d="M23.2731 15.054C23.738 15.301 24.0967 15.691 24.3492 16.081C24.8407 16.887 24.8009 17.875 24.3226 18.746L23.3926 20.306C22.9011 21.138 21.9844 21.658 21.0411 21.658C20.5761 21.658 20.058 21.528 19.6328 21.268C19.2874 21.047 18.8889 20.969 18.4637 20.969C17.1485 20.969 16.0458 22.048 16.0059 23.335C16.0059 24.83 14.7837 26 13.2558 26H11.449C9.90789 26 8.68563 24.83 8.68563 23.335C8.65906 22.048 7.55637 20.969 6.24111 20.969C5.80269 20.969 5.40412 21.047 5.07199 21.268C4.64685 21.528 4.11544 21.658 3.66373 21.658C2.70718 21.658 1.79048 21.138 1.29892 20.306L0.382226 18.746C-0.109336 17.901 -0.135907 16.887 0.355655 16.081C0.568222 15.691 0.966785 15.301 1.41849 15.054C1.79048 14.872 2.02962 14.573 2.25547 14.222C2.91975 13.104 2.52118 11.635 1.39192 10.972C0.0766605 10.231 -0.348474 8.58 0.408797 7.293L1.29892 5.759C2.06948 4.472 3.71687 4.017 5.04542 4.771C6.20125 5.395 7.70251 4.979 8.38006 3.874C8.59263 3.51 8.7122 3.12 8.68563 2.73C8.65906 2.223 8.8052 1.742 9.05762 1.352C9.54918 0.546 10.4393 0.026 11.4091 0H13.2824C14.2655 0 15.1556 0.546 15.6472 1.352C15.8863 1.742 16.0458 2.223 16.0059 2.73C15.9793 3.12 16.0989 3.51 16.3115 3.874C16.989 4.979 18.4903 5.395 19.6594 4.771C20.9747 4.017 22.6353 4.472 23.3926 5.759L24.2827 7.293C25.0533 8.58 24.6282 10.231 23.2996 10.972C22.1704 11.635 21.7718 13.104 22.4494 14.222C22.6619 14.573 22.9011 14.872 23.2731 15.054ZM8.59219 13.0132C8.59219 15.0542 10.2794 16.6792 12.3653 16.6792C14.4511 16.6792 16.0985 15.0542 16.0985 13.0132C16.0985 10.9722 14.4511 9.33423 12.3653 9.33423C10.2794 9.33423 8.59219 10.9722 8.59219 13.0132Z" fill="white"/>
</svg>
