<svg width="30" height="23" viewBox="0 0 30 23" fill="none" xmlns="http://www.w3.org/2000/svg">
<path d="M14.9393 14.875C10.3393 14.875 6.45801 15.6267 6.45801 18.5277C6.45801 21.4298 10.3644 22.1551 14.9393 22.1551C19.5393 22.1551 23.4205 21.4034 23.4205 18.5024C23.4205 15.6002 19.5142 14.875 14.9393 14.875Z" fill="white"/>
<path d="M14.9259 12.1224C18.0407 12.1224 20.5382 9.61042 20.5382 6.47769C20.5382 3.34376 18.0407 0.833008 14.9259 0.833008C11.8111 0.833008 9.31348 3.34376 9.31348 6.47769C9.31348 9.61042 11.8111 12.1224 14.9259 12.1224Z" fill="white"/>
<path opacity="0.4" d="M27.1142 7.78816C27.92 4.6182 25.5574 1.77124 22.5488 1.77124C22.2217 1.77124 21.9089 1.80726 21.6033 1.8685C21.5627 1.87811 21.5173 1.89852 21.4934 1.93454C21.466 1.98017 21.4863 2.04141 21.5161 2.08103C22.4199 3.35622 22.9392 4.90878 22.9392 6.57541C22.9392 8.17239 22.4628 9.66131 21.6271 10.8969C21.5412 11.0242 21.6176 11.1959 21.7692 11.2223C21.9793 11.2595 22.1942 11.2787 22.4139 11.2847C24.6047 11.3424 26.571 9.92428 27.1142 7.78816Z" fill="white"/>
<path d="M29.3979 15.2644C28.9968 14.4047 28.0285 13.8151 26.5565 13.5257C25.8617 13.3552 23.9813 13.1151 22.2323 13.1475C22.206 13.1511 22.1917 13.1691 22.1893 13.1811C22.1857 13.1979 22.1929 13.2267 22.2275 13.2448C23.0358 13.647 26.1601 15.3965 25.7673 19.0864C25.7506 19.2461 25.8784 19.3841 26.0372 19.3601C26.806 19.2497 28.7842 18.8222 29.3979 17.4906C29.737 16.7869 29.737 15.9692 29.3979 15.2644Z" fill="white"/>
<path opacity="0.4" d="M8.39995 1.88754C8.09551 1.8251 7.78152 1.79028 7.4544 1.79028C4.44585 1.79028 2.08318 4.63724 2.89023 7.8072C3.43225 9.94332 5.39856 11.3614 7.58931 11.3038C7.80898 11.2978 8.02507 11.2773 8.234 11.2413C8.38562 11.2149 8.46203 11.0432 8.37607 10.9159C7.54036 9.67915 7.06401 8.19144 7.06401 6.59445C7.06401 4.92662 7.58454 3.37406 8.4883 2.10007C8.51695 2.06045 8.53844 1.99921 8.50979 1.95358C8.48591 1.91636 8.44174 1.89715 8.39995 1.88754Z" fill="white"/>
<path d="M3.42939 13.5252C1.95735 13.8146 0.990314 14.4042 0.589174 15.2639C0.248921 15.9687 0.248921 16.7864 0.589174 17.4913C1.20282 18.8217 3.18107 19.2504 3.94992 19.3596C4.1087 19.3836 4.23525 19.2468 4.21854 19.0859C3.82575 15.3972 6.95011 13.6477 7.75956 13.2455C7.79298 13.2262 7.80015 13.1986 7.79657 13.1806C7.79418 13.1686 7.78104 13.1506 7.75478 13.1482C6.00457 13.1146 4.12542 13.3547 3.42939 13.5252Z" fill="white"/>
</svg>
