<svg width="23" height="23" viewBox="0 0 23 23" fill="none" xmlns="http://www.w3.org/2000/svg">
<path fill-rule="evenodd" clip-rule="evenodd" d="M16.7561 0.945098C16.7561 3.73223 19.0188 5.99164 21.81 5.99164C22.1174 5.99013 22.424 5.96062 22.7259 5.90349V15.9084C22.7259 20.1176 20.2431 22.6078 16.0278 22.6078H6.84685C2.62053 22.6078 0.137695 20.1176 0.137695 15.9084V6.74091C0.137695 2.53178 2.62053 0.0195312 6.84685 0.0195312H16.8444C16.7851 0.324478 16.7555 0.634451 16.7561 0.945098ZM14.1302 13.6934L17.7165 9.06554V9.0435C18.0235 8.63095 17.9452 8.04921 17.54 7.73228C17.3438 7.58087 17.0946 7.51533 16.8492 7.55063C16.6038 7.58593 16.3832 7.71906 16.2379 7.9196L13.2143 11.8092L9.77146 9.0986C9.5749 8.94546 9.32485 8.87785 9.07776 8.91102C8.83068 8.94419 8.60739 9.07536 8.45832 9.27489L4.75063 14.057C4.6203 14.2194 4.55014 14.4218 4.552 14.63C4.53048 15.0506 4.79612 15.4327 5.19832 15.5597C5.60052 15.6867 6.03785 15.5264 6.26239 15.1699L9.36317 11.1591L12.806 13.8587C13.0019 14.0165 13.2535 14.0881 13.5033 14.0569C13.753 14.0258 13.9793 13.8945 14.1302 13.6934Z" fill="white"/>
</svg>
