<svg width="662" height="654" viewBox="0 0 662 654" fill="none" xmlns="http://www.w3.org/2000/svg">
<path d="M219.149 472.491C218.998 472.415 218.884 472.415 218.732 472.415C218.24 472.415 217.71 472.68 217.104 473.173H219.907C219.793 472.87 219.528 472.642 219.149 472.491Z" fill="#231F20"/>
<path d="M201.763 469.915C201.384 469.877 201.005 469.877 200.664 469.839V471.279C201.346 471.847 202.104 472.491 202.975 473.173H215.438C215.855 472.756 216.31 472.377 216.726 472.074H201.763V469.915Z" fill="#231F20"/>
<path d="M263.435 361.344C263.056 361.457 262.677 361.571 262.336 361.647V362.897L263.435 362.442V361.344Z" fill="#231F20"/>
<path d="M325.07 156.286C324.73 156.551 324.351 156.778 323.972 157.006V163.673H302.189C304.576 163.976 306.849 164.355 308.97 164.771H323.972V169.279C324.351 169.431 324.73 169.583 325.07 169.734V164.771H385.607V203.26C385.986 202.957 386.364 202.654 386.705 202.313V164.734H430.876C431.331 164.355 431.748 163.976 432.126 163.635H386.705V119.578H385.607V163.711H325.07V156.286Z" fill="#231F20"/>
<path d="M448.415 137.383V119.616H447.316V139.087C447.657 138.481 448.036 137.913 448.415 137.383Z" fill="#231F20"/>
<path d="M331.585 411.462H336.321L336.397 410.364H331.131L331.585 411.462Z" fill="#231F20"/>
<path d="M323.972 242.128C324.351 242.128 324.729 242.128 325.07 242.09V233.983C324.691 234.513 324.313 235.044 323.972 235.536V242.128Z" fill="#231F20"/>
<path d="M284.574 348.691L284.953 349.827H295.56L298.401 348.691H284.574Z" fill="#231F20"/>
<path d="M325.07 122.002V119.578H323.972V122.305C324.351 122.192 324.691 122.116 325.07 122.002Z" fill="#231F20"/>
<path d="M325.07 367.784C324.691 367.708 324.313 367.632 323.972 367.556V393.165L325.07 395.855V367.784Z" fill="#231F20"/>
<path d="M660.633 595.458L599.794 575.001L599.415 576.062L656.807 595.344H614.871H21.5551V534.808H77.3182V595.306H78.4168V534.808H138.953V595.306H140.052V534.808H200.588V595.306H201.686V534.808H262.223V595.306H263.321V534.808H323.971V595.306H325.07V534.808H385.606V595.306H386.704V534.808H447.241V595.306H448.339V534.808H508.876V595.306H509.974V534.808H570.51V595.306H571.609V534.808H602.673V533.709H571.609V473.173H602.673V472.074H571.609V411.538H602.673V410.439H571.609V349.903H602.673V348.805H571.609V288.155H602.673V287.056H571.609V226.482H602.673V225.383H571.609V164.809H602.673V163.711H571.609V119.578H570.51V163.711H509.974V119.578H508.876V163.711H496.753C496.564 164.052 496.336 164.431 496.071 164.809H508.876V225.346H448.339V212.844C447.961 213.185 447.582 213.526 447.241 213.829V225.346H434.247C433.83 225.724 433.414 226.103 432.997 226.444H447.241V286.98H417.162C417.162 287.359 417.162 287.738 417.124 288.079H447.241V348.615H410.949C410.874 348.994 410.836 349.373 410.76 349.714H447.241V405.742C447.733 406.689 448.074 407.523 448.339 408.356V349.714H508.876V410.25H448.794C448.87 410.629 448.908 411.008 448.908 411.349H508.838V471.885H448.301V414.644H447.203V471.885H386.667V414.644H385.568V471.885H325.07V419.683L323.971 420.1V471.885H263.435V443.435L262.336 443.852V471.885H220.476C220.779 472.188 220.969 472.567 221.082 472.983H262.298V533.709H201.762V512.912H200.664V533.709H140.089V512.912H138.991V533.709H78.4168V473.173H138.953V480.257L140.052 477.188V473.135H141.529L141.946 472.036H140.052V460.975C139.749 460.899 139.559 460.861 139.521 460.861L138.915 460.747V471.999H78.4168V411.462H138.953V460.596L139.105 460.141L140.052 457.527V411.5H156.758L157.174 410.402H140.052V349.865H179.146L179.563 348.767H140.089V288.155H196.421C196.307 287.776 196.231 287.397 196.118 287.056H140.089V226.482H188.768C188.882 226.103 189.034 225.724 189.185 225.383H140.089V164.809H200.626V210.23C201.005 209.89 201.345 209.549 201.724 209.208V164.809H262.26V172.651C262.639 172.5 263.018 172.31 263.359 172.159V164.847H281.391C283.172 164.355 284.99 163.976 286.846 163.749H263.397V119.578H262.298V163.711H201.762V119.578H200.664V163.711H140.089V119.578H138.991V163.711H78.4168V119.578H77.3182V163.711H21.5551V101.773L39.5114 159.089L40.61 158.748L21.5173 97.9089C21.4415 97.6816 21.2142 97.5301 20.9869 97.4922C20.7596 97.4922 20.5323 97.6437 20.4565 97.871L0 158.71L1.06071 159.089L20.3808 101.546V595.912C20.3808 596.139 20.5323 596.329 20.7217 596.443V596.48H20.949H614.871H656.882L599.415 614.513L599.756 615.611L660.595 596.518C660.822 596.443 660.974 596.215 661.012 595.988C661.012 595.723 660.86 595.533 660.633 595.458ZM510.088 164.809H570.624V225.346H510.088V164.809ZM510.088 226.482H570.624V287.018H510.088V226.482ZM510.088 288.155H570.624V348.691H510.088V288.155ZM510.088 349.827H570.624V410.364H510.088V349.827ZM510.088 411.462H570.624V471.999H510.088V411.462ZM510.088 473.135H570.624V533.709H510.088V473.135ZM448.415 226.482H508.951V287.018H448.415V226.482ZM448.415 348.691V288.155H508.951V348.691H448.415ZM448.415 473.135H508.951V533.709H448.415V473.135ZM386.742 473.135H447.279V533.709H386.742V473.135ZM325.07 473.135H385.606V533.709H325.07V473.135ZM263.435 473.135H323.971V533.709H263.435V473.135ZM78.4168 164.809H138.953V225.346H78.4168V164.809ZM78.4168 226.482H138.953V287.018H78.4168V226.482ZM78.4168 288.155H138.953V348.691H78.4168V288.155ZM78.4168 349.827H138.953V410.364H78.4168V349.827ZM21.5551 164.809H77.3182V225.346H21.5551V164.809ZM21.5551 226.482H77.3182V287.018H21.5551V226.482ZM21.5551 288.155H77.3182V348.691H21.5551V288.155ZM21.5551 349.827H77.3182V410.364H21.5551V349.827ZM21.5551 411.462H77.3182V471.999H21.5551V411.462ZM21.5551 473.135H77.3182V533.709H21.5551V473.135Z" fill="#231F20"/>
<path opacity="0.1" d="M502.038 353.884C476.756 293.363 422.58 277.112 326.209 286.384L288.179 195.344C314.999 192.646 338.034 201.25 357.069 220.637L410.092 154.138C369.306 114.674 314.658 101.658 256.5 118.054L234.46 65.2915L191.526 83.2262L213.566 135.988C181.155 154.388 158.107 179.204 144.638 210.955C130.953 242.188 130.809 273.84 144.206 305.911C156.523 335.396 177.24 355.903 205.625 367.132C230.258 378.106 266.526 380.575 314.862 375.572L354.405 470.233C321.077 476.257 291.788 467.228 266.756 443.663L210.93 510.726C253.962 554.111 318.098 568.025 385.351 547.222L406.094 596.881L449.028 578.946L428.284 529.287C504.186 488.468 529.912 420.613 502.038 353.884ZM224.81 266.165C216.383 245.991 223.565 225.372 245.933 210.561L279.425 290.739C249.973 291.498 231.94 283.235 224.81 266.165ZM361.862 371.735C398.602 370.968 413.787 376.776 421.349 394.881C429.777 415.054 418.973 437.186 396.003 453.464L361.862 371.735Z" fill="#020D1E"/>
<path d="M325.07 302.399L323.972 302.436V348.199C324.351 346.721 324.691 345.168 325.07 343.615V302.399Z" fill="#231F20"/>
<path d="M263.435 319.9V318.839L263.208 319.824C263.284 319.824 263.36 319.862 263.435 319.9Z" fill="#231F20"/>
<path d="M283.36 348.691H271.313C271.351 349.07 271.389 349.448 271.389 349.789H283.739L283.36 348.691Z" fill="#231F20"/>
<path d="M305.94 349.827H323.555C323.631 349.449 323.745 349.07 323.82 348.729H305.447L305.94 349.827Z" fill="#231F20"/>
<path d="M226.197 307.854L218.507 303.914L218.999 302.891L225.818 306.376L231.614 297.55L232.561 298.194L226.197 307.854Z" fill="#231F20"/>
<path d="M243.13 366.534L242.259 371.383L249.343 368.579V364.905C249.343 364.905 245.479 366.572 243.13 366.534Z" fill="#231F20"/>
<path d="M25.4183 597.049L19.8496 591.935L95.4252 512.912H97.0541H251.918L333.895 414.834H474.818L590.663 169.621L597.482 172.916L479.592 422.41H337.419L255.441 520.45H253.698H98.7588L25.4183 597.049Z" fill="#23E0A2"/>
<path d="M308.818 373.542L268.625 390.362L267.148 386.422L254.04 391.347L255.707 395.779L210.513 414.72L209.301 415.213L199.717 393.051L200.55 392.748L300.787 353.995L308.818 373.542Z" fill="#23E0A2"/>
<path d="M213.315 421.577L226.271 454.497L328.213 416.614L311.961 380.285L272.071 396.044V400.136L258.585 406.689L254.039 402.446L213.315 421.577Z" fill="#23E0A2"/>
<path d="M276.677 417.594C275.902 415.737 274.24 415.239 271.284 415.523L270.117 412.731C270.94 412.648 271.647 412.912 272.23 413.507L273.857 411.467C272.606 410.256 270.929 409.857 269.145 410.36L268.469 408.741L267.152 409.291L267.828 410.91C266.834 411.474 266.127 412.236 265.714 413.21C265.294 414.168 265.29 415.139 265.701 416.122C266.079 417.027 266.714 417.656 267.585 418C268.34 418.337 269.453 418.413 270.936 418.259L272.149 421.163C271.126 421.348 270.228 421.071 269.46 420.348L267.748 422.405C269.068 423.736 271.035 424.163 273.098 423.525L273.734 425.048L275.051 424.498L274.415 422.974C276.743 421.722 277.532 419.641 276.677 417.594ZM268.173 414.903C267.915 414.284 268.135 413.652 268.821 413.197L269.849 415.657C268.945 415.68 268.392 415.427 268.173 414.903ZM272.377 418.141C273.504 418.118 273.97 418.296 274.202 418.851C274.461 419.47 274.129 420.149 273.425 420.649L272.377 418.141Z" fill="#020D1E"/>
<path d="M237.939 304.634C239.833 311.566 233.469 317.135 226.309 317.135C219.149 317.135 213.315 311.301 213.315 304.141C213.315 296.981 219.225 293.08 226.309 294.254C232.143 295.239 236.348 298.762 237.939 304.634Z" fill="#23E0A2"/>
<path d="M145.809 465.18L132.02 500.941L236.765 502.38C236.765 502.38 232.067 495.902 227.9 493.516C223.733 491.129 198.049 469.953 198.049 469.953L145.809 465.18Z" fill="#00E4AF"/>
<path d="M340.411 370.739L337.607 402.863L444.474 402.749C444.474 402.749 437.276 395.514 433.109 393.089C428.942 390.703 394.014 368.996 394.014 368.996L340.411 370.739Z" fill="#00E4AF"/>
<path d="M244.721 246.219C244.721 246.219 244.19 252.318 248.471 252.697C252.714 253.114 395.493 249.363 401.403 255.083C409.851 263.266 405.38 318.499 395.607 368.087C395.607 368.087 337.268 369.034 328.896 367.216L339.503 300.656L259.116 304.823L257.146 317.249C257.146 317.249 254.153 318.953 251.918 311.907C249.683 304.861 233.735 243.757 233.735 243.757L237.068 242.431L244.721 246.219ZM202.33 307.361L145.81 461.808C145.81 461.808 179.07 468.703 191.685 469.271C204.3 469.839 226.045 469.347 226.045 469.347L229.454 455.368L224.113 456.656L196.989 389.756L220.4 380.209L243.016 371.042L243.357 366.496C243.357 366.496 239.19 365.7 238.508 363.049C229.871 369.526 224.226 363.086 223.09 361.609C218.506 355.699 206.649 322.287 202.33 307.361Z" fill="#CBF5E7"/>
<path d="M186.532 350.547L186.115 351.684H203.39H218.088C217.937 351.305 217.785 350.926 217.596 350.547H203.39H186.532Z" fill="white"/>
<path d="M250.21 306.036H258.923L259.113 304.899H249.907C250.021 305.316 250.097 305.695 250.21 306.036Z" fill="white"/>
<path d="M209.452 329.144C209.301 328.765 209.187 328.386 209.035 328.008H194.754L194.337 329.144H209.452Z" fill="white"/>
<path d="M208.958 419.304H161.34L160.923 420.441H209.45L208.958 419.304Z" fill="white"/>
<path d="M218.58 442.943L218.125 441.807H203.351H158.309H153.119L152.702 442.943H158.309H203.351H218.58Z" fill="white"/>
<path d="M169.408 397.332H200.055L199.601 396.196H169.825L169.408 397.332Z" fill="white"/>
<path d="M363.67 282.359H362.799H272.411H271.54H243.886C243.999 282.738 244.075 283.117 244.189 283.496H271.578H272.449H362.875H363.746H405.796C405.796 283.117 405.796 282.738 405.796 282.359H363.67Z" fill="white"/>
<path d="M181.114 466.051H226.838L227.103 464.915H181.114H180.243H161.756C163.802 465.294 165.923 465.672 168.044 466.051H180.243H181.114Z" fill="white"/>
<path d="M340.864 259.251H294.648H249.568H237.786C237.9 259.63 237.976 260.008 238.089 260.387H249.568H294.648H340.864H385.945H404.015C403.901 260.008 403.787 259.63 403.674 259.251H385.945H340.864Z" fill="white"/>
<path d="M385.905 350.547H340.825H331.544L331.354 351.684H340.825H385.905H398.596C398.672 351.305 398.71 350.926 398.785 350.547H385.905Z" fill="white"/>
<path d="M180.243 374.792H181.114H233.847L236.65 373.656H181.114H180.243H178.046L177.629 374.792H180.243Z" fill="white"/>
<path d="M340.297 304.899H338.819L338.63 306.036H340.259H386.475H404.545C404.583 305.657 404.621 305.278 404.659 304.899H386.475H340.297Z" fill="white"/>
<path d="M402.159 328.008H335.144L334.955 329.144H402.007C402.045 328.765 402.121 328.386 402.159 328.008Z" fill="white"/>
<path d="M199.527 290.39C199.527 290.39 184.866 238.415 199.527 221.671C214.187 204.889 273.966 163.143 299.536 164.582C325.107 166.022 340.677 178.372 341.7 183.334C342.571 187.577 342.647 189.964 342.647 189.964L371.702 220.914L432.125 171.894L452.847 208.829L406.82 247.697C406.82 247.697 366.702 240.234 338.707 242.242C333.668 238.794 325.751 232.998 325.751 232.998L317.909 243.454L244.72 246.219L236.879 242.052L233.734 243.795L241.841 279.707L199.527 290.39Z" fill="#00E4AF"/>
<path d="M382.499 241.635L380.226 243.908C380.718 243.946 381.211 244.022 381.665 244.06L383.294 242.431L415.153 210.571L439.928 185.796L439.36 184.773L414.358 209.776L382.499 241.635Z" fill="white"/>
<path d="M317.948 241.635L316.016 243.529L317.682 243.491L318.63 242.544L318.743 242.393L317.948 241.635Z" fill="white"/>
<path d="M246.35 185.758C244.91 186.63 243.471 187.539 242.069 188.448L220.741 209.776L193.693 236.824C193.617 237.43 193.542 238.036 193.466 238.642L221.537 210.571L246.35 185.758Z" fill="white"/>
<path d="M222.143 242.62L286.088 178.674L286.695 178.068L300.143 164.62C299.953 164.62 299.764 164.582 299.537 164.582C299.234 164.582 298.893 164.544 298.59 164.544L285.861 177.273L285.255 177.879L220.741 242.431L194.905 268.266C194.981 268.721 195.057 269.214 195.133 269.668L222.143 242.62Z" fill="white"/>
<path d="M356.474 204.7L355.678 203.866L349.769 209.776L326.168 233.377C326.395 233.528 326.698 233.756 327.115 234.059L350.602 210.571L356.474 204.7Z" fill="white"/>
<path d="M317.947 241.635L318.743 242.393L323.516 236.028L317.947 241.635Z" fill="white"/>
<path d="M286.695 242.62L342.345 186.971C342.269 186.554 342.231 186.099 342.117 185.569L285.256 242.43L282.869 244.817L284.536 244.741L286.695 242.62Z" fill="white"/>
<path d="M421.026 235.725L431.406 226.975L451.673 206.707L451.105 205.685L421.026 235.725Z" fill="white"/>
<path d="M237.258 259.364L236.955 258.076L220.741 274.29L206.346 288.647L208.505 288.117L221.537 275.085L237.258 259.364Z" fill="white"/>
<path d="M371.513 220.686L350.412 241.787L350.299 241.9C350.829 241.9 351.36 241.9 351.89 241.9L378.029 215.761L371.74 220.875L371.513 220.686Z" fill="white"/>
<path d="M318.744 177.879L317.949 177.083L285.256 209.738L253.397 241.635L248.927 246.067L250.631 245.992L254.192 242.431L286.052 210.534L318.744 177.879Z" fill="white"/>
<path d="M325.902 170.719C325.524 170.568 325.145 170.378 324.766 170.227L317.909 177.083L318.705 177.879L325.902 170.719Z" fill="white"/>
<path d="M272.073 399.529L258.966 404.454L257.109 399.529L255.102 394.188L268.057 388.846L270.065 394.188L272.073 399.529Z" fill="#CBF5E7"/>
<path d="M497.7 159.279C496.677 157.65 495.238 156.778 493.457 156.627C490.806 156.4 487.624 157.915 484.669 159.923C490.351 153.369 496.677 144.959 496.412 139.996C496.337 138.671 495.844 137.648 494.897 136.89C493.95 136.132 492.738 135.829 491.336 136.057C486.525 136.776 479.896 143.406 474.706 149.505C479.176 142.042 483.949 132.761 483.153 128.367C482.964 127.382 482.547 126.662 481.865 126.207C481.108 125.677 480.199 125.525 479.176 125.753C473.19 126.889 463.151 140.148 459.098 145.83C460.007 141.701 460.462 137.383 459.287 134.655C458.719 133.329 457.81 132.42 456.56 132.003C450.423 129.996 443.453 145.793 439.702 154.278C438.869 156.172 438.187 157.688 437.808 158.332C436.369 160.87 395.645 195.04 372.726 214.17C366.097 207.011 339.162 178.258 338.897 177.993L338.859 178.031C338.632 177.765 338.404 177.5 338.139 177.273C334.313 173.863 324.691 168.787 312.644 165.757C303.174 163.37 289.385 161.514 277.489 166.211C264.799 171.25 243.585 181.023 225.59 192.009C201.383 206.821 188.617 220.08 187.67 231.407C186.268 248.037 192.254 274.025 198.694 296.186L139.18 460.217L138.953 460.823L139.597 460.937C139.711 460.975 141.946 461.392 145.658 462.111L127.134 512.95H239.872L240.024 512.571C240.137 512.23 243.054 504.009 228.81 493.478C224.189 490.069 218.999 486.015 214.188 482.189C214.264 482.227 214.301 482.227 214.377 482.265C218.62 483.818 222.673 485.333 225.401 485.333C226.31 485.333 227.068 485.182 227.598 484.803C228.28 484.348 228.621 483.591 228.659 482.606C228.659 481.924 228.394 481.318 227.863 480.863C226.007 479.196 220.893 479.121 216.764 479.386C218.923 478.022 220.704 476.09 221.12 474.385C221.423 473.059 220.931 472.037 219.681 471.506C216.499 470.142 212.256 477.34 210.968 479.651C205.551 475.294 200.967 471.544 198.807 469.726C204.755 470.256 210.475 470.559 215.514 470.559C219.453 470.559 223.014 470.37 225.969 469.915L226.31 469.877L226.424 469.536C228.053 464.687 229.189 459.384 229.757 456.618L333.215 416.766L333.745 416.539L304.538 346.342L286.316 353.502L278.133 330.356L277.603 330.583C277.035 330.811 276.315 331.076 275.52 331.379C275.482 330.886 275.444 330.394 275.368 329.939C274.876 325.545 268.928 322.211 263.246 319.825L266.844 304.747L334.806 302.02C333.328 308.536 323.858 350.585 319.577 365.322L319.463 365.7L319.804 365.928C322.57 367.822 330.298 368.769 340.147 369.223L336.094 414.758H448.642L448.794 414.379C448.908 414.038 451.825 405.818 437.581 395.287C431.368 390.703 421.291 384.376 412.237 378.959C416.442 380.323 420.496 381.346 423.337 381.346C424.625 381.346 425.686 381.119 426.368 380.626C427.049 380.134 427.39 379.414 427.39 378.543C427.39 377.444 426.936 376.535 426.065 375.853C423.754 374.072 418.677 374.262 414.359 374.83C417.2 372.974 419.662 370.398 420.193 368.201C420.609 366.572 419.928 365.246 418.261 364.526C414.965 363.086 408.942 372.898 407.161 375.929C401.251 372.406 396.365 369.602 394.13 368.314C401.479 367.935 406.555 367.594 407.351 367.557L407.805 367.519L407.881 367.102C407.919 366.837 412.844 341.077 415.533 313.877C419.17 277.207 417.2 255.462 409.699 249.325C409.207 248.947 408.639 248.568 407.995 248.189C409.093 247.204 410.874 245.689 413.184 243.681C423.905 234.438 446.218 215.193 465.197 197.464C497.132 167.651 499.026 161.4 497.7 159.279ZM197.519 287.928C192.027 267.85 187.556 245.992 188.769 231.445C189.678 220.61 202.596 207.314 226.159 192.918C244.077 181.97 265.215 172.197 277.906 167.196C299.158 158.786 329.616 171.136 337.382 178.031C343.632 183.599 339.844 207.579 335.45 216.102C331.586 223.641 319.16 240.158 317.569 242.317C294.158 242.999 271.807 244.287 257.942 245.083C250.858 245.499 245.782 245.764 245.176 245.727C244.759 245.689 244.304 245.575 243.888 245.423C251.767 238.794 311.546 202.162 311.546 202.162L311.129 201.328H311.167L310.599 200.343L233.925 242.923C232.826 238.302 232.144 235.422 232.106 235.347L231.008 235.612C231.045 235.801 235.781 255.765 240.857 275.654C241.084 276.487 241.274 277.321 241.501 278.154L197.519 287.928ZM325.79 233.036L337.95 241.9C331.661 241.976 325.335 242.09 319.009 242.279C320.259 240.65 322.873 237.089 325.79 233.036ZM237.448 296.413L245.592 293.61C246.691 297.663 247.638 300.997 248.471 303.762L239.683 306.452C239.796 305.694 239.872 304.937 239.872 304.141C239.872 301.262 238.963 298.61 237.448 296.413ZM216.84 313.839L206.46 317.287C205.399 314.104 204.338 310.847 203.278 307.513C203.202 307.286 203.126 307.058 203.05 306.831L212.748 303.384C212.748 303.649 212.71 303.914 212.71 304.179C212.748 307.93 214.339 311.377 216.84 313.839ZM213.885 304.141C213.885 297.285 219.453 291.716 226.31 291.716C233.167 291.716 238.736 297.285 238.736 304.141C238.736 310.998 233.167 316.567 226.31 316.567C219.453 316.567 213.885 310.998 213.885 304.141ZM236.728 295.466C234.228 292.474 230.477 290.579 226.31 290.579C219.529 290.579 213.885 295.58 212.9 302.096L202.747 305.732C201.687 302.323 200.626 298.762 199.527 295.087L242.334 281.412C243.433 285.579 244.418 289.291 245.289 292.549L236.728 295.466ZM227.03 481.659C227.333 481.924 227.447 482.189 227.447 482.53C227.447 483.326 227.106 483.629 226.878 483.818C225.098 485.03 219.567 482.985 214.68 481.166C214.301 481.015 213.885 480.863 213.506 480.749H213.544C218.052 480.295 225.136 479.954 227.03 481.659ZM218.734 472.415C218.885 472.415 219.037 472.453 219.15 472.491C219.87 472.794 220.097 473.287 219.908 474.082C219.453 475.938 216.461 478.704 213.392 479.613C212.9 479.651 212.445 479.727 212.066 479.765C214.036 476.317 216.953 472.415 218.734 472.415ZM198.997 471.355C200.929 472.946 203.884 475.37 207.369 478.173C204.944 479.007 198.656 481.166 195.247 482.757L195.739 483.78C199.489 482.037 206.876 479.537 208.43 479.007C209.187 479.613 209.945 480.219 210.74 480.863C211.953 481.81 213.165 482.833 214.453 483.818C211.46 484.917 202.406 488.402 199.868 490.334L200.55 491.243C203.126 489.235 213.582 485.333 215.476 484.651C219.681 487.985 224.113 491.394 228.053 494.311C239.872 503.062 239.304 510.071 238.963 511.699H128.687L144.484 468.324C149.788 468.93 189.754 472.832 198.997 471.355ZM225.363 468.779C202.823 471.923 147.098 461.202 140.431 459.876L199.186 297.929C200.209 301.338 201.194 304.672 202.217 307.816C207.937 326.075 213.96 342.1 217.938 351.608L210.778 354.373L220.438 379.262L196.269 388.771L224.454 458.55L228.469 456.997C227.825 459.876 226.803 464.46 225.363 468.779ZM331.245 413.622L227.75 452.11L215.362 423.509L255.252 406.159L258.586 411.614L275.747 401.613L274.194 397.105L317.077 379.49L331.245 413.622ZM254.76 391.688L266.807 387.18L271.315 399.226L259.268 403.734L254.76 391.688ZM303.856 347.782L315.41 375.55L270.595 393.961L267.488 385.664L253.32 391.006L256.578 399.719L212.028 418.016L210.513 414.682L200.55 392.711L198.883 388.998L303.856 347.782ZM275.52 332.553C276.315 332.25 276.959 331.985 277.376 331.833L285.18 353.881L221.461 378.921L212.218 355.093L218.355 352.707C220.173 357.063 221.537 359.866 222.143 360.662C224.909 364.337 228.015 366.306 231.311 366.496C231.5 366.496 231.727 366.534 231.917 366.534C235.023 366.534 237.296 364.943 238.357 364.034C239.531 365.549 240.743 366.61 241.956 366.913C242.524 367.064 243.092 367.102 243.698 367.102C249.002 367.102 255.063 361.798 256.73 360.283C257.715 361.382 258.624 362.064 259.457 362.064H259.495C263.965 361.95 270.822 358.503 271.125 356.192C271.352 354.525 271.618 351.646 271.315 348.691C275.33 347.327 275.936 338.917 275.52 332.553ZM271.163 347.517C270.784 344.903 269.913 342.365 268.208 340.546C266.579 338.842 264.344 338.046 261.579 338.198C261.579 338.122 261.541 338.046 261.541 337.97C261.958 337.819 262.639 337.554 263.776 337.137C265.367 336.531 267.451 335.697 269.572 334.902C271.315 334.22 273.019 333.576 274.459 333.008C274.8 339.713 273.853 346.229 271.163 347.517ZM274.194 330.053C274.269 330.621 274.307 331.227 274.345 331.796C269.761 333.576 263.283 336.076 261.314 336.834C261.011 335.167 260.783 333.538 260.632 332.174L259.495 332.326C259.647 333.69 261.162 345.661 263.473 347.517L264.193 346.645C263.321 345.964 262.45 342.819 261.768 339.372C264.117 339.296 266.011 339.94 267.375 341.38C271.087 345.244 270.33 353.616 269.989 356.116C269.799 357.404 263.965 360.851 259.419 361.003C258.7 361.003 256.503 359.829 251.729 349.449C249.04 343.539 246.842 337.554 246.805 337.478L245.744 337.857C246.88 341.001 251.729 353.843 255.972 359.488C254.343 361.003 247.297 367.178 242.221 365.89C236.69 364.488 230.364 343.388 230.061 341.872L229.492 341.948H228.924C228.924 342.1 232.864 356.154 237.675 363.162C236.273 364.412 234 365.587 231.386 365.435C228.432 365.246 225.628 363.427 223.052 360.018C221.385 357.821 214.112 340.168 206.801 318.385L217.824 314.748C220.135 316.605 223.09 317.741 226.31 317.741C232.523 317.741 237.789 313.536 239.38 307.778L248.774 304.899C252.335 316.756 253.245 317.173 253.737 317.4C254.419 317.703 255.518 318.12 256.919 318.65C262.753 320.734 273.587 324.749 274.194 330.053ZM425.345 376.8C425.951 377.255 426.216 377.861 426.216 378.58C426.216 379.111 426.027 379.49 425.648 379.755C423.337 381.384 415.192 378.883 409.813 377.027C410.268 376.876 410.76 376.724 411.252 376.535C416.101 375.626 422.92 374.906 425.345 376.8ZM417.465 365.549C417.579 365.549 417.692 365.587 417.806 365.625C418.943 366.117 419.359 366.875 419.094 367.973C418.45 370.549 414.472 373.883 410.949 375.398C410.002 375.588 409.169 375.739 408.563 375.891C411.366 371.155 415.533 365.549 417.465 365.549ZM394.395 369.867C396.213 370.928 399.092 372.595 402.577 374.641C400.153 375.512 394.546 377.595 391.288 379.111L391.781 380.134C395.531 378.391 402.464 375.891 403.865 375.398C405.835 376.573 407.995 377.823 410.192 379.149C407.199 380.55 398.372 384.793 395.91 386.725L396.592 387.634C399.206 385.627 409.548 380.74 411.366 379.868C420.42 385.324 430.61 391.688 436.823 396.272C448.642 405.022 448.074 412.031 447.733 413.66H337.23L340.64 375.323C345.829 374.868 384.356 371.762 394.395 369.867ZM408.942 250.272C425.572 263.948 408.184 359.26 406.82 366.496C401.517 366.837 350.413 369.981 328.896 367.216C330.449 359.829 339.427 308.46 340.602 301.755L344.503 301.603L344.466 300.467L254.76 304.028L254.798 305.164L257.374 305.051L256.086 316.983C255.328 316.68 254.684 316.453 254.267 316.264C253.623 315.809 251.085 310.922 241.918 274.972C238.925 263.266 236.084 251.636 234.228 243.984L237.107 242.393C238.167 243.34 241.69 246.371 245.062 246.749C245.744 246.825 249.532 246.598 258.018 246.143C291.771 244.249 394.471 238.377 408.942 250.272ZM412.389 242.923C409.813 245.12 407.919 246.787 406.82 247.734C396.251 242.885 369.051 241.635 339.844 241.9L333.707 237.43C335.488 232.998 346.852 202.01 343.897 184.963C352.232 193.865 367.081 209.738 371.855 214.852C369.279 216.974 366.968 218.906 364.96 220.573L365.68 221.444C367.877 219.625 408.146 186.213 427.959 168.901L452.128 207.958C436.596 222.05 420.875 235.612 412.389 242.923ZM488.533 172.651C483.116 178.712 474.971 186.819 464.402 196.707C462.394 198.601 460.348 200.495 458.265 202.389L430.004 167.12C435.043 162.688 438.414 159.582 438.831 158.824C439.248 158.104 439.892 156.665 440.763 154.657C443.831 147.687 451.067 131.321 456.219 133.026C457.166 133.329 457.81 133.973 458.265 135.034C460.575 140.451 455.84 153.71 454.363 156.778L455.386 157.271C455.802 156.4 457.204 152.952 458.34 148.899C459.174 147.687 472.584 128.101 479.403 126.813C480.161 126.662 480.767 126.776 481.259 127.116C481.676 127.42 481.941 127.874 482.093 128.556C483.419 135.867 466.94 159.544 466.75 159.771L467.697 160.415C467.849 160.188 483.153 138.405 491.525 137.155C492.586 137.004 493.495 137.193 494.215 137.761C494.897 138.292 495.238 139.049 495.276 140.034C495.579 146.247 484.252 158.938 478.418 165.037C476.486 166.855 475.198 168.295 475.047 168.484L475.88 169.28C476.069 169.09 477.395 167.802 479.214 165.908C482.926 162.385 489.025 157.422 493.344 157.763C494.783 157.877 495.882 158.597 496.715 159.885C497.132 160.491 497.132 163.029 488.533 172.651Z" fill="#231F20"/>
<path d="M316.586 159.089C324.579 159.089 331.095 152.573 331.095 144.58C331.095 143.292 330.905 142.042 330.602 140.868C333.292 139.011 345.831 129.882 341.929 125.828C337.572 121.32 328.102 128.404 328.102 128.404C328.102 128.404 333.519 121.548 327.912 121.661C320.26 121.851 313.593 129.048 313.593 129.048C317.23 124.465 310.827 124.616 307.532 126.775C294.727 135.185 299.841 145.603 303.289 150.376C305.524 155.49 310.638 159.089 316.586 159.089ZM312.608 143.86C316.51 138.784 324.844 137.534 327.534 137.004C329.011 139.163 329.92 141.777 329.92 144.58C329.92 151.967 323.935 157.953 316.548 157.953C312.191 157.953 308.327 155.869 305.903 152.649C306.509 152.119 307.266 151.399 308.1 150.604C304.349 144.959 310.297 142.08 312.608 143.86Z" fill="#231F20"/>
<path d="M595.627 193.146L576.345 184.281L601.688 154.619L595.627 193.146Z" fill="#23E0A2"/>
<path d="M521.375 251.75L486.75 223.906L545.96 185.683L521.375 251.75Z" fill="#CBF5E7"/>
<path d="M508.838 247.204C508.724 247.204 508.573 247.166 508.497 247.09L473.835 219.247C473.683 219.133 473.607 218.944 473.607 218.792C473.607 218.603 473.721 218.451 473.873 218.337L533.083 180.152C533.272 180 533.538 180.038 533.765 180.19C533.954 180.341 534.03 180.606 533.954 180.834L509.406 246.863C509.331 247.052 509.217 247.166 509.028 247.204C508.952 247.204 508.914 247.204 508.838 247.204ZM475.161 218.868L508.573 245.726L532.25 182.008L475.161 218.868Z" fill="#231F20"/>
<path d="M564.563 108.63L511.906 66.315L601.877 8.27905L564.563 108.63Z" fill="#CBF5E7"/>
<path d="M545.508 101.47C545.394 101.47 545.243 101.432 545.167 101.356L492.51 59.0416C492.359 58.928 492.283 58.7386 492.283 58.587C492.283 58.3976 492.397 58.2461 492.548 58.1325L582.519 0.096463C582.709 -0.055067 582.974 -0.0171822 583.201 0.134348C583.391 0.285878 583.466 0.551054 583.391 0.778349L546.038 101.091C545.963 101.281 545.849 101.394 545.66 101.432C545.584 101.47 545.546 101.47 545.508 101.47ZM493.836 58.6249L545.243 99.9547L581.686 1.95271L493.836 58.6249Z" fill="#231F20"/>
<path d="M98.1898 637.242L75.1572 596.291L166.227 572.046L98.1898 637.242Z" fill="#23E0A2"/>
<path d="M86.865 628.491C86.8271 628.491 86.8271 628.491 86.7892 628.491C86.5998 628.453 86.4482 628.377 86.3725 628.226L63.3399 587.237C63.2642 587.086 63.2263 586.896 63.302 586.745C63.3778 586.593 63.4915 586.479 63.6809 586.404L154.712 562.159C154.978 562.083 155.243 562.197 155.357 562.424C155.47 562.651 155.432 562.917 155.243 563.106L87.2438 628.302C87.1301 628.453 87.0165 628.491 86.865 628.491ZM64.6658 587.313L86.9786 626.976L152.856 563.826L64.6658 587.313Z" fill="#231F20"/>
<path d="M91.3353 366.193L56.6729 338.349L132.4 279.593L91.3353 366.193Z" fill="#00E4AF"/>
<path d="M77.8118 362.897C77.6981 362.897 77.5466 362.859 77.4708 362.783L42.8084 334.94C42.6568 334.826 42.5811 334.675 42.5811 334.485C42.5811 334.296 42.6568 334.144 42.8084 334.031L118.535 275.275C118.725 275.123 119.028 275.123 119.255 275.275C119.483 275.426 119.52 275.729 119.407 275.957L78.3042 362.556C78.2285 362.708 78.077 362.821 77.9254 362.859C77.8875 362.859 77.8497 362.897 77.8118 362.897ZM44.0964 334.485L77.6224 361.42L117.399 277.623L44.0964 334.485Z" fill="#231F20"/>
<path d="M517.284 487.709L486.581 479.786L478.657 510.488L509.36 518.412L517.284 487.709Z" fill="#00E4AF"/>
<path d="M495.882 527.155C495.845 527.155 495.769 527.155 495.731 527.155L458.909 517.647C458.758 517.609 458.644 517.533 458.568 517.382C458.492 517.23 458.455 517.079 458.492 516.965L468.001 480.143C468.077 479.84 468.38 479.651 468.683 479.727L505.505 489.235C505.808 489.311 505.997 489.614 505.921 489.917L496.413 526.739C496.375 526.89 496.299 527.004 496.148 527.08C496.072 527.118 495.996 527.155 495.882 527.155ZM459.78 516.662L495.504 525.867L504.709 490.144L468.986 480.939L459.78 516.662Z" fill="#231F20"/>
<path d="M220.996 6.09717L199.732 48.0273L241.663 69.291L262.926 27.3608L220.996 6.09717Z" fill="#00E4AF"/>
<path d="M244.948 100.561C244.835 100.561 244.683 100.523 244.57 100.485L194.337 74.99C193.921 74.7627 193.769 74.2702 193.959 73.8535L219.453 23.6213C219.567 23.4319 219.719 23.2804 219.946 23.2046C220.173 23.1289 220.401 23.1667 220.59 23.2425L270.822 48.7374C271.239 48.9647 271.39 49.4572 271.201 49.8739L245.706 100.106C245.592 100.295 245.441 100.447 245.214 100.523C245.138 100.561 245.024 100.561 244.948 100.561ZM195.853 73.8914L244.607 98.5908L269.307 49.836L220.552 25.1366L195.853 73.8914Z" fill="#231F20"/>
<path d="M330.904 553.673C340.298 553.673 347.913 546.058 347.913 536.664C347.913 527.27 340.298 519.655 330.904 519.655C321.51 519.655 313.895 527.27 313.895 536.664C313.895 546.058 321.51 553.673 330.904 553.673Z" fill="#23E0A2"/>
<path d="M337.041 543.824C335.185 543.824 333.291 543.521 331.472 542.877C327.154 541.399 323.669 538.331 321.661 534.202C319.653 530.11 319.388 525.451 320.865 521.132C322.343 516.814 325.411 513.328 329.54 511.321C333.632 509.313 338.291 509.048 342.61 510.525C346.928 512.002 350.414 515.071 352.421 519.2C356.551 527.648 353.027 537.914 344.542 542.043C342.117 543.255 339.579 543.824 337.041 543.824ZM337.003 510.79C334.617 510.79 332.23 511.321 330.033 512.419C326.207 514.275 323.328 517.533 321.964 521.549C320.562 525.564 320.827 529.921 322.721 533.747C324.578 537.573 327.836 540.452 331.851 541.816C335.867 543.218 340.223 542.952 344.049 541.058C347.875 539.202 350.755 535.944 352.118 531.929C353.482 527.913 353.255 523.557 351.361 519.73C349.504 515.904 346.246 513.025 342.231 511.661C340.488 511.093 338.746 510.79 337.003 510.79Z" fill="#231F20"/>
<path d="M445.194 637.356C461.304 637.356 474.363 624.296 474.363 608.186C474.363 592.076 461.304 579.017 445.194 579.017C429.084 579.017 416.024 592.076 416.024 608.186C416.024 624.296 429.084 637.356 445.194 637.356Z" fill="#CBF5E7"/>
<path d="M461.371 648.91C457.469 648.91 453.567 648.114 449.893 646.523C442.809 643.455 437.316 637.81 434.474 630.613C428.603 615.763 435.876 598.943 450.726 593.033C457.924 590.192 465.765 590.306 472.887 593.374C479.971 596.443 485.464 602.087 488.306 609.285C491.147 616.482 491.033 624.324 487.965 631.446C484.896 638.568 479.252 644.023 472.054 646.864C468.569 648.228 464.97 648.91 461.371 648.91ZM451.105 594.094C436.861 599.738 429.853 615.914 435.497 630.196C438.225 637.091 443.491 642.508 450.309 645.463C457.128 648.417 464.667 648.531 471.599 645.804C478.494 643.076 483.911 637.81 486.866 630.991C489.821 624.173 489.934 616.634 487.207 609.701C484.479 602.807 479.214 597.39 472.395 594.435C465.576 591.48 458.037 591.366 451.105 594.094Z" fill="#231F20"/>
<path d="M141.377 212.655C152.528 212.655 161.568 203.615 161.568 192.464C161.568 181.312 152.528 172.272 141.377 172.272C130.226 172.272 121.186 181.312 121.186 192.464C121.186 203.615 130.226 212.655 141.377 212.655Z" fill="#23E0A2"/>
<path d="M150.544 205.192C148.688 205.192 146.794 204.889 144.975 204.245C140.657 202.768 137.171 199.699 135.164 195.57C131.034 187.122 134.558 176.856 143.043 172.727C147.135 170.719 151.794 170.454 156.113 171.931C160.431 173.409 163.916 176.477 165.924 180.606C167.932 184.736 168.197 189.357 166.72 193.676C165.242 197.995 162.174 201.48 158.045 203.488C155.658 204.624 153.082 205.192 150.544 205.192ZM150.506 172.159C148.119 172.159 145.733 172.689 143.536 173.788C139.71 175.644 136.83 178.902 135.467 182.917C134.065 186.933 134.33 191.289 136.224 195.115C138.081 198.942 141.338 201.821 145.354 203.184C149.37 204.586 153.726 204.321 157.552 202.427C161.378 200.571 164.257 197.313 165.621 193.297C167.023 189.282 166.758 184.925 164.864 181.099C162.969 177.273 159.749 174.394 155.734 173.03C154.029 172.424 152.249 172.159 150.506 172.159Z" fill="#231F20"/>
<path d="M552.876 368.468L527.341 382.41L527.885 383.407L553.421 369.465L552.876 368.468Z" fill="#231F20"/>
<path d="M530.931 391.221L530.662 392.325L545.825 396.023L546.094 394.919L530.931 391.221Z" fill="#231F20"/>
<path d="M157.342 238.641L156.387 239.257L172.144 263.713L173.099 263.098L157.342 238.641Z" fill="#231F20"/>
<path d="M150.684 265.103L150.393 266.201L165.477 270.206L165.769 269.108L150.684 265.103Z" fill="#231F20"/>
<path d="M462.898 381.423L454.729 400.384L455.772 400.834L463.942 381.872L462.898 381.423Z" fill="#231F20"/>
<path d="M473.811 393.184L463.047 403.304L463.825 404.132L474.59 394.012L473.811 393.184Z" fill="#231F20"/>
<path d="M421.634 70.8065L420.674 71.4146L440.211 102.269L441.172 101.661L421.634 70.8065Z" fill="#231F20"/>
<path d="M448.69 72.3219L447.555 72.3694L448.638 98.2955L449.774 98.2481L448.69 72.3219Z" fill="#231F20"/>
<path d="M99.5644 31.8984L98.5576 32.4255L118.394 70.3149L119.401 69.7878L99.5644 31.8984Z" fill="#231F20"/>
<path d="M132.967 46.01H131.83V65.2922H132.967V46.01Z" fill="#231F20"/>
</svg>
