<svg width="513" height="438" viewBox="0 0 513 438" fill="none" xmlns="http://www.w3.org/2000/svg">
<path d="M370.27 386.623C369.675 385.3 368.649 382.652 367.109 379.06C367.001 378.79 366.893 378.52 366.758 378.249C365.002 374.171 362.625 369.011 359.573 363.284C359.438 363.041 359.303 362.798 359.167 362.528C356.871 358.233 354.224 353.641 351.172 348.968C351.01 348.725 350.875 348.509 350.713 348.266C347.93 344.025 344.797 339.703 341.366 335.462C341.204 335.246 341.015 335.029 340.853 334.84C337.666 330.978 334.208 327.223 330.48 323.657C330.291 323.468 330.075 323.279 329.886 323.09C326.104 319.524 322.025 316.202 317.649 313.176C317.433 313.014 317.19 312.852 316.974 312.717C312.652 309.8 308.033 307.18 303.117 305.019C302.846 304.911 302.576 304.775 302.306 304.667C297.012 302.398 291.366 300.616 285.342 299.481C285.018 299.427 284.694 299.346 284.37 299.292C279.589 298.455 274.591 298.374 269.351 298.374C267.541 298.374 265.785 298.022 264.057 297.995C263.678 297.995 263.3 297.995 262.922 297.995C254.494 297.968 247.309 297.806 241.069 297.698C240.691 297.698 240.313 297.671 239.934 297.671C230.804 297.509 223.781 297.482 217.973 298.049C217.541 298.103 217.109 298.13 216.677 298.184C205.142 299.562 198.551 303.668 189.421 314.878C186.207 318.849 183.64 326.115 181.02 333.868C180.831 334.435 180.642 335.029 180.426 335.597C178.265 341.945 176.023 348.455 173.295 353.668C173.16 353.938 172.998 354.208 172.862 354.478H273.16L298.011 426.548C298.308 426.575 298.606 426.629 298.903 426.656C304.575 427.304 310.707 427.763 317.055 427.925C317.433 427.925 317.811 427.952 318.19 427.952C322.782 428.033 327.509 427.925 332.263 427.628C335.586 427.412 338.638 426.926 341.474 426.251C341.988 426.143 342.501 426.007 343.014 425.872C360.491 421.118 368.568 408.422 370.729 398.158C370.837 397.671 370.918 397.212 370.972 396.753C371.647 392.647 371.323 389.027 370.27 386.623ZM328.751 382.896C327.914 387.164 320.999 389.595 313.003 390.972L313.273 386.866L313.354 385.624L315.002 361.826L315.083 360.583L315.137 359.935C315.245 360.043 315.353 360.151 315.434 360.259C315.623 360.448 315.812 360.637 316.002 360.826C319.54 364.473 323.349 368.849 325.915 373.063C326.05 373.306 326.212 373.549 326.347 373.792C327.914 376.521 328.887 379.168 328.887 381.491C328.887 381.977 328.859 382.436 328.751 382.896ZM170.026 390.891L160.14 364.041L160.113 363.96C159.923 363.906 159.707 363.825 159.518 363.744C159.383 363.69 159.248 363.636 159.113 363.555C157.925 362.987 156.682 361.988 155.385 360.637C155.196 360.448 155.007 360.232 154.845 360.043C152.063 356.91 149.118 352.209 146.147 346.591C146.012 346.348 145.877 346.105 145.742 345.834C143.419 341.35 141.096 336.353 138.854 331.14C138.746 330.87 138.638 330.599 138.503 330.329C136.288 325.143 134.127 319.767 132.128 314.554C132.02 314.284 131.912 313.987 131.803 313.717C129.669 308.125 127.725 302.723 126.023 297.914C125.915 297.617 125.834 297.347 125.726 297.05C122.997 289.189 120.998 283.03 120.161 280.464C120.053 280.113 119.945 279.816 119.891 279.6C119.81 279.303 119.756 279.141 119.756 279.141L92.5273 287.514C92.5273 287.514 93.4998 293.187 95.7959 303.722C95.8499 304.019 95.9309 304.343 96.012 304.667C97.1195 309.665 98.4971 315.661 100.199 322.631C100.28 322.928 100.361 323.252 100.415 323.549C101.712 328.763 103.17 334.489 104.845 340.702C104.926 340.999 105.007 341.296 105.088 341.593C106.547 347.023 108.141 352.804 109.896 358.935C109.977 359.233 110.058 359.53 110.139 359.827C111.247 363.636 112.382 367.552 113.597 371.604C114.083 373.279 114.597 374.873 115.137 376.413C115.245 376.71 115.326 376.98 115.434 377.277C117.514 383.328 119.729 388.46 122.079 392.782C122.214 393.025 122.349 393.268 122.484 393.511C125.402 398.752 128.481 402.804 131.695 405.883C131.885 406.072 132.074 406.261 132.29 406.45C136.936 410.718 141.825 413.042 146.768 414.122C147.093 414.203 147.39 414.257 147.714 414.311C155.466 415.797 163.354 414.392 170.647 412.96C171.134 412.879 171.593 412.771 172.079 412.69C172.998 412.501 173.889 412.339 174.807 412.177C175.537 412.042 176.212 411.907 176.86 411.799C177.13 411.745 177.401 411.691 177.671 411.664L170.323 391.756L170.026 390.891Z" fill="#00E4AF"/>
<path d="M170.024 390.891L169.403 391.513L146.793 414.122C147.117 414.203 147.414 414.257 147.739 414.311L170.321 391.729L170.024 390.891ZM262.92 298.022L219.106 341.837L207.247 353.695L206.437 354.506H207.571L264.054 298.022C263.676 298.022 263.298 298.022 262.92 298.022ZM359.165 362.555L356.95 364.77L357.518 365.338L359.57 363.285C359.435 363.041 359.3 362.798 359.165 362.555ZM292.093 406.91L291.445 407.558L291.742 408.422L292.39 407.774L311.947 388.217L313.298 386.866L313.379 385.624L292.093 406.91ZM350.71 348.293L325.913 373.09C326.048 373.333 326.21 373.576 326.345 373.819L351.17 348.995C351.035 348.752 350.872 348.509 350.71 348.293ZM356.95 410.8L341.472 426.278C341.985 426.17 342.499 426.035 343.012 425.9L357.518 411.394L370.7 398.212C370.808 397.726 370.889 397.266 370.943 396.807L356.95 410.8ZM366.756 378.277L356.95 388.082L317.08 427.952C317.458 427.952 317.836 427.979 318.214 427.979L367.107 379.087C366.999 378.817 366.864 378.547 366.756 378.277ZM316.945 312.717L288.203 341.486L288.771 342.053L317.62 313.203C317.404 313.041 317.188 312.879 316.945 312.717ZM310.921 364.77L288.203 387.488L288.771 388.055L311.488 365.338L310.921 364.77ZM284.368 299.292L264.919 318.741L242.201 341.459L242.769 342.026L265.486 319.308L285.34 299.454C285.016 299.427 284.692 299.346 284.368 299.292ZM288.203 341.486L274.319 355.37L273.671 356.018L273.968 356.856L274.616 356.207L288.798 342.026L288.203 341.486ZM288.203 387.488L286.124 389.568L285.475 390.216L285.772 391.053L286.421 390.405L288.798 388.028L288.203 387.488ZM242.174 341.486L229.965 353.695L229.154 354.506H230.289L231.099 353.695L242.742 342.053L242.174 341.486ZM131.828 313.771L104.87 340.729C104.951 341.026 105.032 341.323 105.113 341.621L132.152 314.581C132.044 314.311 131.936 314.041 131.828 313.771ZM239.932 297.698L196.172 341.459L183.962 353.668L183.152 354.479H184.287L241.067 297.725C240.689 297.725 240.31 297.725 239.932 297.698ZM163.757 373.874L163.136 374.495L150.143 387.488L131.747 405.883C131.936 406.072 132.125 406.261 132.342 406.451L163.46 375.332L164.081 374.711L163.757 373.874ZM329.884 323.117L310.948 342.053L280.316 372.685L279.668 373.333L279.965 374.198L311.947 342.215L330.478 323.684C330.262 323.468 330.073 323.279 329.884 323.117ZM176.156 407.504L175.534 408.125L172.887 410.773L173.455 411.34L175.859 408.936L176.48 408.314L176.156 407.504ZM172.86 410.8L170.672 412.988C171.158 412.907 171.618 412.798 172.104 412.717L173.427 411.394L172.86 410.8ZM119.943 279.627L95.8477 303.722C95.9017 304.019 95.9827 304.343 96.0638 304.668L104.708 295.997L120.24 280.464C120.105 280.14 119.997 279.843 119.943 279.627ZM145.74 345.862L126.831 364.77L127.398 365.338L146.118 346.618C146.01 346.375 145.875 346.132 145.74 345.862ZM126.831 364.77L115.162 376.44C115.27 376.737 115.351 377.007 115.459 377.304L127.398 365.365L126.831 364.77ZM302.277 304.668L253.249 353.695L252.439 354.506H253.574L254.384 353.695L265.459 342.62L303.06 305.019C302.817 304.911 302.547 304.776 302.277 304.668ZM154.843 360.07L122.131 392.782C122.266 393.025 122.401 393.268 122.536 393.512L155.383 360.664C155.194 360.475 155.032 360.286 154.843 360.07ZM216.701 298.212L181.045 333.868C180.856 334.435 180.667 335.03 180.451 335.597L217.998 298.049C217.539 298.13 217.107 298.158 216.701 298.212ZM138.527 330.383L109.921 358.963C110.002 359.26 110.083 359.557 110.164 359.854L138.852 331.167C138.743 330.924 138.635 330.654 138.527 330.383ZM125.777 297.104L100.224 322.658C100.305 322.955 100.386 323.279 100.44 323.576L126.048 297.968C125.967 297.671 125.859 297.374 125.777 297.104ZM356.95 364.77L297.928 423.82L297.307 424.441L297.604 425.305L298.252 424.657L311.542 411.367L357.572 365.338L356.95 364.77ZM340.851 334.867L334.233 341.486L315.459 360.259L315.108 360.61L310.948 364.77L311.515 365.338L315.027 361.826L316.026 360.826L341.364 335.489C341.202 335.273 341.04 335.057 340.851 334.867Z" fill="white"/>
<path d="M298.037 425.386H332.262V436.515H301.873L298.037 425.386Z" fill="#CBF5E7"/>
<path d="M296.037 436.515L269.241 359.07L157.814 358.962L186.421 436.515H301.872H296.037Z" fill="#CBF5E7"/>
<path d="M156.031 354.101L273.157 354.506C273.509 354.506 301.872 436.543 301.872 436.543L273.455 354.101H156.031Z" fill="#CBF5E7"/>
<path d="M356.709 73.5757H355.898V88.1894H356.709V73.5757Z" fill="#231F20"/>
<path d="M381.45 69.1698L366.689 89.8311L367.349 90.3021L382.109 69.6409L381.45 69.1698Z" fill="#231F20"/>
<path d="M455.172 236.979L408.863 229.265L406.924 240.909L453.233 248.623L455.172 236.979Z" fill="#23E0A2"/>
<path d="M490.932 230.248C492.871 230.248 494.443 228.676 494.443 226.736C494.443 224.797 492.871 223.225 490.932 223.225C488.992 223.225 487.42 224.797 487.42 226.736C487.42 228.676 488.992 230.248 490.932 230.248Z" fill="#23E0A2"/>
<path d="M479.668 228.411C481.607 228.411 483.179 226.839 483.179 224.899C483.179 222.96 481.607 221.388 479.668 221.388C477.728 221.388 476.156 222.96 476.156 224.899C476.156 226.839 477.728 228.411 479.668 228.411Z" fill="#CBF5E7"/>
<path d="M502.225 232.085C504.164 232.085 505.736 230.513 505.736 228.573C505.736 226.634 504.164 225.062 502.225 225.062C500.285 225.062 498.713 226.634 498.713 228.573C498.713 230.513 500.285 232.085 502.225 232.085Z" fill="#00E4AF"/>
<path d="M406.234 249.84L406.113 250.642L494.505 263.951L494.626 263.15L406.234 249.84Z" fill="#CBF5E7"/>
<path d="M403.435 263.147L403.314 263.949L491.707 277.258L491.827 276.457L403.435 263.147Z" fill="#CBF5E7"/>
<path d="M353.117 105.337L311.465 126.999L315.079 133.949L356.731 112.287L353.117 105.337Z" fill="#23E0A2"/>
<path d="M360.071 120.563L319.533 141.791L319.909 142.509L360.447 121.281L360.071 120.563Z" fill="#CBF5E7"/>
<path d="M366.08 133.382L338.204 147.995L337.501 148.373C337.393 148.157 337.258 147.914 337.123 147.671L337.825 147.293L365.702 132.679L366.08 133.382Z" fill="#CBF5E7"/>
<path d="M372.179 143.306L331.641 164.534L332.017 165.252L372.555 144.024L372.179 143.306Z" fill="#CBF5E7"/>
<path d="M378.634 153.931L338.096 175.158L338.472 175.876L379.01 154.648L378.634 153.931Z" fill="#CBF5E7"/>
<path d="M385.114 164.541L344.576 185.769L344.952 186.487L385.49 165.259L385.114 164.541Z" fill="#CBF5E7"/>
<path d="M471.888 191.161C482.913 191.161 491.85 182.223 491.85 171.199C491.85 160.174 482.913 151.236 471.888 151.236C460.863 151.236 451.926 160.174 451.926 171.199C451.926 182.223 460.863 191.161 471.888 191.161Z" fill="#CBF5E7"/>
<path d="M466.056 195.077C454.845 195.077 445.742 185.974 445.742 174.764C445.742 163.554 454.845 154.451 466.056 154.451C477.266 154.451 486.369 163.554 486.369 174.764C486.369 185.947 477.266 195.077 466.056 195.077ZM466.056 155.153C455.251 155.153 446.445 163.959 446.445 174.764C446.445 185.569 455.251 194.375 466.056 194.375C476.861 194.375 485.667 185.569 485.667 174.764C485.667 163.959 476.861 155.153 466.056 155.153Z" fill="#231F20"/>
<path d="M326.663 24.4419L281.074 0L256.632 45.5887L302.221 70.0306L326.663 24.4419Z" fill="#23E0A2"/>
<path d="M246.929 47.0767C246.821 46.9686 246.794 46.8065 246.875 46.6715L271.322 1.07441C271.403 0.885322 271.646 0.831297 271.808 0.939347L317.405 25.3856C317.594 25.4667 317.648 25.7098 317.54 25.8719L293.094 71.4689C293.013 71.658 292.769 71.712 292.607 71.604L247.01 47.1577C247.01 47.1307 246.956 47.1037 246.929 47.0767ZM271.808 1.72271L247.686 46.6715L292.661 70.7666L316.757 25.7908L271.808 1.72271Z" fill="#231F20"/>
<path d="M261.137 290.433C263.271 291.945 266.107 292.756 269.025 292.756C270.159 292.756 271.294 292.648 272.401 292.378C275.643 291.648 278.398 289.865 280.289 287.299C280.964 286.759 281.64 286.111 282.288 285.354C293.552 272.172 283.152 255.154 279.722 255.046C276.318 254.938 275.994 258.666 275.994 258.666C275.994 258.666 273.023 250.265 267.377 250.265C258.436 250.265 261.245 257.721 261.326 257.91C261.11 257.721 251.061 248.293 245.065 253.02C235.826 260.314 255.167 273.955 256.761 275.063C256.572 275.657 256.41 276.305 256.275 276.953C255.113 282.707 256.788 287.353 261.137 290.433ZM257.085 277.143C257.166 276.737 257.274 276.332 257.382 275.927C258.193 272.956 259.516 270.579 259.949 269.849C272.59 271.794 279.614 274.576 281.478 278.385C282.423 280.33 282.099 282.68 280.451 285.57C279.722 286.867 278.857 287.894 277.939 288.704C276.048 290.379 273.941 291.189 272.239 291.567C268.485 292.405 264.406 291.702 261.623 289.757C257.49 286.867 255.978 282.626 257.085 277.143Z" fill="#231F20"/>
<path d="M512.029 223.036L401.197 204.587C401.008 204.56 400.819 204.695 400.792 204.884L386.232 292.269C386.205 292.35 386.232 292.458 386.286 292.539C386.34 292.62 386.421 292.674 386.529 292.674L413.353 297.131C413.92 301.372 415.19 305.613 417.621 308.99C420.133 312.447 423.645 314.662 428.075 315.635C428.21 320.146 429.344 324.711 431.478 329.276C433.828 334.274 436.935 338.541 439.987 342.404C442.472 345.565 445.39 355.91 441.824 363.528C438.745 370.146 431.505 373.712 420.322 374.117C407.086 374.576 402.17 361.745 395.66 340.513C389.609 320.794 382.748 298.455 361.192 294.673C350.117 292.728 338.879 294.916 328.669 300.967C325.373 302.912 322.699 304.992 320.673 306.721C305.222 298.509 279.776 298.05 239.933 297.347C235.881 297.266 231.64 297.185 227.291 297.104C223.401 290.108 212.893 270.794 203.52 248.455C188.258 212.096 182.801 184.435 187.745 168.444C189.771 161.907 193.444 157.45 198.982 154.803C208.382 150.319 216.891 151.21 224.266 157.45C218.863 163.96 214.838 172.523 212.758 181.869C210.543 191.972 211.056 201.669 214.19 208.449C217.593 215.77 223.833 219.606 231.748 219.254C238.393 218.957 243.471 214.824 246.092 207.585C248.766 200.157 248.685 189.811 245.875 179.195C243.687 170.956 240.122 163.555 235.611 157.693C240.5 153.992 247.307 151.534 255.951 154.749C261.354 156.747 262.434 163.149 263.569 173.441C264.325 180.329 265.108 187.461 268.431 193.268C272.429 200.265 279.398 203.911 289.231 204.073C293.039 204.127 297.577 201.669 303.466 196.321C307.086 193.025 310.273 189.487 312.407 187.028C313.218 187.461 314.082 187.758 314.973 187.92C315.676 188.055 316.351 188.136 317.026 188.136C320.511 188.136 323.563 186.461 324.914 185.57L343.039 217.688C343.12 217.823 343.255 217.904 343.391 217.904C343.445 217.904 343.526 217.877 343.58 217.85L403.628 185.462C403.763 185.408 403.844 185.273 403.844 185.138L404.277 176.494V176.44C404.277 176.386 404.277 176.359 404.25 176.305C404.25 176.278 404.223 176.278 404.223 176.25C404.223 176.25 404.223 176.223 404.196 176.223L357.842 94.3486C357.734 94.1596 357.491 94.0785 357.302 94.1866L355.006 95.3751L354.979 95.4021L344.309 100.859L298.388 124.414C298.307 124.468 298.226 124.549 298.199 124.63L295.146 132.679C295.092 132.787 295.119 132.922 295.173 133.031L312.083 162.987C310.408 165.364 309.247 167.498 308.463 169.389C305.492 176.332 306.627 180.87 306.681 181.059C306.681 181.086 306.708 181.113 306.708 181.14L306.735 181.167C304.385 183.976 301.197 187.461 297.983 190.378C291.797 195.997 289.42 196.024 289.339 196.024C274.887 195.781 273.185 186.974 271.618 172.604C270.511 162.528 269.268 151.075 258.787 147.185C248.523 143.376 238.528 145.024 230.073 151.777C225.481 147.752 220.376 145.24 214.919 144.322C208.679 143.295 202.169 144.376 195.524 147.536C187.934 151.156 182.72 157.423 180.019 166.121C174.427 184.219 179.857 213.042 196.118 251.75C204.303 271.226 213.325 288.487 218.215 297.456C207.005 298.671 198.252 303.29 191.58 311.502C184.584 320.092 180.992 331.221 177.804 341.027C176.291 345.7 174.86 350.103 173.212 353.777H156.086C155.951 353.777 155.843 353.831 155.762 353.939C155.681 354.047 155.681 354.182 155.708 354.317L158.652 362.339C156.032 360.476 153.115 356.991 149.954 351.886C145.308 344.376 140.068 333.328 134.422 319.011C128.02 302.831 122.05 284.922 117.539 270.713C122.969 267.958 128.02 264.311 132.45 259.881C143.498 248.833 149.576 234.165 149.576 218.552C149.576 202.939 143.498 188.271 132.45 177.223C121.402 166.175 106.734 160.097 91.121 160.097C75.5078 160.097 60.84 166.175 49.7919 177.223C38.7438 188.271 32.666 202.939 32.666 218.552C32.666 234.165 38.7438 248.833 49.7919 259.881C58.544 268.633 69.5651 274.252 81.5316 276.224C83.9357 286.921 87.4743 301.859 92.4176 322.874L95.0648 334.057C103.358 369.336 112.731 393.026 123.698 406.505C133.828 418.958 144.255 421.308 153.223 422.55C162.758 423.874 172.348 420.659 179.02 417.499L185.908 436.219H34.719V437.029H473.645V436.219H332.64V428.115C335.719 427.791 338.663 427.332 341.5 426.764C355.087 423.928 365.487 417.742 374.212 407.261C377.534 403.29 378.777 397.726 377.885 390.73C375.833 374.333 362.677 353.912 355.033 343.188C344.957 329.06 334.26 317.364 327.561 311.583C329.074 310.394 330.884 309.098 332.991 307.882C341.554 302.858 350.576 301.129 359.733 302.75C376.4 305.667 382.207 324.63 387.853 342.972C390.905 352.912 393.796 362.285 398.334 369.552C403.709 378.142 410.652 382.302 419.512 382.302C419.863 382.302 420.187 382.302 420.538 382.275C438.583 381.626 446.038 373.631 449.117 367.013C454.466 355.478 449.928 342.08 446.308 337.461C441.554 331.41 436.611 324.36 436.151 316.094C441.149 315.581 445.255 313.609 448.442 310.205C450.198 308.315 451.575 306.127 452.629 303.749L497.335 311.205C497.362 311.205 497.389 311.205 497.389 311.205C497.47 311.205 497.524 311.178 497.605 311.151C497.686 311.097 497.74 311.016 497.74 310.908L512.3 223.522C512.381 223.252 512.246 223.063 512.029 223.036ZM316.918 171.496L321.132 178.952C320.079 178.601 318.593 177.79 317.459 176.007C316.594 174.684 316.486 173.144 316.918 171.496ZM357.302 95.024L403.25 176.223L345.93 207.477L321.537 163.825C327.912 156.423 338.285 149.319 338.447 149.211C338.609 149.103 338.663 148.86 338.582 148.671C338.582 148.671 338.42 148.401 338.204 147.995C338.096 147.779 337.961 147.536 337.826 147.293C337.178 146.105 336.259 144.43 335.8 143.484C335.746 143.376 335.665 143.295 335.557 143.268C335.449 143.241 335.341 143.241 335.233 143.295C327.345 147.86 321.645 152.371 317.513 156.531L299.684 124.603L357.302 95.024ZM309.22 169.524C309.949 167.796 311.003 165.824 312.515 163.663C312.596 163.555 312.677 163.42 312.758 163.285C312.839 163.149 312.92 163.041 313.029 162.933C314.19 161.313 315.595 159.611 317.296 157.855C317.405 157.747 317.486 157.639 317.594 157.558C317.702 157.45 317.783 157.342 317.891 157.261C321.916 153.182 327.507 148.725 335.233 144.214C335.746 145.186 336.502 146.591 337.07 147.644C337.205 147.914 337.34 148.158 337.448 148.347C337.529 148.509 337.61 148.617 337.664 148.725C335.827 149.994 326.94 156.288 321.105 163.041C320.997 163.149 320.916 163.257 320.835 163.366C320.754 163.474 320.646 163.582 320.565 163.69C318.944 165.662 317.594 167.634 316.756 169.551C316.675 169.713 316.621 169.876 316.567 170.038C316.513 170.2 316.432 170.362 316.378 170.551C315.649 172.712 315.649 174.738 316.756 176.44C318.377 178.925 320.484 179.708 321.673 179.951L324.428 184.813C322.915 185.786 319.079 187.893 315.054 187.083C314.298 186.92 313.569 186.677 312.866 186.326C310.759 185.3 308.95 183.409 307.41 180.681C307.41 180.627 307.383 180.491 307.329 180.275C307.167 179.033 306.843 175.035 309.22 169.524ZM238.447 204.803C236.259 210.881 232.585 211.07 231.37 211.097C226.751 211.313 223.536 209.314 221.51 204.992C216.648 194.484 220.673 175.143 229.776 163.447C238.852 175.764 242.121 194.619 238.447 204.803ZM172.807 354.506H173.698H273.158L273.671 356.019L273.968 356.856L279.641 373.334L279.938 374.198L285.476 390.243L285.773 391.081L291.446 407.558L291.743 408.423L297.28 424.468L297.577 425.333L297.631 425.522V425.549L301.278 436.165H186.718L179.695 417.121L179.398 416.337L177.696 411.718L176.48 408.423L176.156 407.585L170.349 391.81L170.051 390.973L164.082 374.792L163.785 373.955L160.165 364.149L159.76 363.042L156.653 354.587H172.807V354.506ZM299.441 428.196L299.171 427.386L298.928 426.683L298.604 425.792H331.856V436.138H302.169L299.441 428.196ZM33.4224 218.471C33.4224 186.704 59.2733 160.826 91.067 160.826C122.834 160.826 148.712 186.677 148.712 218.471C148.712 240.837 135.908 260.259 117.242 269.822C114.73 261.934 112.704 255.208 111.326 250.67C110.246 247.077 109.517 244.727 109.219 243.863C108.868 242.863 108.436 241.54 107.977 240.027C105.519 232.274 101.818 220.551 95.9562 217.742C94.3625 216.985 92.7148 216.931 91.04 217.607C87.0691 219.173 89.4733 226.413 92.0394 234.084C92.9038 236.704 93.7952 239.379 94.3895 241.756C91.7423 240.972 89.6623 241.134 88.2307 242.215C86.6369 243.404 86.2858 245.402 86.2047 246.456C84.665 245.727 80.4781 244.133 78.182 246.915C76.2371 249.292 76.0751 251.939 81.3155 275.278C54.1409 270.605 33.4224 246.915 33.4224 218.471ZM83.6656 257.828C83.7466 258.666 84.1518 259.368 84.8811 259.962C85.8806 260.8 87.4743 261.34 89.3112 261.664C89.6894 265.986 89.7164 271.686 87.5824 272.361C86.9071 272.577 86.2588 272.469 85.5835 272.064C80.5321 268.876 77.8309 249.697 77.8039 249.508C77.9659 248.563 78.2901 247.969 78.7493 247.428C80.9373 244.781 85.4754 246.996 86.2318 247.401C86.4208 248.32 86.853 250.319 87.4203 252.777C86.3668 253.29 85.4484 253.884 84.8001 254.614C83.9627 255.559 83.5845 256.64 83.6656 257.828ZM97.9552 262.204C98.3604 265.716 98.3063 268.957 97.1718 270.254C96.7666 270.686 96.2804 270.848 95.6051 270.74C94.0924 270.497 92.3906 266.769 90.8239 261.907C92.6337 262.15 94.6056 262.231 96.5505 262.231C97.0097 262.231 97.496 262.231 97.9552 262.204ZM85.1513 272.793C85.7185 273.171 86.3128 273.333 86.9071 273.333C87.2312 273.333 87.5284 273.279 87.8525 273.171C90.3647 272.361 90.5537 267.175 90.2836 263.042C93.0119 271.145 94.7947 271.442 95.416 271.551C95.6051 271.578 95.7672 271.605 95.9562 271.605C96.6856 271.605 97.2799 271.334 97.7661 270.794C99.1167 269.281 99.1707 265.77 98.7926 262.177C102.088 262.069 104.951 261.772 106.032 261.664L105.924 260.8C105.222 260.881 102.223 261.205 98.6845 261.313C98.3874 261.313 98.1173 261.34 97.8201 261.34C95.389 261.394 92.7688 261.313 90.4997 261.016C90.3106 260.989 90.1486 260.962 89.9595 260.935C89.9055 260.935 89.8784 260.935 89.8244 260.908C89.6083 260.881 89.3922 260.827 89.2031 260.8C87.6094 260.475 86.2588 260.016 85.3944 259.314C84.8271 258.855 84.53 258.341 84.503 257.747C84.4219 256.802 84.7191 255.964 85.4214 255.181C85.9616 254.587 86.718 254.073 87.6094 253.614C87.8525 253.479 88.1226 253.371 88.3927 253.263C94.2545 250.778 104.573 250.778 104.681 250.778V249.914C104.384 249.914 100.791 249.914 96.6586 250.427L95.416 246.186L94.6056 246.429L95.7942 250.535C93.174 250.913 90.3917 251.48 88.1767 252.426C87.7174 250.427 87.2852 248.482 86.9341 246.699C86.9611 245.862 87.2312 243.944 88.6359 242.863C89.9595 241.864 92.0394 241.81 94.7407 242.755C94.8757 242.809 95.0378 242.782 95.1459 242.674C95.2539 242.566 95.308 242.431 95.2539 242.269C94.6597 239.676 93.6602 236.704 92.7147 233.814C90.3917 226.845 87.9876 219.606 91.2561 218.336C92.7418 217.769 94.1194 217.796 95.5241 218.471C101.089 221.118 104.87 233.112 107.112 240.27C107.599 241.783 108.004 243.106 108.382 244.133C108.679 244.97 109.408 247.347 110.489 250.913C111.867 255.478 113.92 262.231 116.459 270.173C108.787 273.955 100.143 276.089 91.04 276.089C88.0146 276.089 85.0162 275.846 82.1259 275.386C80.208 266.85 78.9924 261.097 78.3441 257.099C79.6677 263.096 81.9098 270.74 85.1513 272.793ZM91.067 276.899C100.116 276.899 108.841 274.846 116.756 270.983C117.458 273.225 118.215 275.575 118.998 277.98L83.8547 282.896C83.3144 280.519 82.8012 278.304 82.342 276.251C85.1783 276.683 88.0956 276.899 91.067 276.899ZM153.25 421.659C133.206 418.904 113.73 410.098 95.7672 333.787L93.1199 322.604C90.0135 309.422 87.4743 298.617 85.4214 289.757L119.403 279.303C123.482 291.837 128.425 306.099 133.612 319.228C139.284 333.571 144.525 344.673 149.198 352.21C152.818 358.044 156.086 361.799 159.057 363.528L159.084 363.582L163.109 374.495L163.433 375.333L169.403 391.513L169.7 392.35L175.508 408.126L175.805 408.963L176.832 411.772L178.614 416.608C172.645 419.417 165.216 421.929 157.626 421.929C156.194 421.956 154.708 421.848 153.25 421.659ZM377.129 390.703C377.966 397.456 376.805 402.831 373.617 406.613C362.596 419.849 349.252 425.333 332.667 427.169V425.36C332.667 425.144 332.477 424.954 332.261 424.954H298.307L298.199 424.63L297.902 423.766L292.364 407.72L292.067 406.856L287.313 393.08C287.718 393.08 288.312 393.08 289.068 393.08C297.766 393.08 327.264 392.377 329.128 382.896C331.262 372.118 308.166 352.804 307.194 351.967L306.681 352.588C306.762 352.669 310.435 355.721 314.73 360.016L312.623 390.541C301.818 392.323 289.095 392.242 287.042 392.215L286.394 390.324L286.097 389.46L280.559 373.415L280.262 372.55L274.59 356.073L274.293 355.208L273.806 353.804C273.752 353.641 273.59 353.533 273.428 353.533H174.022C175.643 349.887 177.021 345.592 178.479 341.027C184.341 322.928 191.499 300.751 218.539 297.969C220.781 297.726 223.158 297.645 225.697 297.699C226.372 297.699 227.021 297.726 227.696 297.726C231.91 297.807 235.962 297.888 239.879 297.942C279.371 298.644 304.682 299.103 319.998 307.072C321.591 307.909 323.05 308.801 324.428 309.8C325.211 310.367 326.049 311.043 326.967 311.799C342.229 324.9 373.915 365.149 377.129 390.703ZM328.372 382.815C327.588 386.813 321.078 389.136 313.461 390.487L315.487 360.881C321.997 367.526 329.56 376.764 328.372 382.815ZM447.902 309.557C444.876 312.799 440.933 314.689 436.151 315.203C436.124 314.149 436.178 313.096 436.313 311.988L428.264 310.989C428.102 312.231 428.021 313.501 428.048 314.77C423.888 313.825 420.592 311.718 418.242 308.504C415.946 305.343 414.731 301.399 414.163 297.266C414.136 297.023 414.109 296.78 414.055 296.51C412.867 286.569 415.352 276.008 415.838 274.009L423.347 274.792C422.942 277.277 421.105 289.433 423.753 298.104C423.834 298.374 423.915 298.617 423.996 298.887C424.563 300.535 425.292 302.048 426.265 303.317C427.994 305.586 430.29 306.856 433.099 307.099C436.07 307.369 438.691 306.478 440.825 304.452C441.581 303.749 442.256 302.912 442.85 302.021C442.986 301.805 443.148 301.588 443.256 301.345C447.713 293.971 447.929 281.95 447.929 279.492L455.114 279.627C455.303 281.788 456.114 293.431 452.116 302.831C452.008 303.047 451.927 303.29 451.819 303.506C450.846 305.748 449.55 307.801 447.902 309.557ZM424.941 299.049L442.013 301.886C441.5 302.615 440.933 303.29 440.311 303.884C438.339 305.721 435.935 306.532 433.207 306.316C430.641 306.1 428.534 304.911 426.967 302.858C426.103 301.75 425.454 300.481 424.941 299.049ZM497.146 310.34L452.98 302.993C457.383 292.458 455.952 279.357 455.924 279.195C455.897 278.979 455.735 278.844 455.519 278.844L447.551 278.709C447.443 278.709 447.335 278.763 447.254 278.817C447.172 278.898 447.118 279.006 447.145 279.114C447.145 279.276 447.362 293.404 442.418 301.237L424.671 298.266C421.673 288.893 424.212 274.684 424.239 274.522C424.266 274.414 424.239 274.306 424.158 274.198C424.104 274.117 423.996 274.036 423.888 274.036L415.595 273.171C415.406 273.144 415.217 273.279 415.163 273.468C415.136 273.522 413.569 279.384 413.056 286.624C412.867 289.541 412.813 292.944 413.218 296.375L386.962 291.999L399.063 219.416L509.409 236.488L497.146 310.34ZM509.544 235.786L399.198 218.714L401.413 205.343L511.543 223.684L509.544 235.786Z" fill="#231F20"/>
<path d="M287.032 235.387L284.984 247.697L285.704 247.817L287.752 235.507L287.032 235.387Z" fill="#231F20"/>
<path d="M295.272 247.462L290.146 251.562L290.602 252.132L295.728 248.032L295.272 247.462Z" fill="#231F20"/>
<path d="M92.1832 198.817L91.3867 214.79L92.1961 214.83L92.9926 198.858L92.1832 198.817Z" fill="#231F20"/>
<path d="M77.5756 211.015L77.0762 211.653L85.0108 217.863L85.5102 217.225L77.5756 211.015Z" fill="#231F20"/>
<path d="M91.0674 297.86C69.8626 297.86 49.9274 289.595 34.9355 274.603C19.9436 259.611 11.6777 239.676 11.6777 218.471C11.6777 197.266 19.9436 177.331 34.9355 162.339C49.9274 147.347 69.8626 139.081 91.0674 139.081C112.272 139.081 132.207 147.347 147.199 162.339C162.191 177.331 170.457 197.266 170.457 218.471C170.457 239.676 162.191 259.611 147.199 274.603C132.207 289.595 112.272 297.86 91.0674 297.86ZM91.0674 144.484C50.2786 144.484 17.0802 177.682 17.0802 218.471C17.0802 259.26 50.2786 292.458 91.0674 292.458C131.856 292.458 165.055 259.26 165.055 218.471C165.055 177.682 131.856 144.484 91.0674 144.484Z" fill="#CBF5E7"/>
<path d="M91.0671 258.071C69.241 258.071 51.4668 240.297 51.4668 218.471C51.4668 196.645 69.241 178.871 91.0671 178.871C112.893 178.871 130.667 196.645 130.667 218.471C130.667 240.297 112.893 258.071 91.0671 258.071ZM91.0671 181.572C70.7267 181.572 54.168 198.13 54.168 218.471C54.168 238.811 70.7267 255.37 91.0671 255.37C111.407 255.37 127.966 238.811 127.966 218.471C127.966 198.13 111.407 181.572 91.0671 181.572Z" fill="#23E0A2"/>
<path d="M227.049 403.453C231.539 403.453 235.179 399.813 235.179 395.322C235.179 390.832 231.539 387.191 227.049 387.191C222.558 387.191 218.918 390.832 218.918 395.322C218.918 399.813 222.558 403.453 227.049 403.453Z" fill="white"/>
<path d="M102.303 113.609C100.385 90.675 90.5255 85.4886 82.6109 85.2185C81.5034 85.1645 80.4229 85.2185 79.3694 85.3535C78.2349 90.675 74.183 94.3757 72.5622 95.6453C68.6725 98.7517 64.2694 100.075 62.1084 98.8057C61.3251 98.3465 60.4336 97.3201 60.7848 95.1051C61.0549 93.3492 64.0263 90.5399 67.9701 88.3249C70.1311 87.1093 74.0479 85.2455 78.6401 84.5972C78.9372 82.7874 78.8562 80.7884 78.2079 78.6274C76.8032 74.0893 74.129 71.0639 70.3202 69.6593C58.7319 65.3643 39.8771 77.0877 39.6881 77.2228L39.2559 76.5475C40.0392 76.0613 58.5968 64.4999 70.5903 68.9029C74.6422 70.4156 77.4785 73.6031 78.9642 78.3843C79.6395 80.5723 79.7476 82.6253 79.4774 84.4891C80.4769 84.3811 81.5304 84.3541 82.5839 84.3811C90.8497 84.6782 101.114 89.9997 103.059 113.528L102.303 113.609ZM78.505 85.4346C74.156 86.0829 70.4823 87.8387 68.4023 89.0272C64.2694 91.3773 61.8113 93.9705 61.5952 95.2401C61.3791 96.6448 61.6762 97.6172 62.5136 98.1034C64.3775 99.1839 68.4563 97.8603 72.049 94.997C73.5617 93.8084 77.3705 90.3779 78.505 85.4346Z" fill="#231F20"/>
<path d="M254.572 125.791C254.329 125.332 248.332 114.311 251.25 108.314C252.222 106.342 254.005 105.127 256.625 104.722C257.706 104.56 258.759 104.614 259.732 104.857C259.705 104.073 259.732 103.29 259.867 102.507C260.569 98.5357 263.973 93.9706 276.128 94.7L276.074 95.5103C266.917 94.9431 261.568 97.4282 260.65 102.642C260.515 103.452 260.461 104.262 260.515 105.1C263.108 106.045 265.188 108.233 266.404 110.286C267.7 112.501 268.051 114.554 267.295 115.5C266.971 115.905 266.35 116.283 265.107 115.932C263.486 115.446 260.272 110.61 259.759 105.694C258.813 105.424 257.787 105.316 256.706 105.505C254.383 105.883 252.789 106.937 251.952 108.638C249.197 114.284 255.194 125.251 255.248 125.386L254.572 125.791ZM260.65 106.018C261.244 110.556 264.189 114.824 265.404 115.175C266.053 115.364 266.485 115.31 266.728 115.013C267.187 114.446 266.998 112.771 265.782 110.691C264.675 108.881 262.865 106.937 260.65 106.018Z" fill="#231F20"/>
<path d="M446.392 90.1713L460.145 71.2153L441.189 57.4632L427.436 76.4192L446.392 90.1713Z" fill="#00E4AF"/>
<path d="M439.796 92.3509C439.715 92.3509 439.634 92.3239 439.553 92.2699L420.618 78.5205C420.536 78.4665 420.482 78.3584 420.455 78.2504C420.428 78.1423 420.455 78.0343 420.536 77.9533L434.286 59.0175C434.421 58.8284 434.664 58.8014 434.853 58.9365L453.789 72.6858C453.87 72.7398 453.924 72.8479 453.951 72.9559C453.978 73.064 453.951 73.172 453.87 73.2531L440.121 92.1888C440.04 92.2969 439.931 92.3509 439.796 92.3509ZM421.428 78.1153L439.715 91.3784L452.978 73.091L434.691 59.8279L421.428 78.1153Z" fill="#231F20"/>
<path d="M175.404 93.8136L182.701 71.5601L160.448 64.2624L153.15 86.5159L175.404 93.8136Z" fill="#00E4AF"/>
<path d="M169.644 97.9142C169.59 97.9142 169.563 97.9142 169.509 97.8872L147.278 90.5938C147.062 90.5128 146.954 90.2967 147.008 90.0806L154.301 67.8493C154.382 67.6332 154.598 67.5252 154.815 67.5792L177.046 74.8726C177.262 74.9536 177.37 75.1697 177.316 75.3858L170.023 97.6171C169.996 97.8062 169.833 97.9142 169.644 97.9142ZM147.926 89.9455L169.401 96.9958L176.452 75.5209L154.977 68.4706L147.926 89.9455Z" fill="#231F20"/>
<path d="M67.5127 362.472L47.0508 351.078L35.657 371.54L56.1189 382.934L67.5127 362.472Z" fill="#23E0A2"/>
<path d="M58.6783 389.65C58.6243 389.65 58.5433 389.623 58.4893 389.596L38.0408 378.196C37.9598 378.142 37.8787 378.061 37.8517 377.953C37.8247 377.845 37.8247 377.737 37.8787 377.656L49.278 357.208C49.3861 357.018 49.6292 356.937 49.8183 357.045L70.2667 368.445C70.3477 368.499 70.4288 368.58 70.4558 368.688C70.4828 368.796 70.4828 368.904 70.4288 368.985L59.0295 389.433C58.9755 389.568 58.8134 389.65 58.6783 389.65ZM38.7972 377.683L58.5433 388.677L69.5374 368.931L49.7912 357.937L38.7972 377.683Z" fill="#231F20"/>
<rect x="2.17383" y="127.037" width="136" height="80" rx="10" transform="rotate(-12.7952 2.17383 127.037)" fill="#231F20"/>
<circle cx="111.352" cy="162.186" r="8.5" transform="rotate(-3.9468 111.352 162.186)" fill="#CBF5E7" fill-opacity="0.5"/>
<circle cx="122.19" cy="159.433" r="8.5" transform="rotate(-3.9468 122.19 159.433)" fill="#CBF5E7" fill-opacity="0.5"/>
</svg>
